<?xml version="1.0" encoding="utf-8"?>
<!-- Generator: Adobe Illustrator 23.0.0, SVG Export Plug-In . SVG Version: 6.00 Build 0)  -->
<svg version="1.1" id="Layer_1" xmlns="http://www.w3.org/2000/svg" xmlns:xlink="http://www.w3.org/1999/xlink" x="0px" y="0px"
	 viewBox="0 0 440.3 278.6" style="enable-background:new 0 0 440.3 278.6;" xml:space="preserve">
<style type="text/css">
	.st0{fill:#DF9A6A;}
	.st1{fill:#00A1D0;}
	.st2{fill:#053151;}
	.st3{fill:#442418;}
	.st4{fill:none;stroke:#2E1910;stroke-width:0.7017;stroke-linecap:round;stroke-linejoin:round;stroke-miterlimit:10;}
	.st5{fill:#44B4E3;}
	.st6{fill:none;stroke:#00A1D0;stroke-width:0.4678;stroke-linecap:round;stroke-linejoin:round;stroke-miterlimit:10;}
	.st7{fill:#F8B97D;}
	.st8{fill:#FFFFFF;}
	.st9{fill:#133250;}
	.st10{fill:none;stroke:#DF9A6A;stroke-width:0.4678;stroke-linecap:round;stroke-linejoin:round;stroke-miterlimit:10;}
	.st11{fill:#FF813D;}
	.st12{fill:#FF6A19;}
	.st13{fill:#FF9961;}
	.st14{fill:#FFB084;}
	.st15{fill:#1E2E34;}
	.st16{fill:#2F4148;}
	.st17{fill:#233036;}
	.st18{fill:#F06518;}
	.st19{fill:none;stroke:#FF6A19;stroke-width:0.473;stroke-linecap:round;stroke-miterlimit:10;}
</style>
<g>
	<g>
		<path d="M252.7,155.6h-32.6c-2.8,0-5.1-2.3-5.1-5.1v-43.7c0-2.8,2.3-5.1,5.1-5.1h32.6c2.8,0,5.1,2.3,5.1,5.1v43.7
			C257.8,153.3,255.5,155.6,252.7,155.6z"/>
		<g>
			<path d="M211.5,155.3L211.5,155.3c-0.4,0-0.8-0.4-0.8-0.8v-15.9c0-0.4,0.4-0.8,0.8-0.8l0,0c0.4,0,0.8,0.4,0.8,0.8v15.9
				C212.3,155,211.9,155.3,211.5,155.3z"/>
		</g>
		<path d="M215.1,138.8h-7.2v-2.6c0-2,1.6-3.6,3.6-3.6l0,0c2,0,3.6,1.6,3.6,3.6L215.1,138.8L215.1,138.8z"/>
		<g>
			<rect x="233.6" y="169.6" width="5.8" height="30.4"/>
			<path d="M256.4,204.7h-40.1v-2.1c0-1.8,1.5-3.3,3.3-3.3h33.6c1.8,0,3.3,1.5,3.3,3.3L256.4,204.7L256.4,204.7z"/>
			<rect x="231.9" y="160.7" width="9.2" height="23.2"/>
			<ellipse cx="219.5" cy="206.3" rx="2.7" ry="2.8"/>
			<ellipse cx="253.3" cy="206.3" rx="2.7" ry="2.8"/>
			<path d="M207.9,158.9v-0.2c0-1.9,1.6-3.5,3.5-3.5h50c2,0,3.5,1.6,3.5,3.5v0.2c0,1.9-1.6,3.5-3.5,3.5h-50
				C209.5,162.5,207.9,160.9,207.9,158.9z"/>
			<path d="M261.4,156.4L261.4,156.4c-0.4,0-0.8-0.4-0.8-0.8v-16.7c0-0.4,0.4-0.8,0.8-0.8l0,0c0.4,0,0.8,0.4,0.8,0.8v16.7
				C262.2,156,261.8,156.4,261.4,156.4z"/>
		</g>
	</g>
	<g>
		<path class="st0" d="M229.5,111.6l-10.7,24c-1.1,2.6-4.4,3.4-6.6,1.6l0,0c-1.4-1.1-2-3.1-1.3-4.8l1.2-3.3l6.1-14.1"/>
	</g>
	<g>
		<path class="st0" d="M216.9,131.4c-0.2-0.4-0.7-0.6-1.2-0.7c-1.8-0.4-3.7-0.1-5.5,0.3c-1,0.2-2,0.4-3,0.6c-0.1,0-0.1,0-0.2,0.1
			c-0.1,0.1-0.1,0.1-0.1,0.2c-0.2,0.9-0.3,1.8-0.3,2.6c0,0.6,0,1.3,0.4,1.8c0.3,0.5,0.9,0.9,1.4,1.1c0.6,0.2,1.2,0.3,1.8,0.3
			c1.9,0.1,3.8,0.1,5.7-0.1c0.7-0.1,1.5-0.3,1.9-0.8c0.3-0.4,0.3-1,0.3-1.6c-0.1-1.4-0.3-2.9-1.1-4.1"/>
	</g>
	<g>
		<path class="st0" d="M209.4,131c-1-0.4-2.1-0.7-3.2-0.8c-1.1,0-2.3,0.2-3.1,0.9c-0.9,0.7-1.5,1.7-1.7,2.7
			c-0.3,1.1-0.2,2.2,0.1,3.3c0,0.1,0.1,0.3,0.2,0.4c0.1,0.1,0.2,0.1,0.3,0.1c2.9,0.2,5.7,0.2,8.6,0c0.3-1.1,0.2-2.2-0.1-3.2"/>
	</g>
	<g>
		<path class="st1" d="M219.2,108.6c-1.1,3.6-2.3,7.1-3.4,10.7c1.3,0,8.5,2.4,9.7,2.8l4.6-11.3L219.2,108.6z"/>
	</g>
	<g>
		<g>
			<path class="st2" d="M200.8,146.9l14.5-4.8c3.5-1.2,7.4,0.8,8.5,4.3c1.1,3.4-0.7,7.1-4,8.4l-14.3,5.5c-3.7,1.4-7.8-0.4-9.2-4.1
				c-1.4-3.7,0.4-7.8,4.1-9.2C200.6,147,200.7,146.9,200.8,146.9z"/>
		</g>
	</g>
	<g>
		<g>
			<path class="st2" d="M209.3,151.8l14.9,44.9c0.9,2.6-0.5,5.4-3.1,6.3c-2.4,0.8-5-0.4-6.1-2.6l-19.6-43.1c-1.7-3.8,0-8.2,3.7-9.9
				s8.2-0.1,9.9,3.7C209.2,151.3,209.3,151.6,209.3,151.8z"/>
		</g>
	</g>
	<g>
		<path class="st3" d="M214.6,198.6l-7.4,8.1c-0.8,0.9-0.3,2.4,0.9,2.5l4.9,0.6c1,0.1,2-0.1,2.8-0.7l7-5c0.7-0.5,1.1-1.2,1.2-2.1
			l0.3-3.4L214.6,198.6L214.6,198.6z"/>
		<g>
			<line class="st4" x1="214.1" y1="200.2" x2="218" y2="200.8"/>
			<line class="st4" x1="213" y1="201.4" x2="216.8" y2="202.1"/>
			<line class="st4" x1="211.9" y1="202.7" x2="215.7" y2="203.3"/>
		</g>
	</g>
	<g>
		<g>
			<g>
				<path class="st2" d="M228,145l9.3-2.9c3.6-1.1,7.3,0.9,8.5,4.4c1.1,3.4-0.7,7-3.9,8.3l-9,3.6c-3.6,1.4-7.8-0.3-9.2-4
					c-1.5-3.6,0.3-7.8,4-9.2C227.7,145.1,227.9,145.1,228,145z"/>
			</g>
		</g>
	</g>
	<g>
		<g>
			<path class="st2" d="M235.6,152.2l2.6,46.3c0.2,2.7-1.9,5.1-4.7,5.2c-2.5,0.1-4.7-1.7-5.2-4.1l-7.6-45.8
				c-0.7-4.1,2.1-7.9,6.1-8.6c4.1-0.7,7.9,2.1,8.6,6.1C235.5,151.7,235.5,151.9,235.6,152.2z"/>
		</g>
	</g>
	<g>
		<path class="st3" d="M228.4,199.1l-7.4,8.1c-0.8,0.9-0.3,2.4,0.9,2.5l4.9,0.6c1,0.1,2-0.1,2.8-0.7l7-5c0.7-0.5,1.1-1.2,1.2-2.1
			l0.3-3.4L228.4,199.1L228.4,199.1z"/>
		<g>
			<line class="st4" x1="227.8" y1="200.9" x2="231.6" y2="201.5"/>
			<line class="st4" x1="226.6" y1="202.2" x2="230.5" y2="202.8"/>
			<line class="st4" x1="225.5" y1="203.5" x2="229.3" y2="204.1"/>
		</g>
	</g>
	<g>
		<path class="st5" d="M252,138.1c0.2-4.7,0.4-9.7,0.6-14.4c0.1-3.4,0.3-6.8,0.1-10.2c-0.2-3-0.8-6.3-3.1-8.2
			c-1.2-1-2.6-1.5-4.1-1.8c-2.5-0.6-5.1-0.8-7.7-0.6l-10.5,0.8c-1.5,0.2-3.1,0.4-4.5,1s-2.7,1.6-3.4,3c-0.5,1.2-0.5,2.5-0.5,3.8
			c0.2,7.5,0.9,18.9,0.7,26.4L252,138.1z"/>
	</g>
	<path class="st2" d="M239.7,155.2h-29.1l2.3-12.3l7.7-5.1H245v11.2C245,151.9,242.6,155.2,239.7,155.2z"/>
	<g>
		<line class="st6" x1="231.8" y1="113.1" x2="231.8" y2="118.9"/>
		<path class="st1" d="M233.5,113.9c0,0.2-0.2,0.4-0.4,0.4s-0.4-0.2-0.4-0.4s0.2-0.4,0.4-0.4S233.5,113.7,233.5,113.9z"/>
		<path class="st1" d="M233.5,115.9c0,0.2-0.2,0.4-0.4,0.4s-0.4-0.2-0.4-0.4s0.2-0.4,0.4-0.4S233.5,115.7,233.5,115.9z"/>
		<path class="st1" d="M233.5,117.9c0,0.2-0.2,0.4-0.4,0.4s-0.4-0.2-0.4-0.4c0-0.2,0.2-0.4,0.4-0.4S233.5,117.7,233.5,117.9z"/>
	</g>
	<g>
		<path class="st7" d="M226.8,99.9c0.4,2.1,0.9,5.5,1.4,7.5c0.1,0.4,3.7,5.9,3.7,5.9l6.5-6.6c-0.4-3.1-0.9-9.4-1-12.6"/>
	</g>
	<g>
		<path class="st0" d="M236.9,94.3l-10.2,5.6c0.2,1.1,0.4,2.5,0.7,3.9C231.5,101.8,235,98.4,236.9,94.3z"/>
	</g>
	<g>
		<path class="st1" d="M237.8,101.6l-2,7.8l3.3,2.8l1.3-9.8c0,0-1.3-0.8-1.8-0.9"/>
	</g>
	<g>
		<polygon class="st1" points="227.3,103.1 225.2,103.9 226.4,112 229.2,109.2 		"/>
	</g>
	<path class="st7" d="M225.2,73.2c-3.9,0-7,3.1-7,7v11.4c0,0.9,0.2,1.7,0.6,2.5l3.3,6.5c0.4,0.8,1.1,1.2,2,1.2h3.4
		c0.5,0,0.9-0.2,1.3-0.4l8.2-5.9c0.8-0.6,1.3-1.5,1.4-2.5l0.8-12.3c0.3-4-2.9-7.5-7-7.5L225.2,73.2L225.2,73.2z"/>
	<path class="st8" d="M223.8,95c0.4,1.3,1.8,2.2,3.1,1.8c1.4-0.3,2.2-1.7,1.9-3.1L223.8,95z"/>
	<g>
		<path class="st2" d="M226,68.3c0.3,0.5,0.6,1.1,0.9,1.6c-4.4-1.7-9.4-2-14-0.7c0.6,1.7,1.1,3.3,2,4.9c0.8,1.5,2,3,3.5,3.9
			c2.7,1.6,6.1,1.4,9.2,1.1c2.4-0.2,4.8-0.5,7.2-0.7c0.2,0,0.4,0,0.5-0.1c0.1-0.1,0.2-0.2,0.3-0.4c0.3-0.6,1.1-2.3,1.5-3.4
			c0.3-0.7,0.1-1.6-0.4-2.1C233.9,69.7,229.9,68.7,226,68.3z"/>
	</g>
	<g>
		<path class="st2" d="M236.6,74.2c1,0.1,2,0.3,3,0.7c0.1,0.1,0.3,0.1,0.4,0.3c0.1,0.2,0.1,0.4,0.1,0.6c-0.3,2.8-0.7,5.7-1,8.5
			c-0.8-0.1-1.6-0.1-2.4-0.1c0.1-1.1,0.1-2.1,0.1-3.2c0-0.3,0-0.6-0.2-0.7c-0.1-0.1-0.3-0.1-0.5-0.2c-0.6-0.1-1.3-0.1-1.9-0.2
			c0.5-1.3,1-2.6,1.5-3.9"/>
	</g>
	<circle class="st7" cx="238.1" cy="86.1" r="2.5"/>
	<g>
		<g>
			<path class="st0" d="M237.4,86.6c0.1,0,0.2-0.2,0.2-0.2c0.1-0.1,0.2-0.2,0.3-0.3c0.2-0.2,0.3-0.3,0.5-0.4
				c0.2-0.1,0.4-0.2,0.5-0.2c0.1,0,0.2,0,0.2,0c0.1,0,0.2,0,0.3,0c0.1,0,0.1-0.2,0-0.2c-0.1-0.2-0.4-0.1-0.6-0.1
				c-0.2,0-0.4,0.1-0.6,0.2c-0.2,0.1-0.4,0.3-0.6,0.5c-0.1,0.1-0.2,0.2-0.2,0.3C237.3,86.4,237.2,86.5,237.4,86.6
				C237.3,86.6,237.3,86.6,237.4,86.6L237.4,86.6z"/>
		</g>
	</g>
	<g>
		<g>
			<path class="st9" d="M218.1,84c0.3,0.2,0.8,0,1.1-0.1c0.4-0.1,0.9-0.1,1.3-0.2c0.4,0,0.9-0.1,1.3-0.1c0.4,0,0.9,0.1,1.3,0
				c0.4-0.1,0.4-0.7,0-0.8c-0.5-0.1-0.9-0.1-1.4,0c-0.4,0-0.9,0.1-1.3,0.2s-0.9,0.2-1.3,0.3c-0.3,0.1-0.9,0.2-1.1,0.5
				C218,83.9,218,84,218.1,84L218.1,84z"/>
		</g>
	</g>
	<g>
		<g>
			<path class="st9" d="M231.3,83.8c-0.2-0.3-0.8-0.4-1.1-0.5c-0.4-0.1-0.8-0.2-1.3-0.3s-0.9-0.1-1.3-0.2c-0.5,0-1-0.1-1.4,0
				c-0.4,0.1-0.4,0.7,0,0.8c0.4,0.1,0.9,0,1.3,0c0.4,0,0.9,0,1.3,0.1s0.9,0.1,1.3,0.2c0.3,0.1,0.8,0.3,1.1,0.1
				C231.3,84,231.4,83.9,231.3,83.8L231.3,83.8z"/>
		</g>
	</g>
	<circle class="st2" cx="220.9" cy="86" r="0.6"/>
	<circle class="st2" cx="228.5" cy="86" r="0.6"/>
	<polyline class="st10" points="224.2,83.9 223,92 225.1,92 	"/>
	<path class="st11" d="M320.6,143.6H112.4c-1.5,0-2.8-1.2-2.8-2.8l0,0c0-1.5,1.2-2.8,2.8-2.8h208.2c1.5,0,2.8,1.2,2.8,2.8l0,0
		C323.4,142.4,322.1,143.6,320.6,143.6z"/>
	<path class="st11" d="M320.6,143.6H263c-1.5,0-2.8-1.2-2.8-2.8l0,0c0-1.5,1.2-2.8,2.8-2.8h57.6c1.5,0,2.8,1.2,2.8,2.8l0,0
		C323.4,142.4,322.1,143.6,320.6,143.6z"/>
	<rect x="115.5" y="143.4" class="st12" width="196.4" height="7.7"/>
	<rect x="265.7" y="143.4" class="st12" width="50.6" height="7.7"/>
	<rect x="119.4" y="151.1" class="st12" width="50.1" height="58.7"/>
	<rect x="154.7" y="151.1" class="st11" width="40.6" height="58.7"/>
	<polygon class="st13" points="195.2,151.1 154.7,151.1 195.2,172.5 	"/>
	<rect x="236.1" y="151.1" class="st11" width="50.1" height="58.7"/>
	<rect x="271.3" y="151.1" class="st12" width="40.6" height="58.7"/>
	<polygon class="st14" points="311.9,151.1 271.4,151.1 311.9,172.5 	"/>
	<g>
		<path class="st7" d="M251.1,107.2l6.5,25.5c0.7,2.7-1.4,5.4-4.2,5.4l0,0c-1.8,0-3.4-1.2-4-2.9l-1.1-3.4l-4-14.9"/>
	</g>
	<path class="st0" d="M241.4,131.2l12.1,0.1c1.9,0,3.4,1.6,3.3,3.5l0,0c-0.1,1.8-1.6,3.2-3.4,3.2l-12.3-0.1L241.4,131.2z"/>
	<path class="st7" d="M242,135l12.1,0.1c0.9,0,1.8,0.4,2.4,1c0.2-0.4,0.3-0.8,0.3-1.3l0,0c0.1-1.9-1.4-3.5-3.3-3.5l-12.1-0.1
		l-0.3,6.7l0.7,0L242,135z"/>
	<path class="st0" d="M241.7,138h-8v-3.8c0-2.1,1.7-3.8,3.8-3.8h2.9c2.1,0,3.8,1.7,3.8,3.8v1.3C244.1,136.9,243,138,241.7,138z"/>
	<path class="st7" d="M240.3,130.5h-2.9c-2.1,0-3.8,1.7-3.8,3.8v1.4c0.7-1.1,1.9-1.8,3.2-1.8h2.9c1.9,0,4.1,0,4.3,1.2
		c0,0,0,1.2,0,0.6v-1.3C244.1,132.1,242.4,130.5,240.3,130.5z"/>
	<g>
		<path class="st5" d="M255,119.6l-9.6,2.9l-3.2-11.2c-0.6-2.3,0.4-4.7,2.5-5.8l0,0c2.8-1.5,6.3,0,7.1,3.1L255,119.6z"/>
	</g>
	<g>
		<g>
			<path class="st15" d="M164.5,101.9h44.5c0.4,0,0.7,0.3,0.7,0.7l4.8,33.4h-45.8l-4.8-33.4C163.8,102.2,164.1,101.9,164.5,101.9z"
				/>
			<path class="st16" d="M163,101.9h44.5c0.4,0,0.7,0.3,0.7,0.7L213,136h-45.8l-4.8-33.4C162.4,102.2,162.7,101.9,163,101.9z"/>
			<circle class="st17" cx="187.7" cy="119.7" r="2.5"/>
			<path class="st15" d="M178.5,138.1h57.6c1.1,0,2-0.9,2-2V135h-61.5v1.1C176.6,137.2,177.5,138.1,178.5,138.1z"/>
			<path class="st17" d="M169.1,138.1h43.9V135h-45.9v1.1C167.2,137.2,168.1,138.1,169.1,138.1z"/>
		</g>
	</g>
	<g>
		<g>
			
				<rect x="302.1" y="77.4" transform="matrix(0.9995 -3.199961e-02 3.199961e-02 0.9995 -2.6094 10.1631)" class="st12" width="28.3" height="18.4"/>
			<polygon class="st18" points="301.8,77.9 322.6,95.6 330.6,95.3 330,77 			"/>
			<polygon class="st8" points="301.8,77.9 329.7,77 316.1,87.1 			"/>
		</g>
		<line class="st19" x1="298" y1="82.8" x2="287.6" y2="83.1"/>
		<line class="st19" x1="294.8" y1="86" x2="284.3" y2="86.3"/>
		<line class="st19" x1="298.2" y1="88.9" x2="287.8" y2="89.3"/>
	</g>
	<g>
		<g>
			
				<rect x="143.4" y="70.1" transform="matrix(0.9995 -3.199961e-02 3.199961e-02 0.9995 -2.4576 5.0809)" class="st12" width="28.3" height="18.4"/>
			<polygon class="st18" points="143.1,70.6 163.9,88.3 171.9,88 171.3,69.7 			"/>
			<polygon class="st8" points="143.1,70.6 171,69.7 157.4,79.8 			"/>
		</g>
		<line class="st19" x1="139.3" y1="75.5" x2="128.9" y2="75.9"/>
		<line class="st19" x1="136.1" y1="78.7" x2="125.6" y2="79"/>
		<line class="st19" x1="139.5" y1="81.7" x2="129.1" y2="82"/>
	</g>
</g>
</svg>
