<?xml version="1.0" encoding="utf-8"?>
<!-- Generator: Adobe Illustrator 23.0.0, SVG Export Plug-In . SVG Version: 6.00 Build 0)  -->
<svg version="1.1" id="Layer_1" xmlns="http://www.w3.org/2000/svg" xmlns:xlink="http://www.w3.org/1999/xlink" x="0px" y="0px"
	 viewBox="0 0 440.3 315.8" style="enable-background:new 0 0 440.3 315.8;" xml:space="preserve">
<style type="text/css">
	.st0{fill:#FFFFFF;stroke:#FF6A19;stroke-width:0.4353;stroke-miterlimit:10;}
	.st1{fill:#FF6A19;}
	.st2{fill:#FFFFFF;}
	.st3{fill:#EBEBEC;}
	.st4{fill:#D85F1F;}
	.st5{fill:#D1D2D3;}
	.st6{fill:#E8C379;}
	.st7{fill:#570A39;}
	.st8{fill:#603E6B;}
	.st9{fill:#1B427E;}
	.st10{fill:#FFF7CF;}
	.st11{fill:#41889A;}
	.st12{fill:#FFFF6E;}
	.st13{fill:#723C19;}
	.st14{fill:#592C13;}
	.st15{fill:#7A442A;}
	.st16{fill:#49220F;}
	.st17{fill:#B9BCFC;}
	.st18{fill:#29ABE2;}
	.st19{fill:#3D8AAB;}
	.st20{fill:#CD3179;}
	.st21{fill:#9E005D;}
	.st22{fill:#60213E;}
	.st23{fill:#A6CB73;}
	.st24{fill:#FFFF00;}
	.st25{fill:#FD5E5A;}
	.st26{fill:#FC7575;}
	.st27{fill:#552E5D;}
	.st28{fill:#643E6D;}
	.st29{fill:#ED1E79;}
	.st30{fill:#095270;}
	.st31{fill:#ACFCDD;}
	.st32{fill:#38534A;}
	.st33{fill:#FF9739;}
	.st34{fill:#4F6C61;}
	.st35{fill:#8ADDBD;}
	.st36{fill:#FFFAE3;}
	.st37{fill:#F478AF;}
	.st38{fill:#F98F8F;}
	.st39{fill:#363F2A;}
	.st40{fill:#E79258;}
	.st41{fill:#0E1B29;}
	.st42{fill:#1B3753;}
	.st43{fill:#40232F;}
	.st44{fill:#9C5222;}
	.st45{fill:#753E1A;}
	.st46{fill:#673770;}
	.st47{fill:none;stroke:#FF6A19;stroke-linecap:round;stroke-miterlimit:10;}
	.st48{fill:none;stroke:#FF6A19;stroke-width:0.473;stroke-linecap:round;stroke-miterlimit:10;}
</style>
<g>
	<g>
		<g>
			<g>
				<path class="st0" d="M167.7,46.6H93.5c-10,0-18.2,8.1-18.2,18.2v155.9c0,10,8.1,18.2,18.2,18.2h74.2c10,0,18.2-8.1,18.2-18.2
					V64.8C185.8,54.7,177.7,46.6,167.7,46.6z"/>
				<path class="st1" d="M93.5,233.9c-7.3,0-13.3-5.8-13.3-13V67.8c0-7.2,5.9-13,13.3-13h74.2c7.3,0,13.3,5.8,13.3,13v153.1
					c0,7.2-5.9,13-13.3,13H93.5z"/>
				<path class="st2" d="M165.4,53.6H95c-1.6,0-2.9-1.3-2.9-2.9l0,0c0-1.6,1.3-2.9,2.9-2.9h70.4c1.6,0,2.9,1.3,2.9,2.9l0,0
					C168.2,52.3,167,53.6,165.4,53.6z"/>
				<path class="st1" d="M166.2,50.7c0,1.3-1.1,2.3-2.3,2.3s-2.3-1-2.3-2.3c0-1.3,1.1-2.3,2.3-2.3C165.2,48.4,166.2,49.5,166.2,50.7
					z"/>
				<path class="st1" d="M153.9,51.7h-41.3c-0.6,0-1-0.5-1-1l0,0c0-0.5,0.4-1,1-1h41.3c0.6,0,1,0.5,1,1l0,0
					C154.9,51.3,154.5,51.7,153.9,51.7z"/>
				<rect x="88.1" y="71.2" class="st2" width="85.1" height="125"/>
				<path class="st2" d="M124.1,203.3c0,0.8-0.7,1.5-1.5,1.5c-0.8,0-1.5-0.7-1.5-1.5s0.7-1.5,1.5-1.5S124.1,202.4,124.1,203.3z"/>
				<path class="st2" d="M129.7,203.3c0,0.8-0.7,1.5-1.5,1.5c-0.8,0-1.5-0.7-1.5-1.5s0.7-1.5,1.5-1.5S129.7,202.4,129.7,203.3z"/>
				<path class="st2" d="M135.3,203.3c0,0.8-0.7,1.5-1.5,1.5c-0.8,0-1.5-0.7-1.5-1.5s0.7-1.5,1.5-1.5S135.3,202.4,135.3,203.3z"/>
				<g>
					<g>
						<path class="st2" d="M164.3,66.9c0,0.6,0.4,1,1,1s1-0.4,1-1s-0.4-1-1-1S164.3,66.4,164.3,66.9z"/>
					</g>
					<g>
						<circle class="st2" cx="165.4" cy="66.9" r="0.5"/>
					</g>
					<g>
						<path class="st2" d="M160,66.9c0,0.6,0.4,1,1,1s1-0.4,1-1s-0.4-1-1-1S160,66.4,160,66.9z"/>
					</g>
					<g>
						<path class="st2" d="M160.4,66.9c0,0.3,0.2,0.5,0.5,0.5s0.5-0.2,0.5-0.5s-0.2-0.5-0.5-0.5S160.4,66.6,160.4,66.9z"/>
					</g>
					<path class="st2" d="M160.4,64.3l-1.9-3.2c-0.1-0.2-0.1-0.3,0-0.5c0.1-0.2,0.3-0.2,0.5-0.2h7.4c0.1,0,0.2,0.1,0.2,0.2
						c0,0.1-0.1,0.2-0.2,0.2H159c-0.1,0-0.1,0-0.2,0.1c0,0-0.1,0.1,0,0.2l1.9,3.2c0,0.1,0.1,0.1,0.2,0.1h4.9l1.2-4.3
						c0.1-0.5,0.6-0.9,1.1-0.9h1.4c0.1,0,0.2,0.1,0.2,0.2s-0.1,0.2-0.2,0.2h-1.4c-0.4,0-0.7,0.2-0.8,0.6l-1.6,5.7h-5.3
						c-0.1,0-0.2-0.1-0.2-0.2c0-0.1,0.1-0.2,0.2-0.2h5l0.2-0.7h-4.8C160.6,64.5,160.5,64.4,160.4,64.3z"/>
				</g>
				<g>
					<path class="st1" d="M144.6,61.8h-0.5c0.4-1.7,2.3-1.7,2.9-0.7c0.4,0.6,0.3,1.3-0.5,1.8c0.9,0.4,1.3,1.4,0.7,2.3
						c-0.7,1.2-2.9,1.3-3.3-0.7h0.5c0.6,2.1,3.3,0.7,2.3-0.7c-0.3-0.5-0.8-0.5-1.4-0.6v-0.5c0.6,0,1.2-0.3,1.2-0.9
						c0-0.8-1-1.1-1.6-0.7C144.9,61.2,144.7,61.5,144.6,61.8z"/>
				</g>
				<rect x="109.3" y="208.4" class="st2" width="63.8" height="2.9"/>
				<rect x="109.3" y="214.8" class="st2" width="63.8" height="2.9"/>
				<g>
					<g>
						<path class="st1" d="M105.2,131.5c0-0.9-0.6-1.3-1.8-1.8l-0.5-0.2c-1.4-0.6-2.4-1.4-2.4-2.8c0-1.6,1.4-2.6,3.2-2.6
							c1,0,1.7,0.3,2.3,0.8l-0.1,1.8H105l-0.4-2.1l0.9,0.5v0.7c-0.7-0.7-1.2-0.9-2-0.9c-1.1,0-1.9,0.6-1.9,1.6
							c0,0.9,0.6,1.4,1.6,1.8l0.5,0.2c1.9,0.7,2.6,1.5,2.6,2.9c0,1.7-1.4,2.7-3.3,2.7c-1.1,0-2.1-0.3-2.7-0.8l0.1-2h0.8l0.4,2.2
							l-0.9-0.4v-0.7c0.9,0.6,1.4,0.9,2.3,0.9C104.3,133.2,105.2,132.6,105.2,131.5z"/>
						<path class="st1" d="M109.4,131.2c0,1.3,0.4,1.7,1.1,1.7c0.7,0,1.5-0.4,2.2-1.1h0.3v0.7h-0.7l0.5-0.2
							c-0.8,1.1-1.8,1.5-2.7,1.5c-1.1,0-1.8-0.7-1.8-2.5l0-3.7l0.3,0.3l-1.3-0.3v-0.5l2-0.2l0.1,0.1l-0.1,2L109.4,131.2L109.4,131.2
							z M112.7,133.8l-0.2-1.6l0-4.6l0.3,0.3l-1.3-0.3v-0.5l2-0.2l0.1,0.1l0,2v4.2l-0.3-0.3l1.3,0.3v0.5L112.7,133.8z"/>
						<path class="st1" d="M116.9,130.3c0,1.8,0.9,2.8,2.3,2.8c0.8,0,1.5-0.4,2-1.1l0.3,0.2c-0.4,1.2-1.3,1.8-2.6,1.8
							c-1.9,0-3.2-1.4-3.2-3.5c0-2.2,1.6-3.6,3.2-3.6c1.3,0,2.3,0.8,2.5,1.8c-0.1,0.4-0.3,0.5-0.6,0.5c-0.5,0-0.6-0.3-0.8-0.6
							l-0.3-1.2l0.6,0.5c-0.5-0.3-1-0.3-1.4-0.3C117.8,127.5,116.9,128.4,116.9,130.3z"/>
						<path class="st1" d="M123.8,130.3c0,1.8,0.9,2.8,2.3,2.8c0.8,0,1.5-0.4,2-1.1l0.3,0.2c-0.4,1.2-1.3,1.8-2.6,1.8
							c-1.9,0-3.1-1.4-3.1-3.5c0-2.2,1.6-3.6,3.2-3.6c1.3,0,2.3,0.8,2.5,1.8c-0.1,0.4-0.3,0.5-0.6,0.5c-0.5,0-0.7-0.3-0.8-0.6
							l-0.4-1.2l0.7,0.5c-0.5-0.3-1-0.3-1.4-0.3C124.7,127.5,123.8,128.4,123.8,130.3z"/>
						<path class="st1" d="M135.4,129.5c0,0.3,0,0.6-0.1,0.8h-5.2v-0.6h3.4c0.7,0,0.8-0.3,0.8-0.7c0-0.8-0.7-1.5-1.6-1.5
							c-0.9,0-1.9,0.8-1.9,2.8c0,1.8,0.9,2.8,2.3,2.8c0.9,0,1.5-0.4,2-1l0.3,0.3c-0.5,1-1.4,1.6-2.7,1.6c-1.9,0-3.1-1.3-3.1-3.5
							c0-2.2,1.5-3.6,3.2-3.6C134.2,126.8,135.4,127.8,135.4,129.5z"/>
						<path class="st1" d="M136.8,133.4l-0.1-1.5h0.8l0.4,1.7l-0.7-0.3v-0.5c0.5,0.4,1,0.6,1.7,0.6c1.1,0,1.6-0.4,1.6-1.1
							c0-0.6-0.4-0.9-1.3-1.2l-0.6-0.2c-1-0.4-1.7-0.9-1.7-1.9c0-1,0.9-2,2.4-2c0.8,0,1.4,0.2,2,0.6l-0.1,1.4h-0.7l-0.3-1.4l0.5,0.2
							v0.4c-0.4-0.3-0.9-0.5-1.4-0.5c-0.9,0-1.3,0.4-1.3,1c0,0.6,0.4,0.9,1.3,1.2l0.4,0.2c1.4,0.5,1.9,1.2,1.9,2.1c0,1-0.9,2-2.7,2
							C138.1,133.9,137.5,133.7,136.8,133.4z"/>
						<path class="st1" d="M142.9,133.4l-0.1-1.5h0.8l0.4,1.7l-0.7-0.3v-0.5c0.5,0.4,1,0.6,1.7,0.6c1.1,0,1.6-0.4,1.6-1.1
							c0-0.6-0.4-0.9-1.3-1.2l-0.6-0.2c-1-0.4-1.7-0.9-1.7-1.9c0-1,0.9-2,2.4-2c0.8,0,1.4,0.2,2,0.6l-0.1,1.4h-0.7l-0.3-1.4l0.5,0.2
							v0.4c-0.4-0.3-0.9-0.5-1.4-0.5c-0.9,0-1.3,0.4-1.3,1c0,0.6,0.4,0.9,1.3,1.2l0.4,0.2c1.4,0.5,1.9,1.2,1.9,2.1c0,1-0.9,2-2.7,2
							C144.2,133.9,143.6,133.7,142.9,133.4z"/>
						<path class="st1" d="M150,127.8h-1.2v-0.6l1.6-0.2l-0.4,0.2c0.1-1.6,0.4-2.5,1-3.2c0.6-0.7,1.3-0.9,2-0.9
							c0.7,0,1.2,0.2,1.3,0.8c0,0.3-0.3,0.6-0.8,0.6c-0.4,0-0.7-0.1-1-0.4l-0.7-0.5l1.2-0.3l0.3,0.4c-0.2-0.1-0.4-0.2-0.6-0.2
							c-0.4,0-0.9,0.3-1.2,0.8c-0.3,0.6-0.5,1.5-0.4,3.2v3.2c0,1,0,2,0,3H150c0-1,0-2,0-3L150,127.8L150,127.8z M152.4,133.2v0.5
							h-3.6v-0.5l1.6-0.3h0.3L152.4,133.2z M153.1,127v0.7h-2.5V127H153.1z"/>
						<path class="st1" d="M155.8,131.2c0,1.3,0.4,1.7,1.1,1.7c0.7,0,1.5-0.4,2.2-1.1h0.3v0.7h-0.7l0.5-0.2
							c-0.8,1.1-1.8,1.5-2.7,1.5c-1.1,0-1.8-0.7-1.8-2.5l0-3.7l0.3,0.3l-1.3-0.3v-0.5l2-0.2l0.1,0.1l-0.1,2L155.8,131.2L155.8,131.2
							z M159.1,133.8l-0.2-1.6l0-4.6l0.3,0.3l-1.3-0.3v-0.5l2-0.2l0.1,0.1l0,2v4.2l-0.3-0.3l1.3,0.3v0.5L159.1,133.8z"/>
						<path class="st1" d="M164,123.3l0.2,0.1l-0.1,2v5.4c0,1,0,2,0,3H163c0-1,0-2,0-3v-6.2l-1.2-0.1v-0.5L164,123.3z M165.4,133.2
							v0.5h-3.5v-0.5l1.6-0.3h0.3L165.4,133.2z"/>
					</g>
				</g>
			</g>
			<g>
				<path class="st1" d="M177.4,70.4V68c0-6.7-5.6-12.2-12.4-12.2H95.3c-6.9,0-12.5,5.5-12.5,12.2v2.4H177.4z"/>
				<path class="st3" d="M165,55.8H156c5.6,0,10.1,5.5,10.1,12.2v2.4h11.3V68C177.4,61.3,171.9,55.8,165,55.8z"/>
				<path class="st1" d="M156,55.8h-11.6c1.4,0,2.5,5.5,2.5,12.2v2.4h19.2V68C166.2,61.3,161.6,55.8,156,55.8z"/>
				<path class="st3" d="M113.6,55.8H99.4c-5.6,0-10.1,5.5-10.1,12.2v2.4h19.2V68C108.5,61.3,110.8,55.8,113.6,55.8z"/>
				<path class="st1" d="M130.3,55.8h-16.7c-2.8,0-5.1,5.5-5.1,12.2v2.4h19.3V68C127.8,61.3,128.9,55.8,130.3,55.8z"/>
				<path class="st3" d="M144.4,55.8h-14.1c-1.4,0-2.5,5.5-2.5,12.2v2.4H147V68C147,61.3,145.8,55.8,144.4,55.8z"/>
				<path class="st4" d="M82.9,79.5c3.8-1.3,6.4-4.9,6.4-9.1h-6.4V79.5z"/>
				<path class="st5" d="M98.9,80c5.3,0,9.6-4.3,9.6-9.6H89.3C89.3,75.7,93.6,80,98.9,80z"/>
				<path class="st4" d="M118.1,80c5.3,0,9.6-4.3,9.6-9.6h-19.2C108.5,75.7,112.8,80,118.1,80z"/>
				<path class="st5" d="M137.4,80c5.3,0,9.6-4.3,9.6-9.6h-19.2C127.7,75.7,132,80,137.4,80z"/>
				<path class="st4" d="M156.6,80c5.3,0,9.6-4.3,9.6-9.6H147C147,75.7,151.3,80,156.6,80z"/>
				<path class="st5" d="M177.4,79.9v-9.5h-11.3c0,5.3,4.3,9.6,9.6,9.6C176.3,80,176.9,80,177.4,79.9z"/>
			</g>
		</g>
		<g>
			<g>
				<g>
					<path class="st6" d="M261.6,179.2l0.7-0.1c-0.3-1.2-0.6-2.3-0.9-3.5c-0.2,0-0.5,0-0.7,0C261,176.8,261.3,178,261.6,179.2z"/>
					<path class="st6" d="M256.3,165.6c-4.2-2-7.6,2.9-9.3,5.3c-1.1,1.5-2.1,3.1-3,4.7l0.6,0.3c0.9-1.6,1.9-3.2,3-4.7
						c1.6-2.2,4.8-6.8,8.4-5c1.4,0.6,2.1,2.3,2.7,3.7c0.8,1.8,1.4,3.8,2,5.7c0.2,0,0.5,0,0.7,0c-0.6-2-1.2-4-2-5.9
						C258.7,168.1,257.9,166.3,256.3,165.6z"/>
				</g>
				<polygon class="st7" points="284.9,205.8 279,257 270.5,255.6 282.7,205.8 				"/>
				<g>
					<g>
						<polygon class="st8" points="271.8,208.5 271.1,208.4 272.8,192.5 256.3,194.1 256.2,193.5 273.6,191.7 						"/>
					</g>
					<polygon class="st9" points="255.7,190.4 229.8,217.4 251.8,235.6 272,203.3 					"/>
					<g>
						<path class="st10" d="M280,209.5c-0.3-0.4-8-11.1-6.4-15.4c0.2-0.5,0.5-0.8,1-0.9c3.6-0.9,15.3,9.8,16.6,11l-0.5,0.5
							c-3.5-3.3-13.2-11.5-16-10.9c-0.3,0.1-0.4,0.2-0.5,0.5c-1.5,3.9,6.3,14.6,6.3,14.8L280,209.5z"/>
					</g>
					<g>
						<path class="st6" d="M281.1,207.1c-0.8-3.2-1.6-6.4-2.9-9.3c-0.6-1.4-1.4-3-2.7-3.7c-3.6-1.7-6.9,2.8-8.4,5
							c-1,1.5-2.1,3.1-3,4.7l-0.6-0.3c0.9-1.6,2-3.2,3-4.7c1.6-2.4,5.1-7.2,9.3-5.3c1.6,0.8,2.4,2.6,3,4c1.4,3,2.1,6.2,2.9,9.4
							L281.1,207.1z"/>
					</g>
					<polygon class="st11" points="262.9,201.3 237,244 270.5,255.6 282.7,205.8 					"/>
					<polygon class="st12" points="273.9,206.3 281.8,236.9 307,229.7 294.5,200.2 					"/>
					<g>
						<path class="st2" d="M276.2,209.9c0.8-0.3,1.3-1.1,1-1.9c-0.3-0.8-1.1-1.3-1.9-1c-0.4,0.1-0.8,0.4-0.9,0.8l0.5,1.9
							C275.2,209.9,275.7,210,276.2,209.9z"/>
						<path class="st2" d="M281.1,208.3c0.8-0.3,1.3-1.1,1-1.9c-0.3-0.8-1.1-1.3-1.9-1c-0.8,0.3-1.3,1.1-1,1.9
							C279.4,208.1,280.3,208.6,281.1,208.3z"/>
						<path class="st2" d="M286,206.8c0.8-0.3,1.3-1.1,1-1.9c-0.3-0.8-1.1-1.3-1.9-1c-0.8,0.3-1.3,1.1-1,1.9
							C284.4,206.6,285.2,207,286,206.8z"/>
						<path class="st2" d="M290.9,205.2c0.8-0.3,1.3-1.1,1-1.9c-0.3-0.8-1.1-1.3-1.9-1c-0.8,0.3-1.3,1.1-1,1.9
							C289.3,205,290.1,205.5,290.9,205.2z"/>
						<path class="st2" d="M293.9,202.6c0.3,0.8,1.1,1.3,1.9,1c0,0,0.1,0,0.1,0l-1.2-2.8C294.1,201.1,293.7,201.9,293.9,202.6z"/>
						<path class="st2" d="M277.4,213.7c0.8-0.3,1.3-1.1,1-1.9c-0.3-0.8-1.1-1.3-1.9-1c-0.6,0.2-1,0.7-1.1,1.2l0.3,1.2
							C276.1,213.6,276.7,213.9,277.4,213.7z"/>
						<path class="st2" d="M281.4,209.2c-0.8,0.3-1.3,1.1-1,1.9c0.3,0.8,1.1,1.3,1.9,1c0.8-0.3,1.3-1.1,1-1.9
							C283,209.4,282.2,208.9,281.4,209.2z"/>
						<path class="st2" d="M286.3,207.6c-0.8,0.3-1.3,1.1-1,1.9c0.3,0.8,1.1,1.3,1.9,1c0.8-0.3,1.3-1.1,1-1.9
							C288,207.8,287.1,207.4,286.3,207.6z"/>
						<path class="st2" d="M291.2,206.1c-0.8,0.3-1.3,1.1-1,1.9c0.3,0.8,1.1,1.3,1.9,1c0.8-0.3,1.3-1.1,1-1.9
							C292.9,206.3,292,205.8,291.2,206.1z"/>
						<path class="st2" d="M295.1,206.4c0.3,0.8,1.1,1.3,1.9,1c0.2-0.1,0.3-0.1,0.4-0.2l-1.2-2.8c-0.1,0-0.1,0-0.2,0
							C295.3,204.8,294.9,205.6,295.1,206.4z"/>
						<path class="st2" d="M278.6,217.5c0.8-0.3,1.3-1.1,1-1.9c-0.3-0.8-1.1-1.3-1.9-1c-0.8,0.3-1.3,1.1-1,1.9
							C276.9,217.3,277.8,217.7,278.6,217.5z"/>
						<path class="st2" d="M284.5,214c-0.3-0.8-1.1-1.3-1.9-1c-0.8,0.3-1.3,1.1-1,1.9c0.3,0.8,1.1,1.3,1.9,1
							C284.3,215.6,284.7,214.8,284.5,214z"/>
						<path class="st2" d="M288.4,214.4c0.8-0.3,1.3-1.1,1-1.9c-0.3-0.8-1.1-1.3-1.9-1c-0.8,0.3-1.3,1.1-1,1.9
							C286.7,214.2,287.6,214.6,288.4,214.4z"/>
						<path class="st2" d="M292.4,209.9c-0.8,0.3-1.3,1.1-1,1.9c0.3,0.8,1.1,1.3,1.9,1c0.8-0.3,1.3-1.1,1-1.9
							C294.1,210.1,293.2,209.6,292.4,209.9z"/>
						<path class="st2" d="M297.3,208.3c-0.8,0.3-1.3,1.1-1,1.9c0.3,0.8,1.1,1.3,1.9,1c0.3-0.1,0.5-0.3,0.7-0.5l-1.1-2.5
							C297.7,208.3,297.5,208.3,297.3,208.3z"/>
						<path class="st2" d="M279.8,221.3c0.8-0.3,1.3-1.1,1-1.9c-0.3-0.8-1.1-1.3-1.9-1c-0.8,0.3-1.3,1.1-1,1.9
							C278.1,221.1,279,221.5,279.8,221.3z"/>
						<path class="st2" d="M284.7,219.7c0.8-0.3,1.3-1.1,1-1.9c-0.3-0.8-1.1-1.3-1.9-1c-0.8,0.3-1.3,1.1-1,1.9
							C283,219.5,283.9,220,284.7,219.7z"/>
						<path class="st2" d="M289.6,218.2c0.8-0.3,1.3-1.1,1-1.9c-0.3-0.8-1.1-1.3-1.9-1c-0.8,0.3-1.3,1.1-1,1.9
							C287.9,218,288.8,218.4,289.6,218.2z"/>
						<path class="st2" d="M293.6,213.7c-0.8,0.3-1.3,1.1-1,1.9c0.3,0.8,1.1,1.3,1.9,1c0.8-0.3,1.3-1.1,1-1.9
							C295.3,213.9,294.4,213.4,293.6,213.7z"/>
						<path class="st2" d="M298.5,212.1c-0.8,0.3-1.3,1.1-1,1.9c0.3,0.8,1.1,1.3,1.9,1c0.5-0.1,0.8-0.5,1-0.9l-0.8-2
							C299.3,212,298.9,212,298.5,212.1z"/>
						<path class="st2" d="M281,225.1c0.8-0.3,1.3-1.1,1-1.9c-0.3-0.8-1.1-1.3-1.9-1c-0.8,0.3-1.3,1.1-1,1.9
							C279.3,224.9,280.2,225.3,281,225.1z"/>
						<path class="st2" d="M285.9,223.5c0.8-0.3,1.3-1.1,1-1.9c-0.3-0.8-1.1-1.3-1.9-1c-0.8,0.3-1.3,1.1-1,1.9
							C284.2,223.3,285.1,223.8,285.9,223.5z"/>
						<path class="st2" d="M290.8,222c0.8-0.3,1.3-1.1,1-1.9c-0.3-0.8-1.1-1.3-1.9-1c-0.8,0.3-1.3,1.1-1,1.9
							C289.1,221.8,290,222.2,290.8,222z"/>
						<path class="st2" d="M294.8,217.5c-0.8,0.3-1.3,1.1-1,1.9c0.3,0.8,1.1,1.3,1.9,1c0.8-0.3,1.3-1.1,1-1.9
							C296.5,217.7,295.6,217.2,294.8,217.5z"/>
						<path class="st2" d="M299.7,215.9c-0.8,0.3-1.3,1.1-1,1.9c0.3,0.8,1.1,1.3,1.9,1c0.7-0.2,1.1-0.9,1.1-1.6l-0.3-0.8
							C301,215.9,300.4,215.7,299.7,215.9z"/>
						<path class="st2" d="M282.2,228.9c0.8-0.3,1.3-1.1,1-1.9s-1.1-1.3-1.9-1c-0.8,0.3-1.3,1.1-1,1.9
							C280.5,228.7,281.3,229.1,282.2,228.9z"/>
						<path class="st2" d="M287.1,227.3c0.8-0.3,1.3-1.1,1-1.9c-0.3-0.8-1.1-1.3-1.9-1c-0.8,0.3-1.3,1.1-1,1.9
							C285.4,227.1,286.3,227.6,287.1,227.3z"/>
						<path class="st2" d="M292,225.8c0.8-0.3,1.3-1.1,1-1.9c-0.3-0.8-1.1-1.3-1.9-1c-0.8,0.3-1.3,1.1-1,1.9
							C290.3,225.6,291.2,226,292,225.8z"/>
						<path class="st2" d="M296.9,224.2c0.8-0.3,1.3-1.1,1-1.9c-0.3-0.8-1.1-1.3-1.9-1c-0.8,0.3-1.3,1.1-1,1.9
							C295.3,224,296.1,224.5,296.9,224.2z"/>
						<path class="st2" d="M300.9,219.7c-0.8,0.3-1.3,1.1-1,1.9c0.3,0.8,1.1,1.3,1.9,1c0.8-0.3,1.3-1.1,1-1.9
							C302.6,219.9,301.7,219.5,300.9,219.7z"/>
						<path class="st2" d="M282.4,229.7c-0.8,0.3-1.3,1.1-1,1.9c0.3,0.8,1.1,1.3,1.9,1c0.8-0.3,1.3-1.1,1-1.9
							C284.1,229.9,283.2,229.5,282.4,229.7z"/>
						<path class="st2" d="M287.4,228.2c-0.8,0.3-1.3,1.1-1,1.9c0.3,0.8,1.1,1.3,1.9,1c0.8-0.3,1.3-1.1,1-1.9
							C289,228.4,288.2,227.9,287.4,228.2z"/>
						<path class="st2" d="M292.3,226.6c-0.8,0.3-1.3,1.1-1,1.9c0.3,0.8,1.1,1.3,1.9,1c0.8-0.3,1.3-1.1,1-1.9
							C294,226.8,293.1,226.4,292.3,226.6z"/>
						<path class="st2" d="M298.1,228c0.8-0.3,1.3-1.1,1-1.9c-0.3-0.8-1.1-1.3-1.9-1c-0.8,0.3-1.3,1.1-1,1.9
							C296.5,227.8,297.3,228.3,298.1,228z"/>
						<path class="st2" d="M302.1,223.5c-0.8,0.3-1.3,1.1-1,1.9c0.3,0.8,1.1,1.3,1.9,1c0.8-0.3,1.3-1.1,1-1.9
							C303.8,223.7,302.9,223.3,302.1,223.5z"/>
						<path class="st2" d="M285.6,234.5c-0.3-0.8-1.1-1.3-1.9-1c-0.8,0.3-1.3,1.1-1,1.9c0.1,0.5,0.5,0.8,0.9,1l1.7-0.5
							C285.6,235.6,285.7,235,285.6,234.5z"/>
						<path class="st2" d="M290.5,233c-0.3-0.8-1.1-1.3-1.9-1c-0.8,0.3-1.3,1.1-1,1.9c0.2,0.6,0.6,0.9,1.2,1.1l1.3-0.4
							C290.5,234.2,290.7,233.6,290.5,233z"/>
						<path class="st2" d="M295.4,231.4c-0.3-0.8-1.1-1.3-1.9-1c-0.8,0.3-1.3,1.1-1,1.9c0.2,0.7,0.9,1.1,1.6,1.1l0.5-0.1
							C295.3,233,295.6,232.2,295.4,231.4z"/>
						<path class="st2" d="M298.4,228.9c-0.8,0.3-1.3,1.1-1,1.9c0.3,0.8,1.1,1.3,1.9,1c0.8-0.3,1.3-1.1,1-1.9
							C300.1,229.1,299.2,228.6,298.4,228.9z"/>
						<path class="st2" d="M303.3,227.3c-0.8,0.3-1.3,1.1-1,1.9c0.3,0.8,1.1,1.3,1.9,1c0.8-0.3,1.3-1.1,1-1.9
							C305,227.5,304.1,227.1,303.3,227.3z"/>
					</g>
					<path class="st13" d="M262.1,132.2c0,0,5.1,17.1,6.1,26.9s3.6,17.4,6.1,26.5c2.4,9.1,1.1,13.2,0.4,13.2s-2.1-1.2-3.1-1.2
						c-1,0-0.5,0.3-1.5-1c-1-1.3,0-1.3,0-3.8s-3.6-17.8-6.2-25.7C261.3,159.2,258.1,131.9,262.1,132.2z"/>
				</g>
				<path class="st14" d="M263.3,213l7.7,21.8c0,0-2,7.7-0.9,13c1.1,5.3,2.4,33.8,2.4,33.8h4.8l4-48.8l-5.9-29L263.3,213z"/>
				<path class="st15" d="M246.8,210.6v26.3c0,0-8.5,2.5-11.9,5.9c-3.4,3.4-21.6,17.9-21.6,17.9l0.6,4.2l42.5-21l6.1-37.6
					L246.8,210.6z"/>
				<polygon class="st16" points="275.4,203.8 263.3,213 264.6,216.7 276.9,211.3 				"/>
				<path class="st14" d="M260.6,216.9l1.7-10.7l-15.6,4.4V221C251,219.4,257.1,217.3,260.6,216.9z"/>
				<path class="st17" d="M246.4,182.1c0,0-6.8,9.5-6.8,15.2c0,5.7,1.5,19.6,1.5,19.6l41.8-7.1L263,185.3L246.4,182.1z"/>
				<path class="st18" d="M259.1,131.6c0,0-4.2,1.6-5.7,4.9c-1.7,3.8-0.8,8.8,0,15.3c1.5,12.3-1.1,23.2-4.4,26.1
					c-4.9,4.2-10,12.6-10,12.6s17.8,1.2,28-0.2c0,0-1.2-8.5-0.3-15.9c1.2-9.7,5.4-20.1,5.4-23.8c0-6.4-1.6-7.4-7.4-18.3
					C263.8,130.6,259.1,131.6,259.1,131.6z"/>
				<g>
					<path class="st19" d="M267.4,168c-10.9-0.6-13.9,1.9-14.2-1.1c0,0,0-0.1,0-0.1c-0.4,2.8-1,5.2-1.8,7.1
						c3.4,0.2,8.4,0.1,15.4-0.7c0.3-1.8,0.6-3.5,1-5.3C267.6,168,267.5,168,267.4,168z"/>
				</g>
				<g>
					<path class="st20" d="M206.2,258.5c0,0,0,3.3,0,5.6s-0.3,6-0.3,7.2s2.7,5.4,3.6,5.1c0.9-0.3,0.7-4.1,1.6-6.1
						c1-2,4.2-5.6,3.6-6.1s-0.1-3.6-0.8-4.3C213.3,259.2,206.7,257.9,206.2,258.5z"/>
					<path class="st21" d="M207.7,259.3c1.4,9.2-1.3,6.6,1.2,15.6c-0.9-2.2-1.8-5.5-1.3-7.8c0.3-1.3,0.3-2.6,0.3-3.9
						C207.8,261.9,207.7,260.6,207.7,259.3z"/>
					<path class="st21" d="M210.2,265l1.1,5.2l2.6-3.7l-1.9-3C212.1,263.5,210.4,263.4,210.2,265z"/>
				</g>
				<g>
					<g>
						<path class="st20" d="M273.5,289.4c0,0,3-1.4,5.1-2.3c2.1-1,5.6-2.3,6.6-2.7c1-0.5,3.7-4.7,3.1-5.4s-4,1.1-6.2,1
							c-2.2-0.1-4.5-2.1-4.7-1.4c-0.3,0.7-5.6,2.3-6,3.2C271.2,282.6,272.7,289.1,273.5,289.4z"/>
						<path class="st22" d="M273.6,287.7c7.8-5.1,6.6-1.5,13.7-7.6c-1.6,1.7-4.2,3.9-6.5,4.4c-1.3,0.3-2.5,0.9-3.7,1.4
							C276,286.5,274.8,287.1,273.6,287.7z"/>
					</g>
					<polygon class="st21" points="276.1,281.5 278.3,283.5 281.1,279.4 279.1,278.4 					"/>
				</g>
				<path class="st15" d="M261.2,143.7c0.6-1.9,1.5-7.7-2.3-9.4c-7.6-3.3-7.9,12.2-10.7,22.8c-2.8,10.7-2.4,13.2-2.4,13.2
					s6.3,1.7,21.4,0c15.1-1.8,15.5,1.1,17.7,2c2.2,0.9,3.2,3,3.9,2.3l-2.4-2.8c0,0,2.6,2.5,2.9,2.2s-2.8-3.3-2.8-3.3
					s2.6,2.2,2.8,2.2c0.3,0-2.7-3.9-4.6-4.9c-1.9-1-6.4-2.1-17.3-2.7c-10.9-0.6-13.9,1.7-14.2-1C253,161.8,259.4,148.9,261.2,143.7z
					"/>
				<polygon class="st23" points="242,174.9 237,199.4 270.4,199.5 263.8,174.9 				"/>
				<g>
					<polygon class="st24" points="264,175.5 241.9,175.5 241.8,175.9 264.1,175.9 					"/>
					<polygon class="st24" points="264.6,177.7 241.4,177.7 241.4,178 264.7,178 					"/>
					<polygon class="st24" points="265.1,179.8 241,179.8 240.9,180.1 265.2,180.1 					"/>
					<polygon class="st24" points="265.7,181.9 240.6,181.9 240.5,182.3 265.8,182.3 					"/>
					<polygon class="st24" points="266.3,184 240.1,184 240.1,184.4 266.4,184.4 					"/>
					<polygon class="st24" points="266.8,186.1 239.7,186.1 239.6,186.5 266.9,186.5 					"/>
					<polygon class="st24" points="267.4,188.2 239.3,188.2 239.2,188.6 267.5,188.6 					"/>
					<polygon class="st24" points="268,190.4 238.8,190.4 238.8,190.7 268.1,190.7 					"/>
					<polygon class="st24" points="268.5,192.5 238.4,192.5 238.3,192.9 268.6,192.9 					"/>
					<polygon class="st24" points="269.1,194.6 238,194.6 237.9,195 269.2,195 					"/>
					<polygon class="st24" points="269.7,196.7 237.5,196.7 237.4,197.1 269.8,197.1 					"/>
					<polygon class="st24" points="270.2,198.8 237.1,198.8 237,199.2 270.3,199.2 					"/>
				</g>
				<g>
					<path class="st6" d="M259.3,169.6c-0.6-1.4-1.5-3.3-3-4c-0.9-0.4-2.1-0.8-3-0.6c0.1,0.4,0.3,0.5,0.3,0.5
						c0.9,0.4,1.6,0.3,2.4,0.7c1.4,0.6,2.1,2.3,2.7,3.7c0.8,1.9,1.5,3.8,2,5.8c0.2,0,0.5,0,0.7,0
						C260.9,173.6,260.2,171.6,259.3,169.6z"/>
				</g>
				<g>
					<path class="st25" d="M223.9,131.8c0,0,3.3-5.3,6.7-0.1s0.1,32.2,0.9,36.3c0.7,4.1,13.5,18.3,13.8,18.8c0.3,0.5,4,3.4,4.4,4.1
						c0.4,0.6-1.1,0.9-1.3,1.6c-0.2,0.7-0.4,1.1-1,1.4s-1.2,0.4-1.9,0.8c-0.7,0.4-4.4-3.1-4.6-5.5c-0.1-2.4-13.9-15.5-15.9-20.1
						C223,164.4,220.8,133.6,223.9,131.8z"/>
					<g>
						<path class="st26" d="M216.7,207.8l7.7,23.6c0,0-4,8.6-2.8,14.4c1.2,5.8,6.3,37.9,6.3,37.9l3.7,0.2l1.7-55l-6.4-31.5
							L216.7,207.8z"/>
						<path class="st25" d="M206.8,194.1l-8.3,30.6c0,0-7.3,4.9-9.9,10.1c-2.6,5.1-17.6,31.6-17.6,31.6l1.5,3.2l35.6-40.1l14.2-27.8
							L206.8,194.1z"/>
						<path class="st27" d="M219.2,169.6c0,0-8.2,5.8-11.9,11.8c-3.7,6-18.2,32.2-18.2,32.2s16.1,5.9,24.5,7.5
							c8.4,1.5,21.4-0.9,21.4-0.9s-9.6-28.8-3.8-45.2C232.6,170.6,220.5,169.3,219.2,169.6z"/>
						<path class="st28" d="M218.2,183.6c-2.4-8.4-1.2-11.8-0.1-13.1c-2.4,1.8-7.9,6.3-10.8,10.9c-3.7,6-18.2,32.2-18.2,32.2
							s16.1,5.9,24.5,7.5c5,0.9,11.7,0.4,16.3-0.2L218.2,183.6z"/>
						<path class="st29" d="M225.2,127c0,0,8.6,3.6,10,14.5c1.4,10.9-0.3,34.6-0.3,34.6s-12.8-0.6-21.4-4.1c0,0,2.6-9.1,2.6-16.3
							c0-7.2-1-21.6,1.1-25.1C219.4,126.7,224.6,126.7,225.2,127z"/>
						<g>
							<path class="st30" d="M164,262.7c0,0,0,3.5,0,5.9c0,2.4-0.3,6.4-0.3,7.6s2.8,5.6,3.7,5.4s0.7-4.3,1.7-6.4
								c1-2.1,4.4-5.9,3.8-6.5s-0.7-4.1-1.4-4.9C170.9,263.1,164.6,262,164,262.7z"/>
							<path class="st31" d="M165.6,263.5c1.5,9.8-1.4,7,1.2,16.5c-0.9-2.3-1.8-5.8-1.4-8.2c0.3-1.3,0.3-2.7,0.3-4.1
								C165.7,266.3,165.6,264.9,165.6,263.5z"/>
							<g>
								<path class="st31" d="M168.1,270.1c-0.2,0.1-0.2,0.4,0,0.5c0.5,0.5,1.4,1.8,2,3c0.1-0.2,0.3-0.5,0.5-0.7
									c-0.8-1.4-1.9-2.7-1.9-2.7C168.5,270,168.3,270,168.1,270.1z"/>
								<path class="st31" d="M169.7,269.5c-0.1,0.2,0,0.4,0.1,0.5c0,0,0.9,0.5,1.8,1.4c0.1-0.2,0.3-0.4,0.4-0.6
									c-0.9-0.9-1.8-1.4-1.8-1.4C170,269.3,169.8,269.4,169.7,269.5z"/>
							</g>
						</g>
						<g>
							<path class="st30" d="M225.7,290.1c0,0,3.4-0.1,5.9-0.1s6.3,0.2,7.5,0.2s5.5-3,5.2-3.9c-0.3-0.9-4.3-0.6-6.4-1.6
								s-5.9-4.3-6.4-3.7c-0.5,0.6-4.1,0.8-4.8,1.5C226,283.1,225.1,289.5,225.7,290.1z"/>
							<path class="st31" d="M226.5,288.5c9.6-1.7,6.9,1.3,16.3-1.5c-2.3,1-5.7,2-8.1,1.5c-1.3-0.2-2.7-0.2-4.1-0.2
								C229.3,288.3,227.9,288.4,226.5,288.5z"/>
							<g>
								<path class="st31" d="M233,285.8c0.1,0.2,0.4,0.2,0.5,0c0.5-0.5,1.7-1.4,2.9-2.1c-0.2-0.1-0.5-0.3-0.7-0.5
									c-1.4,0.8-2.6,1.9-2.7,2C232.9,285.4,232.8,285.6,233,285.8z"/>
								<path class="st31" d="M232.4,284.2c0.2,0.1,0.4,0,0.5-0.1c0,0,0.5-0.9,1.4-1.8c-0.2-0.1-0.4-0.3-0.6-0.4
									c-0.9,0.9-1.3,1.8-1.4,1.9C232.2,283.9,232.2,284.1,232.4,284.2z"/>
							</g>
						</g>
					</g>
					<g>
						<polygon class="st8" points="203.3,211.4 202.7,211.3 204.4,195 187.6,196.7 187.5,196 205.2,194.2 						"/>
					</g>
					<polygon class="st32" points="197.7,203.5 194.3,204 214.4,208.6 216.7,208.6 					"/>
					<polygon class="st33" points="187,192.9 160.7,220.5 183.1,239.2 203.6,206.1 					"/>
					<polygon class="st34" points="216.7,208.6 210.6,261.1 202.1,259.7 214.4,208.6 					"/>
					<g>
						<path class="st10" d="M211.7,212.4c-0.3-0.5-8.1-11.4-6.5-15.8c0.2-0.5,0.6-0.8,1-0.9c3.7-0.9,15.5,10.1,16.8,11.3l-0.5,0.5
							c-3.6-3.3-13.4-11.8-16.2-11.1c-0.3,0.1-0.5,0.2-0.6,0.5c-1.5,4,6.3,15,6.4,15.1L211.7,212.4z"/>
					</g>
					<g>
						<path class="st6" d="M212.7,210c-0.8-3.3-1.6-6.5-2.9-9.6c-0.6-1.4-1.4-3.1-2.7-3.8c-3.7-1.8-7,2.9-8.5,5.2
							c-1.1,1.5-2.1,3.1-3,4.8l-0.6-0.4c1-1.7,2-3.3,3.1-4.8c1.7-2.4,5.2-7.4,9.4-5.4c1.6,0.8,2.4,2.6,3.1,4.1
							c1.4,3.1,2.2,6.3,2.9,9.7L212.7,210z"/>
					</g>
					<polygon class="st35" points="194.3,204 168,247.8 202.1,259.7 214.4,208.6 					"/>
					<g>
						<polygon class="st10" points="196.6,204.6 173.3,249.7 175.3,250.3 198.7,205 						"/>
						<polygon class="st10" points="200.5,205.4 179.6,251.8 181.5,252.5 202.5,205.9 						"/>
						<polygon class="st10" points="205.2,206.5 188.3,254.9 190.2,255.6 207.2,207 						"/>
						<polygon class="st10" points="209.1,207.4 196,257.6 197.9,258.3 211.1,207.9 						"/>
						<path class="st36" d="M209.7,225.9c-1.1,3.4-6.5,4.6-12.1,2.8c-5.6-1.9-9.2-6.1-8.1-9.5c1.1-3.4,6.5-4.6,12.1-2.8
							C207.2,218.2,210.9,222.5,209.7,225.9z"/>
					</g>
					<polygon class="st37" points="205.5,209.1 213.5,240.6 239.1,233.2 226.4,202.9 					"/>
					<polygon class="st29" points="213.5,240.6 205.5,209.1 215,236.4 239.1,233.2 					"/>
					<path class="st26" d="M219.3,129.4c0,0,6.1,0.8,6.6,7.8c0.5,7-17.1,17.9-18.7,22.4c-1.6,4.4,0.4,30.7,0.4,31.4
						c0,0.6,2,5.6,2,6.4s-1.5,0.2-2.1,0.8c-0.6,0.6-1,0.8-1.8,0.8s-1.4-0.3-2.3-0.3c-0.9,0-2.6-5.5-1.4-8c1.3-2.4-4.9-23-4.3-28.6
						C198.4,156.5,215.2,129.4,219.3,129.4z"/>
					<path class="st38" d="M219.3,129.4c2.4,0.3,4.6,1.6,6,4.4c0.6,1.4,1.1,3.6,0.6,5.1c-1.9,7.3-16.8,16.4-18.7,20.6
						c1.9-5.3,19.6-15.9,18.3-23.2C225.1,132.8,222.7,130.1,219.3,129.4z"/>
				</g>
				<circle class="st39" cx="261.2" cy="175.7" r="0.6"/>
				<circle class="st39" cx="244.7" cy="175.7" r="0.6"/>
				<polygon class="st40" points="294.5,200.2 307,229.7 282.2,236.9 305.7,229.6 				"/>
				<path class="st41" d="M222.7,102.2c0,0,6.4,0.9,7.5,7.3s-1.6,18.6-5.3,21.5c-3.7,2.9-4.9,11.9-8.1,14c-3.1,2.1-10.1,2-8.9-4.2
					c0,0,3.1,1.4,4.7-2.3c0,0-5.3,2.1-6.7-2.9s3.6-4.5,3.6-4.5s-3,2.7,0,2.6c3-0.1,5.2-2.4,5.9-5.7c0.6-3.3-4.7-2.2-3-8.2
					C214.2,113.8,220.6,101.6,222.7,102.2z"/>
				<path class="st26" d="M232.9,117.9c0,0-3.4,14.3-2.4,15c1,0.7,1.9,3.8,1.9,3.8s-6.8-4.7-7.9-8l1.6-13.2L232.9,117.9z"/>
				<path class="st25" d="M226.3,115.5l6.7,2.4c0,0-0.2,0.7-0.4,1.8c-2.2-0.2-5.6-0.6-6.6-1.7L226.3,115.5z"/>
				<path class="st41" d="M225.7,105.1l10,3.2c0,0,1.9-0.3,1.5-2.4s-3.1-3.7-5.7-4.4c-2.6-0.7-5.6-0.7-5.6-0.7L225.7,105.1z"/>
				<path class="st26" d="M228.6,102.2c0,0,3.6-0.1,4.9,1.4c1.3,1.5,2.3,5.4,3.4,6.1c1.1,0.8,2,1,2,1s0.3,0.2-0.5,0.8
					s-0.5,1.1,0.1,1s0.7,1,0.3,1.2c0,0,0.4,0.3,0.4,0.8s-0.4,0.7-0.4,0.7s0,0.8,0.4,1.5c0.4,0.6,0.6,2.5-4.1,2.5
					c0,0-7.1-0.3-7.9-2.1c-0.8-1.8-5.1-8.2-3.1-11.3C226.1,102.8,228.6,102.2,228.6,102.2z"/>
				<path class="st42" d="M224.9,100.9c0,0,1.1-1,5.5-0.6s6.4,4.6,6.4,4.6s-3.1-1.3-4.8-1c-1.7,0.3-5.7,0.4-6.5-0.1
					C224.8,103.4,224.9,100.9,224.9,100.9z"/>
				<path class="st42" d="M225.5,100.6c0.6-0.1,5.2,3.2,4.8,6.6c-0.4,3.4-3.1,2.4-4.5,3.6c-1.4,1.2,1.2,4.7,1.3,6.4
					c0,1.7-2.5,11.6-2.5,11.6s-7.4-18.6-5.9-22.5C220.3,102.2,225.5,100.6,225.5,100.6z"/>
				<path class="st26" d="M226.4,111.1c0,0-1.8-2.4-2.2-1.8c-0.5,0.7,0,4.7,2.1,4.7C228.4,114,226.4,111.1,226.4,111.1z"/>
				<path class="st25" d="M230.2,112.4c0.1,0.5,1,0.7,1.9,0.5c1-0.2,1.7-0.7,1.6-1.2c-0.1-0.5-1-0.7-1.9-0.5
					S230.1,111.9,230.2,112.4z"/>
				<path class="st25" d="M226.4,111.4c0,0-0.9-1.3-1.2-0.9s0.5,2.6,1,2.6C226.7,112.9,226.6,112.1,226.4,111.4z"/>
				<path class="st42" d="M235.9,107.3c0,0,0.2,1.3-1.8,2.7L235.9,107.3z"/>
				<path class="st42" d="M234.8,107.1c0,0-1-0.4-1.7-0.2c-0.7,0.1-1.3,0.5-1.2,0.8c0,0,0.7-0.5,1.3-0.5c0.6,0,1,0.4,1.2,0.3
					C234.6,107.4,234.8,107.1,234.8,107.1z"/>
				<path class="st42" d="M227.1,117.2c0,0,1.3,22.1-6.6,23.2c-7.9,1.1-6.2-7.6-4.7-9.1c0,0,0.5,2.7,2.1,2.2
					c1.6-0.5,1.2-0.1,0.1-3.6s2.2-2.5,4-5.7s-2.8-5.5-2.7-8.3s-0.7-6.8-0.7-6.8L227.1,117.2z"/>
				<path class="st42" d="M235.7,109.3c0,0.4-0.1,0.7-0.3,0.7s-0.3-0.3-0.3-0.7c0-0.4,0.1-0.7,0.3-0.7S235.7,108.9,235.7,109.3z"/>
				<path class="st43" d="M262.8,103.5c0-1.2-1.3-0.5-1.8-1.5c-0.2-0.5-2.5-0.7-3.5,0.6c1.4-2.4-1.1-2.2-3.6-0.5
					c-0.8-0.8-2.9-0.5-4.8,2.2c-1.2-0.3-3.2,1.2-3.4,3.1c-0.2,1.4,0.9,2.1,0.9,2.1s-2.6-0.6-2.9,1.8c-0.1,0.8,1.5,1.1,1.7,1.4
					c0.3,0.5,0.1,1.2-0.4,1.7c-0.8,0.8-1.6,1.9-1.1,2.6c0.3,0.3,0.6,0.5,1,0.5c-1.6,1.4,0,2,2.1,1.3c-0.1,0.3,0,0.5,0.1,0.7
					c0.6,0.5,3.5,0.3,4.6-0.7c2.5-0.1,2.6-3.9,4.6-5c1.3-0.7,1.4,0.2,2-2c0.3-1.2,0.8-0.5,1.3-0.6c0.7-0.1,3-2.8,3.3-3.4
					c0.4-0.6,0.7-1.4,0.6-2.1c-0.2-1-1.1-0.9-1.6-0.8C262.3,104.9,262.8,104.5,262.8,103.5z"/>
				<g>
					<path class="st44" d="M259.1,122.1c-0.1-0.4-0.5-1.3-0.9-2.4l7.4,4.2c-1.1,0.3-2,6.4-1.3,8c0.1,0.2,3.7,5.9,1,5.9
						c-0.4,0-7.7-5.4-7.7-5.4S259.7,124.3,259.1,122.1z"/>
					<path class="st45" d="M258.2,119.7l7.4,4.2c-0.3,0.1-0.5,0.5-0.8,1.2c-1.2-0.3-4.2-1.3-6.1-4.1
						C258.6,120.6,258.4,120.2,258.2,119.7z"/>
					<g>
						<path class="st43" d="M268.6,108.9c0,0,1-0.8,1.7,0.3c0.6,1.1-0.1,1.3,0.1,1.8c0.1,0.5,0.8,0.2,0.8,1.1
							c-0.1,1-0.7,1.4-0.6,1.9c0.1,0.4-1.8,2.7-2.8,1.6S266.6,108.7,268.6,108.9z"/>
						<path class="st44" d="M265.2,106.8c0,0,3.7,0.7,4.3,3c0.6,2.3-0.1,3.9,0.1,5c0.3,1.1,1.3,2.8,2.2,2.9c0,0-0.1,1-0.7,1.2
							c0,0,0,0.2,0.1,0.4c0.2-0.1,0.4,0.4,0.3,0.6c0,0.1-1,0.2-1.6,0.2l1.1,0.5c0.4,0.5-0.1,0.8-0.3,0.8c-0.2,0.2-0.5,0.5-0.5,0.6
							c0.1,0.3,0.4,1.2-0.5,1.8c-0.8,0.6-3.4,0.4-4.5,0.4c0,0-4.4-0.5-6.7-4.2C256,115.7,254.1,106.9,265.2,106.8z"/>
						<path class="st43" d="M267,115.4c0.4-0.3,0.8-0.5,1.3-0.6c0.2-0.1,0.4-0.1,0.7-0.2c0.2,0,0.5,0,0.7,0
							c-0.2-0.2-0.5-0.3-0.7-0.3c-0.3,0-0.5,0-0.8,0.1c-0.3,0.1-0.5,0.2-0.7,0.4C267.3,115,267.1,115.2,267,115.4z"/>
						<g>
							<path class="st27" d="M268.8,113.1l0.3-0.6c-0.2,0-2,0.2-2.4,0.9l0.3,0.2C267.2,113.1,268.4,113.1,268.8,113.1z"/>
						</g>
						<path class="st27" d="M269.1,109c0.1,0.1,0.5-2-1-2.5c-0.6-0.2-1.8-0.6-2.4-0.9c-0.7-0.3-1.7-0.2-2.4-0.4
							c-0.6-0.2-1.3-0.6-1.9-0.6c-0.4,0-0.8,0.2-1.1,0.3c-0.9,0.4-1.7,0.9-2.6,1.3c-0.7,0.3-1.5,0.3-2,0.9c-0.3,0.4-0.3,1-0.4,1.5
							c-0.1,0.6-0.4,1.1-0.7,1.6c-0.3,0.5-0.7,0.9-0.6,1.6c0.1,0.4,0.2,0.8,0.1,1.2c-0.1,0.5-0.2,0.9-0.2,1.4
							c0.1,1.1,0.8,2.9,1.4,3.6c0.4,0.6,0.7,0.9,1,1.5c0.4,0.8,1.2,1.6,1.9,2.3c0.4,0.4,0.7,0.8,1.3,0.6c0,0,0.9-0.3,1.1-2.1
							c0.1-1.8-0.8-1.6-0.8-3.1C259.8,115.8,262.4,108.3,269.1,109z"/>
						<path class="st46" d="M269.1,109c0,0,3-5.3-4.7-2.2c-1.7,0.7-1.6,1.2-1.9,1.7c-0.3,0.5,0,0.7-1,0.9c-1,0.3-2.2,0.5-2,1.5
							c0.3,1,1.3,0.8-0.1,2c-1.4,1.2-1.7,0-1.4,1.2c0.3,1.2,1.7,1.1,0.9,2.3c-0.7,1.2-0.8,1.8,0.5,2.1c1.3,0.3,0.9-0.5,2-0.8
							s2-0.9,1.8-1.9c0,0,1.5-0.1,1.6-1.1s0-1.6,0-1.6s1.6-0.1,1.5-1.5c0,0,0.4,0,0.6-0.8s0.6,0,0.6-0.8
							C267.4,109.2,269.1,109,269.1,109z"/>
						<path class="st44" d="M263.5,117.1c0,0-0.2-2.5-1.4-2s-2,1.7-0.9,3.1C262.3,119.6,263.4,118.2,263.5,117.1z"/>
						<path class="st45" d="M262.9,116.2c0,0,0.6,1.9-0.1,1.6c-0.7-0.3-1.5-0.9-1.1-1.5C262.2,115.6,262.7,115.4,262.9,116.2z"/>
						<path class="st43" d="M268.7,115.2c0,0.3-0.2,0.5-0.3,0.5c-0.2,0-0.3-0.3-0.3-0.6c0-0.3,0.2-0.5,0.3-0.5
							C268.6,114.7,268.8,114.9,268.7,115.2z"/>
					</g>
				</g>
			</g>
		</g>
	</g>
	<line class="st47" x1="113.7" y1="297.2" x2="365" y2="297.2"/>
	<g>
		<line class="st48" x1="162.1" y1="245.5" x2="151.7" y2="245.8"/>
		<line class="st48" x1="158.9" y1="248.7" x2="148.5" y2="249"/>
		<line class="st48" x1="162.3" y1="251.6" x2="151.9" y2="252"/>
	</g>
	<g>
		<line class="st48" x1="208" y1="119.3" x2="197.6" y2="119.7"/>
		<line class="st48" x1="204.8" y1="122.5" x2="194.3" y2="122.8"/>
		<line class="st48" x1="208.2" y1="125.5" x2="197.8" y2="125.8"/>
	</g>
</g>
</svg>
