<?xml version="1.0" encoding="utf-8"?>
<!-- Generator: Adobe Illustrator 23.0.0, SVG Export Plug-In . SVG Version: 6.00 Build 0)  -->
<svg version="1.1" id="Layer_1" xmlns="http://www.w3.org/2000/svg" xmlns:xlink="http://www.w3.org/1999/xlink" x="0px" y="0px"
	 viewBox="0 0 470.5 328" style="enable-background:new 0 0 470.5 328;" xml:space="preserve">
<style type="text/css">
	.st0{fill:#FFFFFF;stroke:#FF6A19;stroke-width:0.4353;stroke-miterlimit:10;}
	.st1{fill:#FF6A19;}
	.st2{fill:#FFFFFF;}
	.st3{fill:#EBEBEC;}
	.st4{fill:#D85F1F;}
	.st5{fill:#D1D2D3;}
	.st6{fill:#E8C379;}
	.st7{fill:#570A39;}
	.st8{fill:#603E6B;}
	.st9{fill:#1B427E;}
	.st10{fill:#FFF7CF;}
	.st11{fill:#41889A;}
	.st12{fill:#FFFF6E;}
	.st13{fill:#723C19;}
	.st14{fill:#592C13;}
	.st15{fill:#7A442A;}
	.st16{fill:#49220F;}
	.st17{fill:#B9BCFC;}
	.st18{fill:#29ABE2;}
	.st19{fill:#3D8AAB;}
	.st20{fill:#CD3179;}
	.st21{fill:#9E005D;}
	.st22{fill:#60213E;}
	.st23{fill:#A6CB73;}
	.st24{fill:#FFFF00;}
	.st25{fill:#FD5E5A;}
	.st26{fill:#FC7575;}
	.st27{fill:#552E5D;}
	.st28{fill:#643E6D;}
	.st29{fill:#ED1E79;}
	.st30{fill:#095270;}
	.st31{fill:#ACFCDD;}
	.st32{fill:#38534A;}
	.st33{fill:#FF9739;}
	.st34{fill:#4F6C61;}
	.st35{fill:#8ADDBD;}
	.st36{fill:#FFFAE3;}
	.st37{fill:#F478AF;}
	.st38{fill:#F98F8F;}
	.st39{fill:#363F2A;}
	.st40{fill:#E79258;}
	.st41{fill:#0E1B29;}
	.st42{fill:#1B3753;}
	.st43{fill:#40232F;}
	.st44{fill:#9C5222;}
	.st45{fill:#753E1A;}
	.st46{fill:#673770;}
	.st47{fill:none;stroke:#FF6A19;stroke-width:0.9518;stroke-linecap:round;stroke-miterlimit:10;}
	.st48{fill:none;stroke:#FF6A19;stroke-width:0.473;stroke-linecap:round;stroke-miterlimit:10;}
	.st49{fill:#0F9F49;}
	.st50{fill:#E6E7E8;}
</style>
<g>
	<path class="st0" d="M194.6,32.5h-74.2c-10,0-18.2,8.1-18.2,18.2v155.9c0,10,8.1,18.2,18.2,18.2h74.2c10,0,18.2-8.1,18.2-18.2V50.7
		C212.8,40.7,204.7,32.5,194.6,32.5z"/>
	<path class="st1" d="M120.4,219.9c-7.3,0-13.3-5.8-13.3-13V53.8c0-7.2,6-13,13.3-13h74.2c7.3,0,13.3,5.8,13.3,13v153.1
		c0,7.2-5.9,13-13.3,13L120.4,219.9L120.4,219.9z"/>
	<path class="st2" d="M192.3,39.5h-70.4c-1.6,0-2.9-1.3-2.9-2.9l0,0c0-1.6,1.3-2.9,2.9-2.9h70.4c1.6,0,2.9,1.3,2.9,2.9l0,0
		C195.2,38.2,193.9,39.5,192.3,39.5z"/>
	<path class="st1" d="M193.2,36.7c0,1.3-1.1,2.3-2.3,2.3s-2.3-1-2.3-2.3c0-1.3,1.1-2.3,2.3-2.3C192.1,34.4,193.2,35.4,193.2,36.7z"
		/>
	<path class="st1" d="M180.9,37.7h-41.3c-0.6,0-1-0.5-1-1l0,0c0-0.5,0.4-1,1-1h41.3c0.6,0,1,0.5,1,1l0,0
		C181.9,37.3,181.5,37.7,180.9,37.7z"/>
	<rect x="115" y="57.2" class="st2" width="85.1" height="125"/>
	<path class="st2" d="M151,189.3c0,0.8-0.7,1.5-1.5,1.5c-0.8,0-1.5-0.7-1.5-1.5c0-0.8,0.7-1.5,1.5-1.5
		C150.3,187.7,151,188.4,151,189.3z"/>
	<path class="st2" d="M156.7,189.3c0,0.8-0.7,1.5-1.5,1.5c-0.8,0-1.5-0.7-1.5-1.5c0-0.8,0.7-1.5,1.5-1.5
		C156,187.7,156.7,188.4,156.7,189.3z"/>
	<path class="st2" d="M162.3,189.3c0,0.8-0.7,1.5-1.5,1.5c-0.8,0-1.5-0.7-1.5-1.5c0-0.8,0.7-1.5,1.5-1.5
		C161.6,187.7,162.3,188.4,162.3,189.3z"/>
	<g>
		<g>
			<path class="st2" d="M191.3,52.9c0,0.5,0.4,1,1,1s1-0.5,1-1s-0.4-1-1-1C191.8,51.9,191.3,52.3,191.3,52.9z"/>
		</g>
		<g>
			<circle class="st2" cx="192.3" cy="52.9" r="0.5"/>
		</g>
		<g>
			<path class="st2" d="M186.9,52.9c0,0.5,0.4,1,1,1s1-0.5,1-1s-0.4-1-1-1C187.4,51.9,186.9,52.3,186.9,52.9z"/>
		</g>
		<g>
			<path class="st2" d="M187.4,52.9c0,0.3,0.2,0.5,0.5,0.5c0.3,0,0.5-0.2,0.5-0.5s-0.2-0.5-0.5-0.5
				C187.6,52.3,187.4,52.6,187.4,52.9z"/>
		</g>
		<path class="st2" d="M187.3,50.2l-1.9-3.2c-0.1-0.2-0.1-0.3,0-0.5c0.1-0.2,0.3-0.2,0.5-0.2h7.4c0.1,0,0.2,0.1,0.2,0.2
			s-0.1,0.2-0.2,0.2h-7.4c-0.1,0-0.1,0-0.2,0.1c0,0-0.1,0.1,0,0.2l1.9,3.2c0,0,0.1,0.1,0.2,0.1h4.9l1.2-4.3c0.1-0.5,0.6-0.9,1.1-0.9
			h1.4c0.1,0,0.2,0.1,0.2,0.2c0,0.1-0.1,0.2-0.2,0.2H195c-0.4,0-0.7,0.2-0.8,0.6l-1.6,5.7h-5.3c-0.1,0-0.2-0.1-0.2-0.2
			s0.1-0.2,0.2-0.2h5l0.2-0.7h-4.8C187.6,50.5,187.4,50.4,187.3,50.2z"/>
	</g>
	<g>
		<path class="st1" d="M171.6,47.7H171c0.4-1.7,2.3-1.7,2.9-0.7c0.4,0.6,0.3,1.3-0.5,1.8c0.9,0.4,1.3,1.4,0.7,2.3
			c-0.7,1.2-2.9,1.3-3.3-0.7h0.5c0.6,2.1,3.3,0.7,2.3-0.7c-0.3-0.5-0.8-0.5-1.4-0.6v-0.5c0.6,0,1.2-0.3,1.2-0.9c0-0.8-1-1.1-1.6-0.7
			C171.8,47.2,171.7,47.4,171.6,47.7z"/>
	</g>
	<rect x="136.3" y="194.3" class="st2" width="63.8" height="2.9"/>
	<rect x="136.3" y="200.7" class="st2" width="63.8" height="2.9"/>
	<g>
		<path class="st1" d="M204.4,56.4V54c0-6.7-5.6-12.2-12.4-12.2h-69.7c-6.9,0-12.5,5.5-12.5,12.2v2.4H204.4z"/>
		<path class="st3" d="M191.9,41.8H183c5.6,0,10.1,5.5,10.1,12.2v2.4h11.3V54C204.4,47.2,198.8,41.8,191.9,41.8z"/>
		<path class="st1" d="M183,41.8h-11.6c1.4,0,2.5,5.5,2.5,12.2v2.4h19.2V54C193.1,47.2,188.6,41.8,183,41.8z"/>
		<path class="st3" d="M140.6,41.8h-14.2c-5.6,0-10.1,5.5-10.1,12.2v2.4h19.2V54C135.5,47.2,137.8,41.8,140.6,41.8z"/>
		<path class="st1" d="M157.3,41.8h-16.7c-2.8,0-5.1,5.5-5.1,12.2v2.4h19.3V54C154.7,47.2,155.9,41.8,157.3,41.8z"/>
		<path class="st3" d="M171.4,41.8h-14.1c-1.4,0-2.5,5.5-2.5,12.2v2.4h19.2V54C173.9,47.2,172.8,41.8,171.4,41.8z"/>
		<path class="st4" d="M109.8,65.4c3.8-1.3,6.4-4.9,6.4-9.1h-6.4V65.4z"/>
		<path class="st5" d="M125.9,66c5.3,0,9.6-4.3,9.6-9.6h-19.2C116.3,61.7,120.6,66,125.9,66z"/>
		<path class="st4" d="M145.1,66c5.3,0,9.6-4.3,9.6-9.6h-19.2C135.5,61.7,139.8,66,145.1,66z"/>
		<path class="st5" d="M164.3,66c5.3,0,9.6-4.3,9.6-9.6h-19.2C154.7,61.7,159,66,164.3,66z"/>
		<path class="st4" d="M183.5,66c5.3,0,9.6-4.3,9.6-9.6h-19.2C173.9,61.7,178.2,66,183.5,66z"/>
		<path class="st5" d="M204.4,65.8v-9.5h-11.3c0,5.3,4.3,9.6,9.6,9.6C203.3,66,203.9,65.9,204.4,65.8z"/>
	</g>
	<g>
		<g>
			<g>
				<path class="st6" d="M288.6,165.1l0.7-0.1c-0.3-1.2-0.6-2.3-0.9-3.5c-0.2,0-0.5,0-0.7,0C288,162.7,288.3,163.9,288.6,165.1z"/>
				<path class="st6" d="M283.3,151.6c-4.2-2-7.6,2.9-9.3,5.3c-1.1,1.5-2.1,3.1-3,4.7l0.6,0.3c0.9-1.6,1.9-3.2,3-4.7
					c1.5-2.2,4.8-6.8,8.4-5c1.4,0.6,2.1,2.3,2.7,3.7c0.8,1.8,1.4,3.8,2,5.7c0.2,0,0.5,0,0.7,0c-0.6-2-1.2-4-2-5.9
					C285.7,154.1,284.8,152.3,283.3,151.6z"/>
			</g>
			<polygon class="st7" points="311.9,191.7 305.9,242.9 297.5,241.5 309.7,191.7 			"/>
			<g>
				<g>
					<polygon class="st8" points="298.8,194.5 298.1,194.4 299.8,178.4 283.2,180.1 283.1,179.4 300.6,177.7 					"/>
				</g>
				<polygon class="st9" points="282.7,176.4 256.7,203.3 278.8,221.5 299,189.2 				"/>
				<g>
					<path class="st10" d="M307,195.5c-0.3-0.4-8-11.1-6.4-15.4c0.2-0.5,0.5-0.8,1-0.9c3.6-0.9,15.3,9.8,16.6,11l-0.5,0.5
						c-3.5-3.3-13.2-11.5-16-10.9c-0.3,0.1-0.5,0.2-0.5,0.5c-1.5,3.9,6.3,14.6,6.3,14.8L307,195.5z"/>
				</g>
				<g>
					<path class="st6" d="M308,193.1c-0.8-3.2-1.6-6.4-2.9-9.3c-0.6-1.4-1.4-3-2.7-3.7c-3.7-1.7-6.9,2.8-8.4,5c-1,1.5-2.1,3.1-3,4.7
						l-0.6-0.3c0.9-1.6,2-3.2,3-4.7c1.6-2.4,5.1-7.2,9.3-5.3c1.6,0.8,2.4,2.6,3,4c1.4,3,2.1,6.2,2.9,9.4L308,193.1z"/>
				</g>
				<polygon class="st11" points="289.9,187.3 263.9,229.9 297.5,241.5 309.7,191.7 				"/>
				<polygon class="st12" points="300.9,192.2 308.8,222.9 334,215.7 321.5,186.2 				"/>
				<g>
					<path class="st2" d="M303.1,195.8c0.8-0.3,1.3-1.1,1-1.9c-0.3-0.8-1.1-1.3-1.9-1c-0.4,0.1-0.8,0.4-0.9,0.8l0.5,1.9
						C302.1,195.9,302.6,196,303.1,195.8z"/>
					<path class="st2" d="M308.1,194.3c0.8-0.3,1.3-1.1,1-1.9c-0.3-0.8-1.1-1.3-1.9-1c-0.8,0.3-1.3,1.1-1,1.9
						C306.4,194.1,307.2,194.5,308.1,194.3z"/>
					<path class="st2" d="M313,192.7c0.8-0.3,1.3-1.1,1-1.9c-0.3-0.8-1.1-1.3-1.9-1c-0.8,0.3-1.3,1.1-1,1.9
						C311.3,192.5,312.2,193,313,192.7z"/>
					<path class="st2" d="M317.9,191.2c0.8-0.3,1.3-1.1,1-1.9c-0.3-0.8-1.1-1.3-1.9-1c-0.8,0.3-1.3,1.1-1,1.9
						C316.2,191,317.1,191.4,317.9,191.2z"/>
					<path class="st2" d="M320.9,188.6c0.3,0.8,1.1,1.3,1.9,1c0,0,0.1,0,0.1,0l-1.2-2.8C321,187.1,320.7,187.9,320.9,188.6z"/>
					<path class="st2" d="M304.3,199.6c0.8-0.3,1.3-1.1,1-1.9c-0.3-0.8-1.1-1.3-1.9-1c-0.6,0.2-1,0.7-1.1,1.2l0.3,1.2
						C303,199.6,303.7,199.8,304.3,199.6z"/>
					<path class="st2" d="M308.3,195.1c-0.8,0.3-1.3,1.1-1,1.9c0.3,0.8,1.1,1.3,1.9,1c0.8-0.3,1.3-1.1,1-1.9
						C310,195.3,309.1,194.9,308.3,195.1z"/>
					<path class="st2" d="M313.3,193.6c-0.8,0.3-1.3,1.1-1,1.9c0.3,0.8,1.1,1.3,1.9,1c0.8-0.3,1.3-1.1,1-1.9
						C314.9,193.8,314.1,193.3,313.3,193.6z"/>
					<path class="st2" d="M318.2,192c-0.8,0.3-1.3,1.1-1,1.9c0.3,0.8,1.1,1.3,1.9,1c0.8-0.3,1.3-1.1,1-1.9S319,191.8,318.2,192z"/>
					<path class="st2" d="M322.1,192.4c0.3,0.8,1.1,1.3,1.9,1c0.2-0.1,0.3-0.1,0.4-0.2l-1.2-2.8c-0.1,0-0.1,0-0.2,0
						C322.3,190.7,321.9,191.6,322.1,192.4z"/>
					<path class="st2" d="M305.5,203.4c0.8-0.3,1.3-1.1,1-1.9c-0.3-0.8-1.1-1.3-1.9-1c-0.8,0.3-1.3,1.1-1,1.9
						C303.9,203.2,304.7,203.7,305.5,203.4z"/>
					<path class="st2" d="M311.5,199.9c-0.3-0.8-1.1-1.3-1.9-1c-0.8,0.3-1.3,1.1-1,1.9c0.3,0.8,1.1,1.3,1.9,1
						C311.3,201.6,311.7,200.8,311.5,199.9z"/>
					<path class="st2" d="M315.4,200.3c0.8-0.3,1.3-1.1,1-1.9c-0.3-0.8-1.1-1.3-1.9-1c-0.8,0.3-1.3,1.1-1,1.9
						C313.7,200.1,314.6,200.6,315.4,200.3z"/>
					<path class="st2" d="M319.4,195.8c-0.8,0.3-1.3,1.1-1,1.9c0.3,0.8,1.1,1.3,1.9,1c0.8-0.3,1.3-1.1,1-1.9
						C321,196,320.2,195.6,319.4,195.8z"/>
					<path class="st2" d="M324.3,194.3c-0.8,0.3-1.3,1.1-1,1.9c0.3,0.8,1.1,1.3,1.9,1c0.3-0.1,0.5-0.3,0.7-0.5l-1.1-2.5
						C324.7,194.2,324.5,194.2,324.3,194.3z"/>
					<path class="st2" d="M306.7,207.2c0.8-0.3,1.3-1.1,1-1.9c-0.3-0.8-1.1-1.3-1.9-1c-0.8,0.3-1.3,1.1-1,1.9
						C305.1,207,305.9,207.5,306.7,207.2z"/>
					<path class="st2" d="M311.6,205.7c0.8-0.3,1.3-1.1,1-1.9c-0.3-0.8-1.1-1.3-1.9-1c-0.8,0.3-1.3,1.1-1,1.9
						C310,205.5,310.8,205.9,311.6,205.7z"/>
					<path class="st2" d="M316.6,204.1c0.8-0.3,1.3-1.1,1-1.9c-0.3-0.8-1.1-1.3-1.9-1c-0.8,0.3-1.3,1.1-1,1.9
						C314.9,203.9,315.8,204.4,316.6,204.1z"/>
					<path class="st2" d="M320.6,199.6c-0.8,0.3-1.3,1.1-1,1.9c0.3,0.8,1.1,1.3,1.9,1c0.8-0.3,1.3-1.1,1-1.9
						C322.2,199.8,321.4,199.4,320.6,199.6z"/>
					<path class="st2" d="M325.5,198.1c-0.8,0.3-1.3,1.1-1,1.9c0.3,0.8,1.1,1.3,1.9,1c0.5-0.1,0.8-0.5,1-0.9l-0.8-2
						C326.2,198,325.9,198,325.5,198.1z"/>
					<path class="st2" d="M307.9,211c0.8-0.3,1.3-1.1,1-1.9c-0.3-0.8-1.1-1.3-1.9-1c-0.8,0.3-1.3,1.1-1,1.9
						C306.3,210.8,307.1,211.3,307.9,211z"/>
					<path class="st2" d="M312.8,209.5c0.8-0.3,1.3-1.1,1-1.9c-0.3-0.8-1.1-1.3-1.9-1c-0.8,0.3-1.3,1.1-1,1.9
						C311.2,209.3,312,209.7,312.8,209.5z"/>
					<path class="st2" d="M317.8,207.9c0.8-0.3,1.3-1.1,1-1.9c-0.3-0.8-1.1-1.3-1.9-1c-0.8,0.3-1.3,1.1-1,1.9S317,208.2,317.8,207.9
						z"/>
					<path class="st2" d="M321.8,203.4c-0.8,0.3-1.3,1.1-1,1.9c0.3,0.8,1.1,1.3,1.9,1c0.8-0.3,1.3-1.1,1-1.9
						C323.4,203.6,322.6,203.2,321.8,203.4z"/>
					<path class="st2" d="M326.7,201.9c-0.8,0.3-1.3,1.1-1,1.9c0.3,0.8,1.1,1.3,1.9,1c0.7-0.2,1.2-0.9,1.1-1.6l-0.3-0.8
						C328,201.9,327.3,201.7,326.7,201.9z"/>
					<path class="st2" d="M309.1,214.8c0.8-0.3,1.3-1.1,1-1.9s-1.1-1.3-1.9-1c-0.8,0.3-1.3,1.1-1,1.9
						C307.4,214.6,308.3,215.1,309.1,214.8z"/>
					<path class="st2" d="M314,213.3c0.8-0.3,1.3-1.1,1-1.9c-0.3-0.8-1.1-1.3-1.9-1c-0.8,0.3-1.3,1.1-1,1.9
						C312.4,213.1,313.2,213.5,314,213.3z"/>
					<path class="st2" d="M319,211.7c0.8-0.3,1.3-1.1,1-1.9c-0.3-0.8-1.1-1.3-1.9-1c-0.8,0.3-1.3,1.1-1,1.9
						C317.3,211.5,318.2,212,319,211.7z"/>
					<path class="st2" d="M323.9,210.2c0.8-0.3,1.3-1.1,1-1.9c-0.3-0.8-1.1-1.3-1.9-1c-0.8,0.3-1.3,1.1-1,1.9
						C322.2,210,323.1,210.4,323.9,210.2z"/>
					<path class="st2" d="M327.9,205.7c-0.8,0.3-1.3,1.1-1,1.9c0.3,0.8,1.1,1.3,1.9,1c0.8-0.3,1.3-1.1,1-1.9
						C329.6,205.9,328.7,205.4,327.9,205.7z"/>
					<path class="st2" d="M309.4,215.7c-0.8,0.3-1.3,1.1-1,1.9c0.3,0.8,1.1,1.3,1.9,1c0.8-0.3,1.3-1.1,1-1.9
						C311.1,215.9,310.2,215.4,309.4,215.7z"/>
					<path class="st2" d="M314.3,214.1c-0.8,0.3-1.3,1.1-1,1.9c0.3,0.8,1.1,1.3,1.9,1c0.8-0.3,1.3-1.1,1-1.9
						C316,214.3,315.1,213.9,314.3,214.1z"/>
					<path class="st2" d="M319.2,212.6c-0.8,0.3-1.3,1.1-1,1.9c0.3,0.8,1.1,1.3,1.9,1c0.8-0.3,1.3-1.1,1-1.9
						C320.9,212.8,320,212.3,319.2,212.6z"/>
					<path class="st2" d="M325.1,214c0.8-0.3,1.3-1.1,1-1.9c-0.3-0.8-1.1-1.3-1.9-1c-0.8,0.3-1.3,1.1-1,1.9
						C323.4,213.8,324.3,214.2,325.1,214z"/>
					<path class="st2" d="M329.1,209.5c-0.8,0.3-1.3,1.1-1,1.9c0.3,0.8,1.1,1.3,1.9,1c0.8-0.3,1.3-1.1,1-1.9
						C330.8,209.7,329.9,209.2,329.1,209.5z"/>
					<path class="st2" d="M312.5,220.5c-0.3-0.8-1.1-1.3-1.9-1c-0.8,0.3-1.3,1.1-1,1.9c0.1,0.5,0.5,0.8,0.9,1l1.7-0.5
						C312.6,221.5,312.7,221,312.5,220.5z"/>
					<path class="st2" d="M317.4,218.9c-0.3-0.8-1.1-1.3-1.9-1c-0.8,0.3-1.3,1.1-1,1.9c0.2,0.6,0.7,0.9,1.2,1.1l1.3-0.4
						C317.4,220.1,317.6,219.5,317.4,218.9z"/>
					<path class="st2" d="M322.4,217.4c-0.3-0.8-1.1-1.3-1.9-1c-0.8,0.3-1.3,1.1-1,1.9c0.2,0.7,0.9,1.1,1.6,1.1l0.5-0.1
						C322.2,218.9,322.6,218.1,322.4,217.4z"/>
					<path class="st2" d="M325.4,214.8c-0.8,0.3-1.3,1.1-1,1.9c0.3,0.8,1.1,1.3,1.9,1c0.8-0.3,1.3-1.1,1-1.9
						C327,215,326.2,214.6,325.4,214.8z"/>
					<path class="st2" d="M330.3,213.3c-0.8,0.3-1.3,1.1-1,1.9c0.3,0.8,1.1,1.3,1.9,1c0.8-0.3,1.3-1.1,1-1.9
						C332,213.5,331.1,213,330.3,213.3z"/>
				</g>
				<path class="st13" d="M289.1,118.2c0,0,5.1,17.1,6.1,26.9s3.6,17.4,6.1,26.5c2.4,9.1,1.1,13.2,0.4,13.2c-0.6,0-2.1-1.2-3.1-1.2
					s-0.5,0.3-1.5-1s0-1.3,0-3.8s-3.6-17.8-6.2-25.7C288.3,145.2,285.1,117.8,289.1,118.2z"/>
			</g>
			<path class="st14" d="M290.3,198.9l7.7,21.8c0,0-2,7.7-0.9,13c1.1,5.3,2.4,33.8,2.4,33.8h4.8l4-48.8l-5.9-29L290.3,198.9z"/>
			<path class="st15" d="M273.7,196.5v26.3c0,0-8.5,2.5-11.9,5.9c-3.4,3.4-21.6,17.9-21.6,17.9l0.6,4.2l42.5-21l6.1-37.6
				L273.7,196.5z"/>
			<polygon class="st16" points="302.4,189.8 290.3,198.9 291.6,202.7 303.9,197.3 			"/>
			<path class="st14" d="M287.6,202.9l1.7-10.7l-15.6,4.4v10.4C278,205.3,284.1,203.2,287.6,202.9z"/>
			<path class="st17" d="M273.4,168.1c0,0-6.8,9.5-6.8,15.2c0,5.7,1.5,19.6,1.5,19.6l41.8-7.1l-19.9-24.6L273.4,168.1z"/>
			<path class="st18" d="M286.1,117.5c0,0-4.2,1.6-5.7,4.9c-1.7,3.8-0.8,8.8,0,15.3c1.5,12.3-1.1,23.2-4.4,26.1
				c-4.9,4.2-10,12.6-10,12.6s17.8,1.2,28-0.2c0,0-1.2-8.5-0.3-15.9c1.2-9.7,5.4-20.1,5.4-23.8c0-6.4-1.6-7.4-7.4-18.3
				C290.8,116.6,286.1,117.5,286.1,117.5z"/>
			<g>
				<path class="st19" d="M294.4,153.9c-10.9-0.6-13.9,1.9-14.2-1.1c0,0,0-0.1,0-0.1c-0.4,2.8-1,5.2-1.8,7.1
					c3.4,0.2,8.4,0.1,15.4-0.7c0.3-1.8,0.6-3.5,1-5.3C294.6,153.9,294.5,153.9,294.4,153.9z"/>
			</g>
			<g>
				<path class="st20" d="M233.1,244.4c0,0,0,3.3,0,5.6s-0.3,6-0.3,7.2s2.7,5.4,3.6,5.1c0.9-0.3,0.7-4.1,1.6-6.1
					c1-2,4.2-5.6,3.6-6.1c-0.5-0.5-0.1-3.6-0.8-4.3C240.3,245.1,233.7,243.8,233.1,244.4z"/>
				<path class="st21" d="M234.6,245.3c1.4,9.2-1.3,6.6,1.2,15.6c-0.9-2.2-1.8-5.4-1.3-7.8c0.3-1.3,0.3-2.6,0.3-3.9
					C234.7,247.9,234.7,246.6,234.6,245.3z"/>
				<path class="st21" d="M237.2,250.9l1.1,5.2l2.6-3.7l-1.9-3C239,249.5,237.3,249.4,237.2,250.9z"/>
			</g>
			<g>
				<g>
					<path class="st20" d="M300.4,275.4c0,0,3-1.4,5.1-2.3c2.1-1,5.6-2.3,6.6-2.7c1-0.5,3.7-4.7,3.1-5.4s-4,1.1-6.2,1
						c-2.2-0.1-4.5-2.1-4.7-1.4c-0.3,0.7-5.6,2.3-6,3.2C298.1,268.5,299.7,275.1,300.4,275.4z"/>
					<path class="st22" d="M300.6,273.6c7.8-5.1,6.6-1.5,13.7-7.6c-1.6,1.7-4.2,3.9-6.5,4.4c-1.3,0.3-2.5,0.9-3.7,1.4
						C302.9,272.4,301.7,273,300.6,273.6z"/>
				</g>
				<polygon class="st21" points="303.1,267.5 305.2,269.5 308.1,265.4 306.1,264.4 				"/>
			</g>
			<path class="st15" d="M288.2,129.6c0.6-1.8,1.5-7.7-2.3-9.4c-7.6-3.3-7.9,12.2-10.7,22.8c-2.8,10.7-2.4,13.2-2.4,13.2
				s6.3,1.7,21.4,0c15.1-1.8,15.5,1.1,17.7,2c2.2,0.9,3.2,3,3.9,2.3l-2.4-2.8c0,0,2.6,2.5,2.9,2.2s-2.8-3.3-2.8-3.3s2.6,2.2,2.8,2.2
				s-2.7-3.9-4.6-4.9c-1.9-1-6.4-2.1-17.3-2.7c-10.9-0.6-13.9,1.7-14.2-1C279.9,147.7,286.3,134.9,288.2,129.6z"/>
			<polygon class="st23" points="269,160.8 263.9,185.4 297.4,185.4 290.8,160.8 			"/>
			<g>
				<polygon class="st24" points="291,161.5 268.8,161.5 268.8,161.9 291.1,161.9 				"/>
				<polygon class="st24" points="291.5,163.6 268.4,163.6 268.3,164 291.6,164 				"/>
				<polygon class="st24" points="292.1,165.7 268,165.7 267.9,166.1 292.2,166.1 				"/>
				<polygon class="st24" points="292.7,167.9 267.5,167.9 267.4,168.2 292.8,168.2 				"/>
				<polygon class="st24" points="293.2,170 267.1,170 267,170.3 293.3,170.3 				"/>
				<polygon class="st24" points="293.8,172.1 266.7,172.1 266.6,172.5 293.9,172.5 				"/>
				<polygon class="st24" points="294.4,174.2 266.2,174.2 266.1,174.6 294.5,174.6 				"/>
				<polygon class="st24" points="294.9,176.3 265.8,176.3 265.7,176.7 295,176.7 				"/>
				<polygon class="st24" points="295.5,178.4 265.4,178.4 265.3,178.8 295.6,178.8 				"/>
				<polygon class="st24" points="296,180.5 264.9,180.5 264.8,180.9 296.1,180.9 				"/>
				<polygon class="st24" points="296.6,182.7 264.5,182.7 264.4,183 296.7,183 				"/>
				<polygon class="st24" points="297.2,184.8 264,184.8 264,185.1 297.3,185.1 				"/>
			</g>
			<g>
				<path class="st6" d="M286.3,155.6c-0.6-1.4-1.5-3.3-3-4c-0.9-0.4-2.1-0.8-3-0.6c0.1,0.4,0.3,0.5,0.3,0.5
					c0.9,0.4,1.6,0.3,2.4,0.7c1.4,0.6,2.1,2.3,2.7,3.7c0.8,1.9,1.5,3.8,2,5.8c0.2,0,0.5,0,0.7,0
					C287.8,159.6,287.2,157.5,286.3,155.6z"/>
			</g>
			<g>
				<path class="st25" d="M250.9,117.7c0,0,3.3-5.3,6.7-0.1c3.4,5.2,0.1,32.2,0.9,36.3c0.7,4.1,13.5,18.3,13.8,18.8
					c0.3,0.5,4,3.4,4.3,4.1c0.4,0.6-1,0.9-1.3,1.6c-0.2,0.7-0.4,1.1-1,1.4c-0.6,0.4-1.2,0.4-1.9,0.8c-0.7,0.4-4.4-3.1-4.5-5.5
					c-0.1-2.4-13.9-15.5-15.9-20.1C249.9,150.4,247.7,119.5,250.9,117.7z"/>
				<g>
					<path class="st26" d="M243.6,193.7l7.7,23.6c0,0-4,8.6-2.8,14.4c1.2,5.8,6.3,37.9,6.3,37.9l3.7,0.2l1.7-55l-6.4-31.5
						L243.6,193.7z"/>
					<path class="st25" d="M233.8,180l-8.3,30.6c0,0-7.3,4.9-9.9,10.1c-2.6,5.1-17.6,31.6-17.6,31.6l1.5,3.2l35.6-40.1l14.2-27.8
						L233.8,180z"/>
					<path class="st27" d="M246.1,155.6c0,0-8.2,5.8-11.9,11.8c-3.7,6-18.2,32.2-18.2,32.2s16.1,5.9,24.5,7.5
						c8.4,1.5,21.4-0.9,21.4-0.9s-9.6-28.8-3.8-45.2C259.6,156.6,247.4,155.3,246.1,155.6z"/>
					<path class="st28" d="M245.1,169.5c-2.4-8.4-1.2-11.8-0.1-13.1c-2.4,1.8-7.9,6.3-10.8,10.9c-3.7,6-18.2,32.2-18.2,32.2
						s16.1,5.9,24.5,7.5c5,0.9,11.7,0.4,16.3-0.2L245.1,169.5z"/>
					<path class="st29" d="M252.2,113c0,0,8.6,3.7,10,14.5s-0.3,34.6-0.3,34.6s-12.8-0.6-21.4-4.1c0,0,2.6-9.1,2.6-16.3
						c0-7.2-1-21.6,1.1-25.1C246.4,112.7,251.6,112.7,252.2,113z"/>
					<g>
						<path class="st30" d="M191,248.6c0,0,0,3.5,0,5.9c0,2.4-0.3,6.4-0.3,7.6s2.8,5.6,3.7,5.4s0.7-4.3,1.7-6.4
							c1-2.1,4.4-5.9,3.8-6.5s-0.7-4.1-1.4-4.9C197.9,249.1,191.6,248,191,248.6z"/>
						<path class="st31" d="M192.5,249.5c1.5,9.8-1.4,7,1.2,16.5c-0.9-2.3-1.8-5.8-1.4-8.2c0.3-1.3,0.3-2.7,0.3-4.1
							C192.7,252.3,192.6,250.9,192.5,249.5z"/>
						<g>
							<path class="st31" d="M195.1,256.1c-0.2,0.1-0.2,0.4,0,0.5c0.5,0.5,1.4,1.8,2,3c0.1-0.2,0.3-0.5,0.5-0.7
								c-0.8-1.4-1.9-2.7-1.9-2.7C195.5,255.9,195.3,255.9,195.1,256.1z"/>
							<path class="st31" d="M196.6,255.5c-0.1,0.2,0,0.4,0.1,0.5c0,0,0.9,0.5,1.8,1.4c0.1-0.2,0.3-0.4,0.4-0.6
								c-0.9-0.9-1.8-1.4-1.8-1.4C196.9,255.3,196.7,255.3,196.6,255.5z"/>
						</g>
					</g>
					<g>
						<path class="st30" d="M252.7,276c0,0,3.4-0.1,5.9-0.1s6.3,0.2,7.5,0.2c1.2,0,5.5-3,5.2-3.9c-0.3-0.9-4.3-0.6-6.4-1.6
							c-2.1-1-5.9-4.3-6.5-3.7c-0.5,0.6-4.1,0.8-4.8,1.5C253,269,252,275.4,252.7,276z"/>
						<path class="st31" d="M253.5,274.4c9.6-1.7,6.9,1.3,16.3-1.5c-2.3,1-5.7,2-8.1,1.5c-1.3-0.2-2.7-0.2-4.1-0.2
							C256.2,274.3,254.9,274.3,253.5,274.4z"/>
						<g>
							<path class="st31" d="M259.9,271.7c0.1,0.2,0.4,0.2,0.5,0c0.5-0.5,1.7-1.4,2.9-2.1c-0.2-0.1-0.5-0.3-0.7-0.5
								c-1.4,0.8-2.6,1.9-2.7,2C259.8,271.3,259.8,271.6,259.9,271.7z"/>
							<path class="st31" d="M259.4,270.2c0.2,0.1,0.4,0,0.5-0.1c0,0,0.5-0.9,1.4-1.8c-0.2-0.1-0.4-0.3-0.6-0.4
								c-0.8,0.9-1.3,1.8-1.4,1.9C259.1,269.9,259.2,270.1,259.4,270.2z"/>
						</g>
					</g>
				</g>
				<g>
					<polygon class="st8" points="230.3,197.4 229.6,197.3 231.4,180.9 214.5,182.6 214.5,182 232.1,180.2 					"/>
				</g>
				<polygon class="st32" points="224.6,189.4 221.3,190 241.4,194.6 243.6,194.6 				"/>
				<polygon class="st33" points="214,178.9 187.7,206.5 210.1,225.1 230.5,192 				"/>
				<polygon class="st34" points="243.6,194.6 237.6,247.1 229,245.7 241.4,194.6 				"/>
				<g>
					<path class="st10" d="M238.7,198.4c-0.3-0.5-8.1-11.4-6.5-15.8c0.2-0.5,0.6-0.8,1-0.9c3.7-0.9,15.5,10.1,16.8,11.3l-0.5,0.5
						c-3.6-3.3-13.4-11.8-16.2-11.1c-0.3,0.1-0.5,0.2-0.6,0.5c-1.5,4,6.3,15,6.4,15.1L238.7,198.4z"/>
				</g>
				<g>
					<path class="st6" d="M239.7,195.9c-0.8-3.3-1.6-6.5-2.9-9.6c-0.6-1.4-1.4-3.1-2.7-3.8c-3.7-1.8-7,2.9-8.5,5.2
						c-1.1,1.5-2.1,3.1-3,4.8l-0.6-0.4c1-1.7,2-3.3,3.1-4.8c1.7-2.4,5.2-7.4,9.4-5.4c1.6,0.8,2.4,2.6,3.1,4.1
						c1.4,3.1,2.2,6.3,2.9,9.7L239.7,195.9z"/>
				</g>
				<polygon class="st35" points="221.3,190 195,233.8 229,245.7 241.4,194.6 				"/>
				<g>
					<polygon class="st10" points="223.6,190.5 200.3,235.6 202.2,236.3 225.6,191 					"/>
					<polygon class="st10" points="227.4,191.4 206.5,237.8 208.5,238.5 229.5,191.9 					"/>
					<polygon class="st10" points="232.1,192.5 215.3,240.9 217.2,241.5 234.2,192.9 					"/>
					<polygon class="st10" points="236.1,193.4 222.9,243.5 224.9,244.2 238.1,193.8 					"/>
					<path class="st36" d="M236.7,211.8c-1.1,3.4-6.5,4.6-12.1,2.8c-5.6-1.9-9.2-6.1-8.1-9.5c1.1-3.4,6.5-4.6,12.1-2.8
						C234.2,204.2,237.8,208.4,236.7,211.8z"/>
				</g>
				<polygon class="st37" points="232.5,195.1 240.4,226.5 266,219.1 253.3,188.9 				"/>
				<polygon class="st29" points="240.4,226.5 232.5,195.1 242,222.4 266,219.1 				"/>
				<path class="st26" d="M246.3,115.3c0,0,6.1,0.8,6.6,7.8c0.5,7-17.1,17.9-18.7,22.4c-1.6,4.4,0.4,30.7,0.4,31.4
					c0,0.6,2,5.6,2,6.4s-1.5,0.2-2.1,0.8c-0.6,0.6-1,0.8-1.8,0.8s-1.4-0.3-2.3-0.3c-0.9,0-2.6-5.5-1.4-8c1.3-2.4-4.9-23-4.3-28.6
					C225.3,142.5,242.2,115.3,246.3,115.3z"/>
				<path class="st38" d="M246.3,115.3c2.4,0.3,4.6,1.6,6,4.4c0.6,1.4,1.1,3.6,0.6,5.1c-1.9,7.3-16.8,16.4-18.7,20.6
					c1.9-5.3,19.6-15.9,18.3-23.2C252.1,118.8,249.7,116.1,246.3,115.3z"/>
			</g>
			<circle class="st39" cx="288.1" cy="161.7" r="0.6"/>
			<circle class="st39" cx="271.6" cy="161.7" r="0.6"/>
			<polygon class="st40" points="321.5,186.2 334,215.7 309.1,222.9 332.6,215.6 			"/>
			<path class="st41" d="M249.7,88.2c0,0,6.4,0.9,7.5,7.3s-1.6,18.6-5.3,21.5s-4.9,11.9-8.1,14c-3.1,2.1-10.1,2-8.9-4.2
				c0,0,3.1,1.4,4.7-2.3c0,0-5.3,2.1-6.7-2.9s3.6-4.5,3.6-4.5s-3,2.7,0,2.6c3-0.1,5.2-2.4,5.9-5.7c0.6-3.3-4.7-2.2-3-8.2
				C241.2,99.7,247.6,87.6,249.7,88.2z"/>
			<path class="st26" d="M259.9,103.9c0,0-3.4,14.3-2.4,15c1,0.7,2,3.8,2,3.8s-6.8-4.7-7.9-8l1.6-13.2L259.9,103.9z"/>
			<path class="st25" d="M253.2,101.5l6.7,2.4c0,0-0.2,0.7-0.4,1.8c-2.2-0.2-5.6-0.6-6.6-1.7L253.2,101.5z"/>
			<path class="st41" d="M252.7,91.1l10,3.2c0,0,1.9-0.3,1.5-2.4c-0.4-2.1-3.1-3.7-5.7-4.4s-5.6-0.7-5.6-0.7L252.7,91.1z"/>
			<path class="st26" d="M255.5,88.2c0,0,3.6-0.1,4.9,1.4c1.3,1.5,2.3,5.4,3.4,6.1c1.1,0.8,2,1,2,1s0.3,0.2-0.5,0.8s-0.5,1.1,0.1,1
				c0.6-0.1,0.7,1,0.3,1.2c0,0,0.4,0.3,0.4,0.8s-0.4,0.7-0.4,0.7s0,0.8,0.4,1.5c0.4,0.6,0.6,2.5-4.1,2.5c0,0-7.1-0.3-7.9-2.1
				c-0.8-1.8-5.1-8.2-3.1-11.3C253.1,88.8,255.5,88.2,255.5,88.2z"/>
			<path class="st42" d="M251.9,86.9c0,0,1.1-1,5.5-0.6c4.5,0.4,6.4,4.6,6.4,4.6s-3.1-1.3-4.8-1c-1.7,0.3-5.7,0.4-6.5-0.1
				C251.7,89.3,251.9,86.9,251.9,86.9z"/>
			<path class="st42" d="M252.4,86.6c0.6-0.1,5.2,3.2,4.8,6.6c-0.4,3.4-3.1,2.4-4.5,3.6c-1.4,1.2,1.2,4.7,1.3,6.4
				c0,1.7-2.5,11.6-2.5,11.6s-7.4-18.6-5.9-22.5C247.2,88.2,252.4,86.6,252.4,86.6z"/>
			<path class="st26" d="M253.4,97c0,0-1.8-2.4-2.2-1.8c-0.5,0.7,0,4.7,2.1,4.7C255.4,99.9,253.4,97,253.4,97z"/>
			<path class="st25" d="M257.2,98.3c0.1,0.5,1,0.7,1.9,0.5c1-0.2,1.7-0.7,1.6-1.2c-0.1-0.5-1-0.7-2-0.5S257.1,97.8,257.2,98.3z"/>
			<path class="st25" d="M253.3,97.4c0,0-0.9-1.3-1.2-0.9s0.5,2.6,1,2.6C253.6,98.9,253.6,98.1,253.3,97.4z"/>
			<path class="st42" d="M262.9,93.3c0,0,0.2,1.3-1.8,2.7L262.9,93.3z"/>
			<path class="st42" d="M261.7,93.1c0,0-1-0.4-1.7-0.2c-0.7,0.1-1.3,0.5-1.2,0.8c0,0,0.7-0.5,1.3-0.5c0.6,0,1,0.4,1.2,0.3
				C261.6,93.4,261.7,93.1,261.7,93.1z"/>
			<path class="st42" d="M254.1,103.1c0,0,1.3,22.1-6.6,23.2c-7.9,1.1-6.2-7.6-4.7-9.1c0,0,0.5,2.7,2.1,2.2c1.6-0.5,1.2-0.1,0.1-3.6
				s2.2-2.5,4-5.7s-2.8-5.5-2.7-8.3s-0.7-6.8-0.7-6.8L254.1,103.1z"/>
			<path class="st42" d="M262.7,95.3c0,0.4-0.1,0.7-0.3,0.7c-0.2,0-0.3-0.3-0.3-0.7c0-0.4,0.1-0.7,0.3-0.7
				C262.5,94.6,262.7,94.9,262.7,95.3z"/>
			<path class="st43" d="M289.7,89.5c0-1.2-1.3-0.5-1.8-1.5c-0.2-0.5-2.5-0.7-3.5,0.6c1.4-2.4-1.1-2.2-3.6-0.5
				c-0.8-0.8-3-0.5-4.8,2.2c-1.2-0.3-3.2,1.2-3.4,3.1c-0.2,1.4,0.9,2.1,0.9,2.1s-2.6-0.6-2.9,1.8c-0.1,0.8,1.5,1.1,1.7,1.4
				c0.3,0.5,0.1,1.2-0.4,1.7c-0.8,0.8-1.6,1.9-1.1,2.6c0.3,0.3,0.6,0.5,1,0.5c-1.6,1.4,0,2,2.1,1.3c-0.1,0.3,0,0.5,0.1,0.7
				c0.6,0.5,3.5,0.3,4.6-0.7c2.5-0.1,2.6-3.9,4.6-5c1.3-0.7,1.3,0.2,2-2c0.3-1.2,0.8-0.5,1.3-0.6c0.7-0.1,2.9-2.8,3.3-3.4
				c0.4-0.6,0.7-1.4,0.5-2.1c-0.2-1-1.1-0.9-1.6-0.8C289.2,90.9,289.8,90.4,289.7,89.5z"/>
			<g>
				<path class="st44" d="M286.1,108c-0.1-0.4-0.5-1.3-0.9-2.4l7.4,4.2c-1.1,0.3-2,6.4-1.3,8c0.1,0.2,3.7,5.9,1,5.9
					c-0.4,0-7.7-5.4-7.7-5.4S286.6,110.3,286.1,108z"/>
				<path class="st45" d="M285.1,105.7l7.4,4.2c-0.3,0.1-0.5,0.5-0.8,1.2c-1.2-0.3-4.2-1.3-6.1-4.1
					C285.5,106.6,285.3,106.1,285.1,105.7z"/>
				<g>
					<path class="st43" d="M295.6,94.9c0,0,1-0.8,1.7,0.3s0,1.3,0.1,1.8c0.1,0.5,0.8,0.2,0.8,1.1s-0.7,1.4-0.6,1.9
						c0.1,0.4-1.8,2.7-2.8,1.6C293.7,100.5,293.6,94.7,295.6,94.9z"/>
					<path class="st44" d="M292.2,92.8c0,0,3.7,0.7,4.3,3c0.6,2.3-0.1,3.9,0.2,5c0.3,1.1,1.3,2.8,2.2,2.9c0,0-0.1,1-0.7,1.2
						c0,0,0,0.2,0.1,0.4c0.2-0.1,0.4,0.4,0.3,0.6c0,0.1-1,0.2-1.6,0.2l1.1,0.5c0.4,0.5-0.1,0.8-0.3,0.8c-0.2,0.2-0.5,0.5-0.5,0.6
						c0.1,0.3,0.4,1.2-0.5,1.8c-0.8,0.6-3.4,0.4-4.5,0.4c0,0-4.4-0.5-6.7-4.2C283,101.7,281,92.8,292.2,92.8z"/>
					<path class="st43" d="M294,101.4c0.4-0.3,0.8-0.5,1.3-0.6c0.2-0.1,0.4-0.1,0.7-0.2s0.5,0,0.7,0c-0.2-0.2-0.5-0.3-0.7-0.3
						c-0.3,0-0.5,0-0.8,0.1c-0.3,0.1-0.5,0.2-0.7,0.4C294.3,101,294.1,101.2,294,101.4z"/>
					<g>
						<path class="st27" d="M295.7,99l0.3-0.6c-0.2,0-2,0.2-2.4,0.9l0.3,0.2C294.1,99,295.3,99,295.7,99z"/>
					</g>
					<path class="st27" d="M296.1,94.9c0.1,0.1,0.5-2-1-2.5c-0.6-0.2-1.8-0.6-2.4-0.9c-0.7-0.3-1.7-0.2-2.4-0.4
						c-0.6-0.2-1.3-0.6-1.9-0.6c-0.4,0-0.8,0.2-1.1,0.3c-0.9,0.4-1.7,0.9-2.6,1.3c-0.7,0.3-1.5,0.3-2,0.9c-0.3,0.4-0.3,1-0.4,1.5
						c-0.1,0.6-0.4,1.1-0.7,1.6c-0.3,0.5-0.7,0.9-0.6,1.6c0.1,0.4,0.2,0.8,0.1,1.2c-0.1,0.5-0.2,0.9-0.2,1.4
						c0.1,1.1,0.8,2.9,1.4,3.6c0.5,0.6,0.7,0.9,1,1.5c0.4,0.8,1.2,1.6,1.9,2.3c0.4,0.4,0.7,0.8,1.3,0.6c0,0,0.9-0.3,1.1-2.1
						c0.1-1.8-0.8-1.6-0.8-3.1C286.8,101.8,289.3,94.3,296.1,94.9z"/>
					<path class="st46" d="M296.1,94.9c0,0,3-5.3-4.7-2.2c-1.7,0.7-1.6,1.2-1.9,1.7c-0.3,0.5,0,0.7-1,0.9c-1,0.3-2.2,0.5-2,1.5
						c0.3,1,1.3,0.8-0.1,2c-1.4,1.2-1.7,0-1.4,1.2c0.3,1.2,1.7,1.1,0.9,2.3c-0.7,1.2-0.8,1.8,0.5,2.1s0.9-0.5,2-0.8s2-0.9,1.8-1.9
						c0,0,1.5-0.1,1.6-1.1s0-1.6,0-1.6s1.6-0.1,1.5-1.5c0,0,0.4,0,0.6-0.8s0.6,0,0.6-0.8C294.4,95.2,296.1,94.9,296.1,94.9z"/>
					<path class="st44" d="M290.5,103.1c0,0-0.2-2.5-1.4-2s-2,1.7-0.9,3.1C289.2,105.5,290.3,104.1,290.5,103.1z"/>
					<path class="st45" d="M289.9,102.1c0,0,0.6,1.9-0.1,1.6c-0.7-0.3-1.5-0.9-1.1-1.5C289.1,101.5,289.6,101.3,289.9,102.1z"/>
					<path class="st43" d="M295.7,101.2c0,0.3-0.2,0.5-0.3,0.5c-0.2,0-0.3-0.3-0.3-0.6c0-0.3,0.2-0.5,0.3-0.5
						C295.6,100.7,295.7,100.9,295.7,101.2z"/>
				</g>
			</g>
		</g>
	</g>
	<line class="st47" x1="140.6" y1="283.1" x2="368.3" y2="283.1"/>
	<g>
		<line class="st48" x1="189.1" y1="231.4" x2="178.7" y2="231.8"/>
		<line class="st48" x1="185.9" y1="234.6" x2="175.4" y2="235"/>
		<line class="st48" x1="189.3" y1="237.6" x2="178.9" y2="237.9"/>
	</g>
	<g>
		<path class="st49" d="M174.5,93.7c0,8.4-6.8,15.2-15.2,15.2c-8.4,0-15.2-6.8-15.2-15.2s6.8-15.2,15.2-15.2
			C167.7,78.5,174.5,85.3,174.5,93.7z"/>
		<g>
			<path class="st2" d="M157.8,99.3C157.8,99.3,157.7,99.3,157.8,99.3c-0.4,0-0.7-0.2-0.9-0.4l-4.1-4.7c-0.4-0.5-0.4-1.2,0.1-1.6
				c0.5-0.4,1.2-0.4,1.6,0.1l3.3,3.8l7.9-7.8c0.5-0.4,1.2-0.4,1.6,0c0.4,0.5,0.4,1.2,0,1.6l-8.8,8.6
				C158.4,99.2,158.1,99.3,157.8,99.3z"/>
		</g>
	</g>
	<g>
		<path class="st50" d="M158.6,178.1c-5.7,0-10.8-2.6-15.3-6.4c-1.4-1.2-2.7-2.5-3.9-3.9c-0.6-0.7-0.7-1.4-0.3-2.2
			c3.2-6.6,6.4-13.3,9.6-19.9c0.2-0.5,0.3-0.8,0.1-1.4c-0.3-1.2-0.2-2.4-0.1-3.6c0-0.2,0.2-0.5,0.4-0.5c1-0.2,0.7-0.9,0.6-1.5
			c-0.7-5.1-1.5-10.1-2.2-15.2c-0.1-0.7,0.2-1.2,0.9-1.2c0.5,0,0.6-0.2,0.6-0.6c0-0.1,0-0.1,0-0.2c0.1-0.8-0.5-2,0.4-2.5
			c1.1-0.6,2.4-0.3,3.6-0.2c0.5,0,0.7,0.5,0.7,1c0,1-0.3,2.2,0.1,3c0.4,0.9,1.8,0.7,2.6,1.3c0.7,0.4,1.4,0.8,1.9,1.4
			c0.3,0.3,0.6,0.4,0.9,0c1.2-1.1,2.6-1.9,4.2-2.3c0.5-0.1,0.6-0.4,0.6-0.9c0-0.8,0-1.7,0-2.5c0-0.8,0.3-1.2,1.1-1.2
			c0.8,0,1.7,0,2.5,0c0.8,0,1.1,0.4,1.1,1.1c0,0.4,0,0.8,0,1.2c0,0.6-0.2,1.3,0.9,1.3c0.5,0,0.6,0.7,0.5,1.2
			c-0.7,5-1.4,10.1-2.2,15.1c-0.1,0.6-0.4,1.3,0.6,1.5c0.2,0,0.4,0.3,0.4,0.5c0.1,1.2,0.3,2.5-0.1,3.6c-0.2,0.6-0.1,1,0.1,1.4
			c3.2,6.6,6.4,13.3,9.6,19.9c0.4,0.9,0.4,1.5-0.3,2.2c-4.2,4.8-9.1,8.5-15.4,9.9C161.8,178,160.4,178.1,158.6,178.1z"/>
		<path class="st1" d="M151.3,151.4c-0.3,1.7-0.7,3.4-0.9,5.1c-0.1,0.7-0.4,1.7,0.7,1.9c1.2,0.2,1.1-0.8,1.2-1.6
			c0.4-3.9,1.5-7.5,3.2-11c0.4-0.8,1.2-1.2,2.1-0.9c0.5,0.2,0.3,0.6,0.3,0.9c0,3.8,0,7.6,0,11.4c0,3.1,0,6.2,0,9.3
			c0,0.7,0.1,1.4,1,1.4c1,0,1-0.7,1-1.4c0-6.8,0-13.6,0-20.3c0-0.4-0.4-1.1,0.4-1.2c0.7,0,1.6-0.4,2.1,0.7c1.6,3.4,2.7,6.8,3.2,10.5
			c0.1,0.4,0.1,0.9,0.2,1.3c0.1,0.6,0.4,1.1,1.1,1c0.7-0.1,1-0.5,0.9-1.2c-0.2-2.5-0.8-5-1.5-7.4c-0.4-1.4-1-2.8-1.6-4.1
			c-0.3-0.6-0.3-0.8,0.5-0.8c1.1-0.1,1.6,0.3,2.1,1.3c3.1,6.5,6.3,13,9.4,19.6c0.2,0.4,0.3,0.7-0.1,1.1c-3.9,4.2-8.3,7.5-13.9,8.8
			c-2.5,0.6-5,0.6-7.5-0.1c-2.9-1-5.4-2.8-7.7-4.8c-1.2-1-2.2-2.1-3.3-3.3c-0.6-0.6-0.8-1.2-0.4-2c2.2-4.5,4.3-9.1,6.6-13.6
			c0.2-0.4,0.3-0.8,0.8-0.9c0,0,0.1,0,0.1,0.1C151.4,151.3,151.4,151.4,151.3,151.4z"/>
		<path class="st1" d="M167.5,124.3c1,0,0.6,0.8,0.5,1.2c-0.3,2.3-0.6,4.5-1,6.8c-0.3,2.3-0.7,4.7-1,7c0,0.1-0.1,0.3-0.2,0.4
			c-0.5,0.2-1,0.1-1.5,0.1c-2.9,0-5.7,0-8.6,0c-1.2,0-1.2,0-1.4-1.2c-0.5-3.4-1-6.9-1.5-10.3c-0.1-0.7-0.2-1.4-0.3-2.2
			c-0.1-0.4-0.1-0.8,0.2-1.2c1.9,0.2,3.5,1.1,4.8,2.4c1.3,1.4,1.4,1.4,2.7,0c0.4-0.4,0.8-0.8,1.3-1.1c0.4-0.3,0.7,0.1,0.9,0.3
			c0.3,0.2,0.5,0.3,0.8,0c0.8-0.9,1.8-1.4,2.8-2C166.5,124.2,167,124,167.5,124.3z"/>
		<path class="st4" d="M151.3,151.4c-0.4-0.2-0.3,0.2-0.4,0.3c-2.3,4.8-4.6,9.5-6.9,14.3c-0.3,0.6,0,1,0.3,1.4
			c2.5,2.8,5.2,5.2,8.5,7c0.8,0.4,1.7,0.7,2.4,1.3c-3.1-0.5-5.7-1.9-8.2-3.6c-2.1-1.4-3.8-3.1-5.5-4.9c-0.5-0.5-0.5-0.9-0.2-1.5
			c3.2-6.6,6.4-13.2,9.6-19.8c0.4-0.7,1.9-1.2,2.6-0.9c0.3,0.1,0.2,0.3,0.1,0.5C152.6,147.4,152,149.4,151.3,151.4z"/>
		<path class="st4" d="M152.9,124.9c0.1,1.8,0.5,3.6,0.7,5.3c0.3,2.5,0.8,5,1.1,7.6c0.2,1.9,0.2,1.9,2.1,1.9c3.1,0,6.1,0,9.2,0
			c-0.3,0.3-0.6,0.2-0.9,0.2c-4,0-8,0-12,0c-0.8,0-1-0.2-1.1-1c-0.6-4.5-1.3-9-1.9-13.4c-0.1-0.5-0.3-1.1,0.6-1.3
			c0.4-0.1,0.6-0.5,0.6-0.9c0-0.7,0-1.3,0-2c0-0.3-0.1-0.7,0.4-0.7c0.5,0,0.3,0.4,0.3,0.7c0,0.7,0.1,1.4,0,2.1
			C151.8,124.2,152.1,124.7,152.9,124.9z"/>
		<path class="st1" d="M159,142.9c-2.5,0-5,0-7.5,0c-0.4,0-0.8,0.1-0.8-0.6c0-0.6,0.4-0.5,0.8-0.5c5,0,10,0,15,0
			c0.4,0,0.8-0.1,0.8,0.6c0,0.6-0.4,0.5-0.8,0.5C164,142.9,161.5,142.9,159,142.9z"/>
		<path class="st1" d="M165.9,124.7c-0.9,0.8-2,1.3-2.7,2.3c-0.2,0.3-0.4,0.1-0.7-0.1c-0.3-0.3-0.5-0.7-1-0.7c1.2-1,2.7-1.3,4.2-1.6
			C165.8,124.7,165.9,124.7,165.9,124.7z"/>
		<path class="st1" d="M165.9,124.7L165.9,124.7l-0.2,0c0.5-0.5,0.6-1.1,0.5-1.7c0-0.7,0-1.4,0-2.1c0-0.2,0.1-0.4,0.3-0.4
			c0.3,0,0.3,0.2,0.3,0.4c0,0.6,0,1.2,0,1.8c0,0.6,0.1,1.1,0.6,1.5C167,124.3,166.5,124.6,165.9,124.7z"/>
	</g>
</g>
</svg>
