<?xml version="1.0" encoding="utf-8"?>
<!-- Generator: Adobe Illustrator 23.0.0, SVG Export Plug-In . SVG Version: 6.00 Build 0)  -->
<svg version="1.1" id="Layer_1" xmlns="http://www.w3.org/2000/svg" xmlns:xlink="http://www.w3.org/1999/xlink" x="0px" y="0px"
	 viewBox="0 0 470.5 331.8" style="enable-background:new 0 0 470.5 331.8;" xml:space="preserve">
<style type="text/css">
	.st0{fill:#FFFFFF;stroke:#FF6A19;stroke-width:0.4353;stroke-miterlimit:10;}
	.st1{fill:#FF6A19;}
	.st2{fill:#FFFFFF;}
	.st3{fill:#EBEBEC;}
	.st4{fill:#D85F1F;}
	.st5{fill:#D1D2D3;}
	.st6{fill-rule:evenodd;clip-rule:evenodd;fill:#F08E70;}
	.st7{fill-rule:evenodd;clip-rule:evenodd;fill:#F5AC83;}
	.st8{fill-rule:evenodd;clip-rule:evenodd;fill:#9D00BD;}
	.st9{fill:#4C5063;}
	.st10{fill:#464F7C;}
	.st11{fill:#5D69A5;}
	.st12{fill:#C20095;}
	.st13{fill:#FC7575;}
	.st14{fill:#2D1175;}
	.st15{fill:#FD5E5A;}
	.st16{fill-rule:evenodd;clip-rule:evenodd;fill:#545664;}
	.st17{fill:none;stroke:#FF6A19;stroke-linecap:round;stroke-miterlimit:10;}
</style>
<g>
	<path class="st0" d="M229.7,45.3h-74.2c-10,0-18.2,8.1-18.2,18.2v155.9c0,10,8.1,18.2,18.2,18.2h74.2c10,0,18.2-8.1,18.2-18.2V63.5
		C247.8,53.5,239.7,45.3,229.7,45.3z"/>
	<path class="st1" d="M155.5,232.7c-7.3,0-13.3-5.8-13.3-13V66.6c0-7.2,5.9-13,13.3-13h74.2c7.3,0,13.3,5.8,13.3,13v153.1
		c0,7.2-5.9,13-13.3,13L155.5,232.7L155.5,232.7z"/>
	<path class="st2" d="M227.4,52.3H157c-1.6,0-2.9-1.3-2.9-2.9l0,0c0-1.6,1.3-2.9,2.9-2.9h70.4c1.6,0,2.9,1.3,2.9,2.9l0,0
		C230.2,51,229,52.3,227.4,52.3z"/>
	<path class="st1" d="M228.2,49.5c0,1.3-1.1,2.3-2.3,2.3c-1.3,0-2.3-1.1-2.3-2.3c0-1.3,1.1-2.3,2.3-2.3
		C227.2,47.2,228.2,48.2,228.2,49.5z"/>
	<path class="st1" d="M215.9,50.5h-41.3c-0.5,0-1-0.4-1-1l0,0c0-0.6,0.5-1,1-1H216c0.6,0,1,0.4,1,1l0,0
		C217,50.1,216.5,50.5,215.9,50.5z"/>
	<rect x="150.1" y="70" class="st2" width="85.1" height="125"/>
	<path class="st2" d="M186.1,202.1c0,0.8-0.7,1.5-1.5,1.5c-0.8,0-1.5-0.7-1.5-1.5s0.7-1.5,1.5-1.5
		C185.4,200.5,186.1,201.2,186.1,202.1z"/>
	<path class="st2" d="M191.7,202.1c0,0.8-0.7,1.5-1.5,1.5c-0.8,0-1.5-0.7-1.5-1.5s0.7-1.5,1.5-1.5
		C191,200.5,191.7,201.2,191.7,202.1z"/>
	<path class="st2" d="M197.3,202.1c0,0.8-0.7,1.5-1.5,1.5c-0.8,0-1.5-0.7-1.5-1.5s0.7-1.5,1.5-1.5
		C196.7,200.5,197.3,201.2,197.3,202.1z"/>
	<g>
		<g>
			<path class="st2" d="M226.4,65.7c0,0.6,0.4,1,1,1s1-0.4,1-1s-0.4-1-1-1C226.8,64.7,226.4,65.1,226.4,65.7z"/>
		</g>
		<g>
			<circle class="st2" cx="227.4" cy="65.7" r="0.5"/>
		</g>
		<g>
			<path class="st2" d="M222,65.7c0,0.6,0.5,1,1,1c0.6,0,1-0.4,1-1s-0.4-1-1-1C222.4,64.7,222,65.1,222,65.7z"/>
		</g>
		<g>
			<path class="st2" d="M222.4,65.7c0,0.3,0.2,0.5,0.5,0.5s0.5-0.2,0.5-0.5s-0.2-0.5-0.5-0.5C222.7,65.1,222.4,65.4,222.4,65.7z"/>
		</g>
		<path class="st2" d="M222.4,63l-1.9-3.2c-0.1-0.2-0.1-0.3,0-0.5c0.1-0.2,0.3-0.2,0.5-0.2h7.4c0.1,0,0.2,0.1,0.2,0.2
			s-0.1,0.2-0.2,0.2H221c-0.1,0-0.1,0.1-0.2,0.1c0,0-0.1,0.1,0,0.2l1.9,3.2c0,0.1,0.1,0.1,0.2,0.1h4.9l1.2-4.3
			c0.1-0.5,0.6-0.9,1.1-0.9h1.4c0.1,0,0.2,0.1,0.2,0.2s-0.1,0.2-0.2,0.2h-1.4c-0.4,0-0.7,0.2-0.8,0.6l-1.6,5.7h-5.3
			c-0.1,0-0.2-0.1-0.2-0.2s0.1-0.2,0.2-0.2h5l0.2-0.7h-4.8C222.7,63.3,222.5,63.2,222.4,63z"/>
	</g>
	<g>
		<path class="st1" d="M206.6,60.5h-0.5c0.4-1.7,2.3-1.7,2.9-0.7c0.3,0.6,0.3,1.3-0.5,1.8c0.9,0.4,1.3,1.4,0.7,2.3
			c-0.7,1.2-2.9,1.3-3.3-0.7h0.5c0.5,2.1,3.3,0.7,2.3-0.7c-0.3-0.5-0.8-0.6-1.4-0.6v-0.5c0.6,0,1.2-0.3,1.2-0.9c0-0.8-1-1.1-1.6-0.7
			C206.9,60,206.7,60.2,206.6,60.5z"/>
	</g>
	<rect x="171.3" y="207.1" class="st2" width="63.8" height="2.9"/>
	<rect x="171.3" y="213.5" class="st2" width="63.8" height="2.9"/>
	<g>
		<path class="st1" d="M239.4,69.2v-2.4c0-6.7-5.6-12.2-12.4-12.2h-69.7c-6.9,0-12.4,5.5-12.4,12.2v2.4H239.4z"/>
		<path class="st3" d="M227,54.6h-8.9c5.6,0,10.1,5.5,10.1,12.2v2.4h11.3v-2.4C239.4,60,233.9,54.6,227,54.6z"/>
		<path class="st1" d="M218.1,54.6h-11.6c1.4,0,2.5,5.5,2.5,12.2v2.4h19.2v-2.4C228.2,60,223.6,54.6,218.1,54.6z"/>
		<path class="st3" d="M175.6,54.6h-14.2c-5.6,0-10.1,5.5-10.1,12.2v2.4h19.2v-2.4C170.5,60,172.8,54.6,175.6,54.6z"/>
		<path class="st1" d="M192.3,54.6h-16.7c-2.8,0-5.1,5.5-5.1,12.2v2.4h19.3v-2.4C189.8,60,190.9,54.6,192.3,54.6z"/>
		<path class="st3" d="M206.4,54.6h-14.1c-1.4,0-2.5,5.5-2.5,12.2v2.4H209v-2.4C209,60,207.8,54.6,206.4,54.6z"/>
		<path class="st4" d="M144.9,78.3c3.8-1.3,6.4-4.9,6.4-9.1h-6.4V78.3z"/>
		<path class="st5" d="M160.9,78.8c5.3,0,9.6-4.3,9.6-9.6h-19.2C151.3,74.5,155.6,78.8,160.9,78.8z"/>
		<path class="st4" d="M180.1,78.8c5.3,0,9.6-4.3,9.6-9.6h-19.2C170.5,74.5,174.8,78.8,180.1,78.8z"/>
		<path class="st5" d="M199.4,78.8c5.3,0,9.6-4.3,9.6-9.6h-19.2C189.7,74.5,194,78.8,199.4,78.8z"/>
		<path class="st4" d="M218.6,78.8c5.3,0,9.6-4.3,9.6-9.6H209C209,74.5,213.3,78.8,218.6,78.8z"/>
		<path class="st5" d="M239.4,78.6v-9.5h-11.3c0,5.3,4.3,9.6,9.6,9.6C238.3,78.8,238.9,78.7,239.4,78.6z"/>
	</g>
	<g>
		<g>
			<path class="st1" d="M220,90.6c0,0.5,0.4,0.9,0.9,0.9s0.9-0.4,0.9-0.9c0-0.5-0.4-0.9-0.9-0.9C220.4,89.6,220,90.1,220,90.6z"/>
		</g>
		<g>
			<path class="st1" d="M220.5,90.6c0,0.3,0.2,0.5,0.5,0.5s0.5-0.2,0.5-0.5s-0.2-0.5-0.5-0.5S220.5,90.3,220.5,90.6z"/>
		</g>
		<g>
			<path class="st1" d="M216.1,90.6c0,0.5,0.4,0.9,0.9,0.9s0.9-0.4,0.9-0.9c0-0.5-0.4-0.9-0.9-0.9C216.5,89.6,216.1,90.1,216.1,90.6
				z"/>
		</g>
		<g>
			<path class="st1" d="M216.5,90.6c0,0.3,0.2,0.5,0.5,0.5s0.5-0.2,0.5-0.5s-0.2-0.5-0.5-0.5S216.5,90.3,216.5,90.6z"/>
		</g>
		<path class="st1" d="M216.4,88.1l-1.7-3.1c-0.1-0.2-0.1-0.3,0-0.5s0.3-0.2,0.4-0.2h6.8c0.1,0,0.2,0.1,0.2,0.2s-0.1,0.2-0.2,0.2
			h-6.8c-0.1,0-0.1,0.1-0.1,0.1s0,0.1,0,0.2l1.7,3.1c0,0.1,0.1,0.1,0.1,0.1h4.4l1.1-4.1c0.1-0.5,0.6-0.8,1-0.8h1.3
			c0.1,0,0.2,0.1,0.2,0.2s-0.1,0.2-0.2,0.2h-1.3c-0.3,0-0.6,0.2-0.7,0.6l-1.5,5.3h-4.8c-0.1,0-0.2-0.1-0.2-0.2s0.1-0.2,0.2-0.2h4.6
			l0.2-0.7h-4.3C216.7,88.3,216.5,88.2,216.4,88.1z"/>
	</g>
	<ellipse class="st1" cx="207.7" cy="87.1" rx="3.3" ry="3.4"/>
	<g>
		<g>
			<g>
				<path class="st6" d="M234.4,96.6c-1.1-0.2-2.7,1.1-2.4,2.7c0.3,1.8,2.9,3.1,3.4,2.3C235.5,101.2,235.4,96.8,234.4,96.6z"/>
				<path class="st7" d="M230.4,90.3c2.8,3,6.9,5.9,6.9,5.9l4.9,9.1l-4.9,2.1l-0.5-3c0,0-2.8-0.9-3.5-1.3c-0.5-0.2-1.7-1.4-2.2-2.2
					c-0.9-1.4,0.4-1.9,0.8-1.6c0.6,0.5,2.2,1.2,2.2,1.2s1-1.1,0.8-2.4C234.5,97,227.8,91.4,230.4,90.3z"/>
			</g>
			<path class="st8" d="M286.2,130.6c-8.4-1.5-19.1,0-26.7-4c-5.2-2.8-16.2-19.7-17.6-24c-0.1-0.4-6.6,2.9-5.9,4.3
				c2.7,5.6,9.3,21.4,18.5,28.3c11.7,8.8,30.7,8.2,31,8.3c1.4,0.5-5.1-6.4-4.4-7.4C281.8,135.2,288.2,131.9,286.2,130.6z"/>
		</g>
		<g>
			<path class="st9" d="M300.9,281.8l0.7,3.7c0,0-1.8,5.7-4.5,8.3s-8.5,2.8-8.5,0.6s6.1-9.2,6.1-11.9S300.9,281.8,300.9,281.8z"/>
			<path class="st9" d="M282.4,282.5l1,6.9c0,0-4.2,0-7,0c-2.9,0-10.8,0-10.8,0s0.6-1.7,5.8-2.7s5.6-2.9,5.6-2.9l-0.5-4.3l4.7-0.7
				L282.4,282.5z"/>
			<polygon class="st10" points="289.9,204 279.4,240.2 283.2,283.7 276.4,283.7 267.1,237.6 276.4,184.9 			"/>
			<path class="st11" d="M276.4,183.4l7.3,21.8c0,0,8.6,29.5,10.2,47.2c1.6,17.8,0,29.9,0,29.9l8.6,1.4c0,0,5-36.9,3.1-49.3
				c-1.9-12.4,0.4-42.5,0.4-42.5l-3.5-8.6L276.4,183.4L276.4,183.4z"/>
			<polygon class="st12" points="305.7,123.7 298.5,121.3 289.7,120.5 284.1,121.8 275.8,155.7 276.1,186.5 306,186 298,165.9 			
				"/>
			<g>
				<path class="st13" d="M284.2,92.7c0,0-3.9,4.9-4.4,8.3c-0.6,3.4-1.3,8.9-1.3,8.9h1.6c0,0,1.3,3.1,1.3,5.1c0,2,3.3,0.8,5.2,0.8
					c1.9,0,6.2-1.6,7.8-7.5C296.1,102.5,299.1,92,284.2,92.7z"/>
				<path class="st13" d="M298.5,121.3c0,0-10.6,4.6-10.6,3.1c0-0.5,0-3.9-0.3-6.9c-0.1-1.4-0.3-2.6-0.4-3.3c0.4-1,3.5-8.5,3.3-8
					c0,0,0,0,0,0l0.6-1.5L298.5,121.3z"/>
				<path class="st14" d="M279,89.1c-0.2,0.3-3.2,6.3,2,8.6c5.2,2.3,6.5-1,7.9,1c1.4,2-1.2,5.3-0.1,7.2l1.7,0.3c0,0,0.3-1,1-1
					s0.9,5.1,2,5.1s3.3-4.4,4.3-6.4c1.1-2,3.2-8.9-0.8-10.7c-4-1.8-5.8-0.4-5.8-2.1c0-1.7-1.7,0.1-1.7,0.1s-1-1.3-0.4-2.7
					c0.6-1.4-4.3-1.9-5.4,0.9C282.8,92.4,280.9,86,279,89.1z"/>
				<path class="st13" d="M290.1,103.4c0,0-0.1,3.3,0.7,3.3c0.8,0,2.7-1.9,2.3-3.9C292.9,100.8,290.5,101.1,290.1,103.4z"/>
				<path class="st15" d="M290.7,103c0,0-0.4,1.3,0.2,1.9c0.6,0.6,1.8-0.8,1.2-1.9C291.4,101.9,290.8,102.3,290.7,103z"/>
				<path class="st14" d="M281.7,102.1l-0.1,0.8c0,0,1.5-0.2,2.3,0.6s0.9,0.9,0.9,0.9S284.3,102.6,281.7,102.1z"/>
				<path class="st14" d="M283.2,104.6c0,0.4-0.3,0.7-0.6,0.7c-0.3,0-0.6-0.3-0.6-0.7s0.3-0.7,0.6-0.7
					C283,103.9,283.2,104.2,283.2,104.6z"/>
				<path class="st14" d="M282,112.1c0.5,0,1-0.1,1.4-0.3c0.2-0.1,0.4-0.3,0.5-0.5c0.1-0.2,0.1-0.4,0.2-0.6v0c0-0.1,0.1-0.2,0.3-0.2
					c0.1,0,0.2,0.1,0.2,0.3c0,0,0,0,0,0c-0.1,0.3-0.2,0.5-0.4,0.7c-0.2,0.2-0.4,0.4-0.6,0.5C283,112.1,282.5,112.2,282,112.1z"/>
				<path class="st14" d="M276.7,95.2c0,0.3,0.3,0.8,0.4,1c0.9,1.2,2.7,1.3,3.9,1.5c-0.2,0-1.8,0.3-3.1-0.1
					c-1.4-0.4-2.3-1.3-2.5-2.2L276.7,95.2z"/>
				<path class="st15" d="M291.1,115.1c-0.5,0.5-2.4,1.7-3.5,2.4c-0.2-1.8-0.4-3.3-0.4-3.3s1,0.8,3.3-8.1c0,0,0,0,0,0.1c0,0,0,0,0,0
					C290.6,106.9,291.8,114.3,291.1,115.1z"/>
				<path class="st14" d="M281.2,113.6c0,0-0.3,1.3-0.3,2.1c0,0.8,1.9,1.6,3.7,1.1c1.7-0.5,4.2-1.6,4.8-2.2c0.6-0.6,1.1-8.4,1.1-8.4
					l-1.6-0.3c0,0-0.8,5.1-1.4,5.7C286.8,112.3,281.2,113.6,281.2,113.6z"/>
			</g>
		</g>
		<path class="st16" d="M251.8,177.5l20.3,3.6c0.7,0.1,1.2,0.8,1.1,1.4l0,0c-0.1,0.7-0.8,1.1-1.5,1l-20.3-3.6
			c-0.7-0.1-1.2-0.8-1.1-1.4l0,0C250.4,177.8,251.1,177.4,251.8,177.5z"/>
		<path class="st7" d="M272,180.4c-1.3,0-3.4-1.5-4.5-2.1c0,0-3.5,0.6-2.9,1.2c0.6,0.6,2.6,1,2.6,1s-0.3,1.7-3.1,1.6
			c-2.8-0.1-4.5,0.1-4.1,0.9c0.5,0.8,1.9,0.9,1.9,0.9s0.9,1.2,2.1,1.6c1.1,0.3,1.2,0.4,1.2,0.4s0.5,0.8,2.8,0.9
			c2.3,0.1,7.4-1.9,7.4-2.7C275.4,183.1,272,180.4,272,180.4z"/>
		<path class="st8" d="M294.6,134.1c-4.7,13.8-4.4,33.6-4.4,33.6l-18.1,13.2l1.8,5.5c0,0,25.6-9.4,27.6-18.7
			c2-9.4,4.2-30.3,4.2-30.3l0-13.7L294.6,134.1z"/>
		<path class="st6" d="M238.3,102.3c-0.7,0.6-1.9,1-3.1,1.2c-0.4,0.1-0.8,0.1-1.2,0c0.4,0.2,0.8,0.3,1.2,0.4
			c0.8,0.3,1.4,0.5,1.4,0.5l0.1,0.9c0.4-0.4,1-0.8,1.5-1.1c0.8-0.5,1.7-1,2.4-1.3l-1.4-2.7c0,0.4-0.1,0.8-0.2,1.1
			C239,101.6,238.7,102,238.3,102.3z"/>
	</g>
	<line class="st17" x1="210.9" y1="300.2" x2="333.2" y2="300.2"/>
	<g>
		<path class="st2" d="M207.4,86.8c0.6,0,1-0.3,1-0.9c0-0.5-0.3-0.8-0.9-0.8c-0.1,0-0.4,0-0.6,0.1l0.3-0.2l-0.1,0.5
			c-0.1,0.3-0.2,0.4-0.4,0.4c-0.2,0-0.3-0.1-0.4-0.3c0.1-0.6,0.7-0.9,1.3-0.9c0.8,0,1.3,0.4,1.3,1.1c0,0.6-0.4,1.1-1.2,1.2V87
			c0.9,0.1,1.3,0.5,1.3,1.2c0,0.8-0.6,1.3-1.6,1.3c-0.7,0-1.2-0.3-1.3-1c0.1-0.2,0.2-0.2,0.4-0.2c0.2,0,0.3,0.2,0.4,0.5l0.1,0.5
			l-0.3-0.3c0.2,0.1,0.5,0.1,0.6,0.1c0.7,0,1-0.4,1-1c0-0.6-0.4-1-1.1-1h-0.3v-0.3L207.4,86.8L207.4,86.8z"/>
	</g>
	<g>
		<path class="st1" d="M202.2,117.7c-0.3-2.1,1.4-3.5,3.4-2.8c0.2,0.1,0.5,0.6,0.5,0.9c-0.5,3,0.1,5.9,0.8,8.8
			c0.1,0.3,0.2,0.6,0.4,0.9c1.6,2.7,3.4,5.3,4.6,8.2c1.6,4,5.1,4.4,8.5,5.2c1.3,0.3,2.6,0.5,3.6,1.6c-1.2,1.9-2.8,2.9-5,3.1
			c-3.5,0.4-6.7-0.8-9.8-2.2c-3.6-1.6-6.8-3.7-9.7-6.3c-4.5-4-9.4-7.6-14.6-10.6c-2.1-1.2-4-2.8-5-5.1c-0.3-0.7-0.3-1.3,0.1-2.1
			c1.4-2.9,3.8-4.9,6.4-6.5c0.5-0.3,1.1-0.4,1.7-0.5c0.8-0.1,1.4,0.3,1.5,1.2c0.2,4.6,5.2,7,9.3,5.9C200,117.2,201,117,202.2,117.7z
			"/>
		<path class="st1" d="M201.2,141.1c-0.9,0.9-1.5-0.1-2.2-0.5c-0.3-0.2-0.5-0.7-0.7-1.1c-0.5,0.4-1.1,0-1.6-0.4
			c-0.5-0.4-1.3-0.7-0.8-1.7c-1.6,0.6-3-0.6-2.8-2.2c-1.1,1.1-1.9,0.3-2.6-0.3c-0.3-0.2-0.3-0.9-0.4-1.4c-0.9,1.1-1.8,0.4-2.5-0.3
			c-0.3-0.3-0.2-0.9-0.3-1.5c-0.9,1-1.9,0.6-2.6-0.2c-0.3-0.3,0-1.2,0-1.9c-0.8,0.5-1.6,1.3-2.7,0.2c-0.8-0.9,0.2-1.4,0-2.2
			c-0.8,0.4-1.5,1.3-2.6,0.3c-0.9-0.9-0.1-1.6-0.1-2.4c-0.1,0-0.2,0.1-0.3,0.1c-1.4,1-1.3,1-2.7-0.4c-0.2-0.3-0.4-0.5-0.6-0.8
			c-1.3-1.9-1-3.4,0.9-4.6c0.5-0.3,1.1-0.6,1.7-0.9c1,3.5,3.4,5.6,6.3,7.3c6,3.3,11.1,7.9,16.6,12c4.2,3.1,8.7,5.5,13.9,6.4
			c2.5,0.4,4.9,0.4,7.1-1c0.7-0.5,1.3-1.2,2-1.8c0.5,3.6-0.7,4.9-3.3,5.4c-0.6,0.1-1.2,0.2-1.8,0.3c-1.1,0.1-1.2,0-1.2-1.2
			c-0.4,0.3-0.9,0.5-1.3,0.8c-0.7,0.5-1.4,0.4-2.1,0.2c-0.3-0.1-0.4-0.6-0.6-1c-0.6,0.2-1.3,0.6-2.1,0.5c-1.3-0.1-1.4-0.3-1.2-1.7
			c-1,1.1-2.1,1-3.1,0.3c-0.2-0.2-0.2-0.7-0.3-1.1c-1.7,0.8-3.2,0.2-3.1-1.4c-1,1-1.8,0.3-2.6-0.3
			C201.5,142,201.4,141.5,201.2,141.1z"/>
		<path class="st1" d="M160.8,136.8c0.3-1,0.5-1.9,0.7-2.8c12.2,3.4,24.3,6.7,36.5,10c0,0.1,0,0.1,0,0.2
			C185.6,141.7,173.3,139.2,160.8,136.8z"/>
		<path class="st1" d="M170.8,144.1c0.1-0.9,0.1-1.7,0.2-2.6c11.5,1.8,22.8,3.5,34.1,5.2c0,0.1,0,0.1,0,0.2
			C193.7,146,182.3,145.1,170.8,144.1z"/>
		<path class="st1" d="M200.2,154.5c0.1,0,0.1,0,0.2,0c0,0,0,0,0,0C200.3,154.6,200.3,154.6,200.2,154.5
			C200.2,154.6,200.2,154.6,200.2,154.5z"/>
	</g>
</g>
</svg>
