<?xml version="1.0" encoding="utf-8"?>
<!-- Generator: Adobe Illustrator 23.0.0, SVG Export Plug-In . SVG Version: 6.00 Build 0)  -->
<svg version="1.1" id="Layer_1" xmlns="http://www.w3.org/2000/svg" xmlns:xlink="http://www.w3.org/1999/xlink" x="0px" y="0px"
	 viewBox="0 0 440.3 313" style="enable-background:new 0 0 440.3 313;" xml:space="preserve">
<style type="text/css">
	.st0{fill:#FF6A19;}
	.st1{opacity:0.71;fill:#FF6A19;enable-background:new    ;}
	.st2{fill:#FFFFFF;stroke:#FF6A19;stroke-width:0.3697;stroke-miterlimit:10;}
	.st3{fill:#FFFFFF;}
	.st4{fill:#AE4C14;}
	.st5{opacity:0.4;fill:#FF6A19;enable-background:new    ;}
	.st6{fill:none;stroke:#FF6A19;stroke-width:0.7033;stroke-miterlimit:10;}
	.st7{fill:none;stroke:#FF6A19;stroke-width:0.559;stroke-miterlimit:10;}
	.st8{fill:#000A40;}
	.st9{fill:#FD5E5A;}
	.st10{fill:#80003B;}
	.st11{fill:#B73000;}
	.st12{fill:#CD3179;}
	.st13{fill:#FB9900;}
	.st14{fill:#FFF7CF;}
	.st15{fill:#FC7575;}
	.st16{fill:#E80000;}
	.st17{fill:#000F60;}
	.st18{fill:#2E0028;}
	.st19{fill:#172866;}
	.st20{fill:#1B2B80;}
	.st21{fill:#2846A6;}
	.st22{fill:#023135;}
	.st23{fill:#603E6B;}
	.st24{fill:#907897;}
	.st25{fill:#FF0076;}
	.st26{opacity:0.5;}
	.st27{fill:#B1B1B1;}
</style>
<g>
	<g>
		<g>
			<path class="st0" d="M255.1,52.9c-0.1,0-0.3,0-0.4-0.1c-0.6-0.4-1.3-0.8-2-1.2c-0.4-0.2-0.5-0.7-0.3-1.1c0.2-0.4,0.7-0.5,1.1-0.3
				c0.7,0.4,1.4,0.8,2,1.3c0.4,0.2,0.5,0.7,0.2,1.1C255.7,52.8,255.4,52.9,255.1,52.9z"/>
		</g>
		<g>
			<path class="st0" d="M150.8,167c-0.1,0-0.3,0-0.4-0.1c-1.7-0.9-3.1-1.7-4.1-2.3c-0.4-0.2-0.5-0.7-0.3-1.1
				c0.2-0.4,0.7-0.5,1.1-0.3c1,0.6,2.4,1.3,4.1,2.2c0.4,0.2,0.5,0.7,0.3,1.1C151.4,166.8,151.1,167,150.8,167z M141.2,161
				c-0.2,0-0.3-0.1-0.5-0.1c-1.3-0.9-2.5-1.9-3.7-2.9c-0.3-0.3-0.4-0.8-0.1-1.1c0.3-0.3,0.8-0.4,1.1-0.1c1.2,1,2.4,1.9,3.6,2.8
				c0.4,0.3,0.4,0.8,0.2,1.1C141.7,160.9,141.4,161,141.2,161z M132.5,153.7c-0.2,0-0.4-0.1-0.5-0.2c-1.1-1.1-2.2-2.2-3.3-3.3
				c-0.3-0.3-0.3-0.8,0-1.1c0.3-0.3,0.8-0.3,1.1,0c1,1.1,2.1,2.2,3.2,3.3c0.3,0.3,0.3,0.8,0,1.1C133,153.6,132.7,153.7,132.5,153.7z
				 M125,145.3c-0.2,0-0.5-0.1-0.6-0.3c-1-1.2-1.9-2.5-2.7-3.8c-0.2-0.4-0.2-0.8,0.2-1.1c0.4-0.2,0.8-0.1,1.1,0.2
				c0.8,1.3,1.7,2.5,2.7,3.7c0.3,0.3,0.2,0.8-0.1,1.1C125.3,145.3,125.1,145.3,125,145.3z M118.8,135.8c-0.3,0-0.5-0.2-0.7-0.4
				c-0.7-1.4-1.4-2.8-2.1-4.2c-0.2-0.4,0-0.9,0.4-1c0.4-0.2,0.9,0,1,0.4c0.6,1.4,1.3,2.8,2,4.1c0.2,0.4,0.1,0.9-0.3,1.1
				C119.1,135.8,118.9,135.8,118.8,135.8z M114.4,125.4c-0.3,0-0.6-0.2-0.8-0.5c-0.5-1.5-0.9-3-1.3-4.5c-0.1-0.4,0.2-0.9,0.6-0.9
				c0.4-0.1,0.8,0.2,0.9,0.6c0.4,1.5,0.8,3,1.2,4.4c0.1,0.4-0.1,0.9-0.5,1C114.5,125.4,114.5,125.4,114.4,125.4z M111.9,114.4
				c-0.4,0-0.7-0.3-0.8-0.7c-0.1-0.4-0.1-0.7-0.1-1.1c-0.1-1.2-0.2-2.4-0.3-3.6c0-0.4,0.3-0.8,0.7-0.8c0.4,0,0.8,0.3,0.8,0.7
				c0.1,1.2,0.2,2.3,0.3,3.5c0,0.4,0.1,0.7,0.1,1c0.1,0.4-0.3,0.8-0.7,0.9C112,114.4,111.9,114.4,111.9,114.4z M111.4,103.1
				C111.4,103.1,111.4,103.1,111.4,103.1c-0.5,0-0.8-0.4-0.8-0.8c0.1-1.6,0.2-3.1,0.3-4.7c0-0.4,0.4-0.7,0.9-0.7
				c0.4,0.1,0.7,0.4,0.7,0.9c-0.2,1.5-0.3,3.1-0.3,4.6C112.2,102.7,111.8,103.1,111.4,103.1z M112.8,91.8c0,0-0.1,0-0.2,0
				c-0.4-0.1-0.7-0.5-0.6-0.9c0.3-1.5,0.7-3.1,1.1-4.6c0.1-0.4,0.5-0.7,1-0.6c0.4,0.1,0.7,0.6,0.5,1c-0.4,1.5-0.8,3-1.1,4.4
				C113.5,91.6,113.1,91.8,112.8,91.8z M115.9,81c-0.1,0-0.2,0-0.3,0c-0.4-0.2-0.6-0.6-0.4-1c0.5-1.4,1.2-2.9,1.8-4.3
				c0.2-0.4,0.6-0.6,1-0.4c0.4,0.2,0.6,0.6,0.4,1c-0.6,1.4-1.2,2.8-1.8,4.2C116.6,80.8,116.3,81,115.9,81z M120.8,70.7
				c-0.1,0-0.3,0-0.4-0.1c-0.4-0.2-0.5-0.7-0.3-1.1c0.8-1.4,1.6-2.7,2.4-4c0.2-0.4,0.7-0.5,1.1-0.2c0.4,0.2,0.5,0.7,0.2,1.1
				c-0.8,1.3-1.6,2.6-2.4,3.9C121.3,70.6,121,70.7,120.8,70.7z M127.1,61.4c-0.2,0-0.3-0.1-0.5-0.2c-0.3-0.3-0.4-0.8-0.1-1.1
				c1-1.2,2-2.4,3-3.6c0.3-0.3,0.8-0.3,1.1-0.1c0.3,0.3,0.4,0.8,0.1,1.1c-1,1.1-2,2.3-3,3.5C127.6,61.3,127.4,61.4,127.1,61.4z
				 M134.8,53.1c-0.2,0-0.4-0.1-0.6-0.3c-0.3-0.3-0.3-0.8,0.1-1.1c1.2-1,2.4-2.1,3.6-3c0.4-0.3,0.8-0.2,1.1,0.2
				c0.3,0.3,0.2,0.8-0.2,1.1c-1.2,0.9-2.4,1.9-3.5,2.9C135.2,53,135,53.1,134.8,53.1z M247.3,48.4c-0.1,0-0.2,0-0.4-0.1
				c-1.4-0.7-2.8-1.3-4.2-1.9c-0.4-0.2-0.6-0.6-0.4-1c0.2-0.4,0.6-0.6,1-0.4c1.4,0.6,2.9,1.3,4.2,2c0.4,0.2,0.6,0.7,0.4,1.1
				C247.8,48.3,247.6,48.4,247.3,48.4z M144,46.4c-0.3,0-0.5-0.1-0.7-0.4c-0.2-0.4-0.1-0.8,0.3-1.1c1.3-0.8,2.7-1.5,4.1-2.2
				c0.4-0.2,0.9,0,1.1,0.4s0,0.9-0.4,1.1c-1.4,0.7-2.7,1.4-4,2.2C144.2,46.4,144.1,46.4,144,46.4z M236.9,44c-0.1,0-0.2,0-0.3,0
				c-1.4-0.5-2.9-1-4.4-1.4c-0.4-0.1-0.6-0.6-0.5-1c0.1-0.4,0.6-0.6,1-0.5c1.5,0.5,3,1,4.4,1.5c0.4,0.2,0.6,0.6,0.5,1
				C237.5,43.8,237.2,44,236.9,44z M154.2,41.6c-0.3,0-0.6-0.2-0.7-0.5c-0.2-0.4,0.1-0.9,0.5-1c1.4-0.5,2.9-1,4.5-1.4
				c0.4-0.1,0.9,0.1,1,0.5c0.1,0.4-0.1,0.9-0.5,1c-1.5,0.4-2.9,0.9-4.4,1.4C154.4,41.6,154.3,41.6,154.2,41.6z M226,40.8
				c-0.1,0-0.1,0-0.2,0c-1.5-0.4-3-0.7-4.5-1c-0.4-0.1-0.7-0.5-0.6-0.9c0.1-0.4,0.5-0.7,0.9-0.6c1.5,0.3,3.1,0.7,4.6,1
				c0.4,0.1,0.7,0.5,0.6,1C226.7,40.6,226.3,40.8,226,40.8z M165.1,38.7c-0.4,0-0.7-0.3-0.8-0.6c-0.1-0.4,0.2-0.8,0.6-0.9
				c1.5-0.3,3-0.5,4.6-0.8c0.4-0.1,0.8,0.2,0.9,0.7s-0.2,0.8-0.7,0.9c-1.5,0.2-3.1,0.5-4.5,0.8C165.2,38.7,165.2,38.7,165.1,38.7z
				 M214.9,38.6c0,0-0.1,0-0.1,0c-1.5-0.2-3-0.4-4.6-0.6c-0.4,0-0.7-0.4-0.7-0.9c0.1-0.4,0.4-0.7,0.9-0.7c1.6,0.2,3.1,0.4,4.6,0.6
				c0.4,0.1,0.7,0.5,0.7,0.9C215.6,38.4,215.3,38.6,214.9,38.6z M203.6,37.3C203.6,37.3,203.6,37.3,203.6,37.3
				c-1.6-0.1-3.1-0.2-4.7-0.3c-0.4,0-0.8-0.4-0.7-0.8c0-0.4,0.4-0.8,0.8-0.7c1.6,0.1,3.1,0.2,4.6,0.3c0.4,0,0.8,0.4,0.7,0.8
				C204.4,37,204,37.3,203.6,37.3z M176.4,37.2c-0.4,0-0.8-0.3-0.8-0.7c0-0.4,0.3-0.8,0.7-0.8c1.5-0.1,3.1-0.2,4.7-0.3
				c0.4,0,0.8,0.3,0.8,0.8c0,0.4-0.3,0.8-0.8,0.8C179.5,36.9,177.9,37,176.4,37.2C176.4,37.2,176.4,37.2,176.4,37.2z M192.3,36.8
				C192.3,36.8,192.3,36.8,192.3,36.8c-1.5,0-3,0-4.4,0h-0.3c-0.4,0-0.8-0.3-0.8-0.8s0.3-0.8,0.8-0.8h0.3c1.4,0,2.9,0,4.4,0
				c0.4,0,0.8,0.4,0.8,0.8C193.1,36.4,192.7,36.8,192.3,36.8z"/>
		</g>
	</g>
	<ellipse class="st1" cx="227.3" cy="270" rx="102.3" ry="7.9"/>
	<path class="st2" d="M311.3,77h-63c-8.5,0-15.4,6.9-15.4,15.4v132.4c0,8.5,6.9,15.4,15.4,15.4h63c8.5,0,15.4-6.9,15.4-15.4V92.4
		C326.7,83.9,319.8,77,311.3,77z"/>
	<path class="st0" d="M248.3,236.1c-6.2,0-11.3-5-11.3-11.1V95c0-6.1,5.1-11.1,11.3-11.1h63c6.2,0,11.3,5,11.3,11.1v130
		c0,6.1-5,11.1-11.3,11.1L248.3,236.1L248.3,236.1z"/>
	<path class="st3" d="M309.3,82.9h-59.8c-1.4,0-2.4-1.1-2.4-2.4l0,0c0-1.3,1.1-2.4,2.4-2.4h59.8c1.4,0,2.4,1.1,2.4,2.4l0,0
		C311.8,81.8,310.7,82.9,309.3,82.9z"/>
	<path class="st0" d="M310.1,80.5c0,1.1-0.9,2-2,2s-2-0.9-2-2c0-1.1,0.9-2,2-2S310.1,79.4,310.1,80.5z"/>
	<path class="st0" d="M299.6,81.4h-35.1c-0.5,0-0.9-0.4-0.9-0.9l0,0c0-0.5,0.4-0.8,0.9-0.8h35.1c0.5,0,0.9,0.4,0.9,0.8l0,0
		C300.5,81,300.1,81.4,299.6,81.4z"/>
	<rect x="243.7" y="97.9" class="st3" width="72.3" height="106.2"/>
	<path class="st3" d="M274.3,210.1c0,0.7-0.6,1.3-1.3,1.3s-1.3-0.6-1.3-1.3c0-0.7,0.6-1.3,1.3-1.3
		C273.7,208.8,274.3,209.4,274.3,210.1z"/>
	<path class="st3" d="M279,210.1c0,0.7-0.6,1.3-1.3,1.3c-0.7,0-1.3-0.6-1.3-1.3c0-0.7,0.6-1.3,1.3-1.3
		C278.5,208.8,279,209.4,279,210.1z"/>
	<path class="st3" d="M283.8,210.1c0,0.7-0.6,1.3-1.3,1.3s-1.3-0.6-1.3-1.3c0-0.7,0.6-1.3,1.3-1.3
		C283.3,208.8,283.8,209.4,283.8,210.1z"/>
	<g>
		<g>
			<path class="st3" d="M308.5,94.3c0,0.5,0.4,0.8,0.9,0.8s0.9-0.4,0.9-0.8s-0.4-0.9-0.9-0.9C308.9,93.4,308.5,93.8,308.5,94.3z"/>
		</g>
		<g>
			<circle class="st3" cx="309.3" cy="94.3" r="0.5"/>
		</g>
		<g>
			<path class="st3" d="M304.8,94.3c0,0.5,0.4,0.8,0.9,0.8s0.9-0.4,0.9-0.8s-0.4-0.9-0.9-0.9S304.8,93.8,304.8,94.3z"/>
		</g>
		<g>
			<path class="st3" d="M305.2,94.3c0,0.3,0.2,0.5,0.5,0.5s0.5-0.2,0.5-0.5s-0.2-0.5-0.5-0.5S305.2,94,305.2,94.3z"/>
		</g>
		<path class="st3" d="M305.1,92l-1.6-2.8c-0.1-0.1-0.1-0.3,0-0.4c0.1-0.1,0.2-0.2,0.4-0.2h6.3c0.1,0,0.2,0.1,0.2,0.1
			s-0.1,0.1-0.2,0.1h-6.3c-0.1,0-0.1,0.1-0.1,0.1c0,0,0,0.1,0,0.1l1.6,2.8c0,0.1,0.1,0.1,0.1,0.1h4.1l1.1-3.7c0.1-0.4,0.5-0.7,1-0.7
			h1.2c0.1,0,0.2,0.1,0.2,0.2c0,0.1-0.1,0.2-0.2,0.2h-1.2c-0.3,0-0.6,0.2-0.7,0.5l-1.4,4.8h-4.5c-0.1,0-0.2-0.1-0.2-0.2
			c0-0.1,0.1-0.2,0.2-0.2h4.3l0.2-0.6h-4.1C305.3,92.2,305.2,92.2,305.1,92z"/>
	</g>
	<rect x="261.7" y="214.4" class="st3" width="54.2" height="2.4"/>
	<rect x="261.7" y="219.8" class="st3" width="54.2" height="2.4"/>
	<path class="st4" d="M124.2,190.1c-10.6,12.2,18.2,84.4,18.2,84.4h83.6c0,0,12.9-32.8,9.1-42.1c-4.2-10.3-30-1.8-30-1.8
		s-2.7-34.2-8.1-39.2C180.2,176,138.1,174,124.2,190.1z"/>
	<path class="st4" d="M133.8,183.3c3.6-1.6,32-8.5,40.1,16.9c1.6,5.2,2.7,10.8,3.5,16.1c0.9,6.1,1.6,12.1,2.1,18.3
		c0,0.1,0,0.2,0,0.3c0,0,25.8-8.6,30,1.8c2.9,7.2-4.2,28.5-7.5,37.8h-59.7c0,0-28.8-72.2-18.2-84.4
		C126.6,187.2,129.9,185,133.8,183.3z"/>
	<path class="st4" d="M205,230.5c0,0,25.8-8.6,30,1.8c2.8,6.8-3.5,26.5-7,36.3l-2.9,5.8h-35L205,230.5z"/>
	<polygon class="st4" points="225.5,274.4 176.9,274.4 180.4,247.4 234.4,247.4 	"/>
	<path class="st4" d="M228.7,274.4l-7.5,0c0,0,18.8-33.2,13.4-42.4c-1.6-2.7-25-0.8-29.6-1.5c8.6-6.6,42.7-13.5,44.6-2.5
		C251.5,238.6,228.7,274.4,228.7,274.4z"/>
	<g>
		<polygon class="st0" points="277.9,59.7 254.8,45.7 249.2,51.5 		"/>
		<polygon class="st5" points="254.8,63 255.1,52.1 277.9,59.7 		"/>
		<polygon class="st5" points="254.8,36.7 277.9,59.7 254.8,45.7 		"/>
		<polygon class="st4" points="249.2,51.5 255.1,52.1 255.1,53.7 		"/>
	</g>
	<g>
		<g>
			<path class="st0" d="M263.5,177.8c0,3.7-3,6.8-6.8,6.8c-3.7,0-6.8-3-6.8-6.8s3-6.8,6.8-6.8C260.5,171,263.5,174.1,263.5,177.8z"
				/>
			<g>
				<path class="st3" d="M256.8,175.4c0.6,0,1-0.4,1-1h-2C255.8,175,256.2,175.4,256.8,175.4z"/>
				<path class="st3" d="M261.1,175.4l-2.9-0.9c0,0,0,0-0.1,0h0c0,0.7-0.6,1.3-1.3,1.3s-1.3-0.6-1.3-1.3h0c0,0,0,0-0.1,0l-2.9,0.9
					c-0.1,0-0.1,0.1-0.1,0.2l0.4,1.5c0,0.1,0.1,0.1,0.2,0.1l1.2-0.3c0.1,0,0.2,0.1,0.2,0.2l0.1,3.9c0,0.1,0.1,0.2,0.2,0.2h4.3
					c0.1,0,0.2-0.1,0.2-0.2l0.1-3.9c0-0.1,0.1-0.2,0.2-0.2l1.2,0.3c0.1,0,0.2,0,0.2-0.1l0.4-1.5
					C261.2,175.5,261.2,175.4,261.1,175.4z"/>
			</g>
		</g>
		<g>
			<path class="st0" d="M263.5,145c0,3.7-3,6.8-6.8,6.8c-3.7,0-6.8-3-6.8-6.8s3-6.8,6.8-6.8C260.5,138.3,263.5,141.3,263.5,145z"/>
			<g>
				<g>
					<path class="st3" d="M252.7,143.6v2.4c0,0.1,0.1,0.1,0.1,0.1h4c0.2-0.4,0.7-1,1.7-1.9c0.3-0.3,0.5-0.5,0.8-0.8h-6.4
						C252.8,143.4,252.7,143.5,252.7,143.6z"/>
					<path class="st3" d="M257.6,146.2h2.9c0.1,0,0.1-0.1,0.1-0.1v-2.4c0-0.1-0.1-0.1-0.1-0.1h-0.3
						C259.3,144.3,258.2,145.5,257.6,146.2z"/>
				</g>
				<g>
					<path class="st3" d="M260.2,143.4c-0.1,0.1-0.2,0.2-0.3,0.3h0.8v-0.3H260.2z"/>
					<path class="st3" d="M252.7,143.7h3.6v1.3l0.5-0.6l0.4,0.6v-1.3h1.9c0.1-0.1,0.2-0.2,0.3-0.3h-6.6L252.7,143.7L252.7,143.7z"/>
				</g>
				<g>
					<path class="st3" d="M259.3,143.4c0.6-0.6,1.2-1.1,1.4-1.3h-7.8c0,0,0,0.1,0,0.1c-0.1,0.3-0.2,0.7-0.4,1.2c0,0,0,0,0,0H259.3z"
						/>
					<path class="st3" d="M260.9,143.4c0.1,0,0.1-0.1,0.1-0.1v-0.7c-0.3,0.2-0.5,0.5-0.9,0.8H260.9z"/>
				</g>
				<path class="st3" d="M256.9,148.5c-1,0-5.8-0.1-5.8-1.1c0-1.1,1.2-5.2,1.2-5.4c0-0.1,0.1-0.1,0.2-0.1c0.1,0,0.1,0.1,0.1,0.2
					c0,0-1.2,4.2-1.2,5.3c0,0,0,0.1,0.2,0.2c1.6,0.8,8.9,0.8,9.7,0.1c0,0,0,0,0-0.1c-0.2-0.6-1.9-0.6-3-0.5c-1,0-1.8,0.1-1.8-0.4
					c0-0.7,3.5-4.1,4-4.6c0.2-0.2,0.4,0.1,0.2,0.3c-0.5,0.5-3.8,3.6-3.9,4.3c0.6,0.3,4.4-0.5,4.7,0.8c0,0.1,0,0.3-0.1,0.4
					C261.1,148.5,257.8,148.5,256.9,148.5z"/>
			</g>
		</g>
		<g>
			<path class="st0" d="M263.5,115.9c0,3.7-3,6.8-6.8,6.8c-3.7,0-6.8-3-6.8-6.8c0-3.7,3-6.8,6.8-6.8
				C260.5,109.1,263.5,112.1,263.5,115.9z"/>
			<path class="st3" d="M257.7,114.7l0.4-2.1h-0.4v-1c0-0.1-0.1-0.1-0.1-0.1c-0.1,0-0.1,0.1-0.1,0.1v1h-1.2v-1
				c0-0.1-0.1-0.1-0.1-0.1c-0.1,0-0.1,0.1-0.1,0.1v1h-0.4c0,0,0.4,1.5,0.4,2.1c0,0-1.3,1.2-1.9,2.7s-0.6,2.1-0.6,2.1s0.9,0.1,1.6,0
				s0.6,0.5,1.5,0.3c0.9-0.2,1.8-0.4,2.1-0.1c0.3,0.3,1.5,0,1.5,0S259.9,116.2,257.7,114.7z"/>
		</g>
	</g>
	<g>
		<line class="st6" x1="271.4" y1="112.1" x2="307.9" y2="112.1"/>
		<line class="st7" x1="271.4" y1="116.5" x2="294.5" y2="116.5"/>
	</g>
	<g>
		<line class="st6" x1="271.4" y1="142.6" x2="307.9" y2="142.6"/>
		<line class="st7" x1="271.4" y1="147" x2="294.5" y2="147"/>
	</g>
	<g>
		<line class="st6" x1="271.4" y1="175.9" x2="307.9" y2="175.9"/>
		<line class="st7" x1="271.4" y1="180.2" x2="294.5" y2="180.2"/>
	</g>
	<g>
		<path class="st8" d="M162.6,156.2c0,0-3.1,0.3-3.4,4c-0.4,3.8-3.6,3.9-4.6,2.1c-1-1.8,0.8-2.6,0.8-2.6s-3.3,0.7-2.9,3.1
			c0.3,2.4,3.3,3.2,3.3,3.2s-3.8-1.5-4.3,2.1c-0.5,3.6,3,4.4,3,4.4s-1.2-2.1,0.2-2.8c1.4-0.7,2.7,3.7,2.7,3.7s-0.2,2.3,2.7-0.3
			c2.9-2.5,6.1,1.2,5.8,2.2c-0.3,1,4.1-1.5,3.8-3.5c-0.3-2,2.2-1.7,1.8-0.3c0,0,3.3-2.5,0.9-4.3c-2.4-1.8-2.1-1.3-1.6-2.8
			c0.5-1.5-0.7-5.7-2.2-7.2C167,155.7,162.6,156.2,162.6,156.2z"/>
		<path class="st9" d="M183.8,193.4c-0.1-0.1-0.7-2.5-0.8-2.8c-1.8,0.7-2.7,1.6-4.4,2.4c0.5,1.2,0,3.8,0.5,4.2
			c3.3,3.3,15.5,5.2,19.3,3c0.6-0.3,0.9-2.5,0.9-2.5S185.1,194.7,183.8,193.4z"/>
		<path class="st10" d="M181,178c-1.8-6.6-9-8.8-9-8.8s1.9,18.5,5,25.4c1.7-0.8,5.7-3.1,7.5-3.8C183.4,188.7,182.2,182.5,181,178z"
			/>
		<path class="st11" d="M175.6,224.9c0,0,34.5-18.2,41-18.2c6.6,0,7.4,4,7.4,6.6c0,2.6-13.2,20.8-24.2,27.1
			c-11,6.2-25.5-15.4-25.5-15.4L175.6,224.9L175.6,224.9z"/>
		<path class="st11" d="M162.9,220.1c-2.9,3.1-4.7,8.2-4.7,9.8c0,0,17.8-0.8,19.4-2.6c0.5-0.5,0.7-1.1,1.4-6.1
			C172.8,221.4,169.2,219.6,162.9,220.1z"/>
		<path class="st12" d="M159.1,168.2c0,0-6.1,0.8-8.1,2.2c0,0,6.5,12.6,8.3,19.7c1.5,5.8,0,26-1.3,34.8c6.3-0.5,15.8-2.9,22-3.1
			c1.4-10.8-0.8-32.3-1.2-38.5C178.3,174.2,177.3,168,159.1,168.2z"/>
		<path class="st13" d="M230.5,224.9c-1.8-3.1-71.6-5.8-72.5,6.3s11.3,17.8,32.9,15.1C212.6,243.6,237.3,236.7,230.5,224.9z"/>
		<path class="st14" d="M229.5,224.3c-0.4-0.1-0.8-0.2-1.2-0.3c-0.8-0.2-1.6-0.3-2.4-0.5c-14.5-2.4-50.6-3.1-63.8,3.2
			c-0.7,0.4-1.5,0.8-2.1,1.3c-0.7,0.5-1.3,1.2-1.6,1.9c-0.1,0.2-0.1,0.4-0.2,0.6c0,0.2-0.1,0.4-0.1,0.6c0,0.4,0,0.8,0,1.2
			c0,0.8,0.1,1.6,0.3,2.5c-0.1-0.8-0.2-1.6-0.2-2.5c0-0.8,0-1.7,0.4-2.4c0.4-0.7,0.9-1.3,1.6-1.8c0.7-0.5,1.4-0.8,2.1-1.2
			c12.2-5.4,50.4-5,63.6-3.4c0.8,0.1,1.6,0.2,2.4,0.4C228.6,224.2,229,224.3,229.5,224.3c0.3,0.2,0.8,0.3,1,0.6
			C230.3,224.6,229.8,224.5,229.5,224.3z"/>
		<path class="st15" d="M182.5,245.3c0,0-3.5,3.2-1.2,4.6c2.3,1.4,7.6-0.6,11.8,1.4c4.2,2,9.1,2.2,9.6,1.3c0.5-0.9-1.3-5.5-6-7.3
			C192,243.6,182.5,245.3,182.5,245.3z"/>
		<path class="st16" d="M198,245.3c0,0-1.9-0.4-1.9,0.1c0,0.6,1.2,0.8,1.2,0.8s-0.1,0.9,0.8,1.2c0.9,0.3,1,0.4,1,0.4
			s-0.4,0.7,0.7,1.2s1,0.5,1,0.5s-0.2,1.1,0.6,1.3c0,0-1.2,1.4,0.5,2.1c1.7,0.6,2.1-0.6,2.1-1c0-0.4-1.2-0.9-1.2-0.9
			s0.5-1.5-0.8-1.6c0,0,0.3-1.9-1.6-1.7c0,0,0.5-1.1-1.5-1.6C198.8,246,198.6,245.3,198,245.3z"/>
		<path class="st17" d="M175.7,146c0.2,0.5,1.3,10.2-0.5,12.7c-1.7,2.6-4.6,1.2-7.1,0.4s-4.2-1.8-4.2-1.8S174.3,142.6,175.7,146z"/>
		<path class="st15" d="M170.8,160.2c0.2,0.4-3.3,7.8-2.9,10.3c0,0,3.3,10.1,1.3,9.7c-1.7-0.3-8.8-9.5-8.7-11.1
			c0.2-2.2,3.8-12.4,3.8-12.4L170.8,160.2z"/>
		<path class="st9" d="M169.8,163c-3.3,1.5-6.4-0.6-6-4.9c0.5-1.4,0.4-1.3,0.5-1.4l6.5,3.5C170.9,160.3,170.4,161.3,169.8,163z"/>
		<path class="st15" d="M175.3,142.5c0,0,3.1,1.6,2.6,4.5c-0.5,2.9-0.6,5.4-2.2,8.4c-1.5,3.1-4.8,6.8-8.2,6.5
			c-3.4-0.3-5.1-6.5-4.2-9.4c0.9-2.9,1.2-8,4.2-10.3C170.7,140,175.3,142.5,175.3,142.5z"/>
		<g>
			<path class="st3" d="M167.1,156.3c1.5,1.3,4,2.1,4,2.1s-0.3,0.3-0.7,0.6c-0.7-0.3-2.1-0.8-3.2-1.6
				C167.1,156.7,167.1,156.3,167.1,156.3z"/>
			<path class="st18" d="M167.2,157.3c1.1,0.8,2.5,1.4,3.2,1.6C168.7,160,167.6,159.2,167.2,157.3z"/>
		</g>
		<path class="st9" d="M175.3,142.5c0,0,3.1,1.6,2.6,4.5c-0.4,2.6-0.6,4.9-1.8,7.6c-0.4-0.5-1-1.2-1.9-1.8
			c-2.9-1.6-3.8-6.9-3.6-10.5c0-0.1,0.3-1.2,1-1.6C174.2,140.5,175.3,142.5,175.3,142.5z"/>
		<g>
			<path class="st19" d="M171.4,155.5c0.2-0.9,0.4-1.8,0.7-2.7c-0.1,1.2-0.4,2-0.5,2.9c-0.5,0-1.2,0.1-1.8-0.4
				C170.2,155.6,170.8,155.6,171.4,155.5z"/>
		</g>
		<path class="st19" d="M170.4,152.2c0-0.6-0.3-1.2-0.8-1.5c-1-0.6-2.1,0.7-2.8,0.5c0.4,0.4,1.6-0.2,2.2-0.3c0.3,0,0.6,0.1,0.9,0.4
			C170.1,151.6,170.3,151.9,170.4,152.2z"/>
		<path class="st19" d="M168.7,151.2c-0.1,0.3,0.1,0.6,0.3,0.7c0.3,0.1,0.6-0.1,0.7-0.4c0.1-0.3-0.1-0.6-0.3-0.7
			S168.8,150.9,168.7,151.2z"/>
		<path class="st19" d="M172.7,153.3c0.3-0.4,0.9-0.8,1.6-0.7c1.1,0.1,1.2,1.8,2,2.1c-0.6,0.1-1.1-1.1-1.6-1.5
			c-0.3-0.2-0.6-0.2-0.9-0.2C173.4,153,173,153.1,172.7,153.3z"/>
		<path class="st19" d="M174.7,153.5c-0.1,0.3-0.4,0.5-0.7,0.4s-0.4-0.4-0.3-0.8c0.1-0.3,0.4-0.5,0.7-0.4S174.9,153.2,174.7,153.5z"
			/>
		<path class="st19" d="M171.6,149.9c0.1,0-0.5-1.3-1.6-1.7s-2.6,0.4-2.6,0.4s1.9-0.5,2.5,0.1C170.5,149.2,170.8,150.1,171.6,149.9z
			"/>
		<path class="st20" d="M173.2,139.2c-2.4-0.4-6-2.2-8.9,1.1c-1.7,1.9-2.9-0.2-5.2,7.3c-3.4,11.2,4.7,10.3,4.7,10.3
			s-0.5-0.7,0.9-6.9c0,0,0,0.1,0,0.1s0.2-0.9,0.6-2c0,0,0,0,0,0c0.1-0.3,0.2-0.7,0.3-1c0.4-1.1,0.8-2.2,1.1-3
			c0.9-1.8,1.9-2.5,3.9-2.8c1.9-0.3,7.3,3.9,7.3,3.9C178.8,142.6,175.6,139.7,173.2,139.2z"/>
		<path class="st21" d="M176.2,140.8c2.8,1.6,2.3,6.4,3.9,9.6c1.7,3.2,0,6.5-1.9,8.4c-1.9,2-3.3-0.1-3.3-0.1s0.8,0.8,2-0.9
			c1.2-1.7,0.6-3.6-2.4-5.6c-2.9-2.1-4-9.9-4-9.9C171,141,173.4,139.3,176.2,140.8z"/>
		<path class="st22" d="M175,158.7c0.9,1,3.4-1.3,2.8-3.4c-0.4-1.6-2.1-2.8-3.4-3.9c-1.9-2.1-3-6.4-3.7-9.1c0.2,3,1.1,7.4,3.2,9.7
			l0.5,0.4c0.6,0.4,2.3,1.5,2.8,3.1c0.4,1.2-0.4,2.6-1.1,3.2C175.8,158.9,175.3,159,175,158.7z"/>
		<path class="st15" d="M165.2,151.7c0,0,0.3-3.8-1.4-3.4s-1.4,4.9-0.1,5.3C165.1,154,165.2,151.7,165.2,151.7z"/>
		<path class="st9" d="M164.5,149.3c0,0,1,3.9-0.3,3.1C163,151.6,163.4,148.3,164.5,149.3z"/>
		<path class="st9" d="M168.7,154c-0.3,0.4-1.1,0.3-1.8-0.3c-0.7-0.5-1.1-1.3-0.8-1.6c0.3-0.4,1.1-0.3,1.8,0.3
			C168.6,152.9,169,153.6,168.7,154z"/>
		<path class="st9" d="M175.3,155.8c-0.1,0.4-0.7,0.7-1.5,0.6c-0.8-0.1-1.3-0.5-1.2-1c0.1-0.4,0.7-0.7,1.5-0.6
			C174.8,154.9,175.4,155.4,175.3,155.8z"/>
		<path class="st15" d="M193.6,184.5c-0.8-0.2-2.8-0.2-4.6-0.2c-0.3-0.1-0.6-0.3-0.9-0.4c1.5-0.4,3.3-0.9,3.7-1.3
			c0.6-0.6-3.9,0.6-5.6,1c-2.2,0.3-3.3,3.9-4.8,5.3c-1.5,1.5-13,7.5-15.6,8c-2.1,0.4-3.4-4.5-4-6.7c-3.2,2.2-4.5,5.4-7,8.3
			c1.1,3.5,2.8,7.4,4.3,8.2c5.6,3.2,19.3-10.7,22.1-13.5c2.8-2.8,5.4-6.5,5.4-6.5s2.3-0.9,3.3-0.9c0.8,0,0.9-0.3,0.6-0.7
			C192.6,185.1,194.3,184.8,193.6,184.5z"/>
		<path class="st9" d="M162.8,193.3c-0.4-1.1-0.7-2.2-0.9-3c-3.2,2.2-4.5,5.4-7,8.3c0.3,1,0.6,2,1,2.9
			C157.5,199.5,160.7,195.4,162.8,193.3z"/>
		<path class="st9" d="M160.4,205.7c0,0,0.2,1.5,0.6,1.5s2.7-0.6,2.7-1.2C163.7,205.4,160.4,205.1,160.4,205.7z"/>
		<polygon class="st23" points="213.6,178.8 195,176.6 183.4,198.7 198.5,198.7 		"/>
		<path class="st15" d="M198.6,193.3c0-1.9,0.6-3.6-0.6-2.4s-0.3,3.9-1.2,4.4c-0.9,0.5-3.3-7.3-4.6-7.3c-1.1,0,0.7,3.1,1.1,5.1
			c-1-1.5-2.6-3.8-3.4-4.1c-1-0.3,1.4,3.5,2.6,5.3c-1.3-1-3.6-4.3-4.2-3.9c-0.9,0.5,1.8,3.6,3.2,5c1.4,1.4-3.6-2.4-3.6-1
			s3.1,2.1,4.1,3.2c0.8,0.8,2.8,1.9,3.9,2.4c2.7,1.4,3.9-1.3,3.1-4.3C198.8,195.1,198.6,194.2,198.6,193.3z"/>
		<polygon class="st24" points="194.4,175.6 182.5,198.3 183.4,198.7 195,176.6 213.6,178.8 212.5,177.9 		"/>
		<path class="st25" d="M152.3,169.2c0,0-3.9,0.3-5.1,3.6c-1.1,3.3,5.8,27.8,5.8,27.8l10.1-9.3C163.2,191.3,158.9,169.2,152.3,169.2
			z"/>
	</g>
	<path class="st4" d="M193.1,232.3c-6-10.3-42.9-1.8-42.9-1.8c-1-9-4.3-30.5-10-37.7c-4.9-6.2-17-9.1-19,4.1
		c-3.7,23.9,24.9,86.1,21.1,77.4h37.8C180.1,274.4,198.5,241.6,193.1,232.3z"/>
	<path class="st0" d="M180.1,274.4h-14.3c0,0,19.3-32.7,14.9-42.5c-2.6-5.7-7.1-3.7-11.7-4.4c10.1-0.9,23.4-1.8,26.5,3.4
		C200.9,240.3,180.1,274.4,180.1,274.4z"/>
	<g class="st26">
		<path class="st0" d="M140.3,192.9c5.7,7.2,9,28.7,10,37.7c0.1,0,21.8-4.8,33.7-3.6c15.9,2.2-12.4,46.6-12.7,47.4h-5.4
			c0.3-1,18.7-41.8,13.3-44c-5-2.1-29.8,3.1-32.1,3.4c-1-9-4.3-30.5-10-37.7c-3.2-4.1-9.6-6.7-14.1-4.3
			C127,184.8,136.1,187.7,140.3,192.9z"/>
		<path class="st0" d="M173.2,227.3C174.6,227.1,175.1,227.1,173.2,227.3L173.2,227.3z"/>
	</g>
	<path class="st27" d="M141.7,194.2c0.1,0.4,5.8,7.7,9.3,35.2c9.2-2,35.2-6.1,43-1c2.2,1.4,2.4,2.8,2.6,3.2
		c3.5,9.1-11.1,34.4-16.6,42.8c4.3-7.9,18.8-34.8,14.7-42.8c-3.9-7.6-36.9-1.7-45.4,0c-1.5-12-2.4-19.4-5.9-30.8
		c0-0.1-0.9-2.5-0.9-2.4c-2.1-4.9-4.2-8.2-9.3-10c-2.1-0.7-4.4-1-6.6-0.2C130.9,186.5,137.5,188,141.7,194.2z"/>
</g>
</svg>
