<?xml version="1.0" encoding="utf-8"?>
<!-- Generator: Adobe Illustrator 23.0.0, SVG Export Plug-In . SVG Version: 6.00 Build 0)  -->
<svg version="1.1" id="Layer_1" xmlns="http://www.w3.org/2000/svg" xmlns:xlink="http://www.w3.org/1999/xlink" x="0px" y="0px"
	 viewBox="0 0 470.5 316" style="enable-background:new 0 0 470.5 316;" xml:space="preserve">
<style type="text/css">
	.st0{fill:#FFFFFF;stroke:#FF6A19;stroke-width:0.4353;stroke-miterlimit:10;}
	.st1{fill:#FF6A19;}
	.st2{fill:#FFFFFF;}
	.st3{fill:#EBEBEC;}
	.st4{fill:#D85F1F;}
	.st5{fill:#D1D2D3;}
	.st6{fill:none;stroke:#FF6A19;stroke-linecap:round;stroke-miterlimit:10;}
	.st7{fill:none;stroke:#FF6A19;stroke-width:0.473;stroke-linecap:round;stroke-miterlimit:10;}
	.st8{fill:#FC7575;}
	.st9{fill:#2D1175;}
	.st10{fill:#FD5E5A;}
	.st11{fill:#5D69A5;}
	.st12{fill:#C20095;}
	.st13{fill:#25252F;}
	.st14{fill:#9D00BD;}
	.st15{fill:#464F7C;}
	.st16{fill:none;stroke:#FF6A19;stroke-width:0.8511;stroke-miterlimit:10;}
	.st17{display:none;fill:none;stroke:#FF6A19;stroke-width:1.1346;stroke-miterlimit:10;}
</style>
<g>
	<path class="st0" d="M329,41.3h-74.2c-10,0-18.2,8.1-18.2,18.2v155.9c0,10,8.1,18.2,18.2,18.2H329c10,0,18.2-8.1,18.2-18.2V59.5
		C347.2,49.5,339,41.3,329,41.3z"/>
	<path class="st1" d="M254.8,228.7c-7.3,0-13.3-5.8-13.3-13V62.6c0-7.2,6-13,13.3-13H329c7.3,0,13.3,5.8,13.3,13v153.1
		c0,7.2-6,13-13.3,13H254.8z"/>
	<path class="st2" d="M326.7,48.3h-70.4c-1.6,0-2.9-1.3-2.9-2.9l0,0c0-1.6,1.3-2.9,2.9-2.9h70.4c1.6,0,2.9,1.3,2.9,2.9l0,0
		C329.6,47,328.3,48.3,326.7,48.3z"/>
	<path class="st1" d="M327.5,45.5c0,1.3-1,2.3-2.3,2.3c-1.3,0-2.3-1-2.3-2.3c0-1.3,1-2.3,2.3-2.3C326.5,43.2,327.5,44.2,327.5,45.5z
		"/>
	<path class="st1" d="M315.3,46.5h-41.3c-0.5,0-1-0.5-1-1l0,0c0-0.5,0.5-1,1-1h41.3c0.5,0,1,0.5,1,1l0,0
		C316.3,46.1,315.8,46.5,315.3,46.5z"/>
	<rect x="249.4" y="66" class="st2" width="85.1" height="125"/>
	<path class="st2" d="M285.4,198.1c0,0.8-0.7,1.5-1.5,1.5c-0.8,0-1.5-0.7-1.5-1.5s0.7-1.5,1.5-1.5
		C284.7,196.6,285.4,197.2,285.4,198.1z"/>
	<path class="st2" d="M291,198.1c0,0.8-0.7,1.5-1.5,1.5c-0.8,0-1.5-0.7-1.5-1.5s0.7-1.5,1.5-1.5S291,197.2,291,198.1z"/>
	<path class="st2" d="M296.7,198.1c0,0.8-0.7,1.5-1.5,1.5c-0.8,0-1.5-0.7-1.5-1.5s0.7-1.5,1.5-1.5
		C296,196.6,296.7,197.2,296.7,198.1z"/>
	<g>
		<g>
			<path class="st2" d="M325.7,61.7c0,0.5,0.5,1,1,1s1-0.5,1-1s-0.5-1-1-1S325.7,61.1,325.7,61.7z"/>
		</g>
		<g>
			<circle class="st2" cx="326.7" cy="61.7" r="0.5"/>
		</g>
		<g>
			<path class="st2" d="M321.3,61.7c0,0.5,0.5,1,1,1s1-0.5,1-1s-0.5-1-1-1S321.3,61.1,321.3,61.7z"/>
		</g>
		<g>
			<path class="st2" d="M321.8,61.7c0,0.3,0.2,0.5,0.5,0.5s0.5-0.2,0.5-0.5s-0.2-0.5-0.5-0.5C322,61.1,321.8,61.4,321.8,61.7z"/>
		</g>
		<path class="st2" d="M321.7,59l-1.9-3.2c-0.1-0.2-0.1-0.3,0-0.5c0.1-0.2,0.3-0.2,0.5-0.2h7.5c0.1,0,0.2,0.1,0.2,0.2
			c0,0.1-0.1,0.2-0.2,0.2h-7.5c-0.1,0-0.1,0-0.2,0.1c0,0,0,0.1,0,0.2l1.9,3.2c0,0,0.1,0.1,0.2,0.1h4.9l1.2-4.3
			c0.1-0.5,0.6-0.9,1.1-0.9h1.4c0.1,0,0.2,0.1,0.2,0.2c0,0.1-0.1,0.2-0.2,0.2h-1.4c-0.4,0-0.7,0.2-0.8,0.6l-1.6,5.7h-5.3
			c-0.1,0-0.2-0.1-0.2-0.2c0-0.1,0.1-0.2,0.2-0.2h5l0.2-0.7h-4.8C322,59.3,321.8,59.2,321.7,59z"/>
	</g>
	<g>
		<path class="st1" d="M306,56.5h-0.5c0.4-1.7,2.3-1.7,2.9-0.7c0.4,0.6,0.3,1.3-0.5,1.8c0.9,0.4,1.3,1.4,0.7,2.3
			c-0.7,1.2-2.9,1.3-3.3-0.7h0.5c0.5,2.1,3.3,0.7,2.3-0.7c-0.3-0.5-0.8-0.5-1.4-0.6v-0.5c0.6,0,1.2-0.3,1.2-0.9c0-0.8-1-1.1-1.6-0.7
			C306.2,56,306.1,56.2,306,56.5z"/>
	</g>
	<rect x="270.6" y="203.1" class="st2" width="63.8" height="2.9"/>
	<rect x="270.6" y="209.5" class="st2" width="63.8" height="2.9"/>
	<g>
		<path class="st1" d="M338.8,65.2v-2.4c0-6.7-5.6-12.2-12.5-12.2h-69.7c-6.9,0-12.4,5.5-12.4,12.2v2.4H338.8z"/>
		<path class="st3" d="M326.3,50.6h-8.9c5.6,0,10.1,5.5,10.1,12.2v2.4h11.3v-2.4C338.8,56.1,333.2,50.6,326.3,50.6z"/>
		<path class="st1" d="M317.4,50.6h-11.6c1.4,0,2.5,5.5,2.5,12.2v2.4h19.2v-2.4C327.5,56.1,323,50.6,317.4,50.6z"/>
		<path class="st3" d="M274.9,50.6h-14.1c-5.6,0-10.1,5.5-10.1,12.2v2.4h19.2v-2.4C269.9,56.1,272.1,50.6,274.9,50.6z"/>
		<path class="st1" d="M291.6,50.6h-16.7c-2.8,0-5.1,5.5-5.1,12.2v2.4h19.3v-2.4C289.1,56.1,290.2,50.6,291.6,50.6z"/>
		<path class="st3" d="M305.8,50.6h-14.1c-1.4,0-2.5,5.5-2.5,12.2v2.4h19.2v-2.4C308.3,56.1,307.2,50.6,305.8,50.6z"/>
		<path class="st4" d="M244.2,74.3c3.8-1.3,6.5-4.9,6.5-9.1h-6.5V74.3z"/>
		<path class="st5" d="M260.3,74.8c5.3,0,9.6-4.3,9.6-9.6h-19.2C250.7,70.5,255,74.8,260.3,74.8z"/>
		<path class="st4" d="M279.5,74.8c5.3,0,9.6-4.3,9.6-9.6h-19.2C269.9,70.5,274.2,74.8,279.5,74.8z"/>
		<path class="st5" d="M298.7,74.8c5.3,0,9.6-4.3,9.6-9.6h-19.2C289.1,70.5,293.4,74.8,298.7,74.8z"/>
		<path class="st4" d="M317.9,74.8c5.3,0,9.6-4.3,9.6-9.6h-19.2C308.3,70.5,312.6,74.8,317.9,74.8z"/>
		<path class="st5" d="M338.8,74.7v-9.5h-11.3c0,5.3,4.3,9.6,9.6,9.6C337.7,74.8,338.2,74.8,338.8,74.7z"/>
	</g>
	<line class="st6" x1="109.6" y1="278.9" x2="360.9" y2="278.9"/>
	<g>
		<line class="st7" x1="171.1" y1="227.2" x2="160.7" y2="227.5"/>
		<line class="st7" x1="167.8" y1="230.4" x2="157.4" y2="230.7"/>
		<line class="st7" x1="171.3" y1="233.3" x2="160.9" y2="233.7"/>
	</g>
	<g>
		<g>
			<path class="st8" d="M178.1,120.6c0,0,3.9,5.2,4.4,8.8c0.6,3.7,1.3,9.5,1.3,9.5h-1.6c0,0-1.3,3.3-1.3,5.4s-3.3,0.8-5.2,0.8
				s-6.2-1.7-7.8-7.9C166.3,131,163.2,119.9,178.1,120.6z"/>
			<path class="st8" d="M163.9,151c0,0,10.6,4.9,10.6,3.2c0-0.5,0-4.1,0.3-7.3c0.1-1.4,0.3-2.7,0.4-3.5c-0.4-1.1-3.5-9-3.3-8.5
				c0,0,0,0,0,0l-0.6-1.6L163.9,151z"/>
			<path class="st9" d="M183.4,116.8c0.2,0.3,3.2,6.7-2,9.1c-5.2,2.4-6.5-1.1-7.9,1.1c-1.4,2.2,1.2,5.7,0.1,7.6l-1.7,0.3
				c0,0-0.4-1.1-1.1-1.1s-0.9,5.5-2,5.5s-3.3-4.6-4.3-6.8c-1.1-2.2-3.2-9.5,0.8-11.4c4-1.9,5.8-0.4,5.8-2.3s1.7,0.1,1.7,0.1
				s1-1.3,0.4-2.9s4.3-2.1,5.4,1C179.5,120.3,181.5,113.5,183.4,116.8z"/>
			<path class="st8" d="M172.2,132c0,0,0.1,3.6-0.7,3.6s-2.6-2-2.3-4.2C169.5,129.3,171.9,129.5,172.2,132z"/>
			<path class="st10" d="M171.7,131.6c0,0,0.4,1.4-0.2,2.1c-0.6,0.6-1.8-0.9-1.2-2.1C171,130.4,171.5,130.8,171.7,131.6z"/>
			<path class="st9" d="M180.7,130.6l0.1,0.9c0,0-1.5-0.2-2.3,0.6c-0.8,0.8-0.9,0.9-0.9,0.9S178.1,131.1,180.7,130.6z"/>
			<path class="st9" d="M179.1,133.3c0,0.4,0.3,0.8,0.6,0.8s0.6-0.4,0.6-0.8c0-0.4-0.3-0.8-0.6-0.8
				C179.4,132.5,179.1,132.8,179.1,133.3z"/>
			<path class="st9" d="M180.4,141.2c-0.5,0-1-0.1-1.4-0.4c-0.2-0.1-0.4-0.3-0.5-0.5c-0.1-0.2-0.1-0.4-0.2-0.6v0
				c0-0.1-0.1-0.2-0.3-0.2s-0.2,0.1-0.2,0.3c0,0,0,0,0,0c0.1,0.3,0.2,0.6,0.4,0.8c0.2,0.2,0.4,0.4,0.6,0.5
				C179.3,141.3,179.9,141.3,180.4,141.2z"/>
			<path class="st9" d="M185.7,123.3c0,0.3-0.3,0.8-0.4,1.1c-0.9,1.2-2.7,1.4-3.9,1.6c0.2,0,1.8,0.3,3.1-0.1
				c1.4-0.4,2.3-1.4,2.5-2.4L185.7,123.3z"/>
			<path class="st10" d="M171.3,144.4c0.5,0.6,2.4,1.8,3.5,2.6c0.2-1.9,0.4-3.5,0.4-3.5s-1,0.9-3.3-8.6c0,0,0,0,0,0.1c0,0,0,0,0,0
				C171.8,135.7,170.6,143.6,171.3,144.4z"/>
			<path class="st9" d="M181.2,142.9c0,0,0.3,1.4,0.3,2.2s-1.9,1.7-3.7,1.2c-1.7-0.5-4.2-1.7-4.8-2.3c-0.6-0.6-1.1-8.9-1.1-8.9
				l1.6-0.3c0,0,0.8,5.4,1.4,6.1C175.6,141.4,181.2,142.9,181.2,142.9z"/>
		</g>
		<g>
			<path class="st11" d="M179.6,194.9c0-0.1,0-0.2,0-0.3c-0.5-0.4-1.1-0.4-1.8-0.4c-4.3-0.2-8.5-0.4-12.8-0.6c-1-0.1-2.1,0-3.1-0.1
				c-0.3,0-0.5,0.1-0.8,0.2c-2.3,3.6-4,7.5-5.6,11.4c-2.5,6-4.7,12.2-6.8,18.4c-0.1,0.4-0.3,0.8-0.7,1.1
				c-6.3,4.6-11.2,10.3-14.5,17.3c-2.4,5.1-5.7,9.5-9.1,13.9c-1.9,2.5-3.9,5-6,7.4c0,0.3,0.2,0.5,0.4,0.7c1.3,1.3,2.6,2.8,3.9,4.1
				c0.1,0.1,0.2,0.1,0.3,0.1c2.4-2.6,4.8-5,7.1-7.6c1.1-1.2,2.2-2.3,3.3-3.4c2.6-2.6,5.1-5.4,7.6-8c2.9-3,5.7-6.1,8.6-9.1
				c2.6-2.7,5-5.6,7.8-8.1c2.4-2.3,4.6-4.7,6.5-7.3c2.1-3,4-6.1,5.8-9.4c0.2-0.3,0.4-0.7,0.6-1c2.5-4.9,4.9-9.8,7.1-14.7
				C178.2,197.8,178.9,196.4,179.6,194.9z"/>
			<path class="st12" d="M161.1,193.6c4.4,0.2,8.8,0.4,13.1,0.7c1.8,0.1,3.5,0.2,5.3,0.3c0.2-1,0-2.1,0.1-3.1
				c0.2-0.5-0.2-0.6-0.5-0.8c-2.1-1.5-4.3-2.9-6.4-4.4c-1.8-1.3-3.7-2.5-5.5-3.8c-0.5-0.3-0.7-0.7-0.7-1.3c-0.2-2.6-0.3-5.2-0.6-7.8
				c-0.1-1.1-0.2-2.2-0.2-3.3c0-0.5,0-1.1-0.3-1.6c-0.4-0.2-0.6-0.6-0.6-1.1c-0.4-2.6-0.9-5.1-1.3-7.7c-0.3-1.7-0.1-3.5,0.5-5.2
				c0.5-1.3,1.4-2.2,2.7-2.6c1.7-0.5,3.4-0.4,5.1,0.1c1.7,0.5,2.9,2.4,2.9,4.5c0.1,2.7-0.2,5.3-0.6,7.9c-0.1,0.9-0.2,1.8-0.3,2.7
				c0,0.5-0.2,0.9-0.5,1.3c-0.3,1.4-0.2,2.9-0.1,4.3c0.1,2,0.1,4.1,0.1,6.1c0,1.1,0.4,1.8,1.2,2.4c1.5,1.2,3,2.4,4.5,3.6
				c0.2,0.1,0.4,0.4,0.6,0.3c0.3-0.1,0.1-0.4,0.1-0.6c0-1.9-0.1-3.8,0.1-5.6c0-5.8,0-11.6,0.1-17.4c0-1.7-0.1-3.4-0.6-5.1
				c-0.8-3-2.4-5.5-4.9-7.4c-0.2-0.4-0.6-0.7-1-0.9c-2.6-1.4-5.3-2.2-8.2-2.5c-0.3,0-0.5,0-0.8,0.2c-1.5,0-2.3,0.9-2.9,2.2
				c-0.3,0.6-0.4,1.3-0.8,1.8c-0.4,1.4-0.6,2.9-0.7,4.4c-0.2,2.2-0.2,4.3-0.1,6.5c0.2,1.8,0.2,3.7,0.4,5.5c0.2,1.9,0.5,3.9,0.8,5.8
				c0.2,0.9,0.2,1.9,0.2,2.9c0.1,2.1,0,4.2,0,6.3c0.1,3.1-0.1,6.2-0.2,9.3c0,0.3,0,0.5,0.1,0.7C161.2,192,161.2,192.8,161.1,193.6z"
				/>
			<path class="st8" d="M161.2,172c-0.2-2-0.6-3.9-0.7-5.9c-0.1-1.4-0.3-2.9-0.3-4.3c0-0.3,0-0.7-0.1-1c-0.8-0.6-1.5-1.3-2.4-1.7
				c-0.6,2-1.4,3.9-2.1,5.9c-1.2,3.2-2.3,6.5-3.5,9.7c-0.2,0.4-0.1,0.8,0.1,1.2c1.1,1.9,2.3,3.9,3.4,5.8c1.7,3,3.5,6,5.2,9
				c0.1,0.2,0.2,0.4,0.4,0.5c0.3-3.3,0.4-6.6,0.3-10c-0.3-1.2-1-2.2-1.5-3.3c-0.4-0.8-0.6-1.6-0.1-2.5c0.4-0.8,0.7-1.6,1.1-2.4
				C161.1,172.7,161.1,172.4,161.2,172z"/>
			<path class="st13" d="M123,267.9c-1.5-1.6-3-3.2-4.4-4.8c-1.1,1-2.2,2-3.3,3c-0.2,0.2-0.2,0.3,0,0.6c2.7,2.8,5.5,5.6,8.2,8.4
				c0.2,0.2,0.4,0.3,0.6,0.4c1.6,0.8,3.2,1.5,4.8,2.3c0.2,0.1,0.5,0.1,0.6,0.4c0.1,0,0.2,0,0.3,0c0.4-1,0.3-1.8-0.6-2.5
				s-1.6-1.4-2.5-2c-1.3-0.9-1.9-2.1-2.5-3.5C123.9,269.3,123.7,268.5,123,267.9z"/>
			<path class="st14" d="M157.7,159.1c0.7,0.7,1.5,1.3,2.4,1.7c0-0.6,0-1.1,0-1.7c-0.1-2.9,0.2-5.8,0.7-8.6c0-0.2,0.1-0.4-0.1-0.5
				c-0.4,0.3-0.6,0.8-0.8,1.3c-0.9,2.1-1.9,4.2-2.8,6.3C156.7,158.3,157.4,158.6,157.7,159.1z"/>
			<path class="st15" d="M179.6,194.9c-0.8,0.7-1.1,1.8-1.5,2.7c-0.6,1.3-1.2,2.5-1.8,3.8c-1.8,4.1-4,8.2-6,12.3
				c-0.1,0.1-0.1,0.3-0.1,0.4c-0.1,0.4,0.1,0.6,0.3,0.9c2.9,4.8,5.9,9.5,9.1,14c0.9,1.3,1,2.6,1,3.9c0.3,5.7,0.9,11.3,2.8,16.7
				c0.9,2.4,1.9,4.7,2.6,7.1c1.7,5.2,3.1,10.5,4.5,15.8c0.1,0.4,0.1,0.8,0.5,1c0.8,0.2,1.5-0.1,2.3-0.2c1.1-0.1,2.1-0.3,3.2-0.5
				c0.3,0,0.6-0.1,0.8-0.4c-0.7-5.9-1.4-11.8-2.1-17.7c-0.7-5.7-1.4-11.4-2-17.1c-0.3-2.9-0.7-5.8-0.9-8.8c-0.3-3.5-1.5-6.8-2.7-10
				c-2.3-6.1-5.1-11.9-7.7-17.8C181,198.9,180.2,196.9,179.6,194.9z"/>
			<path class="st8" d="M179.8,179.1c-0.2,1.8-0.1,3.6-0.1,5.4c0,0.3,0.1,0.5-0.1,0.8c-1.9-1.6-3.8-3.1-5.7-4.7
				c-0.3-0.3-0.3-0.6-0.3-1c-0.1-3.7-0.2-7.3-0.2-11c-0.3-0.3-0.6-0.3-1-0.3c-2,0-4,0-6,0c-0.3,0-0.7,0-1,0.3
				c0.2,3.1,0.4,6.2,0.7,9.3c0.1,1.2,0.2,2.4,0.2,3.5c0,0.5,0.2,0.8,0.6,1.1c4,2.7,8.1,5.5,12.1,8.3c0.3,0.2,0.6,0.3,0.7,0.6
				c0.2,0,0.4,0,0.5,0.2c2.8,1.9,5.6,3.9,8.4,5.8c0.4,0.3,0.9,0.5,0.7,1.1c-0.1,0.2,0.2,0.4,0.4,0.6c1.4,1.3,2.8,2.6,4.2,3.9
				c0.2,0.2,0.4,0.5,0.8,0.4c0.3-0.1,0.4-0.5,0.3-0.9c0.3,0.3,0.4,0.4,0.5,0.5c0.8,0.8,0.9,0.7,1.4-0.2c0.1-0.1,0.1-0.2,0.3-0.1
				c0.4,0.3,0.7,0.2,0.9-0.2s-0.1-0.6-0.3-0.9c0-0.1-0.1-0.1-0.2-0.3c0.3-0.1,0.8,0,0.9-0.5c0.1-0.5-0.3-0.6-0.5-0.9
				c-1.1-1-2.1-2-3.2-2.9c0.3-0.2,0.5,0,0.8,0.1c0.4,0.1,0.8-0.1,0.9-0.5s-0.1-0.8-0.5-0.8c-1.3-0.1-2.5-0.9-3.9-0.4
				c-0.3,0.1-0.6-0.3-0.8-0.4c-1.9-1.5-3.7-3-5.6-4.6c-1.7-1.4-3.4-2.8-5.1-4.2c-0.4-0.3-0.6-0.7-0.6-1.2
				C179.9,182.9,179.8,181,179.8,179.1z"/>
			<path class="st13" d="M197.4,272.3c-2.1,0.3-4.3,0.7-6.4,1c-0.2,0.2-0.2,0.4-0.2,0.6c0.2,1.2,0.3,2.4,0.6,3.6
				c0,0.2,0.1,0.4,0.3,0.5c0.2,0,0.4,0,0.6,0c1.8-0.5,3.6-0.6,5.4-0.9c4-0.6,8-1.2,12-1.9c0.2,0,0.8,0.1,0.7-0.4
				c-0.1-0.5,0.1-1.2-0.8-1.3c-3.1-0.3-6.1-0.6-9.2-1C199.4,272.5,198.4,272.4,197.4,272.3z"/>
			<path class="st14" d="M165.4,168.7c2.6,0,5.3,0,7.9,0c0.6,0,0.6-0.4,0.7-0.8c0.2-3.7,1-7.4,0.8-11.1c-0.1-2.2-1.2-4.4-3.9-4.9
				c-1.6-0.3-3.1-0.3-4.6,0.2c-1.9,0.6-2.8,2.2-3.1,4.1c-0.3,1.9-0.1,3.7,0.2,5.6c0.4,2.1,0.8,4.1,1.1,6.2
				C164.7,168.3,164.7,168.9,165.4,168.7z"/>
		</g>
	</g>
	<g>
		<g>
			<path class="st1" d="M292.4,101.3c0,4.8-2.5,7.3-5.5,7.3c-2.9,0-5.3-2.3-5.4-6.9c0-4.6,2.5-7.2,5.5-7.2
				C290.3,94.4,292.4,96.9,292.4,101.3z M284,101.5c-0.1,2.9,1,5.2,3,5.2c2,0,3-2.2,3-5.2c0-2.8-0.8-5.1-3-5.1
				C285.1,96.3,284,98.6,284,101.5z M286.7,118.2l13.5-23.8h2l-13.5,23.8H286.7z M307.4,110.8c0,4.8-2.5,7.3-5.5,7.3
				c-2.9,0-5.3-2.3-5.4-6.9c0-4.6,2.5-7.2,5.5-7.2C305.3,103.9,307.4,106.4,307.4,110.8z M299,111c0,2.9,1.1,5.2,3,5.2
				c2,0,3-2.2,3-5.2c0-2.8-0.8-5.1-3-5.1C300,105.8,299,108.1,299,111z"/>
		</g>
		<circle class="st16" cx="294.7" cy="106.9" r="23.8"/>
	</g>
	<g>
		<path class="st1" d="M308.8,151.8c0.4,0.2,0.8,0.4,1.3,0.6c1.2,0.5,2.3,1.1,3.5,1.6c1.3,0.6,2.7,1.2,4,1.8
			c0.6,0.3,0.8,0.9,0.6,1.4c-0.8,1.7-1.5,3.3-2.3,5c-0.3,0.8-0.7,1.5-1,2.3c-0.2,0.6-0.9,0.8-1.5,0.6c-0.2-0.1-0.3-0.1-0.5-0.2
			c0,0.1,0,0.2,0,0.3c0,4,0,8,0,12c0,2.9,0,5.8,0,8.7c0,0.7-0.4,1.2-1.2,1.2c-2.6,0-5.2,0-7.7,0c-5.8,0-11.6,0-17.4,0
			c-3.1,0-6.2,0-9.3,0c-0.8,0-1.2-0.4-1.2-1.2c0-2.5,0-4.9,0-7.4c0-4.7,0-9.4,0-14.1c0-0.8,0.4-1.2,1.2-1.2c4.6,0,9.2,0,13.8,0
			c5.8,0,11.6,0,17.4,0c0.1,0,0.2,0,0.2,0c0,0,0,0,0-0.1c-0.4-0.2-0.8-0.3-1.1-0.5c-1.7-0.8-3.5-1.6-5.2-2.3
			c-1.8-0.8-3.7-1.6-5.5-2.5c-1.5-0.7-3-1.4-4.6-2.1c-1.6-0.7-3.3-1.5-4.9-2.2c-1-0.4-2-0.9-3-1.4c-1.5-0.7-3-1.3-4.5-2
			c-0.6-0.3-1.2-0.5-1.8-0.8c-0.7-0.3-0.9-0.9-0.6-1.6c0.9-2,1.8-4.1,2.8-6.1c0.2-0.4,0.4-0.8,0.5-1.2c0.3-0.5,0.8-0.8,1.4-0.5
			c2,0.9,4,1.8,6,2.7c0.9,0.4,1.9,0.8,2.9,1.3c-0.2-0.3-0.5-0.6-0.7-0.9c-1.1-1.8-0.9-4.1,0.6-5.6c1.3-1.4,3.5-1.8,5.2-0.9
			c0.6,0.3,1.1,0.8,1.6,1.3c1.5,1.5,2.7,3.3,3.5,5.2c0.1,0.3,0.3,0.6,0.4,0.9c0.8-0.2,1.5-0.5,2.3-0.7c2-0.4,4.1-0.6,6.2-0.3
			c1.2,0.2,2.1,0.8,2.7,1.8c1.1,1.6,1.2,3.2,0.2,4.9c-0.8,1.3-1.9,2.1-3.5,2.2C309.3,151.8,309.1,151.7,308.8,151.8
			C308.8,151.7,308.8,151.8,308.8,151.8z M298.8,165.1c0,6.6,0,13.1,0,19.7c4,0,8,0,12,0c0-6.6,0-13.1,0-19.7
			C306.8,165.1,302.8,165.1,298.8,165.1z M290.2,184.8c0-6.6,0-13.1,0-19.7c-4,0-8,0-12,0c0,6.6,0,13.1,0,19.7
			C282.2,184.8,286.2,184.8,290.2,184.8z M292.3,165.2c0,6.6,0,13.1,0,19.6c1.4,0,2.9,0,4.3,0c0-6.5,0-13.1,0-19.6
			C295.2,165.2,293.8,165.2,292.3,165.2z M315.8,157.3c-4.3-1.9-8.5-3.8-12.8-5.8c-0.8,1.8-1.6,3.6-2.4,5.4
			c4.3,1.9,8.5,3.8,12.8,5.8C314.1,160.9,314.9,159.1,315.8,157.3z M279.9,147.6c4.3,1.9,8.5,3.8,12.8,5.8c0.8-1.8,1.6-3.6,2.4-5.4
			c-4.3-1.9-8.5-3.8-12.8-5.8C281.6,144,280.8,145.8,279.9,147.6z M299.8,145.2c0-0.6-0.2-1-0.3-1.4c-0.8-1.6-1.7-3.1-2.9-4.4
			c-0.3-0.4-0.7-0.8-1.2-1c-1.1-0.6-2.6-0.1-3.2,1c-0.6,1.3-0.2,2.7,1.1,3.3c0.7,0.3,1.4,0.7,2.1,1c1.1,0.5,2.1,0.9,3.2,1.3
			C298.9,145.1,299.3,145.1,299.8,145.2z M302,146.1c0,0.1,0,0.1,0.1,0.1c0.4,0.3,0.7,0.6,1.1,0.8c1.3,0.7,2.6,1.3,4,1.9
			c0.4,0.2,0.9,0.4,1.3,0.5c1.4,0.4,2.7-0.5,3-1.9c0.2-1.3-0.6-2.7-2.1-2.8c-0.8-0.1-1.6-0.1-2.5,0c-1.3,0.1-2.5,0.3-3.7,0.7
			C302.8,145.7,302.4,145.8,302,146.1z M301,150.6c-1.3-0.6-2.6-1.2-3.9-1.8c-0.8,1.8-1.6,3.6-2.4,5.3c1.3,0.6,2.6,1.2,3.9,1.8
			C299.4,154.2,300.2,152.4,301,150.6z M301.1,148.3c-0.2-0.2-0.5-0.5-0.7-0.8c-0.2-0.2-0.3-0.4-0.7-0.3c-0.4,0-0.8,0-1.2-0.1
			C299.5,147.6,300.4,148,301.1,148.3z"/>
		<path class="st1" d="M271.1,136.6c0.6,0,1.2,0.1,1.7,0.5c0.2,0.1,0.3,0.1,0.5,0c1.8-1.1,4.1-0.3,5,1.6c0.5,1.1,0.5,2.2-0.1,3.3
			c-0.6,1.2-1.5,2.3-2.4,3.3c-0.7,0.7-1.3,1.4-2,2.1c-0.4,0.4-1,0.4-1.5,0c-1.3-1.2-2.5-2.5-3.5-3.9c-0.4-0.6-0.8-1.3-1.1-2
			c-0.5-1.1-0.3-2.3,0.4-3.3C268.8,137.2,269.9,136.6,271.1,136.6z M273.1,145.2c0.5-0.6,1-1.2,1.5-1.8c0.6-0.8,1.2-1.6,1.7-2.4
			c0.5-1-0.2-2.1-1-2.3c-0.6-0.1-1,0.1-1.4,0.6c-0.2,0.2-0.4,0.4-0.7,0.5c-0.4,0.1-0.8,0-1.1-0.4c-0.3-0.4-0.6-0.6-1.1-0.6
			c-0.8,0-1.4,0.6-1.5,1.4c-0.1,0.5,0.2,0.9,0.4,1.3C270.9,142.8,271.9,144,273.1,145.2z"/>
		<path class="st1" d="M279.8,155c0,0.8-0.3,1.5-0.7,2.1c-1,1.7-2.3,3.1-3.6,4.5c-0.2,0.2-0.4,0.4-0.5,0.6c-0.5,0.4-1.1,0.5-1.5,0
			c-1.5-1.4-2.8-2.9-3.9-4.6c-0.4-0.6-0.8-1.3-0.9-2c-0.2-1.3,0.2-2.5,1.2-3.4c1.2-1.1,2.8-1.2,4.1-0.4c0.1,0.1,0.2,0.1,0.3,0
			c2.4-1.5,5.3,0.3,5.4,3C279.8,154.9,279.8,155,279.8,155z M274.1,160c1.1-1.2,2.2-2.4,3.1-3.8c0.3-0.4,0.5-0.9,0.4-1.5
			c-0.2-0.7-0.8-1.2-1.5-1.2c-0.4,0-0.7,0.2-1,0.5c-0.2,0.2-0.4,0.4-0.7,0.5c-0.5,0.1-0.9-0.1-1.2-0.5c-0.4-0.5-1-0.7-1.5-0.5
			c-0.8,0.3-1.3,1.4-1,2.1c0.3,0.7,0.8,1.4,1.3,2C272.7,158.4,273.4,159.2,274.1,160z"/>
		<path class="st2" d="M298.8,165.1c4,0,8,0,12,0c0,6.6,0,13.1,0,19.7c-4,0-8,0-12,0C298.8,178.3,298.8,171.7,298.8,165.1z"/>
		<path class="st2" d="M290.2,184.8c-4,0-8,0-12,0c0-6.6,0-13.1,0-19.7c4,0,8,0,12,0C290.2,171.7,290.2,178.3,290.2,184.8z"/>
		<path class="st2" d="M292.3,165.2c1.4,0,2.8,0,4.3,0c0,6.5,0,13.1,0,19.6c-1.4,0-2.8,0-4.3,0C292.3,178.3,292.3,171.8,292.3,165.2
			z"/>
		<path class="st2" d="M315.8,157.3c-0.8,1.8-1.6,3.6-2.4,5.4c-4.3-1.9-8.5-3.8-12.8-5.8c0.8-1.8,1.6-3.6,2.4-5.4
			C307.2,153.4,311.5,155.3,315.8,157.3z"/>
		<path class="st2" d="M279.9,147.6c0.8-1.8,1.6-3.6,2.4-5.4c4.3,1.9,8.5,3.8,12.8,5.8c-0.8,1.8-1.6,3.6-2.4,5.4
			C288.5,151.5,284.2,149.6,279.9,147.6z"/>
		<path class="st2" d="M299.8,145.2c-0.4-0.1-0.9-0.1-1.3-0.3c-1.1-0.4-2.2-0.9-3.2-1.3c-0.7-0.3-1.4-0.7-2.1-1
			c-1.2-0.6-1.7-2-1.1-3.3c0.6-1.1,2.1-1.6,3.2-1c0.4,0.3,0.8,0.6,1.2,1c1.2,1.3,2.2,2.8,2.9,4.4
			C299.6,144.2,299.8,144.6,299.8,145.2z"/>
		<path class="st2" d="M302,146.1c0.4-0.3,0.8-0.5,1.2-0.6c1.2-0.4,2.4-0.6,3.7-0.7c0.8-0.1,1.7-0.1,2.5,0c1.5,0.1,2.3,1.5,2.1,2.8
			c-0.3,1.4-1.6,2.2-3,1.9c-0.5-0.1-0.9-0.3-1.3-0.5c-1.3-0.6-2.7-1.2-4-1.9c-0.4-0.2-0.8-0.6-1.1-0.8
			C302.1,146.3,302.1,146.2,302,146.1z"/>
		<path class="st2" d="M301,150.6c-0.8,1.8-1.6,3.6-2.4,5.3c-1.3-0.6-2.6-1.2-3.9-1.8c0.8-1.8,1.6-3.5,2.4-5.3
			C298.4,149.4,299.7,150,301,150.6z"/>
		<path class="st2" d="M301.1,148.3c-0.8-0.3-1.6-0.7-2.5-1.1c0.4,0,0.8,0.1,1.2,0.1c0.3,0,0.5,0.1,0.7,0.3
			C300.7,147.9,300.9,148.1,301.1,148.3z"/>
		<path class="st2" d="M273.1,145.2c-1.1-1.2-2.2-2.4-3-3.8c-0.3-0.4-0.5-0.8-0.4-1.3c0.1-0.8,0.8-1.5,1.5-1.4
			c0.5,0,0.8,0.3,1.1,0.6c0.3,0.4,0.7,0.5,1.1,0.4c0.3-0.1,0.5-0.2,0.7-0.5c0.4-0.4,0.8-0.6,1.4-0.6c0.8,0.1,1.5,1.3,1,2.3
			c-0.5,0.9-1.1,1.7-1.7,2.4C274.1,144.1,273.6,144.6,273.1,145.2z"/>
		<path class="st17" d="M296.1,129.1c-7.2-7.6-13.9-15.1-19.2-23.8c-1.6-2.6-3.1-5.1-2.7-8.4c0.6-5.3,4.8-9.2,9.7-9
			c3,0.2,5.1,1.7,6.8,4c1.8,2.3,4.1,3,6.9,2.5c1.9-0.3,3.1-1.4,4.2-2.9c2.2-2.9,5.1-4.1,8.7-3.5c5.2,0.9,9.7,8.2,6.3,14.4
			c-3.1,5.5-6.8,10.6-10.9,15.4C302.8,121.7,299.5,125.3,296.1,129.1z"/>
		<path class="st2" d="M274.1,160c-0.7-0.8-1.4-1.6-2.1-2.4c-0.5-0.6-0.9-1.3-1.3-2c-0.3-0.7,0.1-1.8,1-2.1c0.5-0.2,1.1,0,1.5,0.5
			c0.3,0.4,0.7,0.6,1.2,0.5c0.3-0.1,0.5-0.3,0.7-0.5c0.3-0.3,0.6-0.5,1-0.5c0.7,0,1.3,0.5,1.5,1.2c0.1,0.6-0.1,1-0.4,1.5
			C276.4,157.6,275.3,158.8,274.1,160z"/>
	</g>
</g>
</svg>
