<svg id="Layer_1" data-name="Layer 1" xmlns="http://www.w3.org/2000/svg" viewBox="0 0 250 250"><defs><style>.cls-1{fill:#f4795b;}.cls-2{fill:none;stroke:#f4795b;stroke-linecap:round;stroke-miterlimit:10;stroke-width:5.51px;}</style></defs><title>a</title><path class="cls-1" d="M57.55,92.31l1,4.31H61.2l27.42,0c.49,0,1.09-.18,1.45.07.58.41,1.45,1.2,1.38,1.68A3.82,3.82,0,0,1,90,100.27c-.27.24-.82.06-1.24.06-10,0-20.1,0-30.16,0-1.94,0-2.84-.63-3.33-2.92-2.87-13.27-5.9-26.5-8.81-39.76-.39-1.79-1-2.48-2.69-2.36-2.45.19-4.91,0-7.38,0-1.17,0-2.16-.34-2.16-1.95s1-1.94,2.19-1.94c3.38,0,6.75,0,10.13,0,1.3,0,2.07.58,2.35,2.15.38,2.14,1,4.21,1.37,6.36.28,1.83,1,2.26,2.57,2.25,14.13-.06,28.26,0,42.39,0,3.14,0,3.65.88,2.45,4.24C94.9,74.22,92,82,89.32,89.78c-.65,1.88-1.56,2.58-3.3,2.56-8.65-.07-17.29,0-25.94,0ZM94.18,66.22H51.73c1.66,7.45,3.3,14.78,5,22.21,8.72,0,17.29-.17,25.84.09,2.85.09,4.17-.86,5.13-4C89.57,78.42,91.93,72.47,94.18,66.22Z"/><path class="cls-1" d="M58.35,110.42c0-3.3,2.12-5.9,5-6s5.13,2.5,5.21,5.74-2.21,5.93-5,6S58.4,113.65,58.35,110.42Z"/><path class="cls-1" d="M83.4,104.45c2.81,0,5,2.58,5,5.89s-2.28,5.89-5.07,5.88-5.09-2.69-5.08-5.91S80.57,104.48,83.4,104.45Z"/><path class="cls-1" d="M39.65,83.83c-2.59,0-5.18,0-7.78,0-1.18,0-2.31-.41-2.07-1.93a2.69,2.69,0,0,1,2-1.72q7.87-.21,15.76,0A2.75,2.75,0,0,1,49.51,82c.34,1.49-.82,1.82-1.87,1.83C45,83.84,42.31,83.82,39.65,83.83Z"/><path class="cls-1" d="M45.81,90.82a22.15,22.15,0,0,1,4.39.08c.74.15,1.34,1.18,2,1.81-.67.62-1.31,1.73-2,1.78-2.86.21-5.74.13-8.61.09-1.08,0-2.22-.21-2.18-1.9s1-1.9,2.21-1.87C43,90.85,44.41,90.82,45.81,90.82Z"/><path class="cls-1" d="M41.83,73.92a8.1,8.1,0,0,1-2.7-.07,2.65,2.65,0,0,1-1.45-1.77,2.22,2.22,0,0,1,1.25-1.7,33.16,33.16,0,0,1,6.06.05A2,2,0,0,1,46.15,72,2.54,2.54,0,0,1,45,73.82a11.18,11.18,0,0,1-3.12.08Z"/><path class="cls-2" d="M136,50.53q1.56-.15,3.15-.24c42.35-2.43,78.6,29,81,70.31s-30,76.68-72.39,79.11-78.6-29-81-70.31"/><polygon class="cls-1" points="112.23 56.68 149.13 62.39 137.87 50.56 142.57 34.92 112.23 56.68"/><path class="cls-1" d="M145.92,160.61H103.39c-4.94,0-6.4-1.36-6.41-6.25q0-26.31,0-52.62c0-3.8,1.67-5.46,5.53-5.46q43.63,0,87.27,0c3.9,0,5.58,1.78,5.58,5.7q0,25.9,0,51.81c0,5.61-1.3,6.81-7,6.81H145.92Zm14.2-33.89Q173,140.42,185.68,154l2.59-1.94-25.39-27.1,28.22-18.43-2.1-3.41c-1.54,1-2.84,1.8-4.12,2.63-11.65,7.58-23.31,15.13-34.92,22.77a3.1,3.1,0,0,1-3.86.1c-9.43-5.63-18.93-11.14-28.41-16.7L102.48,103l-1.83,3.61,29.93,17.59L103.5,151.84l1.9,1.81L134,126.16c4,2.32,8.24,4.72,12.39,7.3a2.8,2.8,0,0,0,3.6-.1C153.24,131.09,156.63,129,160.12,126.72Z"/></svg>