<svg id="Layer_1" data-name="Layer 1" xmlns="http://www.w3.org/2000/svg" viewBox="0 0 250 250"><defs><style>.cls-1{fill:#f4795b;}.cls-2{fill:#fff;}</style></defs><title>a</title><path class="cls-1" d="M84.31,207.83c7,.11,14,.06,20.94.06q44,0,87.91,0a20.55,20.55,0,0,0,19.23-28.26,20,20,0,0,0-18.69-12.46c-14.07-.05-28.14,0-42.21,0a11.14,11.14,0,0,1-11.36-12c.33-5.88,5.35-10.34,11.76-10.35,14.35,0,28.69.07,43,0,10.16-.07,18-7.52,18.93-17.71a18.9,18.9,0,0,0-15.2-20c-3.49-.66-7.17-.35-10.76-.49-.69,0-1.37-.09-2.4-.16.82-1.1,1.37-1.86,1.94-2.61,5.41-7.08,10.76-14.19,14.64-22.27,1.92-4,3.68-8.05,3.76-12.58a27.62,27.62,0,0,0-31.57-27.85,28.19,28.19,0,0,0-24.41,27.15c-.09,5.14,1.83,9.7,4.06,14.14,5.53,11,13.16,20.58,21,29.95a5.61,5.61,0,0,0,3.78,1.46c5.16.16,10.33,0,15.5.09a16.18,16.18,0,0,1,4.22.54A12.13,12.13,0,0,1,195,138.2c-14.54,0-29.09,0-43.64,0a18.14,18.14,0,0,0-17.76,22.16,18,18,0,0,0,17.91,14.06c14.07,0,28.14,0,42.21,0,6.87,0,12.37,5.29,13.19,12.34a12.46,12.46,0,0,1-9.6,13.54,21.22,21.22,0,0,1-5,.55q-42.21,0-84.43,0h-17M177.61,81.86a13.11,13.11,0,0,1-12.8-13,12.89,12.89,0,0,1,25.77.22A12.94,12.94,0,0,1,177.61,81.86Z"/><path class="cls-2" d="M177.61,81.86a13.11,13.11,0,0,1-12.8-13,12.89,12.89,0,0,1,25.77.22A12.94,12.94,0,0,1,177.61,81.86Z"/><path class="cls-1" d="M78.24,182.82c-9.54,0-19.08,0-28.63,0-1.92,0-2.92-.76-3.64-2.83-3-8.62-6.16-17.17-9.24-25.75-1.34-3.71-.77-4.68,2.7-4.68,15.59,0,31.19,0,46.79,0,1.68,0,2.52-.47,2.83-2.49.35-2.37,1.09-4.66,1.51-7,.31-1.74,1.16-2.39,2.6-2.39,3.72,0,7.45,0,11.17,0,1.27,0,2.42.33,2.42,2.14s-1.09,2.16-2.39,2.16c-2.71,0-5.44.16-8.14-.05-1.83-.14-2.53.62-3,2.6-3.2,14.64-6.55,29.24-9.72,43.89C83,191,82,191.72,79.85,191.71c-11.09-.1-22.19-.05-33.28,0-.47,0-1.08.2-1.37-.07a4.19,4.19,0,0,1-1.58-2.12c-.08-.53.88-1.4,1.52-1.85.4-.28,1.06-.08,1.61-.08l30.26,0h2.93l1.1-4.75ZM47.8,174.25c1.07,3.43,2.51,4.48,5.66,4.38,9.45-.28,18.9-.1,28.52-.1,1.83-8.2,3.65-16.29,5.48-24.52H40.61C43.09,160.91,45.69,167.48,47.8,174.25Z"/><path class="cls-1" d="M80.15,202.8c0-3.64-2.34-6.51-5.49-6.58S69,199,68.91,202.56s2.43,6.54,5.53,6.64S80.1,206.36,80.15,202.8Z"/><path class="cls-1" d="M52.5,196.21c-3.1,0-5.55,2.85-5.54,6.5s2.52,6.5,5.6,6.5,5.61-3,5.61-6.53S55.63,196.24,52.5,196.21Z"/><path class="cls-1" d="M100.79,173.45h8.59c1.3,0,2.55-.45,2.29-2.13a3,3,0,0,0-2.21-1.89q-8.7-.24-17.4,0a3,3,0,0,0-2.15,2c-.37,1.64.91,2,2.07,2C94.92,173.47,97.86,173.45,100.79,173.45Z"/><path class="cls-1" d="M94,181.17a24.49,24.49,0,0,0-4.85.09c-.81.16-1.48,1.3-2.2,2,.73.68,1.44,1.91,2.21,2,3.16.24,6.33.14,9.5.1,1.2,0,2.46-.23,2.4-2.1s-1.13-2.1-2.43-2.06C97.09,181.2,95.54,181.17,94,181.17Z"/><path class="cls-1" d="M98.39,162.52a8.71,8.71,0,0,0,3-.09,2.92,2.92,0,0,0,1.6-2,2.45,2.45,0,0,0-1.38-1.87,37.37,37.37,0,0,0-6.69,0,2.2,2.2,0,0,0-1.28,1.7,2.81,2.81,0,0,0,1.32,2,12,12,0,0,0,3.45.1Z"/><path class="cls-2" d="M185.75,106.16s-5.63,8-6.16,8.1,1.55.31,1.55.31l6.11-8.67Z"/></svg>