<svg id="Layer_1" data-name="Layer 1" xmlns="http://www.w3.org/2000/svg" viewBox="0 0 250 250"><defs><style>.cls-1{fill:#f4795b;}.cls-2{fill:#fff;}.cls-3,.cls-4{fill:none;stroke:#f4795b;stroke-miterlimit:10;}.cls-3{stroke-linecap:round;stroke-width:1.9px;}.cls-4{stroke-width:4.97px;}</style></defs><title>a</title><path class="cls-1" d="M135.7,74.61c-1-.29-1-.88-.48-1.63,2.1-.44,4.25.15,6.35-.31,2.77,1.06,3.14,2.67,1.82,5.51-3,6.46-6.6,12.6-9.83,18.93-.87,1.71-2.05,3-4.09,3.16a6.16,6.16,0,0,0-2.3-.14q-12.83,0-25.64,0c-.68,0-1.42-.25-2.06.24a1.26,1.26,0,0,0,0,.39c1.75,4.59.37,4.22,5.73,4.24,7.84,0,15.68,0,23.53,0,.74,0,1.43,0,1.76.82s-.09,1.14-.67,1.47a21.46,21.46,0,0,0-4.46-.14c-7.85,0-15.71-.14-23.57.1-2.17-.41-3.25-1.9-3.92-3.86q-5.66-16.5-11.33-33c-.46-1.33-1-2.53-2.36-3.11s-3-.17-4.53-.3-3.23.16-4.84-.16c-.58-1.58.59-1.56,1.53-1.58,2.75-.07,5.5,0,8.26,0,2.2.34,3.25,2,3.9,3.81q4.74,13.56,9.33,27.17A2.26,2.26,0,0,0,100.46,98c9.22-.08,18.44-.06,27.67,0a3.44,3.44,0,0,0,3.41-2c3.27-6.25,6.61-12.47,9.91-18.71,1-1.83.62-2.3-1.55-2.39-1.4-.06-2.84.32-4.21-.26,1.53-.49,3.09-.1,4.63-.25C138.78,74.56,137.22,74.08,135.7,74.61Z"/><path class="cls-1" d="M130.63,111.73c2.24,1,4,2.52,3.86,5.11a5.32,5.32,0,0,1-3.25,4.86,5.11,5.11,0,0,1-7.15-3.85,6.32,6.32,0,0,0,0-2.67,4.89,4.89,0,0,1,3.82-3.49A6,6,0,0,0,130.63,111.73Z"/><path class="cls-1" d="M104.89,111.72c3.17,1.23,4.66,4.17,3.55,7a5.15,5.15,0,0,1-6.79,3c-1.59-.74-3.09-1.85-3.31-3.89a4,4,0,0,0,0-2.3,4.84,4.84,0,0,1,3.85-3.86A6.06,6.06,0,0,0,104.89,111.72Z"/><path class="cls-1" d="M99.47,100.37c.4-.61,1-.43,1.59-.43h27c.5,0,1-.13,1.45.33l-26.88.07Z"/><path class="cls-1" d="M101.83,107.25c.44-.41,1-.29,1.48-.29H128.4c.51,0,1-.13,1.46.33C120.52,107.39,111.18,107.47,101.83,107.25Z"/><path class="cls-1" d="M84.64,65.22c-2.65.85-5.37.18-8,.38-.83.06-1.8-.17-1.71,1.18-.11.14-.21.14-.32,0-.74-1.07-.08-1.73.83-1.75C78.47,65,81.57,64.62,84.64,65.22Z"/><path class="cls-1" d="M74.56,66.78h.32c2.53,0,5.07,0,7.6,0,.6,0,1.33-.26,1.74.49-2.64,0-5.29,0-7.93,0C75.69,67.24,75,67.55,74.56,66.78Z"/><path class="cls-1" d="M141.57,72.67c-2.08.73-4.23.19-6.35.31C137.3,72.08,139.45,72.67,141.57,72.67Z"/><path class="cls-1" d="M104.89,111.72a2.7,2.7,0,0,1-2.68,0A5.65,5.65,0,0,1,104.89,111.72Z"/><path class="cls-1" d="M130.63,111.73a2.66,2.66,0,0,1-2.67,0A5.74,5.74,0,0,1,130.63,111.73Z"/><path class="cls-1" d="M124.14,115.18a2.7,2.7,0,0,1,0,2.67A4.42,4.42,0,0,1,124.14,115.18Z"/><path class="cls-1" d="M98.36,115.56a1.92,1.92,0,0,1,0,2.3A5,5,0,0,1,98.36,115.56Z"/><path class="cls-1" d="M135.7,74.61c1.64-.91,3.36-.2,5.05,0H135.7Z"/><path class="cls-2" d="M132.17,116.94a3,3,0,0,1-3,2.89,2.8,2.8,0,0,1-2.89-2.93,2.83,2.83,0,0,1,2.94-2.93A3,3,0,0,1,132.17,116.94Z"/><path class="cls-2" d="M106.43,117.86c-.23.3-.44.63-.69.91-1.17,1.28-3.44,1.43-4.48.3a3.68,3.68,0,0,1,.16-4.46,3.25,3.25,0,0,1,4.33.42c.25.28.45.6.68.91A1.8,1.8,0,0,1,106.43,117.86Z"/><path class="cls-1" d="M106.43,117.86v-1.92A1.19,1.19,0,0,1,106.43,117.86Z"/><line class="cls-3" x1="96.61" y1="77.23" x2="131.43" y2="77.23"/><line class="cls-3" x1="99.6" y1="85.47" x2="134.43" y2="85.47"/><path class="cls-4" d="M151.46,62a50,50,0,0,1-60.15,74"/><path class="cls-1" d="M80.51,130.17c6.12.8,14.18.9,19.92-.46l-7.62,6.94L91.4,146.86C89.27,141.35,84.63,134.77,80.51,130.17Z"/><path class="cls-4" d="M70.42,120.57A50,50,0,0,1,132.53,45"/><path class="cls-1" d="M142.68,51.93c-6-1.42-14-2.35-19.87-1.59l8.29-6.12,2.46-10C135.11,39.91,139.05,46.94,142.68,51.93Z"/><path class="cls-1" d="M144.23,195.25a3.43,3.43,0,0,1-3.65-2.45c-3.9-10.44-10.1-19.76-16.11-28.42a11.62,11.62,0,0,1-2.07-9.95,12.1,12.1,0,0,1,1.08-2.76,7.42,7.42,0,0,1,6.44-4.19,7.62,7.62,0,0,1,6,3.12q1.73,2.15,3.48,4.28l2.16,2.65q0-21.34,0-42.69c0-3.72,1.19-6.51,3.64-8.51a6.8,6.8,0,0,1,4.33-1.65,6.71,6.71,0,0,1,4.85,2.18,11.37,11.37,0,0,1,3.16,8.18c0,8.2,0,16.53,0,24.59,0,.83,0,1.67-.09,2.5,0,.6-.06,1.2-.08,1.79a6.36,6.36,0,0,1,4.2-1.7,6.68,6.68,0,0,1,2.06.34c1.92.62,2.61,1.4,4.86,4.92a7.38,7.38,0,0,1,5.22-2.28,7.08,7.08,0,0,1,6.37,4.31,3.81,3.81,0,0,0,.25.46l.4-.17a7.69,7.69,0,0,1,3.44-.87c2.6,0,4.75,1.52,6.06,4.27,1.87,3.92,1.61,8,1.11,11.52-1.27,8.88-2.92,18.34-6.38,27.34-1.1,2.84-1.57,3.16-4.55,3.16H164q-9.85,0-19.73,0Z"/><path class="cls-2" d="M149.48,105.92a5.52,5.52,0,0,1,4,1.81,10.13,10.13,0,0,1,2.8,7.31c0,8.2,0,16.39,0,24.58,0,1.58-.16,3.15-.18,4.72a21.22,21.22,0,0,0,.3,2.48c1.71-2.31,3.35-3.36,5.15-3.36a5.38,5.38,0,0,1,1.68.28c1.63.53,2,.95,5,5.66a8.64,8.64,0,0,0,.78-.68,6.31,6.31,0,0,1,4.69-2.28,5.85,5.85,0,0,1,5.25,3.6c.38.81.7,1.2,1.24,1.2a2.62,2.62,0,0,0,1.08-.33,6.52,6.52,0,0,1,2.89-.74c2.08,0,3.84,1.25,4.94,3.56,1.66,3.48,1.53,7.14,1,10.81-1.31,9.21-3,18.34-6.31,27.07-.91,2.35-.89,2.37-3.37,2.37H163.94q-9.84,0-19.67,0h0a2.2,2.2,0,0,1-2.49-1.65c-3.89-10.42-10-19.62-16.25-28.69a10.46,10.46,0,0,1-1.88-8.93,11.17,11.17,0,0,1,1-2.48,6.17,6.17,0,0,1,5.35-3.54,6.45,6.45,0,0,1,5,2.65c2.09,2.63,4.25,5.21,6.35,7.82a7.5,7.5,0,0,1,.68,1.25l.64-.38c.06-.63.18-1.26.18-1.89q0-21.66,0-43.33c0-3,.8-5.61,3.18-7.55a5.57,5.57,0,0,1,3.55-1.37m0-2.48h0a8.05,8.05,0,0,0-5.12,1.92c-2.76,2.26-4.1,5.36-4.09,9.48,0,13.5,0,26.75,0,39.21-1.13-1.39-2.3-2.82-3.43-4.23a8.84,8.84,0,0,0-6.92-3.58,8.66,8.66,0,0,0-7.53,4.83,13.52,13.52,0,0,0-1.19,3.05,12.94,12.94,0,0,0,2.25,11c6,8.59,12.11,17.84,16,28.14a4.63,4.63,0,0,0,4.81,3.26c7.19,0,14.31,0,19.71,0h16.41c3.48,0,4.43-.65,5.68-3.89l0-.07c3.51-9.11,5.17-18.65,6.45-27.6.53-3.68.8-8-1.22-12.24-1.5-3.16-4.12-5-7.18-5a8.82,8.82,0,0,0-3.28.67,8.19,8.19,0,0,0-7.18-4.4,8.38,8.38,0,0,0-5,1.65C167,143,166,142.05,164,141.37a8.19,8.19,0,0,0-2.44-.4,6.89,6.89,0,0,0-2.85.61q.06-1,.06-2v-.34c0-7.95.05-16.17,0-24.26a12.58,12.58,0,0,0-3.51-9,8,8,0,0,0-5.74-2.55Z"/><path class="cls-1" d="M163,196.07c6.14,0,12.29,0,18.44,0,3.38,0,5.39,2,5.46,5.36,0,1.05,0,2.1,0,3.15,0,4-1.89,5.92-5.89,5.93q-17.25,0-34.51,0c-1,0-1.89.05-2.83,0a5,5,0,0,1-4.91-5.14c-.05-1.26,0-2.53,0-3.79.05-3.48,2-5.48,5.47-5.5,6.25,0,12.51,0,18.76,0Z"/></svg>