<svg id="Layer_1" data-name="Layer 1" xmlns="http://www.w3.org/2000/svg" viewBox="0 0 250 250"><defs><style>.cls-1,.cls-11,.cls-12{fill:#f4795b;}.cls-1{opacity:0.7;}.cls-2{fill:#ededed;}.cls-3{fill:#ee3b6d;}.cls-4{font-size:6.96px;letter-spacing:-0.02em;}.cls-4,.cls-6,.cls-9{fill:#323233;}.cls-4,.cls-9{font-family:Montserrat-Light, Montserrat Light;font-weight:300;}.cls-5{letter-spacing:0em;}.cls-13,.cls-14,.cls-7,.cls-8{fill:none;stroke-miterlimit:10;}.cls-7,.cls-8{stroke:#323233;}.cls-7{stroke-width:0.73px;}.cls-8{stroke-width:0.68px;}.cls-9{font-size:6.96px;}.cls-10{letter-spacing:-0.02em;}.cls-12{opacity:0.1;}.cls-13{stroke:#ededed;stroke-width:7.34px;}.cls-13,.cls-14{stroke-linecap:round;}.cls-14{stroke:#f4795b;stroke-width:8.57px;}</style></defs><title>a</title><rect class="cls-1" x="35.13" y="106.84" width="151.35" height="93.27"/><path class="cls-1" d="M102.72,45.33,35.13,106.84H186.48l-67.6-61.51A12,12,0,0,0,102.72,45.33Z"/><path class="cls-2" d="M142.58,59.65v0l-1.35-.46L105.56,163.84l1.35.46v0c.39-1.13,1.39-1.82,2.25-1.52a2,2,0,0,1,.85,2.57l0,0,1.67.57,0,0a1.7,1.7,0,1,1,3.09,1.06v0l1.67.57v0a1.7,1.7,0,1,1,3.1,1.05l0,0,1.37.47c1.27-2,3.36-3.07,5.18-2.45s2.83,2.73,2.61,5.1l1.61.55,0,0a1.7,1.7,0,1,1,3.09,1.06v0l1.67.56v0a1.7,1.7,0,1,1,3.09,1v0l1.67.57,0,0a1.7,1.7,0,1,1,3.09,1.06v0l1.1.38L179.71,72.26l-1.1-.37v0a1.7,1.7,0,1,1-3.1-1.06l0,0-1.67-.57,0,0a1.7,1.7,0,1,1-3.09-1v0l-1.67-.57v0a1.7,1.7,0,1,1-3.1-1.06l0,0L164.37,67c-1.27,2-3.35,3.07-5.18,2.45s-2.83-2.73-2.6-5.1l-1.37-.47,0,0a1.7,1.7,0,1,1-3.09-1.05v0l-1.67-.57v0a1.7,1.7,0,1,1-3.1-1.06l0,0-1.67-.57,0,0a1.7,1.7,0,1,1-3.09-1.05Z"/><path class="cls-3" d="M131.11,120.83c1.84.63,2.43,1.92,2,3s-1.57,1.73-3.34,1.15-2.41-1.89-2-3S129.44,120.26,131.11,120.83Zm-1,3.24c1.11.41,2.1.28,2.36-.46s-.45-1.42-1.61-1.81-2.06-.36-2.34.46S129,123.69,130.09,124.07Zm6.71,1.14L129.5,117l.26-.76,7.3,8.24Zm-.13-8.84c1.85.63,2.44,1.91,2.05,3s-1.57,1.74-3.32,1.15-2.42-1.89-2-3S135,115.8,136.67,116.37Zm-1,3.23c1.12.4,2.11.26,2.36-.47s-.45-1.42-1.61-1.81-2.06-.36-2.34.46S134.56,119.23,135.66,119.6Z"/><path class="cls-3" d="M134.74,110.16c1.85.63,2.44,1.91,2,3s-1.57,1.74-3.34,1.15-2.41-1.89-2-3S133.07,109.59,134.74,110.16Zm-1,3.24c1.11.4,2.1.28,2.35-.47s-.45-1.41-1.6-1.81-2.06-.35-2.34.47S132.63,113,133.73,113.4Zm6.71,1.14-7.3-8.24.26-.75,7.3,8.23Zm-.13-8.84c1.85.63,2.43,1.91,2.05,3s-1.57,1.73-3.32,1.15-2.43-1.9-2-3S138.64,105.13,140.31,105.7Zm-1,3.23c1.11.4,2.11.25,2.36-.47s-.45-1.42-1.61-1.82-2.06-.35-2.34.47S138.19,108.55,139.3,108.93Z"/><text class="cls-4" transform="translate(142.66 134.53) rotate(-71.18)">C<tspan class="cls-5" x="3.89" y="0">OUPON</tspan></text><polygon class="cls-3" points="123.24 134.83 125.92 134.48 127.16 132.07 128.32 134.52 131 134.95 129.03 136.81 129.45 139.49 127.07 138.19 124.65 139.42 125.15 136.75 123.24 134.83"/><polygon class="cls-3" points="137.96 91.63 140.65 91.28 141.88 88.87 143.05 91.31 145.72 91.74 143.76 93.61 144.18 96.28 141.8 94.99 139.38 96.21 139.88 93.55 137.96 91.63"/><rect class="cls-6" x="147.33" y="134.54" width="1.12" height="5.24" transform="translate(325.44 41.43) rotate(108.82)"/><rect class="cls-6" x="145.05" y="140.91" width="1.35" height="5.24" transform="translate(328.6 51.91) rotate(108.82)"/><rect class="cls-6" x="145.02" y="142.25" width="0.49" height="5.24" transform="translate(329.26 54.11) rotate(108.82)"/><rect class="cls-6" x="144.46" y="143.43" width="0.82" height="5.24" transform="translate(329.85 56.06) rotate(108.82)"/><rect class="cls-6" x="150.9" y="124.93" width="0.54" height="5.24" transform="translate(320.67 25.61) rotate(108.82)"/><rect class="cls-6" x="144.18" y="144.62" width="0.56" height="5.24" transform="translate(330.44 58.02) rotate(108.82)"/><rect class="cls-6" x="147.19" y="135.76" width="0.58" height="5.24" transform="translate(326.04 43.44) rotate(108.82)"/><rect class="cls-6" x="146.89" y="136.72" width="0.51" height="5.24" transform="translate(326.52 45.02) rotate(108.82)"/><rect class="cls-6" x="146.69" y="137.58" width="0.33" height="5.24" transform="translate(326.95 46.43) rotate(108.82)"/><rect class="cls-6" x="148.94" y="130.99" width="0.33" height="5.24" transform="translate(323.68 35.59) rotate(108.82)"/><rect class="cls-6" x="149.21" y="130.19" width="0.33" height="5.24" transform="translate(323.28 34.28) rotate(108.82)"/><line class="cls-6" x1="149.28" y1="141.21" x2="144.32" y2="139.52"/><rect class="cls-6" x="143.75" y="145.79" width="0.63" height="5.24" transform="translate(331.01 59.93) rotate(108.82)"/><rect class="cls-6" x="143.29" y="147.01" width="0.7" height="5.24" transform="translate(331.62 61.95) rotate(108.82)"/><rect class="cls-6" x="146.15" y="138.62" width="0.71" height="5.24" transform="matrix(-0.32, 0.95, -0.95, -0.32, 327.46, 48.14)"/><rect class="cls-6" x="150.02" y="127.45" width="0.59" height="5.24" transform="translate(321.92 29.76) rotate(108.82)"/><rect class="cls-6" x="149.12" y="128.89" width="1.4" height="5.24" transform="translate(322.64 32.13) rotate(108.82)"/><rect class="cls-6" x="147.88" y="133.12" width="1" height="5.24" transform="translate(324.73 39.09) rotate(108.82)"/><rect class="cls-6" x="145.88" y="139.65" width="0.55" height="5.24" transform="translate(327.97 49.83) rotate(108.82)"/><rect class="cls-6" x="150.3" y="126.16" width="0.91" height="5.24" transform="translate(321.28 27.64) rotate(108.82)"/><rect class="cls-6" x="148.54" y="131.83" width="0.55" height="5.24" transform="translate(324.1 36.98) rotate(108.82)"/><polygon class="cls-6" points="117.63 140.13 116.94 140.62 117.19 141.42 116.52 140.92 115.83 141.41 116.1 140.61 115.43 140.11 116.27 140.12 116.53 139.32 116.79 140.13 117.63 140.13"/><polygon class="cls-6" points="119 136.11 118.31 136.59 118.57 137.4 117.89 136.89 117.21 137.38 117.47 136.58 116.8 136.08 117.64 136.09 117.91 135.29 118.16 136.1 119 136.11"/><polygon class="cls-6" points="120.37 132.08 119.69 132.56 119.94 133.37 119.26 132.87 118.58 133.35 118.85 132.56 118.17 132.06 119.01 132.06 119.28 131.27 119.53 132.07 120.37 132.08"/><polygon class="cls-6" points="121.75 128.05 121.06 128.54 121.31 129.34 120.64 128.84 119.95 129.32 120.22 128.53 119.55 128.03 120.39 128.04 120.65 127.24 120.91 128.04 121.75 128.05"/><polygon class="cls-6" points="123.12 124.02 122.43 124.51 122.69 125.31 122.01 124.81 121.33 125.3 121.59 124.5 120.92 124 121.76 124.01 122.03 123.21 122.28 124.01 123.12 124.02"/><polygon class="cls-6" points="124.49 119.99 123.81 120.48 124.06 121.28 123.38 120.78 122.7 121.27 122.97 120.47 122.29 119.97 123.13 119.98 123.4 119.18 123.65 119.98 124.49 119.99"/><polygon class="cls-6" points="125.86 115.97 125.18 116.45 125.43 117.25 124.76 116.75 124.07 117.24 124.34 116.44 123.66 115.94 124.5 115.95 124.77 115.15 125.02 115.96 125.86 115.97"/><polygon class="cls-6" points="127.24 111.94 126.55 112.42 126.8 113.23 126.13 112.72 125.44 113.21 125.71 112.42 125.04 111.91 125.88 111.92 126.14 111.13 126.4 111.93 127.24 111.94"/><polygon class="cls-6" points="128.61 107.91 127.93 108.39 128.18 109.2 127.5 108.7 126.82 109.18 127.08 108.39 126.41 107.89 127.25 107.89 127.52 107.1 127.77 107.9 128.61 107.91"/><polygon class="cls-6" points="129.98 103.88 129.3 104.37 129.55 105.17 128.88 104.67 128.19 105.16 128.46 104.36 127.78 103.86 128.62 103.87 128.89 103.07 129.14 103.87 129.98 103.88"/><polygon class="cls-6" points="131.36 99.85 130.67 100.34 130.92 101.14 130.25 100.64 129.56 101.13 129.83 100.33 129.16 99.83 130 99.84 130.26 99.04 130.52 99.84 131.36 99.85"/><polygon class="cls-6" points="132.73 95.82 132.04 96.31 132.3 97.11 131.62 96.61 130.94 97.1 131.21 96.3 130.53 95.8 131.37 95.81 131.64 95.01 131.89 95.81 132.73 95.82"/><polygon class="cls-6" points="134.1 91.8 133.42 92.28 133.67 93.08 133 92.58 132.31 93.07 132.58 92.27 131.9 91.77 132.74 91.78 133.01 90.98 133.26 91.79 134.1 91.8"/><polygon class="cls-6" points="135.48 87.77 134.79 88.25 135.04 89.06 134.37 88.56 133.68 89.04 133.95 88.25 133.28 87.75 134.12 87.75 134.38 86.96 134.64 87.76 135.48 87.77"/><polygon class="cls-6" points="136.85 83.74 136.16 84.23 136.42 85.03 135.74 84.53 135.06 85.02 135.32 84.22 134.65 83.72 135.49 83.72 135.76 82.93 136.01 83.73 136.85 83.74"/><polygon class="cls-6" points="149.66 151.05 148.98 151.54 149.23 152.34 148.55 151.84 147.87 152.33 148.14 151.53 147.46 151.03 148.3 151.04 148.57 150.24 148.82 151.04 149.66 151.05"/><polygon class="cls-6" points="151.03 147.03 150.35 147.51 150.6 148.31 149.93 147.81 149.24 148.3 149.51 147.5 148.83 147 149.68 147.01 149.94 146.22 150.19 147.02 151.03 147.03"/><polygon class="cls-6" points="152.41 143 151.72 143.48 151.97 144.29 151.3 143.78 150.62 144.27 150.88 143.48 150.21 142.97 151.05 142.98 151.32 142.19 151.57 142.99 152.41 143"/><polygon class="cls-6" points="153.78 138.97 153.1 139.46 153.35 140.26 152.67 139.76 151.99 140.25 152.26 139.45 151.58 138.95 152.42 138.96 152.69 138.16 152.94 138.96 153.78 138.97"/><polygon class="cls-6" points="155.15 134.94 154.47 135.43 154.72 136.23 154.05 135.73 153.36 136.22 153.63 135.42 152.95 134.92 153.79 134.93 154.06 134.13 154.31 134.93 155.15 134.94"/><polygon class="cls-6" points="156.53 130.91 155.84 131.4 156.09 132.2 155.42 131.7 154.73 132.19 155 131.39 154.33 130.89 155.17 130.9 155.44 130.1 155.69 130.9 156.53 130.91"/><polygon class="cls-6" points="157.9 126.89 157.22 127.37 157.47 128.17 156.79 127.67 156.11 128.16 156.38 127.36 155.7 126.86 156.54 126.87 156.81 126.07 157.06 126.88 157.9 126.89"/><polygon class="cls-6" points="159.27 122.86 158.59 123.34 158.84 124.15 158.16 123.64 157.48 124.13 157.75 123.33 157.07 122.83 157.91 122.84 158.18 122.05 158.43 122.85 159.27 122.86"/><polygon class="cls-6" points="160.65 118.83 159.96 119.31 160.21 120.12 159.54 119.62 158.85 120.1 159.12 119.31 158.45 118.81 159.29 118.81 159.55 118.02 159.81 118.82 160.65 118.83"/><polygon class="cls-6" points="162.02 114.8 161.33 115.29 161.59 116.09 160.91 115.59 160.23 116.08 160.49 115.28 159.82 114.78 160.66 114.79 160.93 113.99 161.18 114.79 162.02 114.8"/><polygon class="cls-6" points="163.39 110.77 162.71 111.26 162.96 112.06 162.28 111.56 161.6 112.05 161.87 111.25 161.19 110.75 162.03 110.76 162.3 109.96 162.55 110.76 163.39 110.77"/><polygon class="cls-6" points="164.76 106.74 164.08 107.23 164.33 108.03 163.66 107.53 162.97 108.02 163.24 107.22 162.56 106.72 163.41 106.73 163.67 105.93 163.93 106.73 164.76 106.74"/><polygon class="cls-6" points="166.14 102.72 165.45 103.2 165.71 104 165.03 103.5 164.34 103.99 164.61 103.19 163.94 102.69 164.78 102.7 165.05 101.91 165.3 102.71 166.14 102.72"/><polygon class="cls-6" points="167.51 98.69 166.83 99.17 167.08 99.98 166.4 99.47 165.72 99.96 165.99 99.17 165.31 98.67 166.15 98.67 166.42 97.88 166.67 98.68 167.51 98.69"/><polygon class="cls-6" points="168.88 94.66 168.2 95.15 168.45 95.95 167.78 95.45 167.09 95.93 167.36 95.14 166.69 94.64 167.53 94.64 167.79 93.85 168.04 94.65 168.88 94.66"/><path class="cls-6" d="M138.27,134.86l-2.86,8.4a.18.18,0,0,1-.23.11h0a.18.18,0,0,1-.11-.23l2.86-8.4a.19.19,0,0,1,.23-.11h0A.17.17,0,0,1,138.27,134.86Z"/><path class="cls-6" d="M140,135.41l-3.87,11.35a.17.17,0,0,1-.2.1h0a.17.17,0,0,1-.1-.21l3.87-11.34a.17.17,0,0,1,.2-.11h0A.16.16,0,0,1,140,135.41Z"/><path class="cls-6" d="M141.7,136l-2.86,8.4a.19.19,0,0,1-.23.11h0a.17.17,0,0,1-.11-.23l2.86-8.4a.19.19,0,0,1,.23-.11h0A.17.17,0,0,1,141.7,136Z"/><path class="cls-6" d="M152.82,102.28l2.87-8.4a.17.17,0,0,1,.23-.11h0A.18.18,0,0,1,156,94l-2.86,8.41a.19.19,0,0,1-.23.11h0A.18.18,0,0,1,152.82,102.28Z"/><path class="cls-6" d="M151.15,101.73,155,90.38a.17.17,0,0,1,.21-.1h0a.17.17,0,0,1,.1.21l-3.87,11.34a.15.15,0,0,1-.2.1h0A.15.15,0,0,1,151.15,101.73Z"/><path class="cls-6" d="M149.4,101.11l2.86-8.4a.17.17,0,0,1,.23-.11h0a.18.18,0,0,1,.11.23l-2.86,8.4a.19.19,0,0,1-.23.11h0A.17.17,0,0,1,149.4,101.11Z"/><line class="cls-7" x1="151.87" y1="121.77" x2="163.05" y2="88.85"/><line class="cls-8" x1="154.51" y1="120.54" x2="164.4" y2="91.63"/><path class="cls-2" d="M58,84.88l0,0-1.27.64,49.78,98.76,1.28-.64,0,0a1.7,1.7,0,1,1,2.92-1.47l0,0,1.57-.79,0,0a1.7,1.7,0,1,1,2.92-1.47l0,0,1.58-.8,0,0a1.7,1.7,0,1,1,2.92-1.47l0,0L121,177c-.55-2.31.15-4.54,1.88-5.41s3.93-.11,5.46,1.71l1.53-.77,0,0a1.7,1.7,0,1,1,2.92-1.47v0l1.58-.8,0,0a1.7,1.7,0,1,1,2.92-1.47l0,0,1.58-.79,0,0a1.7,1.7,0,1,1,2.92-1.47l0,0,1-.53L93,67.19l-1,.53,0,0A1.7,1.7,0,1,1,89,69.22l0,0L87.44,70l0,0a1.7,1.7,0,1,1-2.92,1.47l0,0-1.57.8,0,0a1.7,1.7,0,1,1-2.92,1.48l0,0-1.52.77c.54,2.31-.16,4.54-1.88,5.41s-3.93.1-5.47-1.71l-1.29.65,0,0A1.7,1.7,0,1,1,67,80.35l0,0-1.58.8,0,0a1.7,1.7,0,1,1-2.92,1.48v0l-1.58.79,0,0A1.7,1.7,0,1,1,58,84.88Z"/><path class="cls-3" d="M93.64,135.9c1.74-.88,3.07-.4,3.61.67s.14,2.34-1.52,3.19-3,.4-3.59-.69S92.07,136.7,93.64,135.9Zm1.6,3c1.07-.51,1.67-1.3,1.32-2s-1.32-.67-2.42-.12-1.69,1.22-1.3,2S94.2,139.42,95.24,138.89Zm5.52-4-11-.55-.36-.71,11,.55Zm-6.41-6.1c1.74-.88,3.07-.4,3.6.66s.14,2.33-1.5,3.18-3,.4-3.6-.69S92.78,129.59,94.35,128.8Zm1.6,3c1.07-.52,1.66-1.33,1.32-2s-1.33-.67-2.42-.12-1.7,1.22-1.31,2S94.91,132.31,96,131.79Z"/><path class="cls-3" d="M88.57,125.83c1.74-.87,3.06-.4,3.6.67s.14,2.34-1.51,3.19-3,.4-3.59-.69S87,126.63,88.57,125.83Zm1.6,3c1.07-.51,1.67-1.3,1.32-2s-1.33-.67-2.42-.12-1.7,1.22-1.31,2S89.13,129.35,90.17,128.82Zm5.51-4-11-.55-.36-.71,11,.55Zm-6.4-6.1c1.74-.88,3.06-.4,3.6.66s.14,2.33-1.51,3.18-3.05.41-3.6-.69S87.7,119.53,89.28,118.73Zm1.6,3c1.06-.52,1.66-1.33,1.31-2s-1.33-.67-2.42-.12-1.7,1.22-1.31,2S89.83,122.24,90.88,121.72Z"/><text class="cls-9" transform="translate(111.53 137.17) rotate(-116.75)"><tspan class="cls-10">C</tspan><tspan x="3.89" y="0">OUPON</tspan></text><polygon class="cls-3" points="98.13 151.32 99.76 149.16 98.91 146.59 101.47 147.47 103.65 145.86 103.6 148.57 105.81 150.14 103.21 150.93 102.4 153.52 100.84 151.3 98.13 151.32"/><polygon class="cls-3" points="77.59 110.56 79.22 108.4 78.36 105.83 80.92 106.71 83.1 105.1 83.05 107.81 85.26 109.38 82.67 110.18 81.85 112.76 80.3 110.54 77.59 110.56"/><rect class="cls-6" x="116.5" y="132.72" width="1.12" height="5.24" transform="translate(185.22 -30.11) rotate(63.25)"/><rect class="cls-6" x="119.41" y="138.73" width="1.35" height="5.24" transform="translate(192.25 -29.51) rotate(63.25)"/><rect class="cls-6" x="120.48" y="139.99" width="0.49" height="5.24" transform="translate(193.73 -29.38) rotate(63.25)"/><rect class="cls-6" x="120.88" y="141.11" width="0.82" height="5.24" transform="translate(195.03 -29.27) rotate(63.25)"/><rect class="cls-6" x="112.21" y="123.65" width="0.54" height="5.24" transform="translate(174.6 -31.01) rotate(63.25)"/><rect class="cls-6" x="121.57" y="142.23" width="0.56" height="5.24" transform="translate(196.35 -29.16) rotate(63.25)"/><rect class="cls-6" x="117.34" y="133.87" width="0.58" height="5.24" transform="translate(186.56 -29.99) rotate(63.25)"/><rect class="cls-6" x="117.83" y="134.78" width="0.51" height="5.24" transform="translate(187.62 -29.9) rotate(63.25)"/><rect class="cls-6" x="118.33" y="135.59" width="0.33" height="5.24" transform="translate(188.57 -29.82) rotate(63.25)"/><rect class="cls-6" x="115.2" y="129.37" width="0.33" height="5.24" transform="translate(181.3 -30.44) rotate(63.25)"/><rect class="cls-6" x="114.82" y="128.62" width="0.33" height="5.24" transform="translate(180.42 -30.52) rotate(63.25)"/><line class="cls-6" x1="120.92" y1="137.18" x2="116.24" y2="139.54"/><rect class="cls-6" x="122.09" y="143.33" width="0.63" height="5.24" transform="translate(197.63 -29.05) rotate(63.25)"/><rect class="cls-6" x="122.64" y="144.49" width="0.7" height="5.24" transform="translate(198.99 -28.93) rotate(63.25)"/><rect class="cls-6" x="118.64" y="136.57" width="0.71" height="5.24" transform="translate(189.72 -29.72) rotate(63.25)"/><rect class="cls-6" x="113.39" y="126.03" width="0.59" height="5.24" transform="translate(177.38 -30.78) rotate(63.25)"/><rect class="cls-6" x="113.67" y="127.39" width="1.4" height="5.24" transform="translate(178.98 -30.64) rotate(63.25)"/><rect class="cls-6" x="115.88" y="131.38" width="1" height="5.24" transform="translate(183.65 -30.24) rotate(63.25)"/><rect class="cls-6" x="119.21" y="137.54" width="0.55" height="5.24" transform="translate(190.85 -29.63) rotate(63.25)"/><rect class="cls-6" x="112.62" y="124.81" width="0.91" height="5.24" transform="translate(175.97 -30.9) rotate(63.25)"/><rect class="cls-6" x="115.5" y="130.17" width="0.55" height="5.24" transform="translate(182.23 -30.36) rotate(63.25)"/><polygon class="cls-6" points="97.99 159.04 97.86 159.87 98.61 160.25 97.78 160.38 97.65 161.21 97.27 160.46 96.44 160.59 97.03 160 96.65 159.25 97.4 159.63 97.99 159.04"/><polygon class="cls-6" points="96.08 155.24 95.94 156.07 96.69 156.45 95.86 156.58 95.73 157.41 95.35 156.66 94.52 156.79 95.11 156.2 94.73 155.45 95.48 155.83 96.08 155.24"/><polygon class="cls-6" points="94.16 151.44 94.03 152.27 94.78 152.65 93.95 152.78 93.82 153.61 93.43 152.86 92.6 152.99 93.2 152.4 92.82 151.65 93.57 152.03 94.16 151.44"/><polygon class="cls-6" points="92.25 147.64 92.11 148.47 92.86 148.85 92.03 148.98 91.9 149.81 91.52 149.06 90.69 149.19 91.28 148.6 90.9 147.85 91.65 148.23 92.25 147.64"/><polygon class="cls-6" points="90.33 143.84 90.2 144.67 90.95 145.05 90.12 145.18 89.98 146.01 89.6 145.26 88.77 145.39 89.37 144.8 88.98 144.05 89.73 144.43 90.33 143.84"/><polygon class="cls-6" points="88.41 140.04 88.28 140.87 89.03 141.25 88.2 141.38 88.07 142.21 87.69 141.46 86.86 141.59 87.45 141 87.07 140.25 87.82 140.63 88.41 140.04"/><polygon class="cls-6" points="86.5 136.24 86.36 137.07 87.11 137.45 86.28 137.58 86.15 138.41 85.77 137.66 84.94 137.79 85.53 137.2 85.15 136.45 85.9 136.83 86.5 136.24"/><polygon class="cls-6" points="84.58 132.44 84.45 133.27 85.2 133.65 84.37 133.78 84.24 134.61 83.86 133.86 83.03 133.99 83.62 133.4 83.24 132.65 83.99 133.03 84.58 132.44"/><polygon class="cls-6" points="82.67 128.64 82.53 129.47 83.28 129.85 82.45 129.98 82.32 130.81 81.94 130.06 81.11 130.19 81.7 129.6 81.32 128.85 82.07 129.23 82.67 128.64"/><polygon class="cls-6" points="80.75 124.84 80.62 125.67 81.37 126.05 80.54 126.18 80.41 127.01 80.02 126.26 79.19 126.39 79.79 125.8 79.41 125.05 80.16 125.43 80.75 124.84"/><polygon class="cls-6" points="78.83 121.04 78.7 121.87 79.45 122.25 78.62 122.38 78.49 123.21 78.11 122.46 77.28 122.59 77.87 122 77.49 121.25 78.24 121.63 78.83 121.04"/><polygon class="cls-6" points="76.92 117.24 76.79 118.07 77.54 118.45 76.7 118.58 76.57 119.41 76.19 118.66 75.36 118.79 75.96 118.2 75.58 117.45 76.32 117.83 76.92 117.24"/><polygon class="cls-6" points="75 113.44 74.87 114.27 75.62 114.65 74.79 114.78 74.66 115.61 74.28 114.86 73.45 114.99 74.04 114.4 73.66 113.65 74.41 114.03 75 113.44"/><polygon class="cls-6" points="73.09 109.64 72.95 110.47 73.7 110.85 72.87 110.98 72.74 111.81 72.36 111.06 71.53 111.19 72.13 110.6 71.74 109.85 72.49 110.23 73.09 109.64"/><polygon class="cls-6" points="71.17 105.84 71.04 106.67 71.79 107.05 70.96 107.18 70.83 108.01 70.44 107.26 69.61 107.39 70.21 106.8 69.83 106.05 70.58 106.43 71.17 105.84"/><polygon class="cls-6" points="128.21 143.8 128.08 144.63 128.83 145.01 128 145.15 127.87 145.98 127.49 145.23 126.66 145.36 127.25 144.76 126.87 144.02 127.62 144.4 128.21 143.8"/><polygon class="cls-6" points="126.3 140 126.17 140.83 126.92 141.22 126.08 141.35 125.95 142.18 125.57 141.43 124.74 141.56 125.34 140.96 124.95 140.22 125.7 140.6 126.3 140"/><polygon class="cls-6" points="124.38 136.2 124.25 137.03 125 137.41 124.17 137.55 124.04 138.38 123.66 137.63 122.83 137.76 123.42 137.16 123.04 136.41 123.79 136.8 124.38 136.2"/><polygon class="cls-6" points="122.47 132.4 122.33 133.23 123.08 133.61 122.25 133.75 122.12 134.58 121.74 133.83 120.91 133.96 121.5 133.36 121.12 132.62 121.87 133 122.47 132.4"/><polygon class="cls-6" points="120.55 128.6 120.42 129.43 121.17 129.81 120.34 129.94 120.21 130.78 119.83 130.03 119 130.16 119.59 129.56 119.21 128.81 119.96 129.2 120.55 128.6"/><polygon class="cls-6" points="118.64 124.8 118.5 125.63 119.25 126.01 118.42 126.14 118.29 126.97 117.91 126.23 117.08 126.36 117.67 125.76 117.29 125.02 118.04 125.4 118.64 124.8"/><polygon class="cls-6" points="116.72 121 116.59 121.83 117.34 122.21 116.51 122.34 116.38 123.17 115.99 122.43 115.16 122.56 115.76 121.96 115.38 121.22 116.13 121.6 116.72 121"/><polygon class="cls-6" points="114.8 117.2 114.67 118.03 115.42 118.41 114.59 118.55 114.46 119.38 114.08 118.63 113.25 118.76 113.84 118.16 113.46 117.41 114.21 117.8 114.8 117.2"/><polygon class="cls-6" points="112.89 113.4 112.76 114.23 113.51 114.61 112.67 114.74 112.54 115.58 112.16 114.83 111.33 114.96 111.93 114.36 111.55 113.61 112.29 114 112.89 113.4"/><polygon class="cls-6" points="110.97 109.6 110.84 110.43 111.59 110.81 110.76 110.94 110.63 111.77 110.25 111.03 109.42 111.16 110.01 110.56 109.63 109.81 110.38 110.19 110.97 109.6"/><polygon class="cls-6" points="109.06 105.8 108.92 106.63 109.67 107.01 108.84 107.14 108.71 107.97 108.33 107.22 107.5 107.36 108.09 106.76 107.71 106.01 108.46 106.39 109.06 105.8"/><polygon class="cls-6" points="107.14 102 107.01 102.83 107.76 103.21 106.93 103.34 106.8 104.17 106.42 103.42 105.58 103.56 106.18 102.96 105.8 102.21 106.55 102.59 107.14 102"/><polygon class="cls-6" points="105.23 98.2 105.09 99.03 105.84 99.41 105.01 99.54 104.88 100.37 104.5 99.63 103.67 99.76 104.26 99.16 103.88 98.41 104.63 98.8 105.23 98.2"/><polygon class="cls-6" points="103.31 94.4 103.18 95.23 103.93 95.61 103.1 95.74 102.97 96.57 102.58 95.83 101.75 95.96 102.35 95.36 101.97 94.61 102.72 94.99 103.31 94.4"/><polygon class="cls-6" points="101.39 90.6 101.26 91.43 102.01 91.81 101.18 91.94 101.05 92.77 100.67 92.02 99.84 92.16 100.43 91.56 100.05 90.81 100.8 91.19 101.39 90.6"/><path class="cls-6" d="M108.68,140.6l4,7.92a.19.19,0,0,1-.08.25h0a.18.18,0,0,1-.24-.08l-4-7.93a.18.18,0,0,1,.08-.24h0A.19.19,0,0,1,108.68,140.6Z"/><path class="cls-6" d="M110.24,139.79l5.4,10.7a.16.16,0,0,1-.07.22h0a.17.17,0,0,1-.22-.07L110,139.93a.15.15,0,0,1,.07-.21h0A.15.15,0,0,1,110.24,139.79Z"/><path class="cls-6" d="M111.91,139l4,7.92a.19.19,0,0,1-.08.25h0a.19.19,0,0,1-.25-.08l-4-7.93a.17.17,0,0,1,.08-.24h0A.17.17,0,0,1,111.91,139Z"/><path class="cls-6" d="M95.59,107.4l-4-7.92a.17.17,0,0,1,.08-.24h0a.17.17,0,0,1,.24.08l4,7.92a.18.18,0,0,1-.08.24h0A.19.19,0,0,1,95.59,107.4Z"/><path class="cls-6" d="M94,108.22l-5.4-10.71a.15.15,0,0,1,.07-.21h0a.16.16,0,0,1,.22.07l5.39,10.7a.16.16,0,0,1-.07.22h0A.15.15,0,0,1,94,108.22Z"/><path class="cls-6" d="M92.36,109l-4-7.92a.18.18,0,0,1,.08-.24h0a.19.19,0,0,1,.25.08l4,7.92a.17.17,0,0,1-.08.24h0A.17.17,0,0,1,92.36,109Z"/><line class="cls-7" x1="108.85" y1="121.73" x2="93.16" y2="90.7"/><line class="cls-8" x1="109.82" y1="118.98" x2="96.09" y2="91.68"/><polygon class="cls-11" points="35.13 106.84 110.8 153.47 35.13 200.11 35.13 106.84"/><polygon class="cls-11" points="186.48 200.11 110.8 153.47 186.48 106.84 186.48 200.11"/><path class="cls-12" d="M102.72,136.77,35.13,200.11H186.48l-67.6-63.34A11.73,11.73,0,0,0,102.72,136.77Z"/><path class="cls-11" d="M102.72,138.6,35.13,200.11H186.48l-67.6-61.51A12,12,0,0,0,102.72,138.6Z"/><path class="cls-2" d="M210,176.05h-94.1c-1.88,0-3.4-2.37-3.4-5.28s1.52-5.28,3.4-5.28H210c1.87,0,3.39,2.37,3.39,5.28S211.83,176.05,210,176.05Z"/><path class="cls-11" d="M227.68,170.77c-8.33,3.09-18.67,8.37-25.08,14l5.05-14-5.05-14C209,162.41,219.35,167.68,227.68,170.77Z"/><line class="cls-13" x1="93.05" y1="170.42" x2="100.36" y2="170.42"/><line class="cls-14" x1="135.07" y1="170.42" x2="142.37" y2="170.42"/><rect class="cls-11" x="156.73" y="167.05" width="54.36" height="7.53" rx="3.72"/></svg>