<svg id="Layer_1" data-name="Layer 1" xmlns="http://www.w3.org/2000/svg" viewBox="0 0 250 250"><defs><style>.cls-1{fill:#f3775c;}</style></defs><title>a</title><path class="cls-1" d="M131.85,60c7.72,26.4,15.05,51.47,22.77,77.84-29.13-6.1-57.06-3.63-85.19,3.41l-11-37.67C85.69,93.72,111,81.8,131.85,60Z"/><path class="cls-1" d="M128,188.64l-22,10.09c-8.33-19.56-14.51-39.66-30.2-55.92,8-1.47,15-3.19,22.15-3.82,2.37-.2,5.79,1.8,7.38,3.84C115.79,156.29,122.17,171.83,128,188.64Z"/><path class="cls-1" d="M172.16,132l-5.54,6.75c-2.45-2.14-6.25-3.84-7.12-6.5-5.1-15.55-9.52-31.32-14.16-47-2.32-7.84-5.07-15.6-6.65-23.59-.53-2.69,1.14-7.58,3.25-8.67,4.12-2.12,6.93,1.39,8.1,5.33q10.5,35.28,20.79,70.62A9.72,9.72,0,0,1,171,131Z"/><path class="cls-1" d="M53.72,104.55c3.72,12.73,7.38,25.21,11.09,37.9-8.73,3.5-17,4.62-24.58-2-6.83-5.94-8.21-13.69-5.79-21.8C37.07,109.84,44.29,106.2,53.72,104.55Z"/><path class="cls-1" d="M194.76,52.7,178.82,63.31C178,57.8,187.74,50.47,194.76,52.7Z"/><path class="cls-1" d="M206.42,79.4,188,85.72c.78-5.14,8.39-8.37,17.48-8.43Z"/><path class="cls-1" d="M160,83.69c8.93,4.76,10.13,8.79,5.14,17.78C163.36,95.19,161.82,89.85,160,83.69Z"/><path class="cls-1" d="M191.24,104.42l17.72,3.4-.65,3.34-17.79-3.11Z"/><path class="cls-1" d="M199,139.6,183.3,127.38C190.85,126.53,199.53,133.36,199,139.6Z"/><path class="cls-1" d="M174.55,29.9c-2.81,5.46-5.63,10.91-8.85,17.17C162.94,41.38,167.59,32,174.55,29.9Z"/></svg>