<svg xmlns="http://www.w3.org/2000/svg" viewBox="0 0 288 187"><defs><style>.cls-1{isolation:isolate;}.cls-2{opacity:0.7;}.cls-3{fill:#ffd7cd;}.cls-4{fill:#606060;opacity:0.8;}.cls-14,.cls-5{fill:#fff;}.cls-5{stroke:#ff9433;stroke-miterlimit:10;stroke-width:0.4px;}.cls-6{fill:#d8d8d8;}.cls-7{fill:#baf4ee;}.cls-8{fill:#7fd6cb;opacity:0.73;}.cls-9{fill:#ffb031;}.cls-10{fill:#ff9433;}.cls-11{fill:#f73;}.cls-12{fill:#00c8b7;}.cls-13{fill:#7a4c08;}.cls-15{fill:#e6e8e8;}.cls-16{fill:#82ebe3;}.cls-17{fill:#d9dbdb;}.cls-18{fill:#08b29d;}.cls-19{fill:#eae4df;}.cls-20{fill:#1b1d23;}.cls-21{fill:#335572;}.cls-22{fill:#101319;}.cls-23{fill:#2a4b6b;}.cls-24{fill:#f2ad86;}.cls-25{mix-blend-mode:multiply;}.cls-26{fill:#c7d6e2;}.cls-27{fill:#f3f3f3;}.cls-28{fill:#2f3035;}.cls-29{fill:#6c6f7a;}.cls-30{fill:#222327;}.cls-31{fill:#f2af81;}.cls-32{fill:#ffc197;}.cls-33{fill:#c0f0ff;}.cls-34{fill:#151515;}.cls-35{fill:#f9b28f;}.cls-36{fill:#e9b7a0;}.cls-37{fill:#fbccba;}</style></defs><title>Retainful Premium</title><g class="cls-1"><g id="Layer_1" data-name="Layer 1"><g class="cls-2"><path class="cls-3" d="M56.83,103.34C69,98.69,83.85,97.91,96,93.51c21.84-7.88,30.46-31.13,55-34.11,30.83-3.74,61,11,79.81,28.33,17.94,16.53,33.17,43.88,18.12,64.63-11.45,15.77-37.87,20.85-59.32,24.47-28.86,4.88-59.73,4.37-88-2.36-23.44-5.58-45.3-15.42-58-32-7.76-10.09-7.93-25.41,3.56-34A40,40,0,0,1,56.83,103.34Z"/></g><rect class="cls-4" x="68.38" y="36.6" width="170.64" height="108" rx="4.44"/><rect class="cls-5" x="65.16" y="33.28" width="170.64" height="108" rx="4.44"/><ellipse class="cls-6" cx="76.26" cy="169.72" rx="28.54" ry="4.68"/><circle class="cls-7" cx="147.96" cy="76.53" r="43.87" transform="translate(22.29 185.87) rotate(-68.37)"/><path class="cls-8" d="M183.79,87.07v14.75a44.49,44.49,0,0,1-5.45,6.33V87.07h0v0c0-.11-2.67-2.3-4.7-4v-.92l2.46-.64a4.67,4.67,0,0,1,3,.24c.43.18.87.36,1.32.5v1.93A44,44,0,0,1,183.78,87v0Z"/><polygon class="cls-9" points="85.53 20.24 98.4 50.45 107.81 44.01 113.26 51.93 114.24 38.57 125.63 31.63 85.53 20.24"/><polygon class="cls-10" points="109.89 42.58 98.4 50.45 107.81 44.01 113.26 51.93 114.24 38.57 96.1 27.76 109.89 42.58"/><polygon class="cls-11" points="114 41.84 96.1 27.76 114.24 38.57 114 41.84"/><path class="cls-12" d="M113.49,55.7c-.1-.59-.23-1.17-.38-1.74l.88-.24c.16.6.29,1.21.4,1.83Z"/><path class="cls-12" d="M102.83,76.22A7.61,7.61,0,0,1,99.16,75l.51-.76a6.47,6.47,0,0,0,3.22,1.07Zm3.8-.75-.41-.82A9.35,9.35,0,0,0,109,72.5l.68.61A10.25,10.25,0,0,1,106.63,75.47Zm-10-3.4a7.47,7.47,0,0,1-.79-3.32,2.44,2.44,0,0,1,0-.27v-.2l.91.07v.16c0,.08,0,.16,0,.24a6.57,6.57,0,0,0,.7,2.92Zm35.35-.2V71c1.19,0,2.41,0,3.64-.14l.07.91C134.43,71.81,133.18,71.86,132,71.87Zm-3.7-.12-.59,0c-1.12-.09-2.14-.22-3.11-.39l.16-.9c.94.17,1.93.29,3,.38l.57,0Zm11.09-.42-.13-.91c1.18-.16,2.39-.36,3.6-.59l.18.9C141.78,71,140.55,71.17,139.36,71.33Zm-18.42-.92a18.53,18.53,0,0,1-3-1.33l-.43-.25.47-.78.41.23a16.6,16.6,0,0,0,2.83,1.26ZM111.82,70l-.79-.45a21,21,0,0,0,1.51-3.26l.85.31A20.57,20.57,0,0,1,111.82,70Zm34.8-.1-.22-.89c1.15-.27,2.34-.59,3.54-.93l.25.88C149,69.34,147.77,69.66,146.62,69.94Zm7.1-2-.28-.87c1.16-.38,2.32-.77,3.46-1.18l.31.86C156.05,67.14,154.89,67.54,153.72,67.92Zm-39.25-1.21a26.11,26.11,0,0,0-2.72-1.79l-.31-.16.42-.81.33.17A27.54,27.54,0,0,1,115,66ZM98,65.34l-.64-.65a7.78,7.78,0,0,1,3.36-1.81l.31.86A7.19,7.19,0,0,0,98,65.34Zm10.07-1.78a14.14,14.14,0,0,0-3.17-.36h-.37l0-.91a15.29,15.29,0,0,1,3.75.36Zm6.25-.54-.9-.16a20.54,20.54,0,0,0,.32-3.58h.92A22.42,22.42,0,0,1,114.36,63Z"/><path class="cls-12" d="M160.71,65.44l-.33-.85,1.71-.66.33.85Z"/><path class="cls-12" d="M189.48,87.71a.91.91,0,0,1-.09-1.82,21.72,21.72,0,0,0,14.3-7.42.91.91,0,1,1,1.38,1.2,23.55,23.55,0,0,1-15.51,8Z"/><path class="cls-13" d="M178.34,87.07,146.5,105.84,114.67,87.07v0c0-.12,1.79-1.59,4.47-3.76l.07-.07C128,76.06,146.5,61.44,146.5,61.44S165,76.06,173.8,83.19c2.72,2.21,4.51,3.7,4.53,3.83S178.34,87.06,178.34,87.07Z"/><path class="cls-14" d="M159.6,45.89H125.25a5.34,5.34,0,0,0-5.34,5.34v51.93a5.33,5.33,0,0,0,5.34,5.33h43a5.33,5.33,0,0,0,5.33-5.33V59.92Z"/><path class="cls-15" d="M159.6,54.58a5.33,5.33,0,0,0,5.33,5.34h8.69l-14-14Z"/><rect class="cls-16" x="128.04" y="54.67" width="15.65" height="15.65" rx="1.9"/><path class="cls-17" d="M158,74.67H129.59a1.53,1.53,0,0,0-1.53,1.53h0a1.52,1.52,0,0,0,1.53,1.53H158a1.52,1.52,0,0,0,1.53-1.53h0A1.53,1.53,0,0,0,158,74.67Z"/><path class="cls-17" d="M158,82.3H129.59a1.52,1.52,0,0,0-1.53,1.53h0a1.53,1.53,0,0,0,1.53,1.53H158a1.53,1.53,0,0,0,1.53-1.53h0A1.52,1.52,0,0,0,158,82.3Z"/><path class="cls-17" d="M145.11,89.7H129.59a1.52,1.52,0,0,0-1.53,1.53h0a1.53,1.53,0,0,0,1.53,1.53h15.52a1.54,1.54,0,0,0,1.53-1.53h0A1.53,1.53,0,0,0,145.11,89.7Z"/><path class="cls-9" d="M178.34,87.07v30.54a3.88,3.88,0,0,1-3.88,3.88H118.54a3.88,3.88,0,0,1-3.87-3.88V87.07l31.84,18.77Z"/><path class="cls-10" d="M177.27,120.27,156.78,99.79l-10.27,6-10.28-6.06-20.49,20.49a3.84,3.84,0,0,0,2.8,1.22h55.92A3.85,3.85,0,0,0,177.27,120.27Z"/><path class="cls-12" d="M184.77,45.14a19.22,19.22,0,0,0-17.14,17.64A18.93,18.93,0,0,0,171,75a4.67,4.67,0,0,1,.44,4.42l-1.51,3.64,6.17-1.6a4.64,4.64,0,0,1,3,.24,19.13,19.13,0,1,0,5.65-36.59Z"/><path class="cls-14" d="M187.18,73.84l1-1s-.84-2,2.67-5.29c2.08-2,2.54-3.89,2.37-5.45a5.45,5.45,0,0,0-4.79-4.79c-1.56-.17-3.47.3-5.45,2.38-3.31,3.5-5.28,2.67-5.28,2.67l-1.05,1Z"/><path class="cls-14" d="M179.07,67.42a2.9,2.9,0,0,0,4.05,4Z"/><path class="cls-14" d="M194,58.54l-.66.65a6.33,6.33,0,0,0-2-2l.66-.66a1.42,1.42,0,0,1,2,2Z"/><path class="cls-18" d="M186.19,45.06a16.52,16.52,0,1,1-16.89,27A19.19,19.19,0,0,0,171,75a4.67,4.67,0,0,1,.44,4.42l-1.51,3.64,6.17-1.6a4.64,4.64,0,0,1,3,.24,19.12,19.12,0,1,0,7.07-36.67Z"/><path class="cls-9" d="M86.62,29.2l4.17,9.58a1,1,0,0,1-.5,1.27l-.15.06a1,1,0,0,1-1.27-.51l-4-9.64a1,1,0,0,1,.55-1.28h0A1,1,0,0,1,86.62,29.2Z"/><path class="cls-7" d="M103,96.63A3.07,3.07,0,1,0,106,99.7,3.07,3.07,0,0,0,103,96.63Zm0,4.31a1.24,1.24,0,1,1,1.25-1.24A1.24,1.24,0,0,1,103,100.94Z"/><path class="cls-7" d="M185.24,109.05a3.07,3.07,0,1,0,3.07,3.07A3.07,3.07,0,0,0,185.24,109.05Zm0,4.31a1.24,1.24,0,1,1,1.24-1.24A1.24,1.24,0,0,1,185.24,113.36Z"/><path class="cls-7" d="M210.35,61.37a2.35,2.35,0,1,0,2.35,2.35A2.35,2.35,0,0,0,210.35,61.37Zm0,3.3a1,1,0,1,1,1-1A.95.95,0,0,1,210.35,64.67Z"/><path class="cls-7" d="M169,23.77a2.49,2.49,0,1,0,2.49,2.49A2.48,2.48,0,0,0,169,23.77Zm0,3.49a1,1,0,1,1,1-1A1,1,0,0,1,169,27.26Z"/><path class="cls-7" d="M89.47,81.68a2.61,2.61,0,1,0,2.61,2.61A2.61,2.61,0,0,0,89.47,81.68Z"/><path class="cls-7" d="M194.3,90.33a1.9,1.9,0,1,0,1.9,1.9A1.9,1.9,0,0,0,194.3,90.33Z"/><path class="cls-7" d="M131.37,24.55a2.78,2.78,0,1,0,2.77,2.78A2.78,2.78,0,0,0,131.37,24.55Z"/><path class="cls-7" d="M146.24,125.17a2,2,0,1,0,2,2A2,2,0,0,0,146.24,125.17Z"/><path class="cls-7" d="M185.41,35.27a2.38,2.38,0,1,0,2.38,2.37A2.37,2.37,0,0,0,185.41,35.27Z"/><circle class="cls-7" cx="101.27" cy="55.09" r="1.35"/><path class="cls-7" d="M211.17,49.53a2.31,2.31,0,1,0,2.31,2.3A2.3,2.3,0,0,0,211.17,49.53Z"/><circle class="cls-7" cx="88.17" cy="63.21" r="1.47"/><path class="cls-7" d="M150.05,19.62l.93-.93a.82.82,0,0,0,0-1.16.83.83,0,0,0-1.17,0l-.92.92-.93-.92a.82.82,0,1,0-1.16,1.16l.92.93-.92.92a.83.83,0,0,0,0,1.17.82.82,0,0,0,1.16,0l.93-.93.92.93A.83.83,0,0,0,151,20.54Z"/><path class="cls-7" d="M87.12,47.56l.93-.93a.82.82,0,0,0,0-1.16.83.83,0,0,0-1.17,0l-.92.92L85,45.47a.82.82,0,1,0-1.16,1.16l.92.93-.92.92a.83.83,0,0,0,0,1.17.82.82,0,0,0,1.16,0l.93-.93.92.93a.83.83,0,1,0,1.17-1.17Z"/><path class="cls-7" d="M196.16,104l.78-.78a.7.7,0,0,0-1-1l-.79.78-.78-.78a.7.7,0,1,0-1,1l.79.78-.79.78a.7.7,0,1,0,1,1l.78-.78.79.78a.7.7,0,0,0,1-1Z"/><polygon class="cls-19" points="80.74 117.35 68.42 117.35 68.42 79.68 78.77 80.5 80.74 117.35"/><path class="cls-20" d="M69,169l-.73.46s-.22,1,.14,1.32.27.54,3.14.54,2.92-.13,3-.32a1.23,1.23,0,0,0,0-1.27C74.17,169.26,69,169,69,169Z"/><path class="cls-21" d="M79.13,161.31s-1.46,3.52-1.21,4.73,3.24,1.55,3.44,1.26,1-5.27,1-5.27Z"/><path class="cls-22" d="M82.53,111.67H74.72l-2.63,12.06.14.25,7.51,14.23s-1.82,10.35-1.82,13,.24,12.17.24,12.17a23.87,23.87,0,0,0,4.13.52c1.62,0,2.3,0,2.3,0l3.52-24.64Z"/><path class="cls-21" d="M74.44,83.38A23.56,23.56,0,0,0,74.22,89c.27,2.83.27,13.29.27,13.29l.68,7.38a15.76,15.76,0,0,1,1.73,1.62c0,.2,2.23-1.81,2.23-1.81s-.59-16-1-17.11-2.59-9-2.59-9Z"/><path class="cls-23" d="M72.67,81.39l1.55,2.76s.72-.45,1.18-.31.5.27.5.27l.32-2.37a1.89,1.89,0,0,0-1.41-.63C74,81.2,72.67,81.39,72.67,81.39Z"/><path class="cls-22" d="M64,119.65c.14,1.41-.49,8.45.33,13,.91,5.09.37,12.86.37,15.65s3.26,17.23,3.26,17.23a10.09,10.09,0,0,1,3.46-.72c1.28.12,2.93.2,2.93.2s-2.46-17.68-2-20.47,3.62-20,3.62-20,1.15-10.93.26-12.38-10.8-.85-10.8-.85S64,119.49,64,119.65Z"/><path class="cls-20" d="M91.15,100.45,99.9,89.71l-4.75-2.85-3.82,5.21s-5.46-10.78-6.92-9.3-1.36,7.67-1.36,8.77S91.15,100.45,91.15,100.45Z"/><path class="cls-24" d="M74.13,69.22l-4.24,8.61s3.14,3.73,4.24,3.55,2.18-1.73,2.18-1.73l.32-4.7Z"/><g class="cls-25"><path class="cls-26" d="M78.49,83.52s-3.11-2.71-4-2.29c-.63-.4-3.56,2-3.56,2l3.9-1.27Z"/></g><path class="cls-27" d="M70.63,76.33s-.15,2.5.86,3.09,2.86,1.76,2.86,1.76l-3.91,2.29-2.19-4.82Z"/><path class="cls-27" d="M76.26,77.72l1.14,1.75L77.63,83l-2.82-1.91s1.27-1.46,1.27-1.82.14-1.46.14-1.46Z"/><path class="cls-20" d="M77.63,102l0,.28-1.46,10.73s-1.32,8.51-2.55,9.38-12.47,0-12.47,0l.64-5.1s1.5-5.69,2.23-8.65-.69-10.33-.69-10.33l-2-15.83,5.31-3.38,2.56-1.63s3,8.65,3.83,9.69S77.63,102,77.63,102Z"/><path class="cls-28" d="M77.63,102l0,.28c-1.43-3.67-11-21-11-21l1.41-1-1.77-.31.39-.92,2.56-1.63s3,8.65,3.83,9.69S77.63,102,77.63,102Z"/><path class="cls-22" d="M69.94,163.66s-.87,2.55-1,3.32-.91,1.91-.46,2.5,2.87.64,3.78.59,2.37,0,2.27-.36-.31-2.91-.31-2.91v-1.91a10,10,0,0,1-.91-1.55Z"/><path class="cls-20" d="M83.59,170.26a9.71,9.71,0,0,1-2.46-.69,5.24,5.24,0,0,0-1.86-.31,5.26,5.26,0,0,1-2-.32c0,.61.08,1.15.19,1.2s2.92.12,3.6.34a9.73,9.73,0,0,0,2.86.82c.82,0,6.47,0,6.47,0s.07-.57.12-1C89,170.27,84.49,170.29,83.59,170.26Z"/><path class="cls-22" d="M79.27,169.26a5.24,5.24,0,0,1,1.86.31,9.71,9.71,0,0,0,2.46.69c.9,0,5.41,0,7,0a2.59,2.59,0,0,0,0-.55c0-.23-3.36-1.59-3.82-2s-3-4.14-3-4.14l-1.91.13a28,28,0,0,1-3.1,2.64,15,15,0,0,1-.5-2,14.84,14.84,0,0,0-1,2.87c0,.33,0,1.07,0,1.73A5.26,5.26,0,0,0,79.27,169.26Z"/><ellipse class="cls-29" cx="76.54" cy="102.45" rx="0.46" ry="0.73"/><path class="cls-29" d="M75.72,108.37c0,.47-.25.86-.55.86s-.54-.39-.54-.86.24-.87.54-.87S75.72,107.89,75.72,108.37Z"/><path class="cls-30" d="M87.23,119.38s-2.32,2.77-3.77,1.82S76,102.59,76,102.59l.22-1.74L78,86.75,77,79l2.65,1.25,5.08,2.41a92.06,92.06,0,0,1-1.68,12c-1.18,5-.55,7.37-.45,7.6S87.23,119.38,87.23,119.38Z"/><polygon class="cls-31" points="68.58 116.69 71.44 119.65 73.95 119.83 75.54 119.24 71.85 116.38 68.58 116.69"/><path class="cls-28" d="M76.17,100.85,78,86.75,77,79l2.65,1.25,1,2.53-1.18-.42,1.91,2S77.8,95.63,76.17,100.85Z"/><path class="cls-32" d="M69,116.54l1.26-2.42a15.93,15.93,0,0,1,2.43.65,17.88,17.88,0,0,1,1.89,1.29c.33.17,1.84.7,1.49,1.08A1.6,1.6,0,0,1,74,116.8c-.58-.76-.85-.34-.85-.34l1.1,1.34,1.45.86.73.07a1.88,1.88,0,0,1,1.16-.06c.41.21.36.5.36.5l-1.23.33-1.81,0L72.16,119Z"/><path class="cls-33" d="M70.17,113.31h-.23L67,116.53l2.12.72a3.65,3.65,0,0,0,.73-1.57c.06-.73,1.15-1.4,1.15-1.4Z"/><path class="cls-30" d="M62.7,83.61s-.41-1.32-1.41-1.09-2.37.36-3,11.24c-1.22,19.61,9.15,24.91,9.15,24.91a13.87,13.87,0,0,1,1.4-3.48,8.46,8.46,0,0,1,2.36-1.82s-6.85-5.91-6.67-8.19,1-12.33.45-14.56S62.7,83.61,62.7,83.61Z"/><path class="cls-34" d="M79,67.25s1.33-2.73,1-3.34-1-1.51-3.7-2.06-5.89-.06-6.92,1.27a8.83,8.83,0,0,0-2.19,7.22c.55,3.71,3.47,5.4,4.32,5.16s2.78-3.88,2.78-3.88Z"/><path class="cls-35" d="M79.87,64.72S81.28,67.61,81,68.1s-.61.85-.36,1.27S82,71.8,81.83,72a6.32,6.32,0,0,1-1,.79s.42.79.24.85a2.47,2.47,0,0,0-.55.43s.73.24.61.54-.54,1.16-.42,1.52.66.36.06.73-3.83-.24-4.07-.18-2.67-4.49-2.67-4.49S72.24,72.65,72,72s-1.15-3.27.12-3.27a6.05,6.05,0,0,1,2.55.72l2.24-3.15Z"/><path class="cls-36" d="M95.28,87.71l.73-1,.79-3.21s4.92-4.37,5.28-4.13.67.31.06,1-2.67,2.86-2.67,2.86,1.09-.79,1.34-.37a1.35,1.35,0,0,1,.06,1s.42-.24.54.37-.3.72-.3.72.67.06.42.49-1.94,3.16-1.94,3.16l-1.82,1.33Z"/><path class="cls-37" d="M96.68,89.16s2.35-2,2.21-2.3a14.1,14.1,0,0,1,.16-2.67,3.22,3.22,0,0,0,1.33-.61,1.23,1.23,0,0,0,.43-.79l-2.92.43-1.45,1.21L96,86.67l-1,1.16Z"/><path class="cls-29" d="M77.57,101.58c0,.48-.24.87-.55.87s-.54-.39-.54-.87.24-.86.54-.86S77.57,101.11,77.57,101.58Z"/></g></g></svg>