<?xml version="1.0" encoding="utf-8"?>
<!-- Generator: Adobe Illustrator 16.0.0, SVG Export Plug-In . SVG Version: 6.00 Build 0)  -->
<!DOCTYPE svg PUBLIC "-//W3C//DTD SVG 1.1//EN" "http://www.w3.org/Graphics/SVG/1.1/DTD/svg11.dtd">
<svg version="1.1" id="Layer_1" xmlns="http://www.w3.org/2000/svg" xmlns:xlink="http://www.w3.org/1999/xlink" x="0px" y="0px"
	 width="684.211px" height="702.631px" viewBox="0 0 684.211 702.631" enable-background="new 0 0 684.211 702.631"
	 xml:space="preserve">
<g>
	<path fill="#F27052" d="M39.867,453.053c7.068,23.313,16.727,45.846,28.912,66.943c11.693,20.25,25.642,39.201,41.537,56.357
		c15.554,16.787,32.956,31.861,51.781,44.875c18.699,12.928,38.785,23.846,59.809,32.49c21.078,8.668,43.082,15.059,65.535,18.982
		c23.037,4.023,46.527,5.451,69.88,4.25c12.145-0.621,24.25-1.957,36.238-3.979c5.996-1.01,11.963-2.193,17.891-3.543
		c2.963-0.676,5.916-1.395,8.859-2.15c2.705-0.699,5.631-1.225,8.148-2.467c4.496-2.221,6.676-7.619,4.955-12.34
		c-1.68-4.607-6.408-7.305-11.215-6.479c-2.838,0.486-5.623,1.436-8.416,2.139c-2.971,0.748-5.951,1.453-8.943,2.111
		c-5.945,1.309-11.926,2.455-17.939,3.41c-23.48,3.734-47.44,4.51-71.122,2.434c-22.996-2.018-45.744-6.764-67.633-14.1
		c-21.588-7.236-42.328-16.979-61.707-28.934c-19.516-12.041-37.621-26.346-53.823-42.576c-16.551-16.58-31.087-35.15-43.219-55.189
		c-12.549-20.736-22.519-43.031-29.654-66.193c-7.131-23.146-11.435-47.168-12.728-71.352c-1.239-23.16,0.198-46.492,4.436-69.297
		c4.156-22.369,11.031-44.225,20.239-65.023c9.167-20.705,20.63-40.417,34.226-58.527c13.813-18.402,29.823-35.158,47.557-49.818
		c9.255-7.651,18.979-14.731,29.098-21.194c2.408-1.538,4.91-2.913,7.326-4.435c2.068-1.304,3.834-2.854,4.843-5.127
		c1.841-4.148,0.681-9.094-2.864-11.941c-1.674-1.344-3.761-2.148-5.905-2.245c-2.967-0.132-5.445,1.319-7.896,2.804
		c-5.141,3.112-10.19,6.371-15.145,9.773c-9.788,6.721-19.194,13.995-28.159,21.782c-17.529,15.224-33.351,32.397-47.091,51.114
		c-13.602,18.525-25.134,38.535-34.387,59.57c-9.224,20.969-16.251,42.889-20.743,65.357c-4.565,22.846-6.576,46.205-6.004,69.494
		c0.594,24.17,4.002,48.271,10.118,71.66C37.657,445.499,38.726,449.288,39.867,453.053z"/>
	<path fill="#F27052" d="M570.065,551.165c-2.512,0.762-4.309,2.633-5.984,4.555c-1.988,2.277-3.998,4.537-6.049,6.76
		c-1.633,1.771-3.271,3.578-3.896,5.971c-0.658,2.518-0.289,5.283,1.012,7.535c2.26,3.92,7.156,6.002,11.521,4.664
		c2.354-0.721,4.271-2.35,5.936-4.107c1.803-1.902,3.479-3.936,5.209-5.902c1.912-2.172,4.129-4.295,4.908-7.17
		c0.689-2.547,0.359-5.336-0.957-7.627C579.466,551.84,574.493,549.821,570.065,551.165z"/>
	<path fill="#F27052" d="M523.042,595.542c-2.678,0.813-4.764,2.805-6.953,4.445c-2.396,1.795-4.855,3.51-7.32,5.207
		c-5.059,3.48-10.227,6.801-15.494,9.957c-5.252,3.148-10.613,6.086-16.027,8.938c-2.225,1.174-4.234,2.621-5.396,4.916
		c-1.1,2.162-1.396,4.707-0.785,7.059c1.18,4.563,5.52,7.805,10.234,7.586c2.885-0.135,5.49-1.666,7.957-3.031
		c2.654-1.467,5.316-2.928,7.955-4.424c10.545-5.986,20.744-12.582,30.527-19.748c2.525-1.85,5.453-3.518,7.023-6.336
		c1.383-2.484,1.68-5.518,0.727-8.205C533.728,596.932,528.11,594.006,523.042,595.542z"/>
	<path fill="#F27052" d="M261.955,78.407c23.287-6.52,47.361-10.229,71.535-10.92c11.632-0.332,23.284,0.03,34.874,1.087
		c5.795,0.528,11.574,1.229,17.326,2.103c5.676,0.861,11.256,2.066,16.887,3.148c11.803,2.27,23.443,5.684,34.791,9.611
		c11.17,3.867,22.057,8.382,32.688,13.539c20.324,9.859,39.523,22.046,57.09,36.246c17.807,14.395,33.922,30.863,47.912,48.986
		c14.49,18.773,26.65,39.332,36.199,61.037c9.836,22.352,16.881,45.902,20.984,69.977c3.994,23.443,5.225,47.354,3.465,71.074
		c-1.709,23.063-6.188,45.904-13.293,67.908c-3.498,10.834-7.627,21.463-12.346,31.824c-2.43,5.332-5.018,10.594-7.754,15.775
		c-2.49,4.717-6.469,9.68-4.438,15.277c1.617,4.459,6.289,7.186,10.967,6.512c5.627-0.811,7.854-5.939,10.254-10.416
		c5.395-10.051,10.25-20.391,14.533-30.963c8.586-21.191,14.844-43.311,18.621-65.861c3.861-23.064,5.094-46.547,3.768-69.889
		c-1.371-24.156-5.564-48.119-12.408-71.326c-6.877-23.318-16.395-45.861-28.422-66.994c-11.617-20.412-25.572-39.477-41.459-56.777
		c-15.52-16.898-32.871-32.085-51.695-45.203c-18.617-12.973-38.613-23.98-59.557-32.721c-21.084-8.799-43.121-15.285-65.611-19.301
		c-23.055-4.117-46.557-5.628-69.948-4.523c-11.893,0.561-23.752,1.794-35.504,3.693c-5.977,0.969-11.928,2.106-17.838,3.416
		c-2.982,0.658-5.957,1.361-8.92,2.107c-2.832,0.714-5.775,1.311-8.531,2.287c-4.559,1.617-7.477,6.045-6.861,10.906
		c0.566,4.443,4.143,7.984,8.557,8.638c2.461,0.364,4.721-0.424,7.064-1.079c2.225-0.623,4.449-1.244,6.674-1.868
		c2.564-0.718,5.127-1.435,7.689-2.152c0.572-0.16,1.145-0.339,1.721-0.479c-5.721,1.404-11.371,3.185-17.043,4.771
		c-0.689,0.192-1.377,0.392-2.07,0.577C261.861,78.434,261.934,78.413,261.955,78.407C283.674,72.328,259.367,79.139,261.955,78.407
		z"/>
</g>
<circle opacity="0.1" fill="#F27052" cx="341.504" cy="362.306" r="260.812"/>
<g id="Page-1">
	<g id="_x30_33---Insurance">
		<path id="Shape" fill="#F27052" d="M440.789,203.786l-94.252-41.257c-1.604-0.699-3.424-0.699-5.026,0l-94.252,41.257
			c-2.289,0.999-3.769,3.258-3.77,5.756v98.65c0.034,22.17,10.688,42.981,28.653,55.974l65.14,46.98
			c4.023,2.912,9.46,2.912,13.484,0l65.141-46.975c17.965-12.991,28.619-33.803,28.652-55.974v-98.656
			C444.558,207.044,443.078,204.785,440.789,203.786z M431.992,308.198c-0.029,18.134-8.743,35.155-23.438,45.781l-64.531,46.542
			l-64.53-46.542c-14.694-10.626-23.409-27.647-23.438-45.781v-94.547l87.968-38.505l87.969,38.505V308.198z"/>
		<path id="Shape_1_" fill="#F27052" d="M341.511,189.963l-69.118,30.261c-2.289,0.999-3.769,3.258-3.77,5.755v82.219
			c0.02,14.099,6.795,27.332,18.222,35.59l53.503,38.592c2.195,1.584,5.157,1.584,7.352,0l53.504-38.592
			c11.427-8.258,18.203-21.491,18.223-35.59v-82.219c-0.002-2.497-1.481-4.756-3.771-5.755l-69.118-30.261
			C344.934,189.263,343.113,189.263,341.511,189.963z M406.858,230.082v78.116c-0.019,10.06-4.854,19.503-13.007,25.397
			l-49.828,35.941l-49.827-35.941c-8.152-5.895-12.987-15.338-13.007-25.397v-78.116l62.834-27.502L406.858,230.082z"/>
		<path id="Shape_2_" fill="#F27052" d="M207.579,370.611l-13.591-31.756c-2.89-6.547-9.054-11.055-16.169-11.826
			c-7.115-0.77-14.101,2.314-18.326,8.091c-4.225,5.776-5.047,13.368-2.157,19.915l24.625,54.17
			c3.322,7.333,7.943,14.005,13.641,19.692l38.725,38.731c-2.18,2.312-3.398,5.367-3.405,8.546v50.267
			c0,6.94,5.626,12.566,12.567,12.566h69.118c6.94,0,12.567-5.626,12.567-12.566v-50.267c0-6.94-5.626-12.568-12.567-12.568v-11.692
			c0.192-14.882-4.662-29.389-13.773-41.157c-5.342-7.025-12.622-12.335-20.943-15.274c-13.234-5.561-25.405-13.371-35.973-23.086
			C232.108,364.316,218.173,363.593,207.579,370.611z M312.606,526.441h-69.118v-50.267h69.118V526.441z M289.025,418.604
			c7.324,9.542,11.206,21.28,11.015,33.31v11.692h-51.958l-43.595-43.594c-4.63-4.624-8.387-10.046-11.09-16.004l-24.625-54.17
			c-1.051-2.312-0.855-4.999,0.519-7.135s3.74-3.427,6.28-3.427c2.988-0.004,5.689,1.78,6.861,4.529l14.056,32.78
			c3.732,8.746,9.113,16.693,15.847,23.406l28.703,28.709c1.578,1.634,3.914,2.288,6.111,1.714c2.197-0.575,3.913-2.291,4.487-4.488
			c0.575-2.196-0.08-4.533-1.713-6.11l-28.703-28.709c-2.886-2.879-5.481-6.036-7.748-9.426c6.034-4.643,14.476-4.501,20.352,0.339
			c11.746,10.781,25.322,19.377,40.088,25.386C279.93,409.595,285.18,413.486,289.025,418.604z"/>
		<path id="Shape_3_" fill="#F27052" d="M293.756,495.024h-6.283c-3.47,0-6.284,2.813-6.284,6.283c0,3.471,2.813,6.284,6.284,6.284
			h6.283c3.47,0,6.284-2.813,6.284-6.284C300.04,497.837,297.227,495.024,293.756,495.024z"/>
		<path id="Shape_4_" fill="#F27052" d="M506.086,409.205l24.625-54.17c3.027-6.569,2.279-14.261-1.959-20.122
			c-4.239-5.861-11.309-8.982-18.495-8.165c-7.188,0.816-13.376,5.444-16.19,12.107l-13.56,31.637
			c-10.631-6.983-24.573-6.22-34.377,1.886c-10.568,9.715-22.738,17.525-35.973,23.085c-8.321,2.939-15.602,8.25-20.942,15.275
			c-9.115,11.772-13.971,26.288-13.773,41.176v11.692c-6.94,0-12.567,5.628-12.567,12.568v50.267c0,6.94,5.627,12.566,12.567,12.566
			h69.117c6.941,0,12.567-5.626,12.567-12.566v-50.267c-0.007-3.179-1.225-6.234-3.406-8.546l38.726-38.731
			C498.143,423.209,502.765,416.538,506.086,409.205z M444.559,526.441h-69.117v-50.267h69.117V526.441z M439.966,463.606h-51.958
			v-11.692c-0.189-12.025,3.692-23.763,11.016-33.304c3.836-5.115,9.074-9.007,15.079-11.203
			c14.771-6.007,28.348-14.604,40.095-25.386c5.87-4.878,14.336-5.042,20.391-0.395c-2.273,3.414-4.881,6.592-7.785,9.487
			l-28.703,28.71c-2.381,2.465-2.348,6.384,0.076,8.808c2.424,2.425,6.343,2.458,8.809,0.077l28.703-28.71
			c6.734-6.713,12.114-14.659,15.846-23.404l14.057-32.788c1.176-2.746,3.875-4.525,6.862-4.523c2.54,0.001,4.904,1.291,6.278,3.427
			c1.375,2.136,1.57,4.823,0.52,7.136l-24.624,54.169c-2.704,5.958-6.46,11.38-11.091,16.004L439.966,463.606z"/>
		<path id="Shape_5_" fill="#F27052" d="M400.574,495.024h-6.283c-3.47,0-6.283,2.813-6.283,6.283c0,3.471,2.813,6.284,6.283,6.284
			h6.283c3.471,0,6.284-2.813,6.284-6.284C406.858,497.837,404.045,495.024,400.574,495.024z"/>
		<path id="Shape_6_" fill="#F27052" d="M310.093,295.21c-2.776-2.082-6.715-1.52-8.797,1.256c-2.082,2.777-1.52,6.715,1.257,8.797
			l25.134,18.851c1.087,0.815,2.411,1.257,3.77,1.257c0.355-0.001,0.71-0.03,1.062-0.088c1.702-0.292,3.208-1.271,4.166-2.708
			l50.267-75.401c1.246-1.868,1.401-4.258,0.406-6.271c-0.994-2.013-2.987-3.342-5.228-3.487s-4.389,0.916-5.634,2.784
			l-46.586,69.879L310.093,295.21z"/>
	</g>
</g>
</svg>
