<?xml version="1.0" encoding="utf-8"?>
<!-- Generator: Adobe Illustrator 16.0.0, SVG Export Plug-In . SVG Version: 6.00 Build 0)  -->
<!DOCTYPE svg PUBLIC "-//W3C//DTD SVG 1.1//EN" "http://www.w3.org/Graphics/SVG/1.1/DTD/svg11.dtd">
<svg version="1.1" id="Layer_1" xmlns="http://www.w3.org/2000/svg" xmlns:xlink="http://www.w3.org/1999/xlink" x="0px" y="0px"
	 width="684.211px" height="702.631px" viewBox="0 0 684.211 702.631" enable-background="new 0 0 684.211 702.631"
	 xml:space="preserve">
<g>
	<path fill="#F27052" d="M39.867,453.053c7.068,23.313,16.727,45.846,28.912,66.943c11.693,20.25,25.642,39.201,41.537,56.357
		c15.554,16.787,32.956,31.861,51.781,44.875c18.699,12.928,38.785,23.846,59.809,32.49c21.078,8.668,43.082,15.059,65.535,18.982
		c23.037,4.023,46.527,5.451,69.88,4.25c12.145-0.621,24.25-1.957,36.238-3.979c5.996-1.01,11.963-2.193,17.891-3.543
		c2.963-0.676,5.916-1.395,8.859-2.15c2.705-0.699,5.631-1.225,8.148-2.467c4.496-2.221,6.676-7.619,4.955-12.34
		c-1.68-4.607-6.408-7.305-11.215-6.479c-2.838,0.486-5.623,1.436-8.416,2.139c-2.971,0.748-5.951,1.453-8.943,2.111
		c-5.945,1.309-11.926,2.455-17.939,3.41c-23.48,3.734-47.44,4.51-71.122,2.434c-22.996-2.018-45.744-6.764-67.633-14.1
		c-21.588-7.236-42.328-16.979-61.707-28.934c-19.516-12.041-37.621-26.346-53.823-42.576c-16.551-16.58-31.087-35.15-43.219-55.189
		c-12.549-20.736-22.519-43.031-29.654-66.193c-7.131-23.146-11.435-47.168-12.728-71.352c-1.239-23.16,0.198-46.492,4.436-69.297
		c4.156-22.369,11.031-44.225,20.239-65.023c9.167-20.705,20.63-40.417,34.226-58.527c13.813-18.402,29.823-35.158,47.557-49.818
		c9.255-7.651,18.979-14.731,29.098-21.194c2.408-1.538,4.91-2.913,7.326-4.435c2.068-1.304,3.834-2.854,4.843-5.127
		c1.841-4.148,0.681-9.094-2.864-11.941c-1.674-1.344-3.761-2.148-5.905-2.245c-2.967-0.132-5.445,1.319-7.896,2.804
		c-5.141,3.112-10.19,6.371-15.145,9.773c-9.788,6.721-19.194,13.995-28.159,21.782c-17.529,15.224-33.351,32.397-47.091,51.114
		c-13.602,18.525-25.134,38.535-34.387,59.57c-9.224,20.969-16.251,42.889-20.743,65.357c-4.565,22.846-6.576,46.205-6.004,69.494
		c0.594,24.17,4.002,48.271,10.118,71.66C37.657,445.499,38.726,449.288,39.867,453.053z"/>
	<path fill="#F27052" d="M570.065,551.165c-2.512,0.762-4.309,2.633-5.984,4.555c-1.988,2.277-3.998,4.537-6.049,6.76
		c-1.633,1.771-3.271,3.578-3.896,5.971c-0.658,2.518-0.289,5.283,1.012,7.535c2.26,3.92,7.156,6.002,11.521,4.664
		c2.354-0.721,4.271-2.35,5.936-4.107c1.803-1.902,3.479-3.936,5.209-5.902c1.912-2.172,4.129-4.295,4.908-7.17
		c0.689-2.547,0.359-5.336-0.957-7.627C579.466,551.84,574.493,549.821,570.065,551.165z"/>
	<path fill="#F27052" d="M523.042,595.542c-2.678,0.813-4.764,2.805-6.953,4.445c-2.396,1.795-4.855,3.51-7.32,5.207
		c-5.059,3.48-10.227,6.801-15.494,9.957c-5.252,3.148-10.613,6.086-16.027,8.938c-2.225,1.174-4.234,2.621-5.396,4.916
		c-1.1,2.162-1.396,4.707-0.785,7.059c1.18,4.563,5.52,7.805,10.234,7.586c2.885-0.135,5.49-1.666,7.957-3.031
		c2.654-1.467,5.316-2.928,7.955-4.424c10.545-5.986,20.744-12.582,30.527-19.748c2.525-1.85,5.453-3.518,7.023-6.336
		c1.383-2.484,1.68-5.518,0.727-8.205C533.728,596.932,528.11,594.006,523.042,595.542z"/>
	<path fill="#F27052" d="M261.955,78.407c23.287-6.52,47.361-10.229,71.535-10.92c11.632-0.332,23.284,0.03,34.874,1.087
		c5.795,0.528,11.574,1.229,17.326,2.103c5.676,0.861,11.256,2.066,16.887,3.148c11.803,2.27,23.443,5.684,34.791,9.611
		c11.17,3.867,22.057,8.382,32.688,13.539c20.324,9.859,39.523,22.046,57.09,36.246c17.807,14.395,33.922,30.863,47.912,48.986
		c14.49,18.773,26.65,39.332,36.199,61.037c9.836,22.352,16.881,45.902,20.984,69.977c3.994,23.443,5.225,47.354,3.465,71.074
		c-1.709,23.063-6.188,45.904-13.293,67.908c-3.498,10.834-7.627,21.463-12.346,31.824c-2.43,5.332-5.018,10.594-7.754,15.775
		c-2.49,4.717-6.469,9.68-4.438,15.277c1.617,4.459,6.289,7.186,10.967,6.512c5.627-0.811,7.854-5.939,10.254-10.416
		c5.395-10.051,10.25-20.391,14.533-30.963c8.586-21.191,14.844-43.311,18.621-65.861c3.861-23.064,5.094-46.547,3.768-69.889
		c-1.371-24.156-5.564-48.119-12.408-71.326c-6.877-23.318-16.395-45.861-28.422-66.994c-11.617-20.412-25.572-39.477-41.459-56.777
		c-15.52-16.898-32.871-32.085-51.695-45.203c-18.617-12.973-38.613-23.98-59.557-32.721c-21.084-8.799-43.121-15.285-65.611-19.301
		c-23.055-4.117-46.557-5.628-69.948-4.523c-11.893,0.561-23.752,1.794-35.504,3.693c-5.977,0.969-11.928,2.106-17.838,3.416
		c-2.982,0.658-5.957,1.361-8.92,2.107c-2.832,0.714-5.775,1.311-8.531,2.287c-4.559,1.617-7.477,6.045-6.861,10.906
		c0.566,4.443,4.143,7.984,8.557,8.638c2.461,0.364,4.721-0.424,7.064-1.079c2.225-0.623,4.449-1.244,6.674-1.868
		c2.564-0.718,5.127-1.435,7.689-2.152c0.572-0.16,1.145-0.339,1.721-0.479c-5.721,1.404-11.371,3.185-17.043,4.771
		c-0.689,0.192-1.377,0.392-2.07,0.577C261.861,78.434,261.934,78.413,261.955,78.407C283.674,72.328,259.367,79.139,261.955,78.407
		z"/>
</g>
<circle opacity="0.1" fill="#F27052" cx="341.504" cy="362.306" r="260.812"/>
<g>
	<g>
		<path fill="#F27052" d="M425.122,305.554l-69.844-61.158c-3.703-3.203-8.401-4.983-13.313-4.983c-4.913,0-9.612,1.78-13.314,4.983
			l-24.776,21.715c-1.424-5.269-2.208-10.821-2.208-16.589c0-13.954,4.415-27.054,12.389-36.809
			c7.547-9.255,17.514-14.381,27.909-14.381c22.212,0,40.297,22.925,40.297,51.189c0,4.699,3.844,8.544,8.543,8.544l0,0
			c4.699,0,8.544-3.845,8.544-8.544c0-37.663-25.773-68.277-57.384-68.277c-15.664,0-30.259,7.333-41.152,20.647
			c-10.466,12.815-16.233,29.689-16.233,47.63c0,10.11,1.852,19.864,5.34,28.835l-31.042,27.197
			c-7.76,6.835-12.246,16.66-12.246,26.984v153.356c0,23.639,19.223,42.861,42.86,42.861h105.015
			c23.637,0,42.86-19.223,42.86-42.861V332.538C437.368,322.213,432.883,312.389,425.122,305.554z M420.279,485.894
			c0,14.24-11.533,25.774-25.771,25.774H289.422c-14.24,0-25.773-11.534-25.773-25.774V332.538c0-5.411,2.35-10.608,6.408-14.168
			l28.122-24.634c0.854,1.139,1.708,2.278,2.563,3.417c10.893,13.314,25.488,20.647,41.152,20.647l0,0
			c4.699,0,8.543-3.845,8.543-8.544s-3.844-8.544-8.543-8.544c-10.466,0-20.363-5.126-27.91-14.381
			c-0.997-1.281-1.993-2.563-2.919-3.916l28.764-25.204c0.711-0.641,1.494-0.783,2.064-0.783c0.57,0,1.353,0.142,2.064,0.783
			l69.844,61.158c4.058,3.56,6.407,8.757,6.407,14.168v153.356H420.279z"/>
		<path fill="#F27052" d="M351.362,397.327h-18.796c-6.621,0-12.032-5.411-12.032-12.032s5.411-12.033,12.032-12.033h33.106
			c4.699,0,8.544-3.844,8.544-8.543s-3.845-8.543-8.544-8.543h-15.165v-11.106c0-4.699-3.845-8.544-8.543-8.544
			c-4.699,0-8.544,3.845-8.544,8.544v11.106h-0.854c-16.09,0-29.119,13.1-29.119,29.12c0,16.09,13.1,29.119,29.119,29.119h18.796
			c6.621,0,12.032,5.411,12.032,12.032s-5.411,12.032-12.032,12.032h-33.748c-4.699,0-8.543,3.845-8.543,8.544
			c0,4.698,3.844,8.543,8.543,8.543h15.806v11.32c0,4.699,3.845,8.544,8.544,8.544c4.698,0,8.543-3.845,8.543-8.544v-11.32h0.997
			c0.07,0,0.143,0,0.213,0c15.878-0.213,28.765-13.171,28.765-29.119C380.482,410.356,367.382,397.327,351.362,397.327z"/>
	</g>
</g>
</svg>
