<?xml version="1.0" encoding="utf-8"?>
<!-- Generator: Adobe Illustrator 16.0.0, SVG Export Plug-In . SVG Version: 6.00 Build 0)  -->
<!DOCTYPE svg PUBLIC "-//W3C//DTD SVG 1.1//EN" "http://www.w3.org/Graphics/SVG/1.1/DTD/svg11.dtd">
<svg version="1.1" id="Layer_1" xmlns="http://www.w3.org/2000/svg" xmlns:xlink="http://www.w3.org/1999/xlink" x="0px" y="0px"
	 width="684.211px" height="702.631px" viewBox="0 0 684.211 702.631" enable-background="new 0 0 684.211 702.631"
	 xml:space="preserve">
<g>
	<path fill="#F27052" d="M39.867,453.053c7.068,23.313,16.727,45.846,28.912,66.943c11.693,20.25,25.642,39.201,41.537,56.357
		c15.554,16.787,32.956,31.861,51.781,44.875c18.699,12.928,38.785,23.846,59.809,32.49c21.078,8.668,43.082,15.059,65.535,18.982
		c23.037,4.023,46.527,5.451,69.88,4.25c12.145-0.621,24.25-1.957,36.238-3.979c5.996-1.01,11.963-2.193,17.891-3.543
		c2.963-0.676,5.916-1.395,8.859-2.15c2.705-0.699,5.631-1.225,8.148-2.467c4.496-2.221,6.676-7.619,4.955-12.34
		c-1.68-4.607-6.408-7.305-11.215-6.479c-2.838,0.486-5.623,1.436-8.416,2.139c-2.971,0.748-5.951,1.453-8.943,2.111
		c-5.945,1.309-11.926,2.455-17.939,3.41c-23.48,3.734-47.44,4.51-71.122,2.434c-22.996-2.018-45.744-6.764-67.633-14.1
		c-21.588-7.236-42.328-16.979-61.707-28.934c-19.516-12.041-37.621-26.346-53.823-42.576c-16.551-16.58-31.087-35.15-43.219-55.189
		c-12.549-20.736-22.519-43.031-29.654-66.193c-7.131-23.146-11.435-47.168-12.728-71.352c-1.239-23.16,0.198-46.492,4.436-69.297
		c4.156-22.369,11.031-44.225,20.239-65.023c9.167-20.705,20.63-40.417,34.226-58.527c13.813-18.402,29.823-35.158,47.557-49.818
		c9.255-7.651,18.979-14.731,29.098-21.194c2.408-1.538,4.91-2.913,7.326-4.435c2.068-1.304,3.834-2.854,4.843-5.127
		c1.841-4.148,0.681-9.094-2.864-11.941c-1.674-1.344-3.761-2.148-5.905-2.245c-2.967-0.132-5.445,1.319-7.896,2.804
		c-5.141,3.112-10.19,6.371-15.145,9.773c-9.788,6.721-19.194,13.995-28.159,21.782c-17.529,15.224-33.351,32.397-47.091,51.114
		c-13.602,18.525-25.134,38.535-34.387,59.57c-9.224,20.969-16.251,42.889-20.743,65.357c-4.565,22.846-6.576,46.205-6.004,69.494
		c0.594,24.17,4.002,48.271,10.118,71.66C37.657,445.499,38.726,449.288,39.867,453.053z"/>
	<path fill="#F27052" d="M570.065,551.165c-2.512,0.762-4.309,2.633-5.984,4.555c-1.988,2.277-3.998,4.537-6.049,6.76
		c-1.633,1.771-3.271,3.578-3.896,5.971c-0.658,2.518-0.289,5.283,1.012,7.535c2.26,3.92,7.156,6.002,11.521,4.664
		c2.354-0.721,4.271-2.35,5.936-4.107c1.803-1.902,3.479-3.936,5.209-5.902c1.912-2.172,4.129-4.295,4.908-7.17
		c0.689-2.547,0.359-5.336-0.957-7.627C579.466,551.84,574.493,549.821,570.065,551.165z"/>
	<path fill="#F27052" d="M523.042,595.542c-2.678,0.813-4.764,2.805-6.953,4.445c-2.396,1.795-4.855,3.51-7.32,5.207
		c-5.059,3.48-10.227,6.801-15.494,9.957c-5.252,3.148-10.613,6.086-16.027,8.938c-2.225,1.174-4.234,2.621-5.396,4.916
		c-1.1,2.162-1.396,4.707-0.785,7.059c1.18,4.563,5.52,7.805,10.234,7.586c2.885-0.135,5.49-1.666,7.957-3.031
		c2.654-1.467,5.316-2.928,7.955-4.424c10.545-5.986,20.744-12.582,30.527-19.748c2.525-1.85,5.453-3.518,7.023-6.336
		c1.383-2.484,1.68-5.518,0.727-8.205C533.728,596.932,528.11,594.006,523.042,595.542z"/>
	<path fill="#F27052" d="M261.955,78.407c23.287-6.52,47.361-10.229,71.535-10.92c11.632-0.332,23.284,0.03,34.874,1.087
		c5.795,0.528,11.574,1.229,17.326,2.103c5.676,0.861,11.256,2.066,16.887,3.148c11.803,2.27,23.443,5.684,34.791,9.611
		c11.17,3.867,22.057,8.382,32.688,13.539c20.324,9.859,39.523,22.046,57.09,36.246c17.807,14.395,33.922,30.863,47.912,48.986
		c14.49,18.773,26.65,39.332,36.199,61.037c9.836,22.352,16.881,45.902,20.984,69.977c3.994,23.443,5.225,47.354,3.465,71.074
		c-1.709,23.063-6.188,45.904-13.293,67.908c-3.498,10.834-7.627,21.463-12.346,31.824c-2.43,5.332-5.018,10.594-7.754,15.775
		c-2.49,4.717-6.469,9.68-4.438,15.277c1.617,4.459,6.289,7.186,10.967,6.512c5.627-0.811,7.854-5.939,10.254-10.416
		c5.395-10.051,10.25-20.391,14.533-30.963c8.586-21.191,14.844-43.311,18.621-65.861c3.861-23.064,5.094-46.547,3.768-69.889
		c-1.371-24.156-5.564-48.119-12.408-71.326c-6.877-23.318-16.395-45.861-28.422-66.994c-11.617-20.412-25.572-39.477-41.459-56.777
		c-15.52-16.898-32.871-32.085-51.695-45.203c-18.617-12.973-38.613-23.98-59.557-32.721c-21.084-8.799-43.121-15.285-65.611-19.301
		c-23.055-4.117-46.557-5.628-69.948-4.523c-11.893,0.561-23.752,1.794-35.504,3.693c-5.977,0.969-11.928,2.106-17.838,3.416
		c-2.982,0.658-5.957,1.361-8.92,2.107c-2.832,0.714-5.775,1.311-8.531,2.287c-4.559,1.617-7.477,6.045-6.861,10.906
		c0.566,4.443,4.143,7.984,8.557,8.638c2.461,0.364,4.721-0.424,7.064-1.079c2.225-0.623,4.449-1.244,6.674-1.868
		c2.564-0.718,5.127-1.435,7.689-2.152c0.572-0.16,1.145-0.339,1.721-0.479c-5.721,1.404-11.371,3.185-17.043,4.771
		c-0.689,0.192-1.377,0.392-2.07,0.577C261.861,78.434,261.934,78.413,261.955,78.407C283.674,72.328,259.367,79.139,261.955,78.407
		z"/>
</g>
<circle opacity="0.1" fill="#F27052" cx="341.504" cy="362.306" r="260.812"/>
<g id="Outline">
	<path fill="#F27052" d="M355.958,257.875c4.327,0.013,8.48-1.709,11.53-4.779l0,0c6.368-6.369,6.368-16.694,0-23.063
		c-6.453-6.16-16.609-6.16-23.063,0c-6.368,6.371-6.367,16.697,0.004,23.067C347.486,256.158,351.633,257.875,355.958,257.875z
		 M352.113,237.721c2.16-2.086,5.602-2.026,7.688,0.134c2.035,2.106,2.035,5.447,0,7.554l0,0c-2.148,2.059-5.539,2.059-7.688,0
		C349.99,243.286,349.99,239.844,352.113,237.721z"/>
	<path fill="#F27052" d="M503.105,439.738h-5.437c-15.015,0-27.187-12.172-27.187-27.185c0-15.014,12.172-27.185,27.187-27.185
		h5.437V331H307.379v-48.545l14.135-14.135c2.189-2.028,5.609-1.896,7.638,0.294c0.011,0.012,0.022,0.025,0.034,0.037
		c1.753,1.729,3.669,3.282,5.725,4.639c17.517,11.614,41.134,6.83,52.75-10.688c3.913-5.901,6.103-12.778,6.32-19.856
		c0.341-11.167-4.243-21.92-12.536-29.408c-15.51-13.587-38.954-12.612-53.282,2.218l-20.784,20.769v-29.12
		c0.355-20.625-15.539-37.9-36.123-39.259c-20.995-1.012-38.834,15.188-39.846,36.183c-0.902,18.739,11.985,35.341,30.363,39.112
		c2.41,0.498,4.863,0.756,7.324,0.771c2.999-0.123,5.531,2.21,5.655,5.21c0.003,0.075,0.005,0.151,0.005,0.227v19.497
		l-54.315,54.314c-2.205,2.228-3.965,4.854-5.187,7.741h-38.362v54.368h5.436c15.015,0,27.185,12.171,27.185,27.185
		c0,15.013-12.17,27.185-27.185,27.185h-5.436v54.367h326.21V439.738z M335.852,223.227c10.316-10.561,27.034-11.367,38.318-1.848
		c11.134,10.072,11.995,27.262,1.923,38.396c-9.019,9.969-23.968,11.849-35.173,4.424c-1.463-0.963-2.826-2.068-4.073-3.3
		c-6.24-6.429-16.511-6.582-22.941-0.342c-0.078,0.077-0.159,0.155-0.236,0.233l-6.29,6.292v-15.381L335.852,223.227z
		 M269.168,233.138c-1.753-0.011-3.5-0.193-5.219-0.543c-14.713-2.988-24.218-17.337-21.23-32.05
		c2.572-12.666,13.705-21.77,26.629-21.775c0.451,0,0.913,0,1.371,0.033c14.71,1.247,25.962,13.64,25.786,28.402v152.339
		c-0.183,6.56-4.576,12.255-10.873,14.099V249.209c-0.053-8.93-7.334-16.126-16.265-16.074
		C269.301,233.136,269.234,233.137,269.168,233.138z M274.759,331h-15.925l15.925-15.924V331z M228.131,330.947l46.627-46.627
		v15.381L243.458,331h-15.364L228.131,330.947z M492.231,483.233H187.769v-33.009c20.806-2.984,35.251-22.272,32.266-43.078
		c-2.401-16.724-15.541-29.865-32.266-32.266v-33.006h86.99v43.495h5.437c14.629,0.351,26.783-11.197,27.184-25.825v-17.669h184.852
		v33.006c-20.806,2.988-35.251,22.274-32.266,43.08c2.401,16.725,15.541,29.864,32.266,32.264V483.233z"/>
	<rect x="274.759" y="461.485" fill="#F27052" width="10.873" height="10.874"/>
	<rect x="274.759" y="439.738" fill="#F27052" width="10.873" height="10.873"/>
	<rect x="274.759" y="417.99" fill="#F27052" width="10.873" height="10.874"/>
	<rect x="274.759" y="396.243" fill="#F27052" width="10.873" height="10.874"/>
	
		<rect x="316.546" y="407.117" transform="matrix(-0.7071 0.7071 -0.7071 -0.7071 937.103 436.9445)" fill="#F27052" width="123.021" height="10.875"/>
	<path fill="#F27052" d="M350.874,407.117c12.011,0,21.747-9.736,21.747-21.748c0-12.01-9.736-21.746-21.747-21.746
		c-12.012,0-21.748,9.736-21.748,21.746C329.126,397.38,338.862,407.117,350.874,407.117z M350.874,374.495
		c6.004,0,10.874,4.87,10.874,10.874c0,6.006-4.87,10.874-10.874,10.874c-6.006,0-10.874-4.868-10.874-10.874
		C340,379.365,344.868,374.495,350.874,374.495z"/>
	<path fill="#F27052" d="M405.241,417.99c-12.01,0-21.746,9.738-21.746,21.748c0,12.011,9.736,21.747,21.746,21.747
		c12.012,0,21.749-9.736,21.749-21.747C426.99,427.728,417.253,417.99,405.241,417.99z M405.241,450.611
		c-6.005,0-10.874-4.868-10.874-10.873c0-6.006,4.869-10.874,10.874-10.874c6.006,0,10.874,4.868,10.874,10.874
		C416.115,445.743,411.247,450.611,405.241,450.611z"/>
	<path fill="#F27052" d="M269.321,189.644c-9.009,0-16.311,7.302-16.311,16.31c0,9.008,7.302,16.311,16.311,16.311
		c9.008,0,16.311-7.302,16.311-16.311C285.632,196.946,278.329,189.644,269.321,189.644z M269.321,211.39
		c-3.003,0-5.437-2.434-5.437-5.437c0-3.003,2.434-5.437,5.437-5.437s5.438,2.434,5.438,5.437
		C274.759,208.956,272.324,211.39,269.321,211.39z"/>
	<path fill="#F27052" d="M294.928,272.772c-2.181-2.012-5.54-2.012-7.72,0c-0.503,0.511-0.891,1.122-1.142,1.793
		c-0.277,0.654-0.426,1.357-0.435,2.066c0,3.003,2.434,5.437,5.436,5.437c3.004,0,5.438-2.434,5.438-5.437
		c-0.009-0.709-0.156-1.413-0.435-2.066C295.808,273.901,295.42,273.293,294.928,272.772z"/>
</g>
</svg>
