<?xml version="1.0" encoding="utf-8"?>
<!-- Generator: Adobe Illustrator 16.0.0, SVG Export Plug-In . SVG Version: 6.00 Build 0)  -->
<!DOCTYPE svg PUBLIC "-//W3C//DTD SVG 1.1//EN" "http://www.w3.org/Graphics/SVG/1.1/DTD/svg11.dtd">
<svg version="1.1" id="Layer_1" xmlns="http://www.w3.org/2000/svg" xmlns:xlink="http://www.w3.org/1999/xlink" x="0px" y="0px"
	 width="684.211px" height="702.631px" viewBox="0 0 684.211 702.631" enable-background="new 0 0 684.211 702.631"
	 xml:space="preserve">
<g>
	<path fill="#F27052" d="M39.867,453.053c7.068,23.313,16.727,45.846,28.912,66.943c11.693,20.25,25.642,39.201,41.537,56.357
		c15.554,16.787,32.956,31.861,51.781,44.875c18.699,12.928,38.785,23.846,59.809,32.49c21.078,8.668,43.082,15.059,65.535,18.982
		c23.037,4.023,46.527,5.451,69.88,4.25c12.145-0.621,24.25-1.957,36.238-3.979c5.996-1.01,11.963-2.193,17.891-3.543
		c2.963-0.676,5.916-1.395,8.859-2.15c2.705-0.699,5.631-1.225,8.148-2.467c4.496-2.221,6.676-7.619,4.955-12.34
		c-1.68-4.607-6.408-7.305-11.215-6.479c-2.838,0.486-5.623,1.436-8.416,2.139c-2.971,0.748-5.951,1.453-8.943,2.111
		c-5.945,1.309-11.926,2.455-17.939,3.41c-23.48,3.734-47.44,4.51-71.122,2.434c-22.996-2.018-45.744-6.764-67.633-14.1
		c-21.588-7.236-42.328-16.979-61.707-28.934c-19.516-12.041-37.621-26.346-53.823-42.576c-16.551-16.58-31.087-35.15-43.219-55.189
		c-12.549-20.736-22.519-43.031-29.654-66.193c-7.131-23.146-11.435-47.168-12.728-71.352c-1.239-23.16,0.198-46.492,4.436-69.297
		c4.156-22.369,11.031-44.225,20.239-65.023c9.167-20.705,20.63-40.417,34.226-58.527c13.813-18.402,29.823-35.158,47.557-49.818
		c9.255-7.651,18.979-14.731,29.098-21.194c2.408-1.538,4.91-2.913,7.326-4.435c2.068-1.304,3.834-2.854,4.843-5.127
		c1.841-4.148,0.681-9.094-2.864-11.941c-1.674-1.344-3.761-2.148-5.905-2.245c-2.967-0.132-5.445,1.319-7.896,2.804
		c-5.141,3.112-10.19,6.371-15.145,9.773c-9.788,6.721-19.194,13.995-28.159,21.782c-17.529,15.224-33.351,32.397-47.091,51.114
		c-13.602,18.525-25.134,38.535-34.387,59.57c-9.224,20.969-16.251,42.889-20.743,65.357c-4.565,22.846-6.576,46.205-6.004,69.494
		c0.594,24.17,4.002,48.271,10.118,71.66C37.657,445.499,38.726,449.288,39.867,453.053z"/>
	<path fill="#F27052" d="M570.065,551.165c-2.512,0.762-4.309,2.633-5.984,4.555c-1.988,2.277-3.998,4.537-6.049,6.76
		c-1.633,1.771-3.271,3.578-3.896,5.971c-0.658,2.518-0.289,5.283,1.012,7.535c2.26,3.92,7.156,6.002,11.521,4.664
		c2.354-0.721,4.271-2.35,5.936-4.107c1.803-1.902,3.479-3.936,5.209-5.902c1.912-2.172,4.129-4.295,4.908-7.17
		c0.689-2.547,0.359-5.336-0.957-7.627C579.466,551.84,574.493,549.821,570.065,551.165z"/>
	<path fill="#F27052" d="M523.042,595.542c-2.678,0.813-4.764,2.805-6.953,4.445c-2.396,1.795-4.855,3.51-7.32,5.207
		c-5.059,3.48-10.227,6.801-15.494,9.957c-5.252,3.148-10.613,6.086-16.027,8.938c-2.225,1.174-4.234,2.621-5.396,4.916
		c-1.1,2.162-1.396,4.707-0.785,7.059c1.18,4.563,5.52,7.805,10.234,7.586c2.885-0.135,5.49-1.666,7.957-3.031
		c2.654-1.467,5.316-2.928,7.955-4.424c10.545-5.986,20.744-12.582,30.527-19.748c2.525-1.85,5.453-3.518,7.023-6.336
		c1.383-2.484,1.68-5.518,0.727-8.205C533.728,596.932,528.11,594.006,523.042,595.542z"/>
	<path fill="#F27052" d="M261.955,78.407c23.287-6.52,47.361-10.229,71.535-10.92c11.632-0.332,23.284,0.03,34.874,1.087
		c5.795,0.528,11.574,1.229,17.326,2.103c5.676,0.861,11.256,2.066,16.887,3.148c11.803,2.27,23.443,5.684,34.791,9.611
		c11.17,3.867,22.057,8.382,32.688,13.539c20.324,9.859,39.523,22.046,57.09,36.246c17.807,14.395,33.922,30.863,47.912,48.986
		c14.49,18.773,26.65,39.332,36.199,61.037c9.836,22.352,16.881,45.902,20.984,69.977c3.994,23.443,5.225,47.354,3.465,71.074
		c-1.709,23.063-6.188,45.904-13.293,67.908c-3.498,10.834-7.627,21.463-12.346,31.824c-2.43,5.332-5.018,10.594-7.754,15.775
		c-2.49,4.717-6.469,9.68-4.438,15.277c1.617,4.459,6.289,7.186,10.967,6.512c5.627-0.811,7.854-5.939,10.254-10.416
		c5.395-10.051,10.25-20.391,14.533-30.963c8.586-21.191,14.844-43.311,18.621-65.861c3.861-23.064,5.094-46.547,3.768-69.889
		c-1.371-24.156-5.564-48.119-12.408-71.326c-6.877-23.318-16.395-45.861-28.422-66.994c-11.617-20.412-25.572-39.477-41.459-56.777
		c-15.52-16.898-32.871-32.085-51.695-45.203c-18.617-12.973-38.613-23.98-59.557-32.721c-21.084-8.799-43.121-15.285-65.611-19.301
		c-23.055-4.117-46.557-5.628-69.948-4.523c-11.893,0.561-23.752,1.794-35.504,3.693c-5.977,0.969-11.928,2.106-17.838,3.416
		c-2.982,0.658-5.957,1.361-8.92,2.107c-2.832,0.714-5.775,1.311-8.531,2.287c-4.559,1.617-7.477,6.045-6.861,10.906
		c0.566,4.443,4.143,7.984,8.557,8.638c2.461,0.364,4.721-0.424,7.064-1.079c2.225-0.623,4.449-1.244,6.674-1.868
		c2.564-0.718,5.127-1.435,7.689-2.152c0.572-0.16,1.145-0.339,1.721-0.479c-5.721,1.404-11.371,3.185-17.043,4.771
		c-0.689,0.192-1.377,0.392-2.07,0.577C261.861,78.434,261.934,78.413,261.955,78.407C283.674,72.328,259.367,79.139,261.955,78.407
		z"/>
</g>
<circle opacity="0.1" fill="#F27052" cx="341.504" cy="362.306" r="260.812"/>
<g>
	<g>
		<path fill="#F27052" d="M421.303,368.482h-50.555c-13.836,0-25.087,11.251-25.087,25.088v38.771
			c0,13.837,11.251,25.088,25.087,25.088h50.555c13.836,0,25.087-11.251,25.087-25.088V393.57
			C446.39,379.733,435.139,368.482,421.303,368.482z M428.145,432.34c0,3.802-3.117,6.843-6.842,6.843h-50.555
			c-3.801,0-6.842-3.117-6.842-6.843V393.57c0-3.802,3.117-6.842,6.842-6.842h50.555c3.801,0,6.842,3.116,6.842,6.842V432.34z"/>
		<path fill="#F27052" d="M529.025,298.01c0-1.597-0.38-3.117-1.216-4.486l-55.344-97.307c-1.597-2.813-4.638-4.638-7.907-4.638
			H221.365c-3.269,0-6.31,1.749-7.906,4.638l-55.269,97.307c-0.76,1.369-1.216,2.89-1.216,4.486
			c0,21.818,13.152,40.52,31.929,48.806v160.482c0,5.018,4.105,9.123,9.123,9.123h50.403c0.076,0,0.152,0,0.228,0h70.701
			c0.076,0,0.151,0,0.228,0h168.313c5.017,0,9.122-4.105,9.122-9.123V347.957c0-0.38,0-0.685-0.076-0.988
			C515.798,338.682,529.025,319.904,529.025,298.01z M226.687,209.9h232.552l43.256,76.098H183.506L226.687,209.9z M421.758,304.167
			c-2.888,16.421-17.256,28.889-34.514,28.889c-17.256,0-31.625-12.468-34.514-28.889H421.758z M333.346,304.167
			c-2.89,16.421-17.257,28.889-34.515,28.889c-17.257,0-31.625-12.468-34.589-28.889H333.346z M175.828,304.167h69.104
			c-2.889,16.421-17.333,28.889-34.59,28.889C193.084,333.131,178.716,320.588,175.828,304.167z M310.235,498.175H257.78v-98.448
			c0-7.146,5.777-12.999,13-12.999h26.531c7.146,0,13,5.777,13,12.999v98.448H310.235z M478.775,498.175H328.48v-98.448
			c0-17.181-13.988-31.245-31.246-31.245h-26.531c-17.181,0-31.245,13.988-31.245,31.245v98.524h-32.31v-146.95
			c1.064,0.076,2.129,0.076,3.193,0.076c18.397,0,34.666-9.351,44.245-23.567c9.579,14.216,25.847,23.567,44.245,23.567
			s34.59-9.351,44.245-23.567c9.578,14.216,25.848,23.567,44.168,23.567c18.397,0,34.591-9.351,44.17-23.567
			c9.578,14.216,25.847,23.567,44.244,23.567c1.064,0,2.053-0.076,3.117-0.076V498.175L478.775,498.175z M475.658,333.131
			c-17.257,0-31.625-12.467-34.514-28.888h69.104C507.283,320.588,492.915,333.131,475.658,333.131z"/>
	</g>
</g>
</svg>
