<?xml version="1.0" encoding="utf-8"?>
<!-- Generator: Adobe Illustrator 16.0.0, SVG Export Plug-In . SVG Version: 6.00 Build 0)  -->
<!DOCTYPE svg PUBLIC "-//W3C//DTD SVG 1.1//EN" "http://www.w3.org/Graphics/SVG/1.1/DTD/svg11.dtd">
<svg version="1.1" id="Layer_1" xmlns="http://www.w3.org/2000/svg" xmlns:xlink="http://www.w3.org/1999/xlink" x="0px" y="0px"
	 width="684.211px" height="702.631px" viewBox="0 0 684.211 702.631" enable-background="new 0 0 684.211 702.631"
	 xml:space="preserve">
<g>
	<path fill="#F27052" d="M39.867,453.053c7.068,23.313,16.727,45.847,28.912,66.943c11.693,20.25,25.642,39.201,41.537,56.357
		c15.554,16.786,32.956,31.86,51.781,44.875c18.699,12.928,38.785,23.846,59.809,32.489c21.078,8.668,43.082,15.06,65.535,18.982
		c23.038,4.022,46.527,5.451,69.88,4.25c12.145-0.621,24.25-1.957,36.237-3.979c5.996-1.01,11.963-2.192,17.892-3.543
		c2.963-0.676,5.916-1.395,8.858-2.149c2.705-0.699,5.631-1.226,8.148-2.468c4.496-2.221,6.676-7.618,4.955-12.34
		c-1.68-4.606-6.408-7.305-11.215-6.479c-2.838,0.485-5.623,1.436-8.416,2.139c-2.971,0.748-5.951,1.453-8.943,2.111
		c-5.945,1.309-11.926,2.455-17.938,3.41c-23.48,3.733-47.44,4.51-71.122,2.434c-22.996-2.018-45.744-6.764-67.633-14.1
		c-21.588-7.236-42.328-16.979-61.707-28.935c-19.516-12.041-37.621-26.346-53.823-42.576
		c-16.551-16.58-31.087-35.149-43.219-55.188c-12.549-20.736-22.519-43.031-29.654-66.193
		c-7.131-23.146-11.435-47.168-12.728-71.352c-1.239-23.16,0.198-46.492,4.436-69.297c4.156-22.369,11.031-44.225,20.239-65.023
		c9.167-20.705,20.63-40.417,34.226-58.527c13.813-18.402,29.823-35.158,47.557-49.818c9.255-7.651,18.979-14.731,29.098-21.194
		c2.408-1.538,4.91-2.913,7.326-4.435c2.068-1.304,3.834-2.854,4.843-5.127c1.841-4.148,0.681-9.094-2.864-11.941
		c-1.674-1.344-3.761-2.148-5.905-2.245c-2.967-0.132-5.445,1.319-7.896,2.804c-5.141,3.112-10.19,6.371-15.146,9.773
		c-9.788,6.721-19.194,13.995-28.159,21.782c-17.529,15.224-33.351,32.396-47.091,51.114c-13.602,18.525-25.134,38.535-34.387,59.57
		c-9.224,20.969-16.251,42.889-20.743,65.357c-4.565,22.846-6.576,46.205-6.004,69.493c0.594,24.171,4.002,48.271,10.118,71.661
		C37.657,445.499,38.726,449.288,39.867,453.053z"/>
	<path fill="#F27052" d="M570.064,551.165c-2.512,0.762-4.309,2.633-5.983,4.555c-1.988,2.277-3.998,4.537-6.049,6.761
		c-1.634,1.771-3.271,3.577-3.896,5.971c-0.657,2.518-0.289,5.283,1.013,7.535c2.26,3.92,7.155,6.002,11.521,4.664
		c2.354-0.722,4.271-2.351,5.937-4.107c1.803-1.902,3.479-3.936,5.209-5.902c1.911-2.172,4.129-4.295,4.907-7.17
		c0.689-2.547,0.359-5.336-0.957-7.627C579.466,551.84,574.493,549.821,570.064,551.165z"/>
	<path fill="#F27052" d="M523.042,595.542c-2.678,0.813-4.764,2.805-6.953,4.445c-2.396,1.795-4.854,3.51-7.319,5.207
		c-5.06,3.479-10.228,6.801-15.494,9.957c-5.252,3.147-10.613,6.086-16.027,8.938c-2.225,1.174-4.234,2.621-5.396,4.916
		c-1.1,2.162-1.396,4.707-0.784,7.06c1.18,4.563,5.52,7.805,10.233,7.586c2.885-0.136,5.49-1.666,7.957-3.031
		c2.654-1.467,5.316-2.928,7.955-4.424c10.545-5.986,20.744-12.582,30.527-19.748c2.524-1.851,5.453-3.519,7.022-6.336
		c1.384-2.484,1.681-5.519,0.728-8.205C533.729,596.932,528.11,594.006,523.042,595.542z"/>
	<path fill="#F27052" d="M261.955,78.407c23.287-6.521,47.361-10.229,71.535-10.92c11.632-0.332,23.283,0.03,34.874,1.087
		c5.795,0.528,11.573,1.229,17.325,2.103c5.677,0.861,11.257,2.066,16.888,3.148c11.803,2.27,23.442,5.684,34.791,9.611
		c11.17,3.867,22.057,8.382,32.688,13.539c20.324,9.859,39.523,22.046,57.091,36.246c17.807,14.396,33.922,30.863,47.911,48.986
		c14.49,18.773,26.65,39.332,36.199,61.037c9.836,22.352,16.881,45.902,20.984,69.977c3.994,23.443,5.225,47.354,3.465,71.074
		c-1.709,23.063-6.188,45.904-13.293,67.908c-3.498,10.834-7.627,21.463-12.347,31.824c-2.43,5.332-5.018,10.594-7.754,15.774
		c-2.489,4.718-6.469,9.681-4.438,15.277c1.617,4.459,6.289,7.186,10.967,6.512c5.627-0.811,7.854-5.938,10.254-10.416
		c5.396-10.051,10.25-20.391,14.533-30.963c8.586-21.19,14.844-43.311,18.621-65.861c3.861-23.063,5.094-46.547,3.768-69.889
		c-1.371-24.156-5.563-48.119-12.408-71.326c-6.877-23.318-16.395-45.861-28.422-66.994c-11.616-20.412-25.571-39.477-41.459-56.777
		c-15.52-16.898-32.871-32.085-51.694-45.203c-18.617-12.973-38.613-23.98-59.558-32.721c-21.084-8.799-43.121-15.285-65.61-19.301
		c-23.056-4.117-46.558-5.628-69.948-4.523c-11.893,0.561-23.752,1.794-35.504,3.693c-5.977,0.969-11.928,2.106-17.838,3.416
		c-2.982,0.658-5.957,1.361-8.92,2.107c-2.832,0.714-5.775,1.311-8.531,2.287c-4.559,1.617-7.477,6.045-6.861,10.906
		c0.566,4.443,4.144,7.984,8.557,8.638c2.461,0.364,4.721-0.424,7.064-1.079c2.225-0.623,4.449-1.244,6.674-1.868
		c2.564-0.718,5.127-1.435,7.689-2.152c0.572-0.16,1.145-0.339,1.721-0.479c-5.721,1.404-11.371,3.185-17.043,4.771
		c-0.689,0.192-1.377,0.392-2.07,0.577C261.861,78.434,261.934,78.413,261.955,78.407C283.674,72.328,259.367,79.139,261.955,78.407
		z"/>
</g>
<circle opacity="0.1" fill="#F27052" stroke="#F27052" stroke-miterlimit="10" enable-background="new    " cx="341.504" cy="362.306" r="260.812"/>
<g>
	<path fill="#F27052" d="M512.862,265.337c-2.008-2.878-5.239-4.657-8.75-4.807l-217.631-9.381
		c-6.244-0.273-11.462,4.547-11.729,10.763c-0.265,6.213,4.548,11.462,10.762,11.729l202.897,8.747l-39.894,124.472H270.985
		l-32.074-174.641c-0.705-3.828-3.333-7.021-6.957-8.442l-52.531-20.637c-5.79-2.267-12.323,0.577-14.597,6.359
		c-2.27,5.786,0.573,12.323,6.359,14.597l46.709,18.35l32.64,177.705c0.984,5.342,5.639,9.223,11.073,9.223h5.415l-12.363,34.343
		c-1.035,2.877-0.609,6.07,1.152,8.57c1.759,2.5,4.619,3.987,7.672,3.987h8.672c-5.374,5.979-8.672,13.854-8.672,22.513
		c0,18.623,15.153,33.771,33.771,33.771c18.618,0,33.771-15.148,33.771-33.771c0-8.658-3.298-16.533-8.671-22.513h73.629
		c-5.376,5.979-8.674,13.854-8.674,22.513c0,18.623,15.148,33.771,33.771,33.771c18.623,0,33.771-15.148,33.771-33.771
		c0-8.658-3.298-16.533-8.67-22.513h10.547c5.182,0,9.38-4.2,9.38-9.381c0-5.182-4.199-9.381-9.38-9.381H276.831l10.13-28.142
		h169.764c4.896,0,9.229-3.163,10.719-7.82l46.904-146.34C515.424,271.868,514.871,268.217,512.862,265.337z M297.255,513.799
		c-8.278,0-15.01-6.731-15.01-15.009c0-8.278,6.732-15.01,15.01-15.01s15.009,6.731,15.009,15.01
		C312.264,507.067,305.533,513.799,297.255,513.799z M421.079,513.799c-8.277,0-15.009-6.731-15.009-15.009
		c0-8.278,6.731-15.01,15.009-15.01c8.278,0,15.009,6.731,15.009,15.01C436.088,507.067,429.357,513.799,421.079,513.799z"/>
</g>
<circle fill="#FFFFFF" cx="482.606" cy="279.482" r="54.334"/>
<path fill="#F27052" stroke="#F27052" stroke-width="2" stroke-miterlimit="10" d="M451.2,297.583
	c-0.116,0.428-0.391,0.815-0.798,1.066c-0.505,0.31-1.104,0.34-1.615,0.136l-8.272-2.763c-0.942-0.315-1.45-1.336-1.134-2.279
	c0.316-0.941,1.337-1.45,2.28-1.134l4.061,1.357c-3.959-8.486-4.722-17.805-2.652-26.446c2.407-10.054,8.651-19.19,18.16-25.023
	c8.151-5.001,17.386-6.761,26.197-5.64c8.979,1.143,17.516,5.281,24.016,12.034c0.687,0.72,0.663,1.86-0.058,2.548
	c-0.719,0.688-1.859,0.663-2.547-0.057c-5.917-6.148-13.689-9.917-21.867-10.957c-8.016-1.02-16.423,0.585-23.855,5.145
	c-8.66,5.313-14.346,13.633-16.538,22.79c-1.898,7.923-1.18,16.472,2.49,24.242l1.481-4.434c0.315-0.942,1.336-1.451,2.279-1.135
	c0.942,0.316,1.45,1.337,1.135,2.28L451.2,297.583z"/>
<path fill="#F27052" stroke="#F27052" stroke-width="2" stroke-miterlimit="10" d="M515.162,271.69l1.48-4.434
	c3.671,7.769,4.388,16.32,2.491,24.242c-2.194,9.155-7.88,17.476-16.539,22.789c-7.432,4.56-15.84,6.165-23.855,5.146
	c-8.177-1.04-15.95-4.809-21.867-10.956c-0.688-0.72-1.828-0.745-2.547-0.057c-0.72,0.686-0.745,1.828-0.058,2.546
	c6.499,6.754,15.036,10.893,24.016,12.035c8.813,1.122,18.047-0.639,26.198-5.64c9.509-5.833,15.752-14.968,18.159-25.022
	c2.069-8.641,1.307-17.962-2.652-26.447l4.062,1.357c0.941,0.315,1.964-0.192,2.279-1.135c0.316-0.942-0.191-1.963-1.134-2.28
	l-8.272-2.763c-0.513-0.205-1.11-0.174-1.615,0.136c-0.408,0.251-0.682,0.638-0.798,1.066l-2.762,8.269
	c-0.316,0.943,0.191,1.964,1.135,2.281C513.825,273.141,514.846,272.632,515.162,271.69z"/>
</svg>
