<?xml version="1.0" encoding="utf-8"?>
<!-- Generator: Adobe Illustrator 16.0.0, SVG Export Plug-In . SVG Version: 6.00 Build 0)  -->
<!DOCTYPE svg PUBLIC "-//W3C//DTD SVG 1.1//EN" "http://www.w3.org/Graphics/SVG/1.1/DTD/svg11.dtd">
<svg version="1.1" id="Layer_1" xmlns="http://www.w3.org/2000/svg" xmlns:xlink="http://www.w3.org/1999/xlink" x="0px" y="0px"
	 width="684.211px" height="702.631px" viewBox="0 0 684.211 702.631" enable-background="new 0 0 684.211 702.631"
	 xml:space="preserve">
<g>
	<path fill="#F27052" d="M39.867,453.053c7.068,23.313,16.727,45.846,28.912,66.943c11.693,20.25,25.642,39.201,41.537,56.357
		c15.554,16.787,32.956,31.861,51.781,44.875c18.699,12.928,38.785,23.846,59.809,32.49c21.078,8.668,43.082,15.059,65.535,18.982
		c23.037,4.023,46.527,5.451,69.88,4.25c12.145-0.621,24.25-1.957,36.238-3.979c5.996-1.01,11.963-2.193,17.891-3.543
		c2.963-0.676,5.916-1.395,8.859-2.15c2.705-0.699,5.631-1.225,8.148-2.467c4.496-2.221,6.676-7.619,4.955-12.34
		c-1.68-4.607-6.408-7.305-11.215-6.479c-2.838,0.486-5.623,1.436-8.416,2.139c-2.971,0.748-5.951,1.453-8.943,2.111
		c-5.945,1.309-11.926,2.455-17.939,3.41c-23.48,3.734-47.44,4.51-71.122,2.434c-22.996-2.018-45.744-6.764-67.633-14.1
		c-21.588-7.236-42.328-16.979-61.707-28.934c-19.516-12.041-37.621-26.346-53.823-42.576c-16.551-16.58-31.087-35.15-43.219-55.189
		c-12.549-20.736-22.519-43.031-29.654-66.193c-7.131-23.146-11.435-47.168-12.728-71.352c-1.239-23.16,0.198-46.492,4.436-69.297
		c4.156-22.369,11.031-44.225,20.239-65.023c9.167-20.705,20.63-40.417,34.226-58.527c13.813-18.402,29.823-35.158,47.557-49.818
		c9.255-7.651,18.979-14.731,29.098-21.194c2.408-1.538,4.91-2.913,7.326-4.435c2.068-1.304,3.834-2.854,4.843-5.127
		c1.841-4.148,0.681-9.094-2.864-11.941c-1.674-1.344-3.761-2.148-5.905-2.245c-2.967-0.132-5.445,1.319-7.896,2.804
		c-5.141,3.112-10.19,6.371-15.145,9.773c-9.788,6.721-19.194,13.995-28.159,21.782c-17.529,15.224-33.351,32.397-47.091,51.114
		c-13.602,18.525-25.134,38.535-34.387,59.57c-9.224,20.969-16.251,42.889-20.743,65.357c-4.565,22.846-6.576,46.205-6.004,69.494
		c0.594,24.17,4.002,48.271,10.118,71.66C37.657,445.499,38.726,449.288,39.867,453.053z"/>
	<path fill="#F27052" d="M570.065,551.165c-2.512,0.762-4.309,2.633-5.984,4.555c-1.988,2.277-3.998,4.537-6.049,6.76
		c-1.633,1.771-3.271,3.578-3.896,5.971c-0.658,2.518-0.289,5.283,1.012,7.535c2.26,3.92,7.156,6.002,11.521,4.664
		c2.354-0.721,4.271-2.35,5.936-4.107c1.803-1.902,3.479-3.936,5.209-5.902c1.912-2.172,4.129-4.295,4.908-7.17
		c0.689-2.547,0.359-5.336-0.957-7.627C579.466,551.84,574.493,549.821,570.065,551.165z"/>
	<path fill="#F27052" d="M523.042,595.542c-2.678,0.813-4.764,2.805-6.953,4.445c-2.396,1.795-4.855,3.51-7.32,5.207
		c-5.059,3.48-10.227,6.801-15.494,9.957c-5.252,3.148-10.613,6.086-16.027,8.938c-2.225,1.174-4.234,2.621-5.396,4.916
		c-1.1,2.162-1.396,4.707-0.785,7.059c1.18,4.563,5.52,7.805,10.234,7.586c2.885-0.135,5.49-1.666,7.957-3.031
		c2.654-1.467,5.316-2.928,7.955-4.424c10.545-5.986,20.744-12.582,30.527-19.748c2.525-1.85,5.453-3.518,7.023-6.336
		c1.383-2.484,1.68-5.518,0.727-8.205C533.728,596.932,528.11,594.006,523.042,595.542z"/>
	<path fill="#F27052" d="M261.955,78.407c23.287-6.52,47.361-10.229,71.535-10.92c11.632-0.332,23.284,0.03,34.874,1.087
		c5.795,0.528,11.574,1.229,17.326,2.103c5.676,0.861,11.256,2.066,16.887,3.148c11.803,2.27,23.443,5.684,34.791,9.611
		c11.17,3.867,22.057,8.382,32.688,13.539c20.324,9.859,39.523,22.046,57.09,36.246c17.807,14.395,33.922,30.863,47.912,48.986
		c14.49,18.773,26.65,39.332,36.199,61.037c9.836,22.352,16.881,45.902,20.984,69.977c3.994,23.443,5.225,47.354,3.465,71.074
		c-1.709,23.063-6.188,45.904-13.293,67.908c-3.498,10.834-7.627,21.463-12.346,31.824c-2.43,5.332-5.018,10.594-7.754,15.775
		c-2.49,4.717-6.469,9.68-4.438,15.277c1.617,4.459,6.289,7.186,10.967,6.512c5.627-0.811,7.854-5.939,10.254-10.416
		c5.395-10.051,10.25-20.391,14.533-30.963c8.586-21.191,14.844-43.311,18.621-65.861c3.861-23.064,5.094-46.547,3.768-69.889
		c-1.371-24.156-5.564-48.119-12.408-71.326c-6.877-23.318-16.395-45.861-28.422-66.994c-11.617-20.412-25.572-39.477-41.459-56.777
		c-15.52-16.898-32.871-32.085-51.695-45.203c-18.617-12.973-38.613-23.98-59.557-32.721c-21.084-8.799-43.121-15.285-65.611-19.301
		c-23.055-4.117-46.557-5.628-69.948-4.523c-11.893,0.561-23.752,1.794-35.504,3.693c-5.977,0.969-11.928,2.106-17.838,3.416
		c-2.982,0.658-5.957,1.361-8.92,2.107c-2.832,0.714-5.775,1.311-8.531,2.287c-4.559,1.617-7.477,6.045-6.861,10.906
		c0.566,4.443,4.143,7.984,8.557,8.638c2.461,0.364,4.721-0.424,7.064-1.079c2.225-0.623,4.449-1.244,6.674-1.868
		c2.564-0.718,5.127-1.435,7.689-2.152c0.572-0.16,1.145-0.339,1.721-0.479c-5.721,1.404-11.371,3.185-17.043,4.771
		c-0.689,0.192-1.377,0.392-2.07,0.577C261.861,78.434,261.934,78.413,261.955,78.407C283.674,72.328,259.367,79.139,261.955,78.407
		z"/>
</g>
<circle opacity="0.1" fill="#F27052" cx="341.504" cy="362.306" r="260.812"/>
<path fill="#F27052" d="M278.6,265.149c-51.737,20.057-86.3,70.822-86.3,126.323v36.959c0,5.057-4.493,9.285-9.549,9.285h-19.085
	c-15.572,0-28.333-12.797-28.333-28.369v-41.75c0-12.305,7.92-23.111,19.656-26.889c4.817-1.55,10.007,1.096,11.556,5.909
	c1.55,4.813-1.118,9.971-5.932,11.521c-4.077,1.312-6.969,5.202-6.969,9.458v41.75c0,5.477,4.548,10.059,10.022,10.059h10.323
	v-27.932c0-31.623,9.333-62.001,27.36-87.85c17.611-25.252,41.839-44.461,70.437-55.547c4.714-1.827,10.018,0.512,11.846,5.228
	C285.458,258.018,283.314,263.321,278.6,265.149z M427.355,270.36c0,19.208-15.626,34.835-34.835,34.835
	c-19.207,0-34.834-15.626-34.834-34.835c0-19.208,15.626-34.834,34.834-34.834C411.729,235.526,427.355,251.153,427.355,270.36z
	 M409.045,270.36c0-9.111-7.413-16.523-16.524-16.523c-9.11,0-16.523,7.412-16.523,16.523s7.413,16.524,16.523,16.524
	C401.632,286.884,409.045,279.471,409.045,270.36z M518.845,367.595v41.752c0,15.572-12.254,28.369-27.825,28.369h-16.91
	c-5.554,17.293-14.365,34.371-26.233,49.336c-19.499,24.59-46.332,42.787-76.173,51.791c-1.342,15.063-14.03,27.049-29.433,27.049
	h-29.855c-16.293,0-29.55-13.207-29.55-29.5c0-16.299,13.256-29.502,29.55-29.502h29.856c10.724,0,20.133,5.553,25.313,14.123
	c56.431-17.461,95.193-69.762,95.193-129.543c0-18.424-3.628-36.262-10.789-53.05l-12.045-5.383
	c-5.186,3.937-10.796,7.186-16.772,9.712l-1.499,14.461c-0.493,9.529-11.58,15.417-29.149,15.417
	c-17.617,0-28.699-5.904-29.151-15.461l-1.496-14.416c-5.976-2.526-11.586-5.775-16.772-9.711l-13.32,5.953
	c-8.495,4.318-19.131-2.338-27.909-17.544c-3.167-5.486-5.434-11.208-6.38-16.108c-1.976-10.237,2.149-14.88,5.174-16.851
	l11.833-8.575c-0.384-3.17-0.579-6.37-0.579-9.564c0-3.248,0.2-6.497,0.598-9.715l-11.829-8.57
	c-8.052-5.169-7.625-17.722,1.185-32.979c8.779-15.211,19.419-21.867,27.915-17.539l13.448,6.009
	c5.144-3.886,10.703-7.097,16.618-9.601l1.515-14.589c0.451-9.554,11.533-15.461,29.149-15.461c17.576,0,28.665,5.894,29.149,15.428
	l1.517,14.623c5.913,2.503,11.475,5.716,16.619,9.601l13.424-5.997c3.219-1.632,9.303-2.882,17.181,3.945
	c3.771,3.27,7.591,8.092,10.759,13.581c8.787,15.215,9.229,27.764,1.222,32.954l-11.865,8.596c0.397,3.217,0.598,6.466,0.598,9.713
	c0,3.2-0.193,6.4-0.578,9.564l11.859,8.594c7.994,5.196,7.547,17.741-1.236,32.95c-3.166,5.486-6.986,10.317-10.758,13.587
	c-0.005,0.004-0.01,0.024-0.016,0.028c7.1,17.951,10.694,36.937,10.694,56.46c0,9.439-0.834,18.715-2.477,27.869h12.407
	c5.474,0,9.515-4.582,9.515-10.059v-41.75c0-4.258-2.691-8.147-6.769-9.459c-4.813-1.549-7.303-6.708-5.753-11.521
	c1.549-4.812,6.604-7.459,11.416-5.909C511.166,344.486,518.845,355.292,518.845,367.595z M353.511,536.251
	c0-0.748-0.073-1.57-0.214-2.277c-0.023-0.105-0.047-0.117-0.067-0.223c-1.141-5-5.62-8.551-10.958-8.551h-29.856
	c-6.197,0-11.239,4.99-11.239,11.188c0,6.201,5.042,11.193,11.239,11.193h29.856C348.469,547.582,353.511,542.449,353.511,536.251z
	 M455.218,249.117l14.367-10.408c-0.42-2.144-1.642-5.905-4.274-10.463c-2.63-4.557-5.276-7.496-6.923-8.931l-16.26,7.264
	c-3.271,1.462-7.094,0.88-9.784-1.487c-6.066-5.341-12.999-9.346-20.6-11.9c-3.4-1.144-5.819-4.167-6.19-7.735l-1.835-17.706
	c-2.065-0.709-5.934-1.532-11.198-1.532c-5.263,0-9.131,0.823-11.196,1.531l-1.838,17.708c-0.37,3.566-2.791,6.59-6.189,7.733
	c-7.605,2.557-14.535,6.56-20.598,11.899c-2.689,2.369-6.517,2.95-9.787,1.487l-16.257-7.266c-1.647,1.435-4.294,4.374-6.926,8.932
	c-2.631,4.558-3.854,8.319-4.272,10.464l14.366,10.408c2.904,2.105,4.313,5.711,3.603,9.227c-0.794,3.93-1.195,7.97-1.195,12.01
	c0,3.995,0.394,7.994,1.171,11.889c0.7,3.51-0.709,7.106-3.606,9.205l-14.337,10.389c0.419,2.144,1.641,5.905,4.272,10.462
	c2.632,4.559,5.279,7.498,6.926,8.933l16.135-7.209c3.277-1.465,7.111-0.878,9.802,1.501c6.093,5.391,13.063,9.428,20.72,11.998
	c3.402,1.142,5.823,4.166,6.193,7.733l1.819,17.537c2.066,0.709,5.935,1.531,11.197,1.531c5.265,0,9.134-0.823,11.198-1.532
	l1.819-17.535c0.371-3.568,2.791-6.591,6.192-7.735c7.657-2.572,14.629-6.61,20.719-11.999c2.691-2.38,6.521-2.967,9.803-1.503
	l16.135,7.208c1.647-1.435,4.293-4.373,6.922-8.929c2.634-4.56,3.856-8.322,4.274-10.466l-14.337-10.386
	c-2.9-2.101-4.309-5.701-3.605-9.211c0.776-3.879,1.17-7.877,1.17-11.881c0-4.039-0.402-8.08-1.194-12.01
	C450.906,254.827,452.314,251.221,455.218,249.117z"/>
</svg>
