<?xml version="1.0" encoding="utf-8"?>
<!-- Generator: Adobe Illustrator 16.0.0, SVG Export Plug-In . SVG Version: 6.00 Build 0)  -->
<!DOCTYPE svg PUBLIC "-//W3C//DTD SVG 1.1//EN" "http://www.w3.org/Graphics/SVG/1.1/DTD/svg11.dtd">
<svg version="1.1" id="Layer_1" xmlns="http://www.w3.org/2000/svg" xmlns:xlink="http://www.w3.org/1999/xlink" x="0px" y="0px"
	 width="200px" height="200px" viewBox="0 0 200 200" enable-background="new 0 0 200 200" xml:space="preserve">
<path fill="#16BD83" d="M71.953,14.898c5.16-8.172,15.827-14.3,27.749-14.3s22.588,6.128,27.748,14.3
	c8.979-3.579,21.209-2.267,30.855,4.741c9.645,7.007,14.672,18.234,14.043,27.879c9.367,2.382,18.491,10.633,22.175,21.971
	c3.685,11.338,1.153,23.376-5.026,30.81c6.18,7.434,8.711,19.471,5.026,30.809c-3.684,11.34-12.808,19.589-22.175,21.973
	c0.629,9.645-4.398,20.871-14.043,27.879c-9.646,7.008-21.877,8.318-30.855,4.74C122.289,193.872,111.623,200,99.701,200
	s-22.588-6.128-27.749-14.301c-8.979,3.578-21.209,2.268-30.854-4.74c-9.645-7.008-14.672-18.234-14.043-27.879
	c-9.368-2.384-18.492-10.633-22.176-21.973c-3.684-11.338-1.151-23.375,5.026-30.809c-6.178-7.434-8.71-19.472-5.026-30.81
	C8.563,58.151,17.688,49.9,27.055,47.518c-0.629-9.646,4.398-20.872,14.043-27.879C50.744,12.631,62.974,11.319,71.953,14.898z"/>
<path fill="#FFFFFF" d="M-191.674,173.041c-13.373,1.408-10.655,4.711-13.705,7.293c-3.521,3.754-7.913,3.029-7.913,3.029
	l20.646,35.492l5.066-13.139l14.439,1.877L-191.674,173.041z M-231.795,183.129c-0.216,0.221-16.89,35.023-16.89,35.023
	l-8.116-12.199l-14.674,1.641l18.3-35.961c0,0,0.622,2.193,5.314,2.193C-237.07,174.061-240.54,182.914-231.795,183.129z
	 M-231.795,183.129c0.001-0.002,0.002-0.002,0.002,0H-231.795z M-196.51,171.855c-4.453,0.059-7.819,2.002-10.097,5.828
	c-2.278,3.828-5.359,4.654-9.246,2.479s-7.773-2.176-11.659,0c-3.886,2.176-6.968,1.35-9.246-2.479
	c-2.278-3.826-5.644-5.77-10.097-5.828s-6.709-2.316-6.769-6.77c-0.058-4.453-2.002-7.818-5.829-10.096
	c-3.827-2.279-4.653-5.361-2.478-9.246c2.177-3.887,2.177-7.773,0-11.659c-2.175-3.887-1.349-6.968,2.478-9.247
	c3.827-2.277,5.771-5.643,5.829-10.097c0.06-4.453,2.316-6.709,6.769-6.769c4.453-0.059,7.819-2.002,10.097-5.829
	c2.278-3.828,5.36-4.653,9.246-2.477c3.886,2.175,7.772,2.175,11.659,0c3.887-2.176,6.968-1.351,9.246,2.477
	c2.277,3.827,5.644,5.771,10.097,5.829c4.454,0.06,6.709,2.315,6.769,6.769c0.059,4.454,2.002,7.819,5.83,10.097
	c3.826,2.279,4.652,5.36,2.477,9.247c-2.176,3.886-2.176,7.772,0,11.659c2.176,3.885,1.35,6.967-2.477,9.246
	c-3.828,2.277-5.771,5.643-5.83,10.096C-189.801,169.539-192.056,171.797-196.51,171.855z M-230.412,154.314v-30.549h-4.732
	c-0.664,1.854-1.888,3.477-3.673,4.867c-1.786,1.391-3.438,2.335-4.961,2.833v5.292c2.892-0.955,5.403-2.428,7.534-4.42v21.977
	H-230.412z M-204.616,143.066v-19.301h-4.896l-13.2,19.322v5.105h12.452v6.121h5.645v-6.121h3.778v-5.127H-204.616z
	 M-210.261,143.066V132.67l-6.993,10.396H-210.261z"/>
<g>
	<path fill="#FFFFFF" d="M128.924,149.318c1.214,0,2.199-0.985,2.199-2.199c0-1.215-0.985-2.199-2.199-2.199
		c-1.215,0-2.199,0.984-2.199,2.199C126.725,148.333,127.709,149.318,128.924,149.318L128.924,149.318z M128.924,149.318"/>
	<path fill="#FFFFFF" d="M92.416,149.318c1.213,0,2.199-0.985,2.199-2.199c0-1.215-0.986-2.199-2.199-2.199
		s-2.199,0.984-2.199,2.199C90.217,148.333,91.203,149.318,92.416,149.318L92.416,149.318z M92.416,149.318"/>
	<path fill="#FFFFFF" d="M153.969,79.788c-0.417-0.534-1.056-0.846-1.732-0.846H73.063l-5.013-21.305
		c-0.707-2.995-3.348-5.085-6.422-5.085H48.431c-3.638,0-6.598,2.959-6.598,6.598c0,3.638,2.959,6.598,6.598,6.598h7.97
		l16.396,69.689c0.707,2.995,3.348,5.085,6.423,5.085h4.405c-1.384,1.84-2.206,4.125-2.206,6.599
		c0,6.062,4.933,10.996,10.996,10.996c6.063,0,10.996-4.935,10.996-10.996c0-2.474-0.821-4.759-2.205-6.599h18.925
		c-1.383,1.84-2.204,4.125-2.204,6.599c0,6.062,4.932,10.996,10.996,10.996c6.063,0,10.996-4.935,10.996-10.996
		c0-2.474-0.821-4.759-2.206-6.599h0.007c3.638,0,6.598-2.96,6.598-6.598c0-3.639-2.96-6.598-6.598-6.598H84.446l-2.071-8.797
		h57.628c3.03,0,5.665-2.056,6.402-4.999l7.964-31.854C154.534,81.018,154.386,80.321,153.969,79.788L153.969,79.788z
		 M146.119,96.536h-14.044l1.649-13.196h15.693L146.119,96.536z M120.127,100.935h6.966l-1.649,13.195h-11.914v-6.598
		c0-1.215-0.984-2.199-2.199-2.199s-2.199,0.984-2.199,2.199v6.598H97.216l-1.649-13.195h6.966c1.215,0,2.199-0.984,2.199-2.199
		s-0.984-2.199-2.199-2.199h-7.516L93.368,83.34h15.763v6.598c0,1.214,0.984,2.199,2.199,2.199s2.199-0.985,2.199-2.199V83.34
		h15.763l-1.649,13.196h-7.516c-1.215,0-2.199,0.984-2.199,2.199S118.912,100.935,120.127,100.935L120.127,100.935z M81.34,114.13
		l-3.104-13.195h12.898l1.649,13.195H81.34z M88.935,83.34l1.649,13.196H77.201L74.098,83.34H88.935z M99.014,147.119
		c0,3.637-2.959,6.598-6.598,6.598c-3.638,0-6.598-2.961-6.598-6.598c0-3.64,2.959-6.599,6.598-6.599
		C96.055,140.521,99.014,143.479,99.014,147.119L99.014,147.119z M135.521,147.119c0,3.637-2.96,6.598-6.598,6.598
		s-6.598-2.961-6.598-6.598c0-3.64,2.96-6.599,6.598-6.599S135.521,143.479,135.521,147.119L135.521,147.119z M137.721,131.724
		c1.212,0,2.199,0.985,2.199,2.199c0,1.212-0.987,2.199-2.199,2.199h-58.5c-1.024,0-1.905-0.697-2.141-1.695L59.885,61.348H48.431
		c-1.213,0-2.199-0.987-2.199-2.199c0-1.213,0.986-2.199,2.199-2.199h13.196c1.024,0,1.905,0.696,2.141,1.695l13.677,58.125
		c0,0.002,0.001,0.007,0.001,0.012l3.517,14.942H137.721z M142.139,112.462c-0.245,0.981-1.124,1.668-2.136,1.668h-10.128
		l1.65-13.195h13.496L142.139,112.462z M142.139,112.462"/>
	<path fill="#FFFFFF" d="M111.33,96.536c-1.215,0-2.199,0.984-2.199,2.199c0,1.213,0.984,2.199,2.199,2.199
		c1.214,0,2.199-0.986,2.199-2.199C113.529,97.521,112.544,96.536,111.33,96.536L111.33,96.536z M111.33,96.536"/>
</g>
</svg>
