<?xml version="1.0" encoding="utf-8"?>
<!-- Generator: Adobe Illustrator 16.0.0, SVG Export Plug-In . SVG Version: 6.00 Build 0)  -->
<!DOCTYPE svg PUBLIC "-//W3C//DTD SVG 1.1//EN" "http://www.w3.org/Graphics/SVG/1.1/DTD/svg11.dtd">
<svg version="1.1" id="Layer_1" xmlns="http://www.w3.org/2000/svg" xmlns:xlink="http://www.w3.org/1999/xlink" x="0px" y="0px"
	 width="200px" height="200px" viewBox="0 0 200 200" enable-background="new 0 0 200 200" xml:space="preserve">
<path fill="#16BD83" d="M71.953,14.898c5.16-8.172,15.827-14.3,27.749-14.3s22.588,6.128,27.748,14.3
	c8.979-3.579,21.209-2.267,30.855,4.741c9.645,7.007,14.672,18.234,14.043,27.879c9.367,2.382,18.491,10.633,22.175,21.971
	c3.685,11.338,1.153,23.376-5.026,30.81c6.18,7.434,8.711,19.471,5.026,30.809c-3.684,11.34-12.808,19.589-22.175,21.973
	c0.629,9.645-4.398,20.871-14.043,27.879c-9.646,7.008-21.877,8.318-30.855,4.74C122.289,193.872,111.623,200,99.701,200
	s-22.588-6.128-27.749-14.301c-8.979,3.578-21.209,2.268-30.854-4.74c-9.645-7.008-14.672-18.234-14.043-27.879
	c-9.368-2.384-18.492-10.633-22.176-21.973c-3.684-11.338-1.151-23.375,5.026-30.809c-6.178-7.434-8.71-19.472-5.026-30.81
	C8.563,58.151,17.688,49.9,27.055,47.518c-0.629-9.646,4.398-20.872,14.043-27.879C50.744,12.631,62.974,11.319,71.953,14.898z"/>
<path fill="#16BD83" d="M-482.047-38.102c5.16-8.172,15.827-14.3,27.749-14.3s22.588,6.128,27.748,14.3
	c8.979-3.579,21.209-2.267,30.855,4.741c9.645,7.007,14.672,18.234,14.043,27.879c9.367,2.382,18.491,10.633,22.175,21.971
	c3.685,11.338,1.153,23.376-5.026,30.81c6.18,7.434,8.711,19.471,5.026,30.809c-3.684,11.34-12.808,19.589-22.175,21.973
	c0.629,9.645-4.398,20.871-14.043,27.879c-9.646,7.008-21.877,8.318-30.855,4.74c-5.16,8.173-15.826,14.301-27.748,14.301
	s-22.588-6.128-27.749-14.301c-8.979,3.578-21.209,2.268-30.854-4.74c-9.645-7.008-14.672-18.234-14.043-27.879
	c-9.368-2.384-18.492-10.633-22.176-21.973c-3.684-11.338-1.151-23.375,5.026-30.809c-6.178-7.434-8.71-19.472-5.026-30.81
	c3.684-11.338,12.808-19.589,22.176-21.971c-0.629-9.646,4.398-20.872,14.043-27.879C-503.256-40.369-491.026-41.681-482.047-38.102
	z"/>
<g>
	<path fill="#FFFFFF" d="M-425.076,96.318c1.214,0,2.199-0.985,2.199-2.199c0-1.215-0.985-2.199-2.199-2.199
		c-1.215,0-2.199,0.984-2.199,2.199C-427.275,95.333-426.291,96.318-425.076,96.318L-425.076,96.318z M-425.076,96.318"/>
	<path fill="#FFFFFF" d="M-461.584,96.318c1.213,0,2.199-0.985,2.199-2.199c0-1.215-0.986-2.199-2.199-2.199
		s-2.199,0.984-2.199,2.199C-463.783,95.333-462.797,96.318-461.584,96.318L-461.584,96.318z M-461.584,96.318"/>
	<path fill="#FFFFFF" d="M-400.031,26.788c-0.417-0.534-1.056-0.846-1.732-0.846h-79.174l-5.013-21.305
		c-0.707-2.995-3.348-5.085-6.422-5.085h-13.196c-3.638,0-6.598,2.959-6.598,6.598c0,3.638,2.959,6.598,6.598,6.598h7.97
		l16.396,69.689c0.707,2.995,3.348,5.085,6.423,5.085h4.405c-1.384,1.84-2.206,4.125-2.206,6.599
		c0,6.062,4.933,10.996,10.996,10.996c6.063,0,10.996-4.935,10.996-10.996c0-2.474-0.821-4.759-2.205-6.599h18.925
		c-1.383,1.84-2.204,4.125-2.204,6.599c0,6.062,4.932,10.996,10.996,10.996c6.063,0,10.996-4.935,10.996-10.996
		c0-2.474-0.821-4.759-2.206-6.599h0.007c3.638,0,6.598-2.96,6.598-6.598c0-3.639-2.96-6.598-6.598-6.598h-53.274l-2.071-8.797
		h57.628c3.03,0,5.665-2.056,6.402-4.999l7.964-31.854C-399.466,28.018-399.614,27.321-400.031,26.788L-400.031,26.788z
		 M-407.881,43.536h-14.044l1.649-13.196h15.693L-407.881,43.536z M-433.873,47.935h6.966l-1.649,13.195h-11.914v-6.598
		c0-1.215-0.984-2.199-2.199-2.199s-2.199,0.984-2.199,2.199v6.598h-11.915l-1.649-13.195h6.966c1.215,0,2.199-0.984,2.199-2.199
		s-0.984-2.199-2.199-2.199h-7.516l-1.649-13.196h15.763v6.598c0,1.214,0.984,2.199,2.199,2.199s2.199-0.985,2.199-2.199V30.34
		h15.763l-1.649,13.196h-7.516c-1.215,0-2.199,0.984-2.199,2.199S-435.088,47.935-433.873,47.935L-433.873,47.935z M-472.66,61.13
		l-3.104-13.195h12.898l1.649,13.195H-472.66z M-465.065,30.34l1.649,13.196h-13.384l-3.103-13.196H-465.065z M-454.986,94.119
		c0,3.637-2.959,6.598-6.598,6.598c-3.638,0-6.598-2.961-6.598-6.598c0-3.64,2.959-6.599,6.598-6.599
		C-457.945,87.521-454.986,90.479-454.986,94.119L-454.986,94.119z M-418.479,94.119c0,3.637-2.96,6.598-6.598,6.598
		s-6.598-2.961-6.598-6.598c0-3.64,2.96-6.599,6.598-6.599S-418.479,90.479-418.479,94.119L-418.479,94.119z M-416.279,78.724
		c1.212,0,2.199,0.985,2.199,2.199c0,1.212-0.987,2.199-2.199,2.199h-58.5c-1.024,0-1.905-0.697-2.141-1.695l-17.195-73.079h-11.454
		c-1.213,0-2.199-0.987-2.199-2.199c0-1.213,0.986-2.199,2.199-2.199h13.196c1.024,0,1.905,0.696,2.141,1.695l13.677,58.125
		c0,0.002,0.001,0.007,0.001,0.012l3.517,14.942H-416.279z M-411.861,59.462c-0.245,0.981-1.124,1.668-2.136,1.668h-10.128
		l1.65-13.195h13.496L-411.861,59.462z M-411.861,59.462"/>
	<path fill="#FFFFFF" d="M-442.67,43.536c-1.215,0-2.199,0.984-2.199,2.199c0,1.213,0.984,2.199,2.199,2.199
		c1.214,0,2.199-0.986,2.199-2.199C-440.471,44.521-441.456,43.536-442.67,43.536L-442.67,43.536z M-442.67,43.536"/>
</g>
<g>
	<path fill="#FFFFFF" d="M99.333,115.614c1.248,0,2.262-1.012,2.262-2.261c0-1.247-1.014-2.26-2.262-2.26
		c-1.249,0-2.262,1.013-2.262,2.26C97.071,114.603,98.084,115.614,99.333,115.614L99.333,115.614z M99.333,115.614"/>
	<path fill="#FFFFFF" d="M111.696,98.485c5.246-3.187,9.589-7.673,12.561-12.975c2.923-5.218,4.469-11.121,4.469-17.072V55.764
		c2.632-0.934,4.521-3.446,4.521-6.394v-4.522c0-1.249-1.013-2.261-2.261-2.261H67.68c-1.249,0-2.261,1.013-2.261,2.261v4.522
		c0,2.948,1.89,5.46,4.522,6.394v12.675c0,5.952,1.546,11.854,4.469,17.072c2.971,5.301,7.314,9.789,12.561,12.975
		c0.671,0.407,1.072,1.148,1.072,1.981c0,0.834-0.401,1.573-1.072,1.981c-5.247,3.187-9.589,7.673-12.561,12.976
		c-2.923,5.217-4.469,11.12-4.469,17.071v12.676c-2.632,0.934-4.522,3.446-4.522,6.395v4.521c0,1.248,1.013,2.262,2.261,2.262
		h63.307c1.248,0,2.261-1.014,2.261-2.262v-4.521c0-2.948-1.89-5.461-4.521-6.395v-12.676c0-5.951-1.546-11.854-4.469-17.071
		c-2.972-5.303-7.314-9.789-12.562-12.976c-0.67-0.408-1.07-1.148-1.07-1.981S111.025,98.893,111.696,98.485L111.696,98.485z
		 M69.94,47.108h58.785v2.261c0,1.247-1.015,2.261-2.261,2.261H72.202c-1.248,0-2.261-1.014-2.261-2.261V47.108z M128.726,153.826
		H69.94v-2.261c0-1.247,1.014-2.261,2.261-2.261h54.263c1.246,0,2.261,1.014,2.261,2.261V153.826z M109.35,106.313
		c9.3,5.65,14.854,15.439,14.854,26.183v12.287H74.462v-12.287c0-10.743,5.553-20.532,14.854-26.183
		c2.034-1.234,3.247-3.42,3.247-5.846c0-2.427-1.213-4.612-3.247-5.845c-9.301-5.651-14.854-15.439-14.854-26.183V56.152h49.741
		v12.286c0,10.744-5.554,20.532-14.854,26.183c-2.033,1.233-3.247,3.418-3.247,5.845
		C106.103,102.893,107.316,105.078,109.35,106.313L109.35,106.313z M109.35,106.313"/>
	<path fill="#FFFFFF" d="M101.135,120.919c-0.427-0.567-1.097-0.903-1.808-0.903h-0.002c-0.71,0-1.378,0.333-1.806,0.9
		c-0.853,1.134-1.913,2.098-3.154,2.867c-2.59,1.56-4.903,2.535-6.945,3.396c-4.526,1.908-8.436,3.557-8.436,9.824v0.995
		c0,1.249,1.013,2.261,2.261,2.261h36.176c1.248,0,2.261-1.012,2.261-2.261v-0.995c0-6.263-3.919-7.919-8.456-9.837
		c-2.059-0.871-4.392-1.856-7.014-3.437C103.009,122.985,101.975,122.04,101.135,120.919L101.135,120.919z M115.07,135.738H83.595
		c0.344-2.09,1.769-2.785,5.583-4.393c2.077-0.875,4.66-1.965,7.534-3.697c0.007-0.004,0.014-0.01,0.022-0.014
		c0.938-0.579,1.804-1.243,2.591-1.983c0.768,0.724,1.608,1.367,2.517,1.932c0.009,0.004,0.016,0.01,0.024,0.014
		c2.904,1.749,5.508,2.85,7.599,3.734C113.295,132.951,114.726,133.648,115.07,135.738L115.07,135.738z M115.07,135.738"/>
	<path fill="#FFFFFF" d="M119.682,68.452v-4.16c0-0.822-0.446-1.58-1.165-1.977c-0.719-0.4-1.597-0.375-2.295,0.06
		c-5.069,3.168-10.908,4.843-16.889,4.843c-5.979,0-11.82-1.674-16.89-4.843c-0.698-0.435-1.576-0.458-2.294-0.06
		c-0.719,0.397-1.165,1.155-1.165,1.977v4.16c0,3.91,1.51,8.12,4.366,12.171c2.768,3.927,6.607,7.434,11.104,10.145
		c0.914,0.568,1.808,1.374,2.617,2.347v11.196c0,1.25,1.013,2.26,2.262,2.26c1.248,0,2.262-1.01,2.262-2.26V93.119
		c0.824-0.984,1.749-1.81,2.706-2.402C113.5,85.167,119.682,76.222,119.682,68.452L119.682,68.452z M101.955,86.85
		c-0.007,0.005-0.016,0.009-0.022,0.015c-0.902,0.558-1.774,1.248-2.592,2.04c-0.793-0.775-1.634-1.441-2.516-1.987
		c-0.009-0.005-0.017-0.01-0.024-0.014c-7.952-4.791-13.294-12.205-13.294-18.451v-0.334c4.92,2.378,10.321,3.621,15.827,3.621
		c5.504,0,10.906-1.243,15.826-3.621v0.334C115.159,74.6,109.729,82.166,101.955,86.85L101.955,86.85z M101.955,86.85"/>
</g>
</svg>
