<?xml version="1.0" encoding="utf-8"?>
<!-- Generator: Adobe Illustrator 16.0.0, SVG Export Plug-In . SVG Version: 6.00 Build 0)  -->
<!DOCTYPE svg PUBLIC "-//W3C//DTD SVG 1.1//EN" "http://www.w3.org/Graphics/SVG/1.1/DTD/svg11.dtd">
<svg version="1.1" id="Layer_1" xmlns="http://www.w3.org/2000/svg" xmlns:xlink="http://www.w3.org/1999/xlink" x="0px" y="0px"
	 width="200px" height="200px" viewBox="0 0 200 200" enable-background="new 0 0 200 200" xml:space="preserve">
<path fill="#16BD83" d="M70.953,14.898c5.16-8.172,15.827-14.3,27.749-14.3s22.588,6.128,27.748,14.3
	c8.979-3.579,21.209-2.267,30.854,4.741c9.646,7.007,14.672,18.234,14.043,27.879c9.367,2.382,18.491,10.633,22.176,21.971
	c3.685,11.338,1.152,23.376-5.026,30.81c6.18,7.434,8.711,19.471,5.026,30.809c-3.685,11.341-12.809,19.59-22.176,21.974
	c0.629,9.646-4.397,20.871-14.043,27.879s-21.877,8.317-30.854,4.74c-5.161,8.172-15.827,14.3-27.749,14.3
	c-11.922,0-22.588-6.128-27.749-14.301c-8.979,3.578-21.209,2.268-30.854-4.74s-14.672-18.234-14.043-27.879
	c-9.368-2.384-18.492-10.633-22.176-21.973c-3.684-11.338-1.151-23.375,5.026-30.81c-6.178-7.434-8.71-19.472-5.026-30.81
	C7.563,58.151,16.688,49.9,26.055,47.518c-0.629-9.646,4.398-20.872,14.043-27.879C49.744,12.631,61.974,11.319,70.953,14.898z"/>
<path fill="#FFFFFF" d="M-191.674,173.041c-13.373,1.408-10.655,4.711-13.705,7.293c-3.521,3.754-7.913,3.029-7.913,3.029
	l20.646,35.492l5.066-13.14l14.439,1.877L-191.674,173.041z M-231.795,183.129c-0.216,0.221-16.89,35.023-16.89,35.023
	l-8.116-12.199l-14.674,1.641l18.3-35.961c0,0,0.622,2.193,5.314,2.193C-237.07,174.061-240.54,182.914-231.795,183.129z
	 M-231.795,183.129c0.001-0.002,0.002-0.002,0.002,0H-231.795z M-196.51,171.855c-4.453,0.059-7.819,2.002-10.097,5.828
	c-2.278,3.827-5.359,4.653-9.246,2.479s-7.773-2.176-11.659,0c-3.886,2.176-6.968,1.35-9.246-2.479
	c-2.278-3.826-5.644-5.771-10.097-5.828c-4.453-0.059-6.709-2.316-6.769-6.771c-0.058-4.453-2.002-7.817-5.829-10.096
	c-3.827-2.279-4.653-5.361-2.478-9.246c2.177-3.888,2.177-7.773,0-11.659c-2.175-3.887-1.349-6.968,2.478-9.247
	c3.827-2.276,5.771-5.644,5.829-10.097c0.06-4.453,2.316-6.709,6.769-6.77c4.453-0.059,7.819-2.002,10.097-5.828
	c2.278-3.829,5.36-4.653,9.246-2.478c3.886,2.175,7.772,2.175,11.659,0c3.887-2.176,6.968-1.351,9.246,2.478
	c2.277,3.826,5.644,5.771,10.097,5.828c4.454,0.061,6.709,2.315,6.769,6.77c0.059,4.453,2.002,7.818,5.83,10.097
	c3.826,2.279,4.652,5.36,2.477,9.247c-2.176,3.886-2.176,7.771,0,11.659c2.176,3.885,1.35,6.967-2.477,9.246
	c-3.828,2.276-5.771,5.643-5.83,10.096C-189.801,169.539-192.056,171.797-196.51,171.855z M-230.412,154.314v-30.549h-4.732
	c-0.664,1.854-1.888,3.477-3.673,4.866c-1.786,1.392-3.438,2.335-4.961,2.833v5.292c2.892-0.955,5.403-2.428,7.534-4.42v21.978
	H-230.412z M-204.616,143.066v-19.301h-4.896l-13.2,19.321v5.104h12.452v6.121h5.645v-6.121h3.778v-5.127h-3.779V143.066z
	 M-210.261,143.066V132.67l-6.993,10.396H-210.261z"/>
<g>
	<path fill="#FFFFFF" d="M412.924-176.682c1.215,0,2.199-0.985,2.199-2.199c0-1.215-0.984-2.199-2.199-2.199
		s-2.199,0.984-2.199,2.199C410.725-177.667,411.709-176.682,412.924-176.682L412.924-176.682z"/>
	<path fill="#FFFFFF" d="M376.416-176.682c1.213,0,2.199-0.985,2.199-2.199c0-1.215-0.986-2.199-2.199-2.199
		s-2.199,0.984-2.199,2.199C374.217-177.667,375.203-176.682,376.416-176.682L376.416-176.682z"/>
	<path fill="#FFFFFF" d="M437.969-246.212c-0.417-0.534-1.056-0.846-1.732-0.846h-79.174l-5.013-21.305
		c-0.707-2.995-3.348-5.085-6.422-5.085h-13.196c-3.639,0-6.599,2.959-6.599,6.598c0,3.638,2.959,6.598,6.599,6.598h7.969
		l16.396,69.689c0.707,2.994,3.348,5.084,6.423,5.084h4.405c-1.384,1.841-2.206,4.125-2.206,6.6c0,6.063,4.933,10.996,10.996,10.996
		s10.996-4.936,10.996-10.996c0-2.475-0.821-4.759-2.205-6.6h18.925c-1.383,1.841-2.204,4.125-2.204,6.6
		c0,6.063,4.933,10.996,10.996,10.996s10.996-4.936,10.996-10.996c0-2.475-0.821-4.759-2.206-6.6h0.007
		c3.638,0,6.599-2.959,6.599-6.598s-2.961-6.598-6.599-6.598h-53.274l-2.07-8.797h57.628c3.03,0,5.665-2.057,6.401-4.999
		l7.965-31.854C438.534-244.982,438.386-245.679,437.969-246.212L437.969-246.212z M430.119-229.464h-14.044l1.649-13.196h15.692
		L430.119-229.464z M404.127-225.064h6.966l-1.649,13.194H397.53v-6.598c0-1.216-0.984-2.199-2.199-2.199s-2.199,0.983-2.199,2.199
		v6.598h-11.916l-1.649-13.194h6.967c1.215,0,2.199-0.984,2.199-2.2c0-1.215-0.984-2.199-2.199-2.199h-7.516l-1.649-13.197h15.763
		v6.598c0,1.214,0.984,2.199,2.199,2.199s2.199-0.985,2.199-2.199v-6.598h15.763l-1.649,13.196h-7.516
		c-1.215,0-2.199,0.984-2.199,2.199C401.928-226.05,402.912-225.064,404.127-225.064L404.127-225.064z M365.34-211.87l-3.104-13.194
		h12.897l1.649,13.194H365.34z M372.936-242.66l1.648,13.196h-13.383l-3.104-13.196H372.936z M383.014-178.881
		c0,3.637-2.959,6.598-6.598,6.598s-6.598-2.961-6.598-6.598c0-3.641,2.959-6.6,6.598-6.6
		C380.055-185.479,383.014-182.521,383.014-178.881L383.014-178.881z M419.521-178.881c0,3.637-2.961,6.598-6.599,6.598
		s-6.598-2.961-6.598-6.598c0-3.641,2.96-6.6,6.598-6.6S419.521-182.521,419.521-178.881L419.521-178.881z M421.721-194.275
		c1.213,0,2.199,0.984,2.199,2.198c0,1.212-0.986,2.199-2.199,2.199h-58.5c-1.023,0-1.904-0.697-2.141-1.695l-17.195-73.079h-11.453
		c-1.214,0-2.199-0.987-2.199-2.199c0-1.213,0.985-2.199,2.199-2.199h13.195c1.023,0,1.905,0.696,2.141,1.695l13.678,58.125
		c0,0.002,0,0.008,0,0.013l3.518,14.942H421.721z M426.139-213.538c-0.244,0.981-1.123,1.668-2.136,1.668h-10.128l1.65-13.194
		h13.496L426.139-213.538z"/>
	<path fill="#FFFFFF" d="M395.33-229.464c-1.215,0-2.199,0.984-2.199,2.199c0,1.213,0.984,2.199,2.199,2.199
		c1.214,0,2.199-0.985,2.199-2.199C397.529-228.479,396.544-229.464,395.33-229.464L395.33-229.464z"/>
</g>
<g>
	<g>
		<path fill="#FFFFFF" d="M-61.752,279.877l-33.76-33.76c-3.654-3.654-9.6-3.654-13.254,0l-52.688,52.687
			c-1.827,1.827-2.74,4.228-2.74,6.627c0,2.4,0.914,4.8,2.74,6.627l8.471,8.471l-9.301,9.302c-0.418,0.417-0.626,0.965-0.626,1.512
			s0.208,1.095,0.626,1.512c0.835,0.835,2.189,0.835,3.023,0l9.301-9.301l3.875,3.873l-21.763,21.764
			c-0.417,0.417-0.626,0.965-0.626,1.512s0.209,1.095,0.626,1.512c0.835,0.835,2.189,0.835,3.024,0l21.763-21.763l15.368,15.368
			c3.655,3.653,9.601,3.653,13.254,0l52.687-52.687c1.77-1.771,2.744-4.124,2.744-6.627
			C-59.008,284.001-59.983,281.648-61.752,279.877z M-122.62,344.04c-0.75-0.239-1.456-0.651-2.05-1.245l-33.76-33.761
			c-1.333-1.332-1.767-3.224-1.313-4.925h37.123V344.04z M-130.348,299.833l6.339-6.34c0.835-0.835,0.835-2.188,0-3.023
			c-0.834-0.835-2.188-0.835-3.023,0l-9.364,9.363h-6.229l19.329-19.329c0.834-0.835,0.835-2.188,0-3.023s-2.188-0.835-3.023,0
			l-22.353,22.353h-7.763l48.697-48.698v43.603c0,2.81-2.285,5.096-5.096,5.096H-130.348z M-64.776,290.108l-52.687,52.687
			c-0.272,0.271-0.568,0.503-0.881,0.7v-39.386h5.51c5.167,0,9.372-4.205,9.372-9.372v-5.511h24.508L-91.327,301.6
			c-0.417,0.417-0.627,0.965-0.627,1.512s0.21,1.095,0.627,1.512c0.835,0.835,2.188,0.835,3.023,0l15.396-15.394
			c0-0.001,0-0.001,0.001-0.002h8.836C-64.271,289.543-64.505,289.838-64.776,290.108z M-103.461,284.951v-37.123
			c1.702-0.454,3.594-0.02,4.925,1.313l33.761,33.761c0.585,0.583,1.008,1.285,1.251,2.05H-103.461z"/>
	</g>
</g>
<path fill="#FFFFFF" d="M111.338,46.027c-23.882,0-43.312,19.43-43.312,43.312c0,8.127,2.207,15.893,6.415,22.701l-29.235,11.57
	l8.208,7.509l-11.4,12.342l16.647,15.846l11.524-12.477l8.567,7.598l10.563-27.782c6.649,3.941,14.182,6.007,22.022,6.007
	c23.884,0,43.313-19.432,43.313-43.313C154.65,65.457,135.222,46.027,111.338,46.027z M75.964,143.077l-6.241-5.534l-11.366,12.305
	l-7.025-6.686l11.49-12.44l-5.297-4.845l29.405-11.639L75.964,143.077z M111.338,126.011c-7.025,0-13.758-1.959-19.619-5.685
	l5.263-13.838c1.543,1.21,3.486,1.934,5.596,1.934h5.198c-0.654,0.609-1.075,1.461-1.035,2.383c0.082,1.798,1.46,3.32,3.321,3.32
	c1.736,0,3.401-1.528,3.32-3.32c-0.042-0.926-0.427-1.773-1.043-2.383h8.956c-0.654,0.609-1.076,1.461-1.035,2.383
	c0.081,1.798,1.459,3.32,3.32,3.32c1.737,0,3.402-1.528,3.321-3.32c-0.041-0.926-0.427-1.773-1.043-2.383h3.188v-6.641h-26.47
	c-1.351,0-2.449-1.099-2.449-2.45s1.099-2.45,2.449-2.45h27.363l3.017-21.076l-28.361-2.522l-0.926-8.282H92.855v6.641h4.874
	l2.125,19.016c-3.687,1.161-6.367,4.609-6.367,8.674c0,1.702,0.471,3.295,1.288,4.659l-14.042,5.559
	c-3.976-5.994-6.066-12.929-6.066-20.209c0-20.221,16.45-36.671,36.671-36.671s36.671,16.45,36.671,36.671
	C148.01,109.56,131.559,126.011,111.338,126.011L111.338,126.011z M105.348,80.017L125.39,81.8l-1.208,8.441H106.49L105.348,80.017z
	"/>
</svg>
