<?xml version="1.0" encoding="utf-8"?>
<!-- Generator: Adobe Illustrator 16.0.0, SVG Export Plug-In . SVG Version: 6.00 Build 0)  -->
<!DOCTYPE svg PUBLIC "-//W3C//DTD SVG 1.1//EN" "http://www.w3.org/Graphics/SVG/1.1/DTD/svg11.dtd">
<svg version="1.1" id="Layer_1" xmlns="http://www.w3.org/2000/svg" xmlns:xlink="http://www.w3.org/1999/xlink" x="0px" y="0px"
	 width="200px" height="200px" viewBox="0 0 200 200" enable-background="new 0 0 200 200" xml:space="preserve">
<path fill="#16BD83" d="M71.953,14.898c5.16-8.172,15.827-14.3,27.749-14.3s22.588,6.128,27.748,14.3
	c8.979-3.579,21.209-2.267,30.855,4.741c9.645,7.007,14.672,18.234,14.043,27.879c9.367,2.382,18.491,10.633,22.175,21.971
	c3.685,11.338,1.153,23.376-5.026,30.81c6.18,7.434,8.711,19.471,5.026,30.809c-3.684,11.34-12.808,19.589-22.175,21.973
	c0.629,9.645-4.398,20.871-14.043,27.879c-9.646,7.008-21.877,8.318-30.855,4.74C122.289,193.872,111.623,200,99.701,200
	s-22.588-6.128-27.749-14.301c-8.979,3.578-21.209,2.268-30.854-4.74c-9.645-7.008-14.672-18.234-14.043-27.879
	c-9.368-2.384-18.492-10.633-22.176-21.973c-3.684-11.338-1.151-23.375,5.026-30.809c-6.178-7.434-8.71-19.472-5.026-30.81
	C8.563,58.151,17.688,49.9,27.055,47.518c-0.629-9.646,4.398-20.872,14.043-27.879C50.744,12.631,62.974,11.319,71.953,14.898z"/>
<path fill="#16BD83" d="M-482.047-38.102c5.16-8.172,15.827-14.3,27.749-14.3s22.588,6.128,27.748,14.3
	c8.979-3.579,21.209-2.267,30.855,4.741c9.645,7.007,14.672,18.234,14.043,27.879c9.367,2.382,18.491,10.633,22.175,21.971
	c3.685,11.338,1.153,23.376-5.026,30.81c6.18,7.434,8.711,19.471,5.026,30.809c-3.684,11.34-12.808,19.589-22.175,21.973
	c0.629,9.645-4.398,20.871-14.043,27.879c-9.646,7.008-21.877,8.318-30.855,4.74c-5.16,8.173-15.826,14.301-27.748,14.301
	s-22.588-6.128-27.749-14.301c-8.979,3.578-21.209,2.268-30.854-4.74c-9.645-7.008-14.672-18.234-14.043-27.879
	c-9.368-2.384-18.492-10.633-22.176-21.973c-3.684-11.338-1.151-23.375,5.026-30.809c-6.178-7.434-8.71-19.472-5.026-30.81
	c3.684-11.338,12.808-19.589,22.176-21.971c-0.629-9.646,4.398-20.872,14.043-27.879C-503.256-40.369-491.026-41.681-482.047-38.102
	z"/>
<g>
	<path fill="#FFFFFF" d="M-425.076,96.318c1.214,0,2.199-0.985,2.199-2.199c0-1.215-0.985-2.199-2.199-2.199
		c-1.215,0-2.199,0.984-2.199,2.199C-427.275,95.333-426.291,96.318-425.076,96.318L-425.076,96.318z M-425.076,96.318"/>
	<path fill="#FFFFFF" d="M-461.584,96.318c1.213,0,2.199-0.985,2.199-2.199c0-1.215-0.986-2.199-2.199-2.199
		s-2.199,0.984-2.199,2.199C-463.783,95.333-462.797,96.318-461.584,96.318L-461.584,96.318z M-461.584,96.318"/>
	<path fill="#FFFFFF" d="M-400.031,26.788c-0.417-0.534-1.056-0.846-1.732-0.846h-79.174l-5.013-21.305
		c-0.707-2.995-3.348-5.085-6.422-5.085h-13.196c-3.638,0-6.598,2.959-6.598,6.598c0,3.638,2.959,6.598,6.598,6.598h7.97
		l16.396,69.689c0.707,2.995,3.348,5.085,6.423,5.085h4.405c-1.384,1.84-2.206,4.125-2.206,6.599
		c0,6.062,4.933,10.996,10.996,10.996c6.063,0,10.996-4.935,10.996-10.996c0-2.474-0.821-4.759-2.205-6.599h18.925
		c-1.383,1.84-2.204,4.125-2.204,6.599c0,6.062,4.932,10.996,10.996,10.996c6.063,0,10.996-4.935,10.996-10.996
		c0-2.474-0.821-4.759-2.206-6.599h0.007c3.638,0,6.598-2.96,6.598-6.598c0-3.639-2.96-6.598-6.598-6.598h-53.274l-2.071-8.797
		h57.628c3.03,0,5.665-2.056,6.402-4.999l7.964-31.854C-399.466,28.018-399.614,27.321-400.031,26.788L-400.031,26.788z
		 M-407.881,43.536h-14.044l1.649-13.196h15.693L-407.881,43.536z M-433.873,47.935h6.966l-1.649,13.195h-11.914v-6.598
		c0-1.215-0.984-2.199-2.199-2.199s-2.199,0.984-2.199,2.199v6.598h-11.915l-1.649-13.195h6.966c1.215,0,2.199-0.984,2.199-2.199
		s-0.984-2.199-2.199-2.199h-7.516l-1.649-13.196h15.763v6.598c0,1.214,0.984,2.199,2.199,2.199s2.199-0.985,2.199-2.199V30.34
		h15.763l-1.649,13.196h-7.516c-1.215,0-2.199,0.984-2.199,2.199S-435.088,47.935-433.873,47.935L-433.873,47.935z M-472.66,61.13
		l-3.104-13.195h12.898l1.649,13.195H-472.66z M-465.065,30.34l1.649,13.196h-13.384l-3.103-13.196H-465.065z M-454.986,94.119
		c0,3.637-2.959,6.598-6.598,6.598c-3.638,0-6.598-2.961-6.598-6.598c0-3.64,2.959-6.599,6.598-6.599
		C-457.945,87.521-454.986,90.479-454.986,94.119L-454.986,94.119z M-418.479,94.119c0,3.637-2.96,6.598-6.598,6.598
		s-6.598-2.961-6.598-6.598c0-3.64,2.96-6.599,6.598-6.599S-418.479,90.479-418.479,94.119L-418.479,94.119z M-416.279,78.724
		c1.212,0,2.199,0.985,2.199,2.199c0,1.212-0.987,2.199-2.199,2.199h-58.5c-1.024,0-1.905-0.697-2.141-1.695l-17.195-73.079h-11.454
		c-1.213,0-2.199-0.987-2.199-2.199c0-1.213,0.986-2.199,2.199-2.199h13.196c1.024,0,1.905,0.696,2.141,1.695l13.677,58.125
		c0,0.002,0.001,0.007,0.001,0.012l3.517,14.942H-416.279z M-411.861,59.462c-0.245,0.981-1.124,1.668-2.136,1.668h-10.128
		l1.65-13.195h13.496L-411.861,59.462z M-411.861,59.462"/>
	<path fill="#FFFFFF" d="M-442.67,43.536c-1.215,0-2.199,0.984-2.199,2.199c0,1.213,0.984,2.199,2.199,2.199
		c1.214,0,2.199-0.986,2.199-2.199C-440.471,44.521-441.456,43.536-442.67,43.536L-442.67,43.536z M-442.67,43.536"/>
</g>
<path fill="#16BD83" d="M-253.064-180.917c5.16-8.172,15.827-14.3,27.749-14.3s22.588,6.128,27.748,14.3
	c8.979-3.579,21.209-2.267,30.855,4.741c9.645,7.007,14.672,18.234,14.043,27.879c9.367,2.382,18.491,10.633,22.175,21.971
	c3.685,11.338,1.153,23.376-5.026,30.81c6.18,7.434,8.711,19.471,5.026,30.809c-3.684,11.34-12.808,19.589-22.175,21.973
	c0.629,9.645-4.398,20.871-14.043,27.879c-9.646,7.008-21.877,8.318-30.855,4.74c-5.16,8.173-15.826,14.301-27.748,14.301
	s-22.588-6.128-27.749-14.301c-8.979,3.578-21.209,2.268-30.854-4.74c-9.645-7.008-14.672-18.234-14.043-27.879
	c-9.368-2.384-18.492-10.633-22.176-21.973c-3.684-11.338-1.151-23.375,5.026-30.809c-6.178-7.434-8.71-19.472-5.026-30.81
	c3.684-11.338,12.808-19.589,22.176-21.971c-0.629-9.646,4.398-20.872,14.043-27.879
	C-274.273-183.184-262.042-184.496-253.064-180.917z"/>
<g>
	<path fill="#FFFFFF" d="M-225.684-80.201c1.248,0,2.262-1.012,2.262-2.261c0-1.247-1.014-2.26-2.262-2.26
		c-1.249,0-2.262,1.013-2.262,2.26C-227.945-81.212-226.933-80.201-225.684-80.201L-225.684-80.201z M-225.684-80.201"/>
	<path fill="#FFFFFF" d="M-213.32-97.33c5.246-3.187,9.589-7.673,12.561-12.975c2.923-5.218,4.469-11.121,4.469-17.072v-12.675
		c2.632-0.934,4.521-3.446,4.521-6.394v-4.522c0-1.249-1.013-2.261-2.261-2.261h-63.307c-1.249,0-2.261,1.013-2.261,2.261v4.522
		c0,2.948,1.89,5.46,4.522,6.394v12.675c0,5.952,1.546,11.854,4.469,17.072c2.971,5.301,7.314,9.789,12.561,12.975
		c0.671,0.407,1.072,1.148,1.072,1.981c0,0.834-0.401,1.573-1.072,1.981c-5.247,3.187-9.589,7.673-12.561,12.976
		c-2.923,5.217-4.469,11.12-4.469,17.071v12.676c-2.632,0.934-4.522,3.446-4.522,6.395v4.521c0,1.248,1.013,2.262,2.261,2.262
		h63.307c1.248,0,2.261-1.014,2.261-2.262v-4.521c0-2.948-1.89-5.461-4.521-6.395V-63.32c0-5.951-1.546-11.854-4.469-17.071
		c-2.972-5.303-7.314-9.789-12.562-12.976c-0.67-0.408-1.07-1.148-1.07-1.981S-213.991-96.922-213.32-97.33L-213.32-97.33z
		 M-255.076-148.707h58.785v2.261c0,1.247-1.015,2.261-2.261,2.261h-54.263c-1.248,0-2.261-1.014-2.261-2.261V-148.707z
		 M-196.291-41.989h-58.785v-2.261c0-1.247,1.014-2.261,2.261-2.261h54.263c1.246,0,2.261,1.014,2.261,2.261V-41.989z
		 M-215.667-89.502c9.3,5.65,14.854,15.439,14.854,26.183v12.287h-49.741V-63.32c0-10.743,5.553-20.532,14.854-26.183
		c2.034-1.234,3.247-3.42,3.247-5.846c0-2.427-1.213-4.612-3.247-5.845c-9.301-5.651-14.854-15.439-14.854-26.183v-12.286h49.741
		v12.286c0,10.744-5.554,20.532-14.854,26.183c-2.033,1.233-3.247,3.418-3.247,5.845C-218.914-92.922-217.7-90.737-215.667-89.502
		L-215.667-89.502z M-215.667-89.502"/>
	<path fill="#FFFFFF" d="M-223.882-74.896c-0.427-0.567-1.097-0.903-1.808-0.903h-0.002c-0.71,0-1.378,0.333-1.806,0.9
		c-0.853,1.134-1.913,2.098-3.154,2.867c-2.59,1.56-4.903,2.535-6.945,3.396c-4.526,1.908-8.436,3.557-8.436,9.824v0.995
		c0,1.249,1.013,2.261,2.261,2.261h36.176c1.248,0,2.261-1.012,2.261-2.261v-0.995c0-6.263-3.919-7.919-8.456-9.837
		c-2.059-0.871-4.392-1.856-7.014-3.437C-222.008-72.83-223.042-73.775-223.882-74.896L-223.882-74.896z M-209.946-60.077h-31.476
		c0.344-2.09,1.769-2.785,5.583-4.393c2.077-0.875,4.66-1.965,7.534-3.697c0.007-0.004,0.014-0.01,0.022-0.014
		c0.938-0.579,1.804-1.243,2.591-1.983c0.768,0.724,1.608,1.367,2.517,1.932c0.009,0.004,0.016,0.01,0.024,0.014
		c2.904,1.749,5.508,2.85,7.599,3.734C-211.722-62.864-210.291-62.167-209.946-60.077L-209.946-60.077z M-209.946-60.077"/>
	<path fill="#FFFFFF" d="M-205.335-127.363v-4.16c0-0.822-0.446-1.58-1.165-1.977c-0.719-0.4-1.597-0.375-2.295,0.06
		c-5.069,3.168-10.908,4.843-16.889,4.843c-5.979,0-11.82-1.674-16.89-4.843c-0.698-0.435-1.576-0.458-2.294-0.06
		c-0.719,0.397-1.165,1.155-1.165,1.977v4.16c0,3.91,1.51,8.12,4.366,12.171c2.768,3.927,6.607,7.434,11.104,10.145
		c0.914,0.568,1.808,1.374,2.617,2.347v11.196c0,1.25,1.013,2.26,2.262,2.26c1.248,0,2.262-1.01,2.262-2.26v-11.191
		c0.824-0.984,1.749-1.81,2.706-2.402C-211.517-110.647-205.335-119.593-205.335-127.363L-205.335-127.363z M-223.062-108.965
		c-0.007,0.005-0.016,0.009-0.022,0.015c-0.902,0.558-1.774,1.248-2.592,2.04c-0.793-0.775-1.634-1.441-2.516-1.987
		c-0.009-0.005-0.017-0.01-0.024-0.014c-7.952-4.791-13.294-12.205-13.294-18.451v-0.334c4.92,2.378,10.321,3.621,15.827,3.621
		c5.504,0,10.906-1.243,15.826-3.621v0.334C-209.857-121.215-215.288-113.649-223.062-108.965L-223.062-108.965z M-223.062-108.965"
		/>
</g>
<path fill="#FFFFFF" d="M79.046,73.836c1.238,0,2.242-1.004,2.242-2.242c0-1.237-1.004-2.242-2.242-2.242
	c-1.238,0-2.242,1.005-2.242,2.242C76.804,72.833,77.808,73.836,79.046,73.836L79.046,73.836z M79.046,73.836"/>
<path fill="#FFFFFF" d="M61.107,82.806c-1.237,0-2.242-1.005-2.242-2.242c0-1.236,1.005-2.243,2.242-2.243
	c0.794,0,1.632,0.407,2.425,1.173c0.89,0.86,2.31,0.836,3.171-0.053c0.86-0.89,0.837-2.309-0.053-3.17
	c-1.137-1.102-2.276-1.725-3.301-2.064v-2.613c0-1.238-1.004-2.242-2.242-2.242s-2.242,1.004-2.242,2.242v2.628
	c-2.61,0.927-4.485,3.419-4.485,6.342c0,3.709,3.017,6.727,6.727,6.727c1.236,0,2.242,1.007,2.242,2.242
	c0,1.237-1.006,2.242-2.242,2.242c-0.958,0-1.993-0.602-2.913-1.695c-0.796-0.948-2.211-1.071-3.158-0.274
	c-0.948,0.797-1.071,2.212-0.274,3.16c1.199,1.425,2.608,2.42,4.103,2.92v2.617c0,1.238,1.004,2.242,2.242,2.242
	s2.242-1.004,2.242-2.242v-2.628c2.609-0.925,4.485-3.418,4.485-6.342C67.834,85.824,64.817,82.806,61.107,82.806L61.107,82.806z
	 M61.107,82.806"/>
<path fill="#FFFFFF" d="M91.604,132.137c-4.946,0-8.969,4.024-8.969,8.97s4.023,8.971,8.969,8.971c4.944,0,8.969-4.025,8.969-8.971
	S96.548,132.137,91.604,132.137L91.604,132.137z M91.604,145.591c-2.474,0-4.485-2.011-4.485-4.484c0-2.472,2.011-4.484,4.485-4.484
	c2.472,0,4.485,2.013,4.485,4.484C96.088,143.58,94.076,145.591,91.604,145.591L91.604,145.591z M91.604,145.591"/>
<path fill="#FFFFFF" d="M136.45,150.077c4.943,0,8.969-4.025,8.969-8.971s-4.025-8.97-8.969-8.97c-4.946,0-8.97,4.024-8.97,8.97
	S131.504,150.077,136.45,150.077L136.45,150.077z M136.45,136.622c2.472,0,4.484,2.013,4.484,4.484c0,2.474-2.013,4.484-4.484,4.484
	c-2.474,0-4.485-2.011-4.485-4.484C131.965,138.635,133.977,136.622,136.45,136.622L136.45,136.622z M136.45,136.622"/>
<path fill="#FFFFFF" d="M147.662,55.898H46.308c-3.709,0-6.727,3.018-6.727,6.727v44.846c0,3.711,3.018,6.728,6.727,6.728h55.198
	l-4.287,6.125c-1.276,1.82-3.254,2.896-5.284,2.849c-9.148-0.148-16.373,6.327-17.927,14.382c-1.149,5.945,0.687,12.016,4.91,16.239
	c4.235,4.233,10.312,6.055,16.24,4.91c6.953-1.344,12.579-6.901,13.997-13.827c0.457-2.23,0.51-4.467,0.155-6.648
	c-0.232-1.445-0.248-3.545,1.004-5.335l3.713-5.299l3.709,5.299c1.254,1.79,1.238,3.89,1.004,5.334
	c-0.352,2.183-0.299,4.419,0.157,6.649c1.418,6.926,7.042,12.483,13.996,13.827c1.167,0.223,2.339,0.334,3.5,0.334
	c4.757,0,9.346-1.852,12.739-5.244c4.223-4.222,6.059-10.294,4.912-16.239c-1.558-8.062-8.805-14.547-17.933-14.382
	c-2.021,0.035-4.003-1.028-5.279-2.851l-4.289-6.123h21.118c3.709,0,6.726-3.019,6.726-6.728V62.625
	C154.388,58.916,151.371,55.898,147.662,55.898L147.662,55.898z M106.642,130.32c-1.65,2.358-2.276,5.421-1.759,8.623
	c0.267,1.644,0.226,3.337-0.121,5.032c-1.043,5.091-5.341,9.336-10.454,10.323c-4.549,0.878-9.002-0.462-12.219-3.679
	c-3.215-3.216-4.556-7.668-3.677-12.218c1.134-5.874,6.536-10.861,13.443-10.748c3.53,0.067,6.907-1.714,9.038-4.76
	c3.013-4.301,23.418-33.443,26.051-37.204c3.62,3.819,4.135,9.745,1.046,14.145C126.416,102.084,106.642,130.32,106.642,130.32
	L106.642,130.32z M136.005,127.656c7.58,0,12.559,5.166,13.636,10.746c0.877,4.55-0.464,9.004-3.68,12.219
	c-3.216,3.216-7.667,4.556-12.216,3.678c-5.112-0.987-9.413-5.232-10.455-10.322c-0.346-1.696-0.388-3.39-0.122-5.033
	c0.518-3.202-0.106-6.265-1.757-8.623l-4.647-6.637l5.475-7.817l4.92,7.027C129.254,125.886,132.549,127.656,136.005,127.656
	L136.005,127.656z M149.903,107.471c0,1.238-1.006,2.243-2.241,2.243h-21.115l5.113-7.304c0.377-0.535,0.713-1.093,1.018-1.666
	h6.015c1.238,0,2.242-1.004,2.242-2.242c0-1.238-1.004-2.242-2.242-2.242h-4.45c0.714-3.886-0.079-7.9-2.155-11.212h6.605
	c1.238,0,2.242-1.004,2.242-2.242s-1.004-2.242-2.242-2.242h-10.858c-0.007-0.006-0.016-0.012-0.024-0.018
	c-0.486-0.341-1.09-0.476-1.676-0.373c-0.586,0.104-1.107,0.435-1.447,0.923l-20.04,28.617H46.308c-1.237,0-2.242-1.005-2.242-2.243
	V62.625c0-1.236,1.005-2.242,2.242-2.242h63.234v2.242c0,1.238,1.003,2.243,2.242,2.243s2.243-1.004,2.243-2.243v-2.242h33.635
	c1.235,0,2.241,1.006,2.241,2.242V107.471z M149.903,107.471"/>
<rect x="39.581" y="55.786" fill="none" width="114.919" height="103.708"/>
<path fill="#FFFFFF" d="M111.784,69.352c-1.239,0-2.242,1.004-2.242,2.242v4.484c0,1.239,1.003,2.242,2.242,2.242
	s2.243-1.003,2.243-2.242v-4.484C114.027,70.356,113.023,69.352,111.784,69.352L111.784,69.352z M111.784,69.352"/>
<path fill="#FFFFFF" d="M111.784,82.806c-1.239,0-2.242,1.004-2.242,2.242v4.484c0,1.238,1.003,2.242,2.242,2.242
	s2.243-1.004,2.243-2.242v-4.484C114.027,83.81,113.023,82.806,111.784,82.806L111.784,82.806z M111.784,82.806"/>
<path fill="#FFFFFF" d="M98.331,96.26H79.046c-1.238,0-2.242,1.004-2.242,2.242c0,1.238,1.004,2.242,2.242,2.242h19.285
	c1.238,0,2.242-1.004,2.242-2.242C100.572,97.264,99.568,96.26,98.331,96.26L98.331,96.26z M98.331,96.26"/>
<path fill="#FFFFFF" d="M98.331,82.806H79.046c-1.238,0-2.242,1.004-2.242,2.242s1.004,2.242,2.242,2.242h19.285
	c1.238,0,2.242-1.004,2.242-2.242S99.568,82.806,98.331,82.806L98.331,82.806z M98.331,82.806"/>
<path fill="#FFFFFF" d="M138.692,69.352h-13.455c-1.239,0-2.241,1.004-2.241,2.242s1.002,2.242,2.241,2.242h13.455
	c1.238,0,2.242-1.004,2.242-2.242S139.931,69.352,138.692,69.352L138.692,69.352z M138.692,69.352"/>
<path fill="#FFFFFF" d="M98.331,69.352H88.016c-1.238,0-2.243,1.004-2.243,2.242s1.004,2.242,2.243,2.242h10.315
	c1.238,0,2.242-1.004,2.242-2.242S99.568,69.352,98.331,69.352L98.331,69.352z M98.331,69.352"/>
</svg>
