<?xml version="1.0" encoding="utf-8"?>
<!-- Generator: Adobe Illustrator 16.0.0, SVG Export Plug-In . SVG Version: 6.00 Build 0)  -->
<!DOCTYPE svg PUBLIC "-//W3C//DTD SVG 1.1//EN" "http://www.w3.org/Graphics/SVG/1.1/DTD/svg11.dtd">
<svg version="1.1" id="Layer_1" xmlns="http://www.w3.org/2000/svg" xmlns:xlink="http://www.w3.org/1999/xlink" x="0px" y="0px"
	 width="200px" height="200px" viewBox="0 0 200 200" enable-background="new 0 0 200 200" xml:space="preserve">
<path fill="#16BD83" d="M70.953,14.898c5.16-8.172,15.827-14.3,27.749-14.3s22.588,6.128,27.748,14.3
	c8.979-3.579,21.209-2.267,30.854,4.741c9.646,7.007,14.672,18.234,14.043,27.879c9.366,2.382,18.49,10.633,22.176,21.971
	c3.685,11.338,1.151,23.376-5.026,30.81c6.18,7.434,8.711,19.471,5.026,30.809c-3.686,11.342-12.81,19.591-22.176,21.975
	c0.629,9.646-4.397,20.871-14.043,27.879c-9.646,7.008-21.878,8.316-30.854,4.74c-5.161,8.172-15.827,14.3-27.749,14.3
	c-11.922,0-22.588-6.128-27.749-14.301c-8.979,3.578-21.209,2.268-30.854-4.74s-14.672-18.233-14.043-27.879
	c-9.368-2.384-18.492-10.633-22.176-21.974c-3.684-11.338-1.151-23.375,5.026-30.81c-6.178-7.434-8.71-19.472-5.026-30.81
	C7.563,58.151,16.688,49.9,26.055,47.518c-0.629-9.646,4.398-20.872,14.043-27.879C49.744,12.631,61.974,11.319,70.953,14.898z"/>
<path fill="#FFFFFF" d="M-191.674,173.041c-13.373,1.408-10.655,4.711-13.705,7.293c-3.521,3.754-7.913,3.029-7.913,3.029
	l20.646,35.492l5.066-13.141l14.439,1.877L-191.674,173.041z M-231.795,183.129c-0.216,0.221-16.89,35.023-16.89,35.023
	l-8.116-12.199l-14.674,1.641l18.3-35.961c0,0,0.622,2.193,5.314,2.193C-237.07,174.061-240.54,182.914-231.795,183.129z
	 M-231.795,183.129c0.001-0.002,0.002-0.002,0.002,0H-231.795z M-196.51,171.855c-4.453,0.059-7.819,2.002-10.097,5.828
	s-5.359,4.652-9.246,2.479s-7.773-2.176-11.659,0c-3.886,2.176-6.968,1.35-9.246-2.479c-2.278-3.826-5.644-5.771-10.097-5.828
	c-4.453-0.06-6.709-2.316-6.769-6.771c-0.058-4.453-2.002-7.816-5.829-10.096s-4.653-5.361-2.478-9.246
	c2.177-3.889,2.177-7.773,0-11.659c-2.175-3.887-1.349-6.968,2.478-9.247c3.827-2.275,5.771-5.645,5.829-10.097
	c0.06-4.453,2.316-6.709,6.769-6.771c4.453-0.059,7.819-2.002,10.097-5.828c2.278-3.829,5.36-4.652,9.246-2.478
	c3.886,2.175,7.772,2.175,11.659,0c3.887-2.176,6.968-1.351,9.246,2.478c2.277,3.826,5.644,5.771,10.097,5.828
	c4.454,0.062,6.709,2.315,6.769,6.771c0.059,4.452,2.002,7.817,5.83,10.097c3.826,2.279,4.652,5.36,2.477,9.247
	c-2.176,3.886-2.176,7.771,0,11.659c2.176,3.885,1.35,6.967-2.477,9.246c-3.828,2.275-5.771,5.643-5.83,10.096
	C-189.801,169.539-192.056,171.797-196.51,171.855z M-230.412,154.314v-30.549h-4.732c-0.664,1.854-1.888,3.477-3.673,4.865
	c-1.786,1.393-3.438,2.335-4.961,2.833v5.292c2.892-0.955,5.403-2.428,7.534-4.42v21.979H-230.412z M-204.616,143.066v-19.301
	h-4.896l-13.2,19.32v5.104h12.452v6.121h5.645v-6.121h3.778v-5.127h-3.779V143.066z M-210.261,143.066V132.67l-6.993,10.396
	H-210.261z"/>
<g>
	<path fill="#FFFFFF" d="M412.924-176.682c1.215,0,2.199-0.985,2.199-2.199c0-1.215-0.984-2.199-2.199-2.199
		s-2.199,0.984-2.199,2.199C410.725-177.667,411.709-176.682,412.924-176.682L412.924-176.682z"/>
	<path fill="#FFFFFF" d="M376.416-176.682c1.213,0,2.199-0.985,2.199-2.199c0-1.215-0.986-2.199-2.199-2.199
		s-2.199,0.984-2.199,2.199C374.217-177.667,375.203-176.682,376.416-176.682L376.416-176.682z"/>
	<path fill="#FFFFFF" d="M437.969-246.212c-0.417-0.534-1.056-0.846-1.731-0.846h-79.175l-5.013-21.305
		c-0.707-2.995-3.348-5.085-6.422-5.085h-13.196c-3.639,0-6.599,2.959-6.599,6.598c0,3.638,2.959,6.598,6.599,6.598h7.97
		l16.396,69.689c0.707,2.994,3.348,5.084,6.423,5.084h4.405c-1.384,1.841-2.206,4.125-2.206,6.6c0,6.063,4.933,10.996,10.996,10.996
		s10.996-4.936,10.996-10.996c0-2.475-0.821-4.759-2.205-6.6h18.925c-1.383,1.841-2.204,4.125-2.204,6.6
		c0,6.063,4.934,10.996,10.996,10.996c6.063,0,10.996-4.936,10.996-10.996c0-2.475-0.821-4.759-2.206-6.6h0.007
		c3.638,0,6.6-2.959,6.6-6.598c0-3.639-2.962-6.598-6.6-6.598h-53.273l-2.07-8.797h57.628c3.03,0,5.665-2.057,6.401-4.999
		l7.965-31.854C438.534-244.982,438.386-245.679,437.969-246.212L437.969-246.212z M430.119-229.464h-14.044l1.648-13.196h15.692
		L430.119-229.464z M404.127-225.064h6.966l-1.648,13.194H397.53v-6.598c0-1.216-0.984-2.199-2.199-2.199s-2.199,0.983-2.199,2.199
		v6.598h-11.916l-1.648-13.194h6.967c1.215,0,2.199-0.984,2.199-2.2c0-1.215-0.984-2.199-2.199-2.199h-7.517l-1.648-13.197h15.763
		v6.598c0,1.214,0.984,2.199,2.199,2.199s2.199-0.985,2.199-2.199v-6.598h15.763l-1.648,13.196h-7.517
		c-1.215,0-2.199,0.984-2.199,2.199C401.928-226.05,402.912-225.064,404.127-225.064L404.127-225.064z M365.34-211.87l-3.104-13.194
		h12.896l1.649,13.194H365.34z M372.936-242.66l1.648,13.196h-13.383l-3.104-13.196H372.936z M383.014-178.881
		c0,3.637-2.959,6.598-6.598,6.598s-6.598-2.961-6.598-6.598c0-3.641,2.959-6.6,6.598-6.6
		C380.055-185.479,383.014-182.521,383.014-178.881L383.014-178.881z M419.521-178.881c0,3.637-2.961,6.598-6.6,6.598
		c-3.638,0-6.598-2.961-6.598-6.598c0-3.641,2.96-6.6,6.598-6.6C416.561-185.481,419.521-182.521,419.521-178.881L419.521-178.881z
		 M421.721-194.275c1.213,0,2.199,0.984,2.199,2.198c0,1.212-0.986,2.199-2.199,2.199h-58.5c-1.022,0-1.903-0.697-2.141-1.695
		l-17.195-73.079h-11.453c-1.214,0-2.198-0.987-2.198-2.199c0-1.213,0.984-2.199,2.198-2.199h13.195
		c1.023,0,1.905,0.696,2.141,1.695l13.679,58.125c0,0.002,0,0.008,0,0.013l3.518,14.942H421.721z M426.139-213.538
		c-0.244,0.981-1.123,1.668-2.136,1.668h-10.128l1.65-13.194h13.496L426.139-213.538z"/>
	<path fill="#FFFFFF" d="M395.33-229.464c-1.215,0-2.199,0.984-2.199,2.199c0,1.213,0.984,2.199,2.199,2.199
		c1.214,0,2.199-0.985,2.199-2.199C397.529-228.479,396.544-229.464,395.33-229.464L395.33-229.464z"/>
</g>
<g>
	<g>
		<path fill="#FFFFFF" d="M-61.752,279.877l-33.76-33.76c-3.654-3.654-9.6-3.654-13.254,0l-52.688,52.687
			c-1.827,1.827-2.74,4.229-2.74,6.628s0.914,4.799,2.74,6.627l8.471,8.471l-9.301,9.302c-0.418,0.417-0.626,0.965-0.626,1.512
			c0,0.548,0.208,1.095,0.626,1.513c0.835,0.834,2.189,0.834,3.023,0l9.301-9.301l3.875,3.872l-21.763,21.765
			c-0.417,0.416-0.626,0.965-0.626,1.512s0.209,1.095,0.626,1.512c0.835,0.835,2.189,0.835,3.024,0l21.763-21.763l15.368,15.368
			c3.655,3.652,9.601,3.652,13.254,0l52.687-52.688c1.77-1.771,2.744-4.124,2.744-6.627
			C-59.008,284.001-59.983,281.648-61.752,279.877z M-122.62,344.04c-0.75-0.239-1.456-0.651-2.05-1.245l-33.76-33.761
			c-1.333-1.332-1.767-3.224-1.313-4.925h37.123V344.04z M-130.348,299.833l6.339-6.34c0.835-0.835,0.835-2.188,0-3.023
			c-0.834-0.835-2.188-0.835-3.023,0l-9.364,9.363h-6.229l19.329-19.329c0.834-0.835,0.835-2.188,0-3.023
			c-0.835-0.834-2.188-0.834-3.023,0l-22.353,22.354h-7.763l48.697-48.698v43.604c0,2.81-2.285,5.096-5.096,5.096h-17.514V299.833z
			 M-64.776,290.107l-52.687,52.688c-0.272,0.271-0.568,0.503-0.881,0.7v-39.386h5.51c5.167,0,9.372-4.205,9.372-9.372v-5.511
			h24.508L-91.327,301.6c-0.417,0.418-0.627,0.965-0.627,1.513c0,0.547,0.21,1.095,0.627,1.512c0.835,0.835,2.188,0.835,3.023,0
			l15.396-15.394c0-0.002,0-0.002,0.001-0.002h8.836C-64.271,289.543-64.505,289.838-64.776,290.107z M-103.461,284.951v-37.123
			c1.702-0.454,3.594-0.02,4.925,1.313l33.761,33.762c0.585,0.582,1.008,1.285,1.251,2.05L-103.461,284.951L-103.461,284.951z"/>
	</g>
</g>
<path fill="#FFFFFF" d="M387.338,205.359c-23.883,0-43.313,19.431-43.313,43.313c0,8.128,2.207,15.895,6.416,22.701l-29.235,11.57
	l8.208,7.509l-11.4,12.342l16.646,15.847l11.523-12.478l8.567,7.598l10.563-27.782c6.648,3.941,14.183,6.008,22.021,6.008
	c23.883,0,43.313-19.433,43.313-43.313S411.221,205.359,387.338,205.359z M351.963,302.41l-6.24-5.534l-11.367,12.306l-7.023-6.687
	l11.489-12.44l-5.297-4.845l29.404-11.639L351.963,302.41z M387.338,285.344c-7.025,0-13.758-1.959-19.619-5.685l5.262-13.838
	c1.545,1.21,3.486,1.934,5.597,1.934h5.199c-0.654,0.609-1.076,1.461-1.035,2.383c0.082,1.798,1.459,3.32,3.319,3.32
	c1.736,0,3.402-1.528,3.32-3.32c-0.041-0.926-0.426-1.772-1.043-2.383h8.957c-0.654,0.609-1.076,1.461-1.035,2.383
	c0.08,1.798,1.459,3.32,3.32,3.32c1.736,0,3.402-1.528,3.32-3.32c-0.041-0.926-0.426-1.772-1.043-2.383h3.188v-6.641h-26.471
	c-1.351,0-2.449-1.099-2.449-2.45s1.101-2.449,2.449-2.449h27.362l3.019-21.076l-28.361-2.521l-0.926-8.282h-10.813v6.642h4.873
	l2.125,19.016c-3.687,1.16-6.367,4.609-6.367,8.674c0,1.702,0.471,3.296,1.289,4.659l-14.042,5.559
	c-3.977-5.993-6.065-12.929-6.065-20.21c0-20.221,16.449-36.671,36.67-36.671s36.672,16.45,36.672,36.671
	S407.559,285.344,387.338,285.344L387.338,285.344z M381.348,239.35l20.041,1.783l-1.207,8.441H382.49L381.348,239.35z"/>
<path fill="#FFFFFF" d="M464.234,61.453c-1.656-1.892-4.018-2.934-6.646-2.934h-19.854V47.12c0-1.445-1.172-2.617-2.617-2.617
	h-14.016c-1.446,0-2.617,1.172-2.617,2.617v11.399h-24.482l-0.641-4.799c-0.689-5.169-4.288-9.218-8.193-9.218h-4.672
	c-1.445,0-2.617,1.172-2.617,2.617c0,1.445,1.172,2.617,2.617,2.617h4.672c0.84,0,2.618,1.775,3.005,4.676l7.491,56.189
	c0.33,2.477,1.604,4.795,3.584,6.528c1.469,1.287,3.204,2.144,5.021,2.5c-0.74,1.361-1.16,2.924-1.16,4.58
	c0,5.31,4.316,9.625,9.625,9.625c5.307,0,9.625-4.315,9.625-9.625c0-1.582-0.386-3.074-1.064-4.392h13.715
	c-0.679,1.316-1.063,2.81-1.063,4.392c0,5.31,4.316,9.625,9.625,9.625c5.308,0,9.626-4.315,9.626-9.625
	c0-1.582-0.387-3.074-1.064-4.392h6.857c1.443,0,2.617-1.172,2.617-2.616c0-1.445-1.174-2.617-2.617-2.617h-52.796
	c-2.559,0-5.003-2.144-5.341-4.676l-0.549-4.107h51.677c2.499,0,4.966-0.954,6.945-2.688c1.979-1.734,3.252-4.053,3.583-6.531
	l3.754-28.155C466.611,65.823,465.891,63.344,464.234,61.453z M417.125,124.211c0,2.422-1.969,4.391-4.391,4.391
	s-4.392-1.969-4.392-4.391s1.97-4.391,4.392-4.391S417.125,121.789,417.125,124.211z M447.962,124.211
	c0,2.422-1.97,4.391-4.392,4.391c-2.42,0-4.392-1.969-4.392-4.391s1.972-4.391,4.392-4.391
	C445.992,119.82,447.962,121.789,447.962,124.211z M423.719,49.737h8.781v11.369c0,0.011-0.001,0.02-0.001,0.03
	c0,0.01,0.001,0.021,0.001,0.03v13.986c0,1.445,1.172,2.617,2.617,2.617h0.923l-7.774,7.713l-7.773-7.713h0.609
	c1.445,0,2.617-1.172,2.617-2.617V49.737z M461.075,67.737l-3.754,28.156c-0.338,2.534-2.783,4.675-5.341,4.675h-52.373
	l-4.908-36.815h23.785v8.782h-4.349c-1.061,0-2.017,0.64-2.42,1.62c-0.403,0.979-0.177,2.108,0.576,2.854l14.13,14.016
	c0.51,0.507,1.177,0.76,1.843,0.76s1.333-0.253,1.843-0.76l14.131-14.016c0.753-0.747,0.979-1.875,0.576-2.854
	c-0.403-0.98-1.358-1.62-2.42-1.62h-4.66v-8.782h19.854c1.1,0,2.061,0.407,2.708,1.146C460.943,65.64,461.22,66.648,461.075,67.737z
	"/>
<g>
	<path fill="#FFFFFF" d="M174.62-108.049c-8.134-9.929-17.617-17.626-28.188-22.888c-10.181-5.066-20.936-7.668-31.972-7.738
		c-0.153-0.002-0.308-0.002-0.46-0.002s-0.307,0-0.46,0.002c-11.037,0.07-21.792,2.672-31.973,7.738
		c-10.57,5.262-20.053,12.959-28.187,22.885c-0.475,0.469-0.717,1.091-0.714,1.719c-0.003,0.628,0.239,1.25,0.714,1.719
		c8.134,9.927,17.617,17.623,28.187,22.886c10.181,5.065,20.936,7.668,31.973,7.737c0.153,0.002,0.308,0.002,0.46,0.002
		s0.307,0,0.46-0.002c11.037-0.069,21.792-2.672,31.972-7.737c10.604-5.275,20.113-13.009,28.264-22.981
		c0.402-0.437,0.639-1.017,0.639-1.632C175.334-106.999,175.068-107.607,174.62-108.049z M83.702-86.02
		c-9.487-4.723-18.064-11.551-25.513-20.313c7.449-8.764,16.026-15.592,25.513-20.314c2.793-1.39,5.633-2.58,8.51-3.572
		c-6.483,5.921-10.556,14.438-10.556,23.887s4.073,17.966,10.556,23.887C89.335-83.438,86.495-84.629,83.702-86.02z M114-78.78
		c-15.192,0-27.552-12.36-27.552-27.553c0-15.193,12.36-27.553,27.552-27.553c15.191,0,27.553,12.36,27.553,27.553
		C141.553-91.141,129.191-78.78,114-78.78z M144.299-86.02c-2.794,1.391-5.634,2.58-8.511,3.572
		c6.483-5.921,10.556-14.438,10.556-23.887s-4.072-17.966-10.556-23.887c2.877,0.992,5.717,2.183,8.511,3.572
		c9.486,4.723,18.063,11.551,25.514,20.314C162.361-97.568,153.785-90.741,144.299-86.02z"/>
	<path fill="#FFFFFF" d="M114-93.155c-7.266,0-13.177-5.911-13.177-13.178c0-7.266,5.911-13.178,13.177-13.178
		s13.178,5.912,13.178,13.178C127.178-99.066,121.266-93.155,114-93.155z M114-114.719c-4.624,0-8.386,3.762-8.386,8.386
		s3.762,8.386,8.386,8.386s8.386-3.762,8.386-8.386S118.624-114.719,114-114.719z"/>
	<path fill="#FFFFFF" d="M114-54.833c-1.323,0-2.396-1.072-2.396-2.396v-9.584c0-1.321,1.073-2.396,2.396-2.396
		s2.396,1.073,2.396,2.396v9.584C116.396-55.905,115.323-54.833,114-54.833z"/>
	<path fill="#FFFFFF" d="M131.764-57.641c-0.613,0-1.227-0.233-1.693-0.701l-6.776-6.775c-0.937-0.937-0.937-2.453,0-3.39
		c0.937-0.935,2.452-0.937,3.39,0l6.775,6.776c0.936,0.937,0.936,2.453,0,3.389C132.99-57.874,132.377-57.641,131.764-57.641z"/>
	<path fill="#FFFFFF" d="M96.236-57.641c-0.613,0-1.226-0.233-1.694-0.701c-0.935-0.936-0.935-2.452,0-3.389l6.776-6.776
		c0.938-0.935,2.453-0.935,3.39,0c0.935,0.937,0.935,2.453,0,3.39l-6.777,6.775C97.463-57.874,96.85-57.641,96.236-57.641z"/>
	<path fill="#FFFFFF" d="M114-143.479c-1.323,0-2.396-1.073-2.396-2.396v-9.583c0-1.323,1.073-2.396,2.396-2.396
		s2.396,1.073,2.396,2.396v9.583C116.396-144.553,115.323-143.479,114-143.479z"/>
	<path fill="#FFFFFF" d="M103.014-143.479c-0.613,0-1.227-0.233-1.695-0.701l-6.776-6.777c-0.935-0.936-0.935-2.453,0-3.388
		c0.936-0.937,2.453-0.937,3.389,0l6.777,6.776c0.937,0.936,0.937,2.452,0,3.389C104.24-143.714,103.627-143.479,103.014-143.479z"
		/>
	<path fill="#FFFFFF" d="M124.986-143.479c-0.613,0-1.228-0.233-1.693-0.701c-0.936-0.937-0.936-2.453,0-3.389l6.775-6.776
		c0.937-0.937,2.453-0.937,3.39,0c0.937,0.935,0.935,2.452,0,3.388l-6.776,6.777C126.213-143.714,125.602-143.479,124.986-143.479z"
		/>
	<path fill="#FFFFFF" d="M114.005-162.636c-1.323,0-2.397-1.072-2.397-2.396c0-1.324,1.072-2.396,2.396-2.396h0.002
		c1.323,0,2.396,1.073,2.396,2.396C116.4-163.709,115.328-162.636,114.005-162.636z"/>
	<path fill="#FFFFFF" d="M114.005-45.238c-1.323,0-2.397-1.072-2.397-2.396s1.072-2.396,2.396-2.396h0.002
		c1.323,0,2.396,1.072,2.396,2.396C116.4-46.311,115.328-45.238,114.005-45.238z"/>
</g>
<path fill="#FFFFFF" d="M134.596,57.666H63.405c-5.37,0-9.739,4.369-9.739,9.739v71.191c0,5.369,4.369,9.738,9.739,9.738h71.191
	c5.369,0,9.738-4.369,9.738-9.738V67.405C144.334,62.035,139.965,57.666,134.596,57.666z M63.405,62.979h71.191
	c2.439,0,4.426,1.986,4.426,4.426v11.689H58.979V67.405C58.979,64.965,60.965,62.979,63.405,62.979z M134.596,143.021H63.405
	c-2.44,0-4.426-1.986-4.426-4.426V84.406h80.043v54.189C139.021,141.035,137.035,143.021,134.596,143.021z"/>
<path fill="#FFFFFF" d="M133.531,71.125c0,1.467-1.188,2.656-2.656,2.656c-1.467,0-2.656-1.189-2.656-2.656s1.189-2.656,2.656-2.656
	C132.343,68.468,133.531,69.657,133.531,71.125z"/>
<path fill="#FFFFFF" d="M122.906,71.125c0,1.467-1.188,2.656-2.656,2.656c-1.467,0-2.656-1.189-2.656-2.656s1.189-2.656,2.656-2.656
	C121.718,68.468,122.906,69.657,122.906,71.125z"/>
<path fill="#FFFFFF" d="M112.281,71.125c0,1.467-1.189,2.656-2.656,2.656s-2.656-1.189-2.656-2.656s1.189-2.656,2.656-2.656
	S112.281,69.657,112.281,71.125z"/>
<path fill="#FFFFFF" d="M130.875,89.719h-63.75c-1.467,0-2.656,1.189-2.656,2.656v15.938c0,1.467,1.189,2.656,2.656,2.656h63.75
	c1.468,0,2.656-1.189,2.656-2.656V92.375C133.531,90.908,132.343,89.719,130.875,89.719z M128.219,105.656H69.781V95.031h58.438
	V105.656z"/>
<path fill="#FFFFFF" d="M93.688,116.281H67.125c-1.467,0-2.656,1.189-2.656,2.656v15.938c0,1.468,1.189,2.656,2.656,2.656h26.563
	c1.467,0,2.656-1.188,2.656-2.656v-15.938C96.344,117.471,95.154,116.281,93.688,116.281z M91.031,132.219h-21.25v-10.625h21.25
	V132.219z"/>
<path fill="#FFFFFF" d="M130.875,116.281h-26.563c-1.467,0-2.656,1.189-2.656,2.656v15.938c0,1.468,1.189,2.656,2.656,2.656h26.563
	c1.468,0,2.656-1.188,2.656-2.656v-15.938C133.531,117.471,132.343,116.281,130.875,116.281z M128.219,132.219h-21.25v-10.625h21.25
	V132.219z"/>
</svg>
