<svg viewBox="0 0 269 269" xmlns="http://www.w3.org/2000/svg" fill-rule="evenodd" clip-rule="evenodd" stroke-linejoin="round" stroke-miterlimit="1.41421">
  <path d="M96.776 19.234C103.717 8.242 118.063 0 134.098 0c16.035 0 30.381 8.242 37.322 19.234 12.076-4.813 28.526-3.049 41.499 6.376 12.973 9.425 19.734 24.525 18.888 37.498 12.599 3.204 24.871 14.301 29.826 29.551 4.955 15.25 1.55 31.441-6.76 41.439 8.31 9.998 11.715 26.188 6.76 41.438-4.955 15.251-17.227 26.347-29.826 29.552.846 12.972-5.915 28.072-18.888 37.498-12.973 9.425-29.423 11.189-41.499 6.376-6.941 10.992-21.287 19.234-37.322 19.234-16.035 0-30.381-8.242-37.322-19.234-12.076 4.813-28.526 3.049-41.499-6.376-12.972-9.426-19.734-24.526-18.888-37.498-12.599-3.205-24.871-14.301-29.826-29.552-4.955-15.25-1.549-31.44 6.76-41.438-8.309-9.998-11.715-26.189-6.76-41.439S23.79 66.312 36.389 63.108c-.846-12.973 5.916-28.073 18.888-37.498C68.25 16.185 84.7 14.421 96.776 19.234z" fill="#16bd83"/>
  <path d="M175.30061 153.42673c-17.98713 1.89356-14.33177 6.33724-18.43354 9.80858-4.73448 5.04912-10.64234 4.07565-10.64234 4.07565l27.76959 47.73662 6.81318-17.67022 19.4218 2.524-24.92869-46.47463zm-53.96367 13.56958c-.2908.29534-22.71707 47.10505-22.71707 47.10505l-10.9161-16.40822-19.73643 2.20821 24.6129-48.36818s.83717 2.9511 7.14828 2.9511c14.51466.31578 9.8472 12.22238 21.60842 12.51204zm0 0c.00227-.00227.0034-.00227.0034 0h-.0034zm47.45945-15.16326c-5.98965.07838-10.51625 2.6921-13.58094 7.84005-3.06355 5.14794-7.20848 6.25886-12.43594 3.33276-5.22632-2.9261-10.45378-2.9261-15.68124 0-5.22632 2.9261-9.37126 1.81518-12.43594-3.33276-3.06355-5.14794-7.59015-7.76167-13.5798-7.84005-5.98966-.07951-9.02367-3.11467-9.10432-9.10432-.07838-5.98965-2.69325-10.51625-7.84005-13.5798-5.14795-3.06469-6.25887-7.20962-3.33276-12.43595 2.92724-5.22745 2.92724-10.45491 0-15.68123-2.9261-5.22746-1.81519-9.3724 3.33276-12.43708 5.1468-3.06242 7.76167-7.59015 7.84005-13.5798.08065-5.98966 3.11466-9.02368 9.10432-9.10319 5.98965-.07951 10.51625-2.69324 13.5798-7.84119 3.06468-5.14794 7.20962-6.25772 12.43594-3.33162 5.22746 2.9261 10.45492 2.9261 15.68124 0 5.22746-2.9261 9.3724-1.81632 12.43594 3.33162 3.06469 5.14795 7.59129 7.76168 13.58094 7.8412 5.98966.0795 9.02367 3.11352 9.10319 9.10317.0795 5.98966 2.69324 10.5174 7.84118 13.5798 5.14681 3.0647 6.25773 7.20963 3.33163 12.43709-2.9261 5.22632-2.9261 10.45378 0 15.68123 2.9261 5.22633 1.81518 9.37126-3.33163 12.43595-5.14794 3.06355-7.76167 7.59015-7.84118 13.5798-.07952 5.98965-3.11353 9.0248-9.10319 9.10432zm-45.59883-23.59172V87.1532h-6.3645c-.89283 2.49332-2.5399 4.6754-4.94008 6.54511-2.40131 1.87085-4.62429 3.1408-6.67233 3.81098v7.11761c3.88935-1.28471 7.26755-3.26574 10.13345-5.94535v29.55978h7.84346zm34.69637-15.12918V87.1532h-6.58714l-17.75314 25.98735v6.86657h16.74786v8.23421h7.59242v-8.2342h5.08092v-6.89498h-5.08092zm-7.59242 0V99.12796l-9.40647 13.98419h9.40647z" fill="#fff" fill-rule="nonzero"/>
</svg>
