<svg id="Layer_1" data-name="Layer 1" xmlns="http://www.w3.org/2000/svg" viewBox="0 0 168.64 148.08"><defs><style>.cls-1,.cls-10,.cls-11{fill:#f4795b;}.cls-1{opacity:0.7;}.cls-2{fill:#ededed;}.cls-3{fill:#ee3b6d;}.cls-4{font-size:4.87px;font-family:Montserrat-Light, Montserrat Light;font-weight:300;}.cls-4,.cls-6{fill:#323233;}.cls-5{letter-spacing:-0.02em;}.cls-12,.cls-13,.cls-7,.cls-8{fill:none;stroke-miterlimit:10;}.cls-7,.cls-8{stroke:#323233;}.cls-7{stroke-width:0.51px;}.cls-8{stroke-width:0.48px;}.cls-9{letter-spacing:-0.02em;}.cls-11{opacity:0.1;}.cls-12{stroke:#ededed;stroke-width:5.13px;}.cls-12,.cls-13{stroke-linecap:round;}.cls-13{stroke:#f4795b;stroke-width:6px;}</style></defs><title>1</title><rect class="cls-1" x="21.38" y="56.66" width="105.91" height="65.26"/><path class="cls-1" d="M68.68,13.61,21.38,56.66H127.29L80,13.61A8.42,8.42,0,0,0,68.68,13.61Z"/><path class="cls-2" d="M96.57,23.63v0l-.94-.33-25,73.26.94.32v0a1.19,1.19,0,1,1,2.17.74v0L75,98v0a1.19,1.19,0,1,1,2.16.74v0l1.17.4v0a1.19,1.19,0,1,1,2.17.74v0l1,.33a2.88,2.88,0,0,1,5.45,1.86l1.13.38v0a1.19,1.19,0,1,1,2.17.74v0l1.17.4v0a1.19,1.19,0,1,1,2.16.74v0l1.17.4v0a1.19,1.19,0,1,1,2.17.74v0l.77.27,25-73.26-.77-.26v0a1.19,1.19,0,1,1-2.17-.73v0l-1.17-.4v0a1.19,1.19,0,1,1-2.16-.74v0l-1.17-.4v0a1.19,1.19,0,1,1-2.17-.74v0l-1.13-.39a2.88,2.88,0,0,1-5.44-1.86l-1-.32v0a1.19,1.19,0,1,1-2.17-.73v0l-1.17-.4v0a1.19,1.19,0,1,1-2.16-.74v0l-1.17-.4v0a1.19,1.19,0,1,1-2.17-.74Z"/><path class="cls-3" d="M88.55,66.45c1.29.44,1.7,1.34,1.43,2.13s-1.1,1.21-2.34.8S86,68.06,86.23,67.25,87.38,66.05,88.55,66.45Zm-.71,2.26c.77.29,1.47.2,1.64-.32s-.31-1-1.12-1.27-1.44-.25-1.64.33S87.06,68.45,87.84,68.71Zm4.69.8-5.11-5.76.18-.53L92.71,69Zm-.09-6.19c1.29.44,1.7,1.34,1.44,2.12s-1.1,1.22-2.33.81-1.7-1.33-1.42-2.14S91.27,62.92,92.44,63.32Zm-.71,2.27c.78.27,1.48.17,1.65-.34s-.31-1-1.12-1.26-1.44-.25-1.64.32S91,65.32,91.73,65.59Z"/><path class="cls-3" d="M91.09,59c1.29.44,1.7,1.34,1.43,2.13s-1.1,1.21-2.33.8-1.69-1.32-1.41-2.13S89.92,58.58,91.09,59Zm-.71,2.26c.78.29,1.47.2,1.65-.32s-.32-1-1.13-1.27-1.44-.25-1.63.33S89.61,61,90.38,61.24Zm4.7.8L90,56.28l.18-.53,5.11,5.76ZM95,55.85c1.29.44,1.7,1.34,1.43,2.13s-1.1,1.21-2.32.8-1.7-1.32-1.42-2.13S93.82,55.46,95,55.85Zm-.71,2.27c.78.27,1.48.17,1.65-.33s-.32-1-1.13-1.27-1.44-.25-1.63.32S93.51,57.85,94.28,58.12Z"/><text class="cls-4" transform="matrix(0.32, -0.95, 0.95, 0.32, 96.63, 76.03)"><tspan class="cls-5">C</tspan><tspan x="2.72" y="0">OUPON</tspan></text><polygon class="cls-3" points="83.04 76.25 84.92 76 85.78 74.31 86.6 76.02 88.47 76.32 87.09 77.63 87.39 79.5 85.72 78.59 84.03 79.45 84.38 77.59 83.04 76.25"/><polygon class="cls-3" points="93.34 46.01 95.22 45.77 96.09 44.08 96.9 45.79 98.78 46.09 97.4 47.39 97.69 49.27 96.03 48.36 94.34 49.22 94.68 47.35 93.34 46.01"/><rect class="cls-6" x="99.9" y="76.04" width="0.78" height="3.67" transform="translate(206.36 8.07) rotate(108.82)"/><rect class="cls-6" x="98.3" y="80.5" width="0.95" height="3.67" transform="translate(208.57 15.4) rotate(108.82)"/><rect class="cls-6" x="98.28" y="81.43" width="0.34" height="3.67" transform="translate(209.04 16.94) rotate(108.82)"/><rect class="cls-6" x="97.89" y="82.26" width="0.57" height="3.67" transform="translate(209.45 18.31) rotate(108.82)"/><rect class="cls-6" x="102.4" y="69.31" width="0.38" height="3.67" transform="translate(203.03 -3) rotate(108.82)"/><rect class="cls-6" x="97.69" y="83.09" width="0.4" height="3.67" transform="translate(209.86 19.68) rotate(108.82)"/><rect class="cls-6" x="99.8" y="76.89" width="0.41" height="3.67" transform="translate(206.78 9.47) rotate(108.82)"/><rect class="cls-6" x="99.59" y="77.56" width="0.36" height="3.67" transform="translate(207.12 10.58) rotate(108.82)"/><rect class="cls-6" x="99.45" y="78.17" width="0.23" height="3.67" transform="translate(207.42 11.57) rotate(108.82)"/><rect class="cls-6" x="101.02" y="73.55" width="0.23" height="3.67" transform="translate(205.13 3.98) rotate(108.82)"/><rect class="cls-6" x="101.21" y="73" width="0.23" height="3.67" transform="translate(204.85 3.06) rotate(108.82)"/><line class="cls-6" x1="101.27" y1="80.7" x2="97.79" y2="79.52"/><rect class="cls-6" x="97.39" y="83.91" width="0.44" height="3.67" transform="translate(210.26 21.01) rotate(108.82)"/><rect class="cls-6" x="97.07" y="84.77" width="0.49" height="3.67" transform="translate(210.69 22.43) rotate(108.82)"/><rect class="cls-6" x="99.07" y="78.9" width="0.5" height="3.67" transform="translate(207.78 12.77) rotate(108.82)"/><rect class="cls-6" x="101.78" y="71.08" width="0.41" height="3.67" transform="translate(203.9 -0.1) rotate(108.82)"/><rect class="cls-6" x="101.15" y="72.08" width="0.98" height="3.67" transform="translate(204.4 1.56) rotate(108.82)"/><rect class="cls-6" x="100.28" y="75.04" width="0.7" height="3.67" transform="translate(205.87 6.43) rotate(108.82)"/><rect class="cls-6" x="98.88" y="79.61" width="0.38" height="3.67" transform="translate(208.13 13.95) rotate(108.82)"/><rect class="cls-6" x="101.98" y="70.18" width="0.64" height="3.67" transform="translate(203.45 -1.58) rotate(108.82)"/><rect class="cls-6" x="100.75" y="74.15" width="0.38" height="3.67" transform="translate(205.42 4.95) rotate(108.82)"/><polygon class="cls-6" points="79.11 79.95 78.63 80.29 78.81 80.86 78.34 80.5 77.86 80.85 78.05 80.29 77.57 79.94 78.16 79.94 78.35 79.39 78.53 79.95 79.11 79.95"/><polygon class="cls-6" points="80.07 77.14 79.59 77.47 79.77 78.04 79.3 77.69 78.82 78.03 79.01 77.47 78.53 77.12 79.12 77.13 79.31 76.57 79.48 77.13 80.07 77.14"/><polygon class="cls-6" points="81.03 74.32 80.56 74.66 80.73 75.22 80.26 74.87 79.78 75.21 79.97 74.65 79.5 74.3 80.08 74.31 80.27 73.75 80.45 74.31 81.03 74.32"/><polygon class="cls-6" points="82 71.5 81.52 71.84 81.69 72.4 81.22 72.05 80.74 72.39 80.93 71.83 80.46 71.48 81.04 71.49 81.23 70.93 81.41 71.49 82 71.5"/><polygon class="cls-6" points="82.96 68.68 82.48 69.02 82.65 69.58 82.18 69.23 81.7 69.57 81.89 69.01 81.42 68.66 82 68.67 82.19 68.11 82.37 68.67 82.96 68.68"/><polygon class="cls-6" points="83.92 65.86 83.44 66.2 83.61 66.76 83.14 66.41 82.66 66.75 82.85 66.19 82.38 65.84 82.97 65.85 83.15 65.29 83.33 65.85 83.92 65.86"/><polygon class="cls-6" points="84.88 63.04 84.4 63.38 84.58 63.94 84.1 63.59 83.62 63.93 83.81 63.38 83.34 63.02 83.93 63.03 84.11 62.47 84.29 63.03 84.88 63.04"/><polygon class="cls-6" points="85.84 60.22 85.36 60.56 85.53 61.12 85.06 60.77 84.58 61.11 84.77 60.56 84.3 60.21 84.89 60.21 85.07 59.65 85.25 60.22 85.84 60.22"/><polygon class="cls-6" points="86.8 57.4 86.32 57.74 86.5 58.3 86.02 57.95 85.55 58.3 85.73 57.74 85.26 57.39 85.85 57.39 86.03 56.84 86.21 57.4 86.8 57.4"/><polygon class="cls-6" points="87.76 54.58 87.28 54.92 87.46 55.49 86.98 55.13 86.5 55.48 86.69 54.92 86.22 54.57 86.81 54.57 87 54.02 87.17 54.58 87.76 54.58"/><polygon class="cls-6" points="88.72 51.77 88.24 52.11 88.42 52.67 87.95 52.32 87.47 52.66 87.65 52.1 87.18 51.75 87.77 51.76 87.96 51.2 88.13 51.76 88.72 51.77"/><polygon class="cls-6" points="89.68 48.95 89.2 49.29 89.38 49.85 88.91 49.5 88.43 49.84 88.61 49.28 88.14 48.93 88.73 48.94 88.92 48.38 89.09 48.94 89.68 48.95"/><polygon class="cls-6" points="90.64 46.13 90.16 46.47 90.34 47.03 89.87 46.68 89.39 47.02 89.58 46.46 89.1 46.11 89.69 46.12 89.88 45.56 90.06 46.12 90.64 46.13"/><polygon class="cls-6" points="91.6 43.31 91.12 43.65 91.3 44.21 90.83 43.86 90.35 44.2 90.54 43.64 90.06 43.29 90.65 43.3 90.84 42.74 91.02 43.3 91.6 43.31"/><polygon class="cls-6" points="92.56 40.49 92.08 40.83 92.26 41.39 91.79 41.04 91.31 41.38 91.5 40.83 91.03 40.47 91.61 40.48 91.8 39.92 91.98 40.48 92.56 40.49"/><polygon class="cls-6" points="101.53 87.59 101.05 87.94 101.23 88.5 100.75 88.15 100.28 88.49 100.46 87.93 99.99 87.58 100.58 87.58 100.77 87.03 100.94 87.59 101.53 87.59"/><polygon class="cls-6" points="102.49 84.78 102.01 85.12 102.19 85.68 101.72 85.33 101.24 85.67 101.42 85.11 100.95 84.76 101.54 84.77 101.73 84.21 101.9 84.77 102.49 84.78"/><polygon class="cls-6" points="103.45 81.96 102.97 82.3 103.15 82.86 102.68 82.51 102.2 82.85 102.39 82.29 101.91 81.94 102.5 81.95 102.69 81.39 102.86 81.95 103.45 81.96"/><polygon class="cls-6" points="104.41 79.14 103.93 79.48 104.11 80.04 103.64 79.69 103.16 80.03 103.35 79.47 102.87 79.12 103.46 79.13 103.65 78.57 103.83 79.13 104.41 79.14"/><polygon class="cls-6" points="105.37 76.32 104.89 76.66 105.07 77.22 104.6 76.87 104.12 77.21 104.31 76.66 103.83 76.3 104.42 76.31 104.61 75.75 104.79 76.31 105.37 76.32"/><polygon class="cls-6" points="106.33 73.5 105.86 73.84 106.03 74.4 105.56 74.05 105.08 74.39 105.27 73.84 104.8 73.48 105.38 73.49 105.57 72.93 105.75 73.5 106.33 73.5"/><polygon class="cls-6" points="107.3 70.68 106.82 71.02 106.99 71.58 106.52 71.23 106.04 71.57 106.23 71.02 105.76 70.67 106.34 70.67 106.53 70.11 106.71 70.68 107.3 70.68"/><polygon class="cls-6" points="108.26 67.86 107.78 68.2 107.95 68.77 107.48 68.41 107 68.76 107.19 68.2 106.72 67.85 107.31 67.85 107.49 67.3 107.67 67.86 108.26 67.86"/><polygon class="cls-6" points="109.22 65.05 108.74 65.39 108.91 65.95 108.44 65.6 107.96 65.94 108.15 65.38 107.68 65.03 108.27 65.03 108.45 64.48 108.63 65.04 109.22 65.05"/><polygon class="cls-6" points="110.18 62.23 109.7 62.57 109.88 63.13 109.4 62.78 108.92 63.12 109.11 62.56 108.64 62.21 109.23 62.22 109.41 61.66 109.59 62.22 110.18 62.23"/><polygon class="cls-6" points="111.14 59.41 110.66 59.75 110.84 60.31 110.36 59.96 109.88 60.3 110.07 59.74 109.6 59.39 110.19 59.4 110.38 58.84 110.55 59.4 111.14 59.41"/><polygon class="cls-6" points="112.1 56.59 111.62 56.93 111.8 57.49 111.32 57.14 110.84 57.48 111.03 56.92 110.56 56.57 111.15 56.58 111.33 56.02 111.51 56.58 112.1 56.59"/><polygon class="cls-6" points="113.06 53.77 112.58 54.11 112.76 54.67 112.28 54.32 111.81 54.66 111.99 54.1 111.52 53.75 112.11 53.76 112.3 53.2 112.47 53.76 113.06 53.77"/><polygon class="cls-6" points="114.02 50.95 113.54 51.29 113.72 51.85 113.25 51.5 112.77 51.84 112.95 51.28 112.48 50.93 113.07 50.94 113.26 50.38 113.43 50.94 114.02 50.95"/><polygon class="cls-6" points="114.98 48.13 114.5 48.47 114.68 49.03 114.21 48.68 113.73 49.02 113.92 48.47 113.44 48.12 114.03 48.12 114.22 47.56 114.39 48.13 114.98 48.13"/><path class="cls-6" d="M93.56,76.26l-2,5.88a.13.13,0,0,1-.16.08h0a.13.13,0,0,1-.08-.16l2-5.88a.13.13,0,0,1,.16-.08h0A.13.13,0,0,1,93.56,76.26Z"/><path class="cls-6" d="M94.74,76.65,92,84.59a.11.11,0,0,1-.14.07h0a.12.12,0,0,1-.07-.15l2.7-7.94a.13.13,0,0,1,.15-.07h0A.13.13,0,0,1,94.74,76.65Z"/><path class="cls-6" d="M96,77.08,94,83a.14.14,0,0,1-.16.08h0a.13.13,0,0,1-.08-.16l2-5.88a.13.13,0,0,1,.16-.08h0A.12.12,0,0,1,96,77.08Z"/><path class="cls-6" d="M103.74,53.46l2-5.88a.12.12,0,0,1,.16-.07h0a.13.13,0,0,1,.08.16l-2,5.88a.12.12,0,0,1-.16.07h0A.13.13,0,0,1,103.74,53.46Z"/><path class="cls-6" d="M102.57,53.08l2.71-7.94a.11.11,0,0,1,.14-.07h0a.11.11,0,0,1,.07.14l-2.71,7.94a.11.11,0,0,1-.14.07h0A.11.11,0,0,1,102.57,53.08Z"/><path class="cls-6" d="M101.34,52.65l2-5.88a.12.12,0,0,1,.16-.08h0a.13.13,0,0,1,.08.16l-2,5.88a.13.13,0,0,1-.16.08h0A.14.14,0,0,1,101.34,52.65Z"/><line class="cls-7" x1="103.08" y1="67.1" x2="110.9" y2="44.07"/><line class="cls-8" x1="104.92" y1="66.24" x2="111.84" y2="46.01"/><path class="cls-2" d="M37.37,41.29v0l-.89.45,34.84,69.11.89-.45v0a1.19,1.19,0,1,1,2-1v0l1.11-.55,0,0a1.19,1.19,0,1,1,2-1v0l1.1-.56v0a1.19,1.19,0,1,1,2-1v0l.91-.45a2.88,2.88,0,0,1,5.14-2.59l1.06-.54v0a1.19,1.19,0,1,1,2-1l0,0,1.1-.56v0a1.19,1.19,0,1,1,2-1v0l1.1-.55v0a1.19,1.19,0,1,1,2-1l0,0,.73-.37L61.87,28.91l-.73.37v0a1.19,1.19,0,1,1-2,1v0L58,30.86v0a1.19,1.19,0,1,1-2,1v0l-1.1.56v0a1.19,1.19,0,1,1-2,1l0,0L51.74,34a3.25,3.25,0,0,1-1.32,3.78,3.24,3.24,0,0,1-3.82-1.19l-.91.45,0,0a1.19,1.19,0,1,1-2.05,1v0l-1.1.56v0a1.19,1.19,0,1,1-2,1v0l-1.11.55,0,0a1.38,1.38,0,0,1-.34,1.87A1.38,1.38,0,0,1,37.37,41.29Z"/><path class="cls-3" d="M62.33,77c1.22-.61,2.15-.28,2.52.47s.1,1.64-1.06,2.23-2.12.28-2.51-.48S61.23,77.55,62.33,77Zm1.12,2.09c.75-.35,1.17-.91.92-1.4s-.93-.47-1.69-.08-1.19.85-.91,1.39S62.72,79.45,63.45,79.08Zm3.86-2.79-7.69-.38-.25-.5,7.69.38ZM62.83,72c1.21-.61,2.14-.28,2.52.46s.09,1.64-1.06,2.23-2.13.28-2.52-.48S61.72,72.58,62.83,72ZM64,74.11c.74-.36,1.16-.93.91-1.41s-.92-.47-1.69-.08-1.19.85-.91,1.4S63.22,74.48,64,74.11Z"/><path class="cls-3" d="M58.78,70c1.22-.62,2.14-.28,2.52.46s.1,1.64-1.06,2.24-2.13.27-2.51-.49S57.67,70.5,58.78,70ZM59.9,72c.75-.36,1.17-.92.92-1.41s-.93-.46-1.69-.08-1.19.86-.92,1.4S59.17,72.4,59.9,72Zm3.86-2.8-7.69-.38-.26-.5,7.7.39ZM59.27,65c1.22-.62,2.15-.28,2.52.46s.1,1.63-1,2.22-2.13.29-2.52-.48S58.17,65.53,59.27,65Zm1.12,2.09c.75-.37,1.17-.93.92-1.41s-.93-.47-1.69-.09-1.19.86-.91,1.4S59.67,67.43,60.39,67.07Z"/><text class="cls-4" transform="translate(74.84 77.88) rotate(-116.75)"><tspan class="cls-9">C</tspan><tspan x="2.72" y="0">OUPON</tspan></text><polygon class="cls-3" points="65.47 87.78 66.61 86.27 66.01 84.47 67.81 85.09 69.33 83.96 69.3 85.85 70.84 86.96 69.03 87.51 68.46 89.32 67.37 87.77 65.47 87.78"/><polygon class="cls-3" points="51.09 59.26 52.23 57.75 51.63 55.95 53.43 56.56 54.95 55.44 54.92 57.33 56.46 58.43 54.65 58.99 54.08 60.8 52.99 59.24 51.09 59.26"/><rect class="cls-6" x="78.32" y="74.77" width="0.78" height="3.67" transform="translate(111.68 -28.17) rotate(63.25)"/><rect class="cls-6" x="80.36" y="78.97" width="0.95" height="3.67" transform="translate(116.6 -27.75) rotate(63.25)"/><rect class="cls-6" x="81.11" y="79.85" width="0.34" height="3.67" transform="translate(117.64 -27.66) rotate(63.25)"/><rect class="cls-6" x="81.39" y="80.64" width="0.57" height="3.67" transform="translate(118.55 -27.58) rotate(63.25)"/><rect class="cls-6" x="75.32" y="68.42" width="0.38" height="3.67" transform="translate(104.25 -28.8) rotate(63.25)"/><rect class="cls-6" x="81.87" y="81.42" width="0.4" height="3.67" transform="translate(119.47 -27.51) rotate(63.25)"/><rect class="cls-6" x="78.92" y="75.57" width="0.41" height="3.67" transform="translate(112.62 -28.09) rotate(63.25)"/><rect class="cls-6" x="79.26" y="76.2" width="0.36" height="3.67" transform="translate(113.36 -28.03) rotate(63.25)"/><rect class="cls-6" x="79.61" y="76.77" width="0.23" height="3.67" transform="translate(114.03 -27.97) rotate(63.25)"/><rect class="cls-6" x="77.41" y="72.42" width="0.23" height="3.67" transform="translate(108.94 -28.4) rotate(63.25)"/><rect class="cls-6" x="77.15" y="71.89" width="0.23" height="3.67" transform="translate(108.32 -28.46) rotate(63.25)"/><line class="cls-6" x1="81.42" y1="77.89" x2="78.14" y2="79.54"/><rect class="cls-6" x="82.23" y="82.19" width="0.44" height="3.67" transform="translate(120.37 -27.43) rotate(63.25)"/><rect class="cls-6" x="82.62" y="83" width="0.49" height="3.67" transform="translate(121.32 -27.35) rotate(63.25)"/><rect class="cls-6" x="79.82" y="77.46" width="0.5" height="3.67" transform="translate(114.83 -27.9) rotate(63.25)"/><rect class="cls-6" x="76.15" y="70.08" width="0.41" height="3.67" transform="translate(106.2 -28.64) rotate(63.25)"/><rect class="cls-6" x="76.34" y="71.03" width="0.98" height="3.67" transform="translate(107.31 -28.54) rotate(63.25)"/><rect class="cls-6" x="77.89" y="73.83" width="0.7" height="3.67" transform="translate(110.58 -28.26) rotate(63.25)"/><rect class="cls-6" x="80.22" y="78.14" width="0.38" height="3.67" transform="translate(115.63 -27.83) rotate(63.25)"/><rect class="cls-6" x="75.61" y="69.23" width="0.64" height="3.67" transform="translate(105.21 -28.72) rotate(63.25)"/><rect class="cls-6" x="77.62" y="72.98" width="0.38" height="3.67" transform="translate(109.59 -28.35) rotate(63.25)"/><polygon class="cls-6" points="65.37 93.18 65.28 93.76 65.81 94.03 65.22 94.12 65.13 94.7 64.86 94.18 64.28 94.27 64.7 93.86 64.43 93.33 64.96 93.6 65.37 93.18"/><polygon class="cls-6" points="64.03 90.52 63.94 91.1 64.46 91.37 63.88 91.46 63.79 92.04 63.52 91.52 62.94 91.61 63.36 91.2 63.09 90.67 63.62 90.94 64.03 90.52"/><polygon class="cls-6" points="62.69 87.86 62.6 88.44 63.12 88.71 62.54 88.8 62.45 89.39 62.18 88.86 61.6 88.95 62.02 88.54 61.75 88.01 62.28 88.28 62.69 87.86"/><polygon class="cls-6" points="61.35 85.2 61.26 85.78 61.78 86.05 61.2 86.14 61.11 86.72 60.84 86.2 60.26 86.29 60.68 85.88 60.41 85.35 60.94 85.62 61.35 85.2"/><polygon class="cls-6" points="60.01 82.55 59.92 83.13 60.44 83.39 59.86 83.48 59.77 84.07 59.5 83.54 58.92 83.63 59.34 83.22 59.07 82.69 59.59 82.96 60.01 82.55"/><polygon class="cls-6" points="58.67 79.89 58.58 80.47 59.1 80.73 58.52 80.83 58.43 81.41 58.16 80.88 57.58 80.97 58 80.56 57.73 80.03 58.25 80.3 58.67 79.89"/><polygon class="cls-6" points="57.33 77.23 57.24 77.81 57.76 78.08 57.18 78.17 57.09 78.75 56.82 78.22 56.24 78.31 56.66 77.9 56.39 77.38 56.91 77.64 57.33 77.23"/><polygon class="cls-6" points="55.99 74.57 55.9 75.15 56.42 75.42 55.84 75.51 55.75 76.09 55.48 75.56 54.9 75.66 55.32 75.24 55.05 74.72 55.57 74.98 55.99 74.57"/><polygon class="cls-6" points="54.65 71.91 54.56 72.49 55.08 72.76 54.5 72.85 54.41 73.43 54.14 72.91 53.56 73 53.98 72.58 53.71 72.06 54.23 72.32 54.65 71.91"/><polygon class="cls-6" points="53.31 69.25 53.22 69.83 53.74 70.1 53.16 70.19 53.07 70.77 52.8 70.25 52.22 70.34 52.63 69.92 52.37 69.4 52.89 69.66 53.31 69.25"/><polygon class="cls-6" points="51.97 66.59 51.88 67.17 52.4 67.44 51.82 67.53 51.73 68.11 51.46 67.59 50.88 67.68 51.29 67.26 51.03 66.74 51.55 67 51.97 66.59"/><polygon class="cls-6" points="50.63 63.93 50.53 64.51 51.06 64.78 50.48 64.87 50.39 65.45 50.12 64.93 49.54 65.02 49.95 64.6 49.69 64.08 50.21 64.35 50.63 63.93"/><polygon class="cls-6" points="49.29 61.27 49.19 61.85 49.72 62.12 49.14 62.21 49.05 62.79 48.78 62.27 48.2 62.36 48.61 61.94 48.35 61.42 48.87 61.69 49.29 61.27"/><polygon class="cls-6" points="47.95 58.61 47.85 59.19 48.38 59.46 47.8 59.55 47.7 60.13 47.44 59.61 46.86 59.7 47.27 59.28 47.01 58.76 47.53 59.03 47.95 58.61"/><polygon class="cls-6" points="46.6 55.95 46.51 56.53 47.04 56.8 46.46 56.89 46.36 57.47 46.1 56.95 45.52 57.04 45.93 56.63 45.66 56.1 46.19 56.37 46.6 55.95"/><polygon class="cls-6" points="86.52 82.52 86.43 83.1 86.95 83.37 86.37 83.46 86.28 84.04 86.01 83.52 85.43 83.61 85.85 83.19 85.58 82.67 86.11 82.94 86.52 82.52"/><polygon class="cls-6" points="85.18 79.86 85.09 80.44 85.61 80.71 85.03 80.8 84.94 81.38 84.67 80.86 84.09 80.95 84.51 80.53 84.24 80.01 84.77 80.28 85.18 79.86"/><polygon class="cls-6" points="83.84 77.2 83.75 77.78 84.27 78.05 83.69 78.14 83.6 78.72 83.33 78.2 82.75 78.29 83.17 77.88 82.9 77.35 83.42 77.62 83.84 77.2"/><polygon class="cls-6" points="82.5 74.54 82.41 75.12 82.93 75.39 82.35 75.48 82.26 76.06 81.99 75.54 81.41 75.63 81.83 75.22 81.56 74.69 82.08 74.96 82.5 74.54"/><polygon class="cls-6" points="81.16 71.88 81.07 72.47 81.59 72.73 81.01 72.82 80.92 73.41 80.65 72.88 80.07 72.97 80.49 72.56 80.22 72.03 80.74 72.3 81.16 71.88"/><polygon class="cls-6" points="79.82 69.22 79.73 69.81 80.25 70.07 79.67 70.16 79.58 70.75 79.31 70.22 78.73 70.31 79.15 69.9 78.88 69.37 79.4 69.64 79.82 69.22"/><polygon class="cls-6" points="78.48 66.57 78.39 67.15 78.91 67.41 78.33 67.5 78.24 68.09 77.97 67.56 77.39 67.65 77.81 67.24 77.54 66.71 78.06 66.98 78.48 66.57"/><polygon class="cls-6" points="77.14 63.91 77.05 64.49 77.57 64.75 76.99 64.85 76.9 65.43 76.63 64.9 76.05 64.99 76.47 64.58 76.2 64.06 76.72 64.32 77.14 63.91"/><polygon class="cls-6" points="75.8 61.25 75.7 61.83 76.23 62.09 75.65 62.19 75.56 62.77 75.29 62.24 74.71 62.34 75.12 61.92 74.86 61.4 75.38 61.66 75.8 61.25"/><polygon class="cls-6" points="74.46 58.59 74.36 59.17 74.89 59.44 74.31 59.53 74.22 60.11 73.95 59.58 73.37 59.68 73.78 59.26 73.52 58.74 74.04 59 74.46 58.59"/><polygon class="cls-6" points="73.12 55.93 73.02 56.51 73.55 56.78 72.97 56.87 72.88 57.45 72.61 56.92 72.03 57.02 72.44 56.6 72.18 56.08 72.7 56.34 73.12 55.93"/><polygon class="cls-6" points="71.78 53.27 71.68 53.85 72.21 54.12 71.63 54.21 71.53 54.79 71.27 54.27 70.69 54.36 71.1 53.94 70.84 53.42 71.36 53.68 71.78 53.27"/><polygon class="cls-6" points="70.44 50.61 70.34 51.19 70.87 51.46 70.29 51.55 70.19 52.13 69.93 51.61 69.35 51.7 69.76 51.28 69.5 50.76 70.02 51.02 70.44 50.61"/><polygon class="cls-6" points="69.09 47.95 69 48.53 69.53 48.8 68.94 48.89 68.85 49.47 68.59 48.95 68 49.04 68.42 48.62 68.15 48.1 68.68 48.37 69.09 47.95"/><polygon class="cls-6" points="67.75 45.29 67.66 45.87 68.19 46.14 67.61 46.23 67.51 46.81 67.25 46.29 66.67 46.38 67.08 45.96 66.81 45.44 67.34 45.71 67.75 45.29"/><path class="cls-6" d="M72.85,80.28l2.8,5.54a.14.14,0,0,1-.06.18h0a.13.13,0,0,1-.17-.06l-2.8-5.55a.13.13,0,0,1,.06-.17h0A.13.13,0,0,1,72.85,80.28Z"/><path class="cls-6" d="M74,79.71l3.77,7.49a.11.11,0,0,1,0,.15h0a.11.11,0,0,1-.15,0l-3.77-7.49a.11.11,0,0,1,0-.15h0A.11.11,0,0,1,74,79.71Z"/><path class="cls-6" d="M75.11,79.14l2.8,5.54a.12.12,0,0,1-.06.17h0a.12.12,0,0,1-.17,0l-2.79-5.55a.13.13,0,0,1,0-.17h0A.13.13,0,0,1,75.11,79.14Z"/><path class="cls-6" d="M63.7,57.05,60.9,51.5a.12.12,0,0,1,.06-.17h0a.14.14,0,0,1,.17.06l2.79,5.55a.13.13,0,0,1-.05.17h0A.13.13,0,0,1,63.7,57.05Z"/><path class="cls-6" d="M62.6,57.62l-3.78-7.49a.11.11,0,0,1,0-.15h0A.1.1,0,0,1,59,50l3.78,7.49a.12.12,0,0,1,0,.15h0A.11.11,0,0,1,62.6,57.62Z"/><path class="cls-6" d="M61.43,58.19l-2.79-5.55a.12.12,0,0,1,0-.17h0a.13.13,0,0,1,.17.06l2.8,5.55a.13.13,0,0,1-.06.17h0A.13.13,0,0,1,61.43,58.19Z"/><line class="cls-7" x1="72.97" y1="67.07" x2="61.99" y2="45.36"/><line class="cls-8" x1="73.65" y1="65.15" x2="64.05" y2="46.05"/><polygon class="cls-10" points="21.38 56.66 74.34 89.29 21.38 121.92 21.38 56.66"/><polygon class="cls-10" points="127.29 121.92 74.34 89.29 127.29 56.66 127.29 121.92"/><path class="cls-11" d="M68.68,77.6l-47.3,44.32H127.29L80,77.6A8.21,8.21,0,0,0,68.68,77.6Z"/><path class="cls-10" d="M68.68,78.88l-47.3,43H127.29L80,78.88A8.4,8.4,0,0,0,68.68,78.88Z"/><path class="cls-2" d="M143.72,105.08H77.88c-1.32,0-2.38-1.65-2.38-3.69s1.06-3.69,2.38-3.69h65.84c1.32,0,2.38,1.65,2.38,3.69S145,105.08,143.72,105.08Z"/><path class="cls-10" d="M156.13,101.39c-5.84,2.17-13.07,5.86-17.56,9.77l3.54-9.77-3.54-9.76C143.06,95.54,150.29,99.23,156.13,101.39Z"/><line class="cls-12" x1="61.92" y1="101.15" x2="67.03" y2="101.15"/><line class="cls-13" x1="91.32" y1="101.15" x2="96.43" y2="101.15"/><rect class="cls-10" x="106.48" y="98.79" width="38.04" height="5.27" rx="2.61"/></svg>