<svg id="Layer_1" data-name="Layer 1" xmlns="http://www.w3.org/2000/svg" viewBox="0 0 121.68 100.44"><defs><style>.cls-1,.cls-3{fill:none;stroke:#f4795b;stroke-miterlimit:10;}.cls-1{stroke-width:4.71px;}.cls-2{fill:#f4795b;}.cls-3{stroke-linecap:round;stroke-width:0.33px;}</style></defs><title>1</title><path class="cls-1" d="M91.33,30.22A36.48,36.48,0,0,1,50.06,85.06"/><path class="cls-2" d="M39.62,79.87c5.83.52,13.46.32,18.85-1.19l-6.95,6.86-.94,9.72C48.35,90.13,43.7,84.07,39.62,79.87Z"/><path class="cls-1" d="M32.27,72.88A36.47,36.47,0,0,1,75.06,16.64"/><path class="cls-2" d="M84.93,22.85c-5.74-1.11-13.36-1.69-18.88-.74L73.67,16l1.94-9.57C77.3,11.76,81.3,18.26,84.93,22.85Z"/><path class="cls-2" d="M77.81,59.21c.26,0,.59.1.76-.05A2.37,2.37,0,0,0,79.42,58c0-.29-.5-.77-.86-1s-.59,0-.89,0l-7.21.12c0,.76-.11,1.52-.17,2.28Z"/><path class="cls-2" d="M80.75,38.3c-1.31,3.84-2.68,7.51-3.79,11.28-.56,1.9-1.35,2.5-3.09,2.47H70.78c0,.79-.09,1.58-.14,2.38l5.4-.08c1.06,0,1.61-.44,2-1.6,1.58-4.8,3.25-9.57,4.88-14.35.7-2.06.37-2.59-1.54-2.56L72.06,36c-.1.82-.19,1.63-.27,2.45Z"/><path class="cls-2" d="M74.57,61.78a3.4,3.4,0,0,0-3.08,3.63A3.43,3.43,0,0,0,74.66,69a3.38,3.38,0,0,0,3-3.65A3.3,3.3,0,0,0,74.57,61.78Z"/><path class="cls-2" d="M55.8,59.13l-1.6-.29c-.05-1-.08-1.74-.13-2.7l1.53.28,10.28,1.86c.2-.77.4-1.53.61-2.3q-2.59-.51-5.2-1c-2.42-.43-4.86-.85-7.31-1.3-.19-4.64-.38-9.23-.57-13.9l10.3,1.87,6.41,1.16c.25-.79.49-1.57.75-2.35l-6.72-1.22-9.62-1.72c-.92-.16-1.33-.5-1.3-1.63,0-1.33-.14-2.65-.13-4,0-1-.4-1.42-1.19-1.56-2-.36-4-.74-6.08-1.11-.69-.12-1.35-.05-1.53.93s4,2,5.53,2.19c1,.11,1.32.59,1.36,1.71.3,8.3.69,16.58,1,24.88.05,1.43.52,1.91,1.69,2.11L60,62.19l4.6.83c.2-.73.41-1.46.61-2.19L60.4,60Z"/><path class="cls-2" d="M52.58,67.12a3.33,3.33,0,0,1,3.64-3,3.37,3.37,0,0,1,2.52,4,3.47,3.47,0,0,1-3.68,3.07A3.39,3.39,0,0,1,52.58,67.12Z"/><path class="cls-2" d="M44.23,49.09l-4.68-.85c-.71-.12-1.34-.49-1-1.38a1.68,1.68,0,0,1,1.4-.82q4.76.74,9.48,1.72a1.69,1.69,0,0,1,1,1.29c0,.93-.69,1-1.32.9C47.43,49.68,45.83,49.38,44.23,49.09Z"/><path class="cls-2" d="M47.17,54a14.35,14.35,0,0,1,2.64.52c.42.17.67.86,1,1.31-.47.3-1,.9-1.4.85-1.74-.18-3.46-.55-5.19-.88-.65-.13-1.31-.37-1.1-1.38s.82-1,1.53-.89S46.33,53.81,47.17,54Z"/><path class="cls-2" d="M46.62,43.37A5.09,5.09,0,0,1,45,43a1.63,1.63,0,0,1-.68-1.22c0-.31.65-.91.94-.88a20.48,20.48,0,0,1,3.64.68,1.24,1.24,0,0,1,.53,1.06c-.12.4-.58.94-.92,1a6.94,6.94,0,0,1-1.89-.29Z"/><line class="cls-3" x1="69.16" y1="37.37" x2="66.53" y2="35.33"/><line class="cls-3" x1="70.27" y1="35.74" x2="69.07" y2="32.63"/><line class="cls-3" x1="71.66" y1="35.42" x2="73.09" y2="32.41"/><line class="cls-3" x1="68.68" y1="60.86" x2="71.29" y2="62.93"/><line class="cls-3" x1="67.55" y1="62.49" x2="68.72" y2="65.61"/><line class="cls-3" x1="66.16" y1="62.79" x2="64.7" y2="65.79"/></svg>