<svg id="Layer_1" data-name="Layer 1" xmlns="http://www.w3.org/2000/svg" viewBox="0 0 423.36 385.92"><defs><style>.cls-1{fill:#f4795b;}.cls-2,.cls-4{fill:none;stroke:#f4795b;stroke-miterlimit:10;}.cls-2{stroke-width:6.31px;}.cls-3{fill:#fff;}.cls-4{stroke-width:7.89px;}</style></defs><title>2</title><path class="cls-1" d="M213.5,69.74l2.28,3.77a7.28,7.28,0,0,0,9.74,2.61L229.38,74a7.28,7.28,0,0,1,10.79,6.23l.09,4.41a7.27,7.27,0,0,0,7.13,7.13l4.41.09A7.27,7.27,0,0,1,258,102.63l-2.13,3.87a7.27,7.27,0,0,0,2.61,9.74l3.77,2.28a7.28,7.28,0,0,1,0,12.46l-3.77,2.28A7.27,7.27,0,0,0,255.9,143l2.13,3.87a7.27,7.27,0,0,1-6.23,10.78l-4.41.09a7.27,7.27,0,0,0-7.13,7.13l-.09,4.41a7.28,7.28,0,0,1-10.79,6.23l-3.86-2.13a7.28,7.28,0,0,0-9.74,2.61l-2.28,3.78a7.28,7.28,0,0,1-12.46,0L198.76,176a7.28,7.28,0,0,0-9.74-2.61l-3.87,2.13a7.27,7.27,0,0,1-10.78-6.23l-.09-4.41a7.27,7.27,0,0,0-7.13-7.13l-4.41-.09a7.27,7.27,0,0,1-6.23-10.78l2.13-3.87a7.28,7.28,0,0,0-2.61-9.74L152.25,131a7.28,7.28,0,0,1,0-12.46l3.78-2.28a7.28,7.28,0,0,0,2.61-9.74l-2.13-3.87a7.27,7.27,0,0,1,6.23-10.78l4.41-.09a7.27,7.27,0,0,0,7.13-7.13l.09-4.41A7.27,7.27,0,0,1,185.15,74L189,76.12a7.28,7.28,0,0,0,9.74-2.61L201,69.74A7.28,7.28,0,0,1,213.5,69.74Z"/><rect class="cls-1" x="85.54" y="322.59" width="54.52" height="43.92" rx="4.54"/><rect class="cls-1" x="182.09" y="301.95" width="54.52" height="64.56" rx="5.51"/><rect class="cls-1" x="275.8" y="249.7" width="54.52" height="116.81" rx="5.06"/><line class="cls-2" x1="350.39" y1="180.98" x2="39.72" y2="305.36"/><circle class="cls-3" cx="113.13" cy="274.83" r="14.81"/><path class="cls-1" d="M113.13,264.75a10.08,10.08,0,1,1-10.08,10.08,10.08,10.08,0,0,1,10.08-10.08m0-9.47a19.55,19.55,0,1,0,19.55,19.55,19.57,19.57,0,0,0-19.55-19.55Z"/><path class="cls-3" d="M208.55,252.54a14.82,14.82,0,1,1,14.81-14.82A14.84,14.84,0,0,1,208.55,252.54Z"/><path class="cls-1" d="M208.55,227.64a10.09,10.09,0,1,1-10.08,10.08,10.09,10.09,0,0,1,10.08-10.08m0-9.46a19.55,19.55,0,1,0,19.54,19.54,19.57,19.57,0,0,0-19.54-19.54Z"/><circle class="cls-3" cx="305.1" cy="199.48" r="14.81"/><path class="cls-1" d="M305.1,189.4A10.08,10.08,0,1,1,295,199.48,10.08,10.08,0,0,1,305.1,189.4m0-9.46a19.55,19.55,0,1,0,19.54,19.54,19.56,19.56,0,0,0-19.54-19.54Z"/><path class="cls-1" d="M363,192l-11.9-27.87a1.13,1.13,0,0,1,1.32-1.55l24,5.9a1.14,1.14,0,0,1,.73,1.65l-12.07,22A1.13,1.13,0,0,1,363,192Z"/><path class="cls-3" d="M208.59,116.23s8.33-7.38,13.82-7.57,11.31,5.84,10.61,12.11c-.76,6.68-19.54,28.4-24.46,28.4s-24-21.58-24-24.42-1.51-7.19.57-9.66,7.95-6.62,11-6.62S208.59,116.23,208.59,116.23Z"/><line class="cls-4" x1="246.08" y1="31.42" x2="237.37" y2="50.35"/><line class="cls-4" x1="207.46" y1="21.57" x2="207.46" y2="45.05"/><line class="cls-4" x1="166.57" y1="31.42" x2="176.41" y2="51.48"/></svg>