<svg id="Layer_1" data-name="Layer 1" xmlns="http://www.w3.org/2000/svg" viewBox="0 0 423.36 385.92"><defs><style>.cls-1{fill:#f4795b;}.cls-2{fill:#fff;}</style></defs><title>2</title><path class="cls-1" d="M299,127.75l14.15-10.85c1.4-1.07,2.74-2.26,4.23-3.19s1.06-1.51.17-2.51A162,162,0,0,0,292.8,88.53a154.52,154.52,0,0,0-62.54-27.62,146.81,146.81,0,0,0-43-2.15,148.39,148.39,0,0,0-72.77,27c-30.59,21.74-50.53,51-60.63,87.08A157.25,157.25,0,0,0,48.06,222c1.38,33.6,11.72,64.2,31.51,91.47a156.13,156.13,0,0,0,77.05,57.17c3.94,1.36,8,2.4,12,3.58.3.09.67.05.8.56-.33.54-.88.33-1.33.23-28.25-6.17-54.08-17.56-76.53-36s-38.38-41.42-49.06-68.23a203.23,203.23,0,0,1-11.86-43.32c-1.51-9.43-3-18.86-2.72-28.47a179.94,179.94,0,0,1,16.63-72Q78.44,54.43,153.86,27.3A176.44,176.44,0,0,1,198,17.84,186.41,186.41,0,0,1,335.81,61.36,176.29,176.29,0,0,1,356.55,82c.94,1.11,1.45.59,2.19,0l17.13-13.16c.3-.22.62-.42,1.29-.89-.34,2.89-.62,5.42-1,8q-1.87,14.19-3.79,28.37c-1.24,9.33-2.42,18.67-3.73,28-.63,4.5-.75,4.59-5.24,4-9.53-1.19-19-2.52-28.57-3.78q-13.89-1.84-27.8-3.66Z"/><path class="cls-1" d="M239.57,305.41c0,2.52.84,4.89,1.26,7.33s.5,2.44,3,2.44h92.43a3.77,3.77,0,0,1,2,.19c-.41.37-.92.2-1.38.2H243.51c-.41,0-.86.19-1.35-.28.3.49.64.29.89.29h94.52c.68,0,1.33.19,2,.18a5.71,5.71,0,0,1-1.15,10.91,18.08,18.08,0,0,0-2.85,0q-48.6,0-97.2,0a19.37,19.37,0,0,0-3.14-.05,5.38,5.38,0,0,1-4.4-4.54q-3.18-15.57-6.3-31.15-6.59-32.56-13.16-65.12c-.8-4-1.64-7.89-2.45-11.83-.2-.32-.51-.18-.78-.18H181.73a1.77,1.77,0,0,0-1,.12,5.6,5.6,0,0,1-5-6.12,5.67,5.67,0,0,1,5.68-5.39c8.49,0,17,0,25.47,0,2.21,0,4.42,0,6.62,0,3.28,0,5.44,1.88,6.09,5.16q1.25,6.27,2.53,12.54c.08.36,0,.78.44,1s1.1.13,1.63.32q66.95,0,133.88,0a1.93,1.93,0,0,0,.78-.25c3.57.41,5.65,3.58,4.82,7.38-.73,3.37-1.48,6.74-2.22,10.12q-6.76,31-13.53,62a5.5,5.5,0,0,1-4.93,4.68,3,3,0,0,0-1.55-.14q-50.21,0-100.41,0C240.57,305.21,240,305,239.57,305.41Z"/><path class="cls-1" d="M338.69,349.44c-.07,5.77-5.21,11.53-11.32,12.67a14.26,14.26,0,0,1-16.79-11.24,10.73,10.73,0,0,1-.09-1.14,8.4,8.4,0,0,0,0-3.16c.16-5.42,4.67-10.7,10.48-12.26A14.28,14.28,0,0,1,338.69,346a3.64,3.64,0,0,1,0,.57A7.06,7.06,0,0,0,338.69,349.44Z"/><path class="cls-1" d="M266.61,349.73c-.2,5.58-5,11-11,12.32a14.31,14.31,0,0,1-17.16-11.61,8.26,8.26,0,0,1,0-1,7.25,7.25,0,0,0,0-2.86c.26-6.27,6-12,12.59-12.67a14.3,14.3,0,0,1,15.55,11.67,6.57,6.57,0,0,1,.05,1A8.78,8.78,0,0,0,266.61,349.73Z"/><path class="cls-2" d="M286,287.21c-8.09-7-16.44-14-24.47-21.33-6.65-6.07-8.37-14.39-4.76-21.35,3.26-6.28,8.52-9.91,15.65-8.64,3.48.62,7,2.78,9.79,5.1s4.38,2.38,7.21,0c10.93-9,21.23-6.66,26.9,5.86,2.83,6.24.13,14.44-7.15,20.75C301.47,274.32,293.61,280.8,286,287.21Z"/><path class="cls-1" d="M130.64,165c6.43,0,12.69,0,18.59.15a16.47,16.47,0,0,1,16.24,16.46c.12,14.76.09,29.78.05,44.3l0,8.75a2.35,2.35,0,0,1-2.42,2.59,2.39,2.39,0,0,1-2.48-2.7c0-10.77,0-21.73,0-32.33q0-6.19,0-12.41v-7.53H146.83V318.85c0,3.24-1.4,5.2-4.14,5.82a4.2,4.2,0,0,1-1,.11,5.06,5.06,0,0,1-4.94-4.43c-.07-.7-.07-1.5-.07-2.35V237.93H122.63v26.88q0,27,0,54c0,4.27-2.2,5.33-3.86,5.75a4.45,4.45,0,0,1-1.2.16,5.07,5.07,0,0,1-5-4.7c0-.43,0-.94,0-1.47V318l-.05-120.31V182.3H98.74v20c0,10.55,0,21.45,0,32.17a2.59,2.59,0,0,1-2.42,2.83,2.72,2.72,0,0,1-1-.19c-.42-.16-1.52-.59-1.52-2.78v-5c0-15.5,0-31.53,0-47.29a18.88,18.88,0,0,1,.63-4.66,16.4,16.4,0,0,1,15.31-12.24c7.46-.11,14.28-.16,20.83-.16m0-4.93q-10.44,0-20.9.15a21.42,21.42,0,0,0-20,15.94,24.35,24.35,0,0,0-.79,5.88c-.06,17.43,0,34.87,0,52.3,0,3.56,1.73,6.24,4.68,7.38a7.35,7.35,0,0,0,10.08-7.23c0-15,0-30,0-44.94v-2.3h3.87v2.65L107.61,318c0,.8,0,1.6,0,2.39a10,10,0,0,0,9.94,9.35,9.4,9.4,0,0,0,2.44-.32c4.83-1.24,7.56-5,7.56-10.52q0-36.8,0-73.59v-2.4h4.17v2.54q0,36.2,0,72.39c0,1,0,2,.08,3a10,10,0,0,0,9.86,8.94,9.84,9.84,0,0,0,2.09-.23c5-1.14,8-5.09,8-10.64q0-64.55,0-129.08v-2.56h3.88v2.59c0,14.92,0,29.84,0,44.75a7.28,7.28,0,0,0,7.41,7.63h0a7.27,7.27,0,0,0,7.35-7.52c0-17.7.11-35.4,0-53.1a21.47,21.47,0,0,0-21.09-21.35q-9.34-.17-18.68-.15Z"/><path class="cls-1" d="M129.71,121.63v4.94h.15a11.82,11.82,0,0,1,8.41,3.6,12.14,12.14,0,0,1-8.52,20.62h-.17a12.14,12.14,0,0,1-12-12.26,12,12,0,0,1,12.11-12v-4.94m0,0a17,17,0,0,0-.2,34.09h.24a17.05,17.05,0,0,0,.16-34.1Z"/></svg>