<svg id="Layer_1" data-name="Layer 1" xmlns="http://www.w3.org/2000/svg" viewBox="0 0 423.36 385.92"><defs><style>.cls-1{fill:#f4795b;}.cls-2{fill:#fff;}</style></defs><title>2</title><path class="cls-1" d="M218.25,374c-32.27,0-64.54.05-96.81,0-18.66-.05-21.7-2.83-21.85-21.18-.24-29.2.16-58.41-.27-87.61-.17-12.18,4.82-19,16.62-22C132.28,239,148.79,235,164.53,229c12.87-4.87,21.11-2.55,28.12,9.17,2.54,4.25,6.19,12.81,11.15,10.08,5.89-3.24,2.68-10.3-1.15-16-3-4.39-.32-7.84,5.06-8.14,4.6-.27,9.22-.17,13.83-.19,14.42-.07,14.45-.06,11.6,13.86-.87,4.26-.42,9.67,2.27,11.51,4.55,3.11,7.43-2.75,9-5.61,10.76-19.26,25.57-19.64,43.82-11.66,11.19,4.89,23.28,7.85,35.14,11,11.06,2.95,15.93,9.28,15.75,21-.47,30.22-.05,60.45-.3,90.68-.12,15.74-3.29,18.92-19.17,19-33.8.22-67.61.07-101.42.07Z"/><path class="cls-1" d="M219.6,214.64c-5.12,0-10.25.1-15.37,0-7.37-.14-12.31-4-11.43-11.33,1.65-13.71-6.07-23.26-12.81-33.47-5.63-8.52-11.87-16.64-15.71-26.3-10.84-27.25-2.29-56.88,21.53-73.6,20.5-14.4,52.62-12.79,71.64,3.59,22,18.93,28,49.62,14.15,75.2C266.27,158.6,260,168,253.8,177.38c-4.3,6.48-7.88,12.67-7.82,21.06.09,14.6-1.51,15.72-15.62,16.17C226.78,214.72,223.19,214.62,219.6,214.64Z"/><path class="cls-1" d="M372.58,111.6c1.21,32.31-8.35,62.26-23.07,90.83-1.66,3.21-3,9.66-8,7.11s-.68-7.09,1.07-10.48c14.76-28.62,23.77-58.56,22.77-91.21-.83-27.15-8.41-52.32-20.33-76.42-1.36-2.74-3-5.33-4.41-8.07-1.19-2.39-2-5.56.51-6.93,3.65-2,5.44,1.56,6.85,4.1,2.47,4.46,4.59,9.13,6.76,13.76C366.15,58.68,373.38,84.06,372.58,111.6Z"/><path class="cls-1" d="M65.74,113.21c-.43-33.12,8.68-62.61,24-90.41,1.6-2.9,2.85-8.5,6.93-6.51,5.12,2.5,1.14,7-.59,10.33C82.22,52.76,73.5,80.24,73,110.09s7.26,57.59,20.4,84.07c1.82,3.65,3.82,7.23,5.37,11,.84,2,0,4.26-2.37,4.7a4.81,4.81,0,0,1-3.91-1.49,42.23,42.23,0,0,1-3.77-6.63C73.9,173.71,65.2,144.09,65.74,113.21Z"/><path class="cls-1" d="M335.58,109.83c.93,22.5-4.51,41.05-11.93,59.14-1.24,3-2.33,8.12-7,5.78-3.23-1.61-.88-5.44.09-8.28,2.47-7.25,5.14-14.45,7.29-21.79,7-23.76,6.8-47.4-1.82-70.78-1.76-4.8-3.78-9.5-5.61-14.27-1.06-2.77-3.06-6.13,1.19-7.63,3-1,4.34,1.87,5.4,4.22,6.33,14,11.61,28.38,12.41,44C335.75,104.27,335.58,108.37,335.58,109.83Z"/><path class="cls-1" d="M102.49,114.62c-.2-20.42,3.22-38.87,11.71-56.18,1.44-2.93,3-8.09,7.26-5.9s1.15,6.36-.31,9.46c-15.86,33.62-14.23,67.31-.56,101.09.76,1.89,1.62,3.75,2.27,5.68s.86,4.4-1.16,5.49c-3,1.65-4.6-.83-5.69-3.11a130.12,130.12,0,0,1-13.14-51.63C102.8,117.47,102.56,115.44,102.49,114.62Z"/><path class="cls-1" d="M307.15,113.74a56.4,56.4,0,0,1-7,24.33c-1.27,2.39-3.18,4.47-6,3.59-3.32-1-2.64-4-1.36-6.23,8.43-14.49,8.69-28.88,0-43.32-1.47-2.42-1.72-5.57.71-6.71s4.61,1.29,6.08,3.51C304.43,96.32,306.71,104.55,307.15,113.74Z"/><path class="cls-1" d="M131.61,117.5c-.14-13,2.91-21,7.16-28.73,1.29-2.34,3.19-4.54,6-2.94s2.1,4.34.72,6.7c-8.22,14-8.29,28.05-.36,42.22,1.22,2.19,2.59,5.06-.39,6.63-2.71,1.42-4.72-.73-6-3.09C134.39,130.59,131.6,122.44,131.61,117.5Z"/><path class="cls-2" d="M222.5,366.76c-22,0-44.08-.41-66.09.17-10.12.27-13.52-3.37-13-13.3.65-13.81.11-27.67.14-41.5,0-4.07-.25-8.2,1.86-12,1.54-2.78,6.44-6.22,1.19-8.56-3.89-1.74-7.76,2.14-8.89,6.37-.91,3.39-.74,7.1-.77,10.67-.09,14.86-.43,29.73,0,44.57.29,9.27-1.64,14.18-12.59,13.75-15.6-.61-17.33-1.12-18.26-13.82-.15-2-.09-4.1-.09-6.15,0-26.13.4-52.28-.32-78.39-.31-11.34,3.91-16.62,14.75-19.24,15.39-3.72,30.6-8.38,45.6-13.51,9-3.08,15.36-2.37,20.62,6.44,3.91,6.53,9.37,12.14,14.11,18.19,2.32,3,5,5.53,9.05,4,3.64-1.39,3.53-5,2.76-7.81-1.87-6.89,3-13.09,1.7-19.65-1.1-5.45,1.55-6.16,5.73-6,4,.14,6.65.51,5.17,6.22-1.64,6.29,3.34,12.65.94,19.5a6,6,0,0,0,3.47,7.67,7.37,7.37,0,0,0,8.38-2.23c6.17-6.86,12.63-13.5,18.21-20.81,5-6.59,10.36-8.73,18.48-5.92,15.46,5.35,31.13,10.18,46.84,14.77,7.6,2.22,10.74,6.57,10.68,14.43-.24,29.72-.41,59.44,0,89.15.13,10.38-4.73,12.9-14,13.3-10.79.47-11.21-5.6-11.06-13.57.29-14.85.14-29.71.07-44.57,0-4.57.74-9.45-2.49-13.29-2.2-2.62-5.13-6.32-8.76-3.54-3.42,2.62,0,5.37,2,7.5,3.66,3.91,2.34,8.73,2.41,13.19.2,12.29.08,24.59.06,36.89,0,16.95,0,17-16.35,17.06C263.49,366.81,243,366.76,222.5,366.76Z"/><path class="cls-2" d="M219,183.42c-15.52,4.29-24.24-3.58-30.92-16-5-9.43-12.18-17.63-16.24-27.71-9.15-22.76-1.83-47.75,18.53-62.44,18.27-13.18,44.6-11.68,62.5,3.55,17.67,15,23.13,42,11.87,62.78-6.3,11.65-14.19,22.43-21,33.82C237.36,188.05,227.14,182.1,219,183.42Z"/><path class="cls-2" d="M218.13,206.21c-4,0-8.08.1-12.12,0-4.6-.14-5.81-3.11-5.73-7.16.08-3.86.85-7.36,5.52-7.42,8.58-.13,17.17.07,25.76.25,5.16.11,6.86,3.32,6.85,8,0,5.64-3.73,6.45-8.15,6.45H218.13Z"/></svg>