<svg id="Layer_1" data-name="Layer 1" xmlns="http://www.w3.org/2000/svg" viewBox="0 0 150 150"><defs><style>.cls-1{fill:#ff7a59;}.cls-2{fill:#fff;}.cls-3,.cls-4{fill:none;stroke:#fff;stroke-miterlimit:10;}.cls-3{stroke-width:3.1px;}.cls-4{stroke-width:4.66px;}</style></defs><title>1</title><rect class="cls-1" x="5.88" y="10.2" width="138.24" height="129.6" rx="9.24"/><path class="cls-2" d="M67.49,72.68a7.59,7.59,0,0,0,1.07.08h44.78l-6.26,22.67h-33L67.49,72.68M61.78,55.11H51a1.38,1.38,0,0,0-1.38,1.38v1.57A1.38,1.38,0,0,0,51,59.44h7.11a1,1,0,0,1,.94.7L69.72,97.2a4,4,0,0,0,3.84,2.89h33.52a4.69,4.69,0,0,0,4.52-3.44l6.65-24.2a3.43,3.43,0,0,0-3.31-4.35H68.56A2.93,2.93,0,0,1,65.75,66l-2.93-10.1a1.08,1.08,0,0,0-1-.78Z"/><circle class="cls-3" cx="103.8" cy="112.52" r="5.45"/><circle class="cls-3" cx="75.59" cy="112.52" r="5.45"/><line class="cls-4" x1="81.03" y1="112.52" x2="98.36" y2="112.52"/><path class="cls-2" d="M57.24,90.23s-26-9.67-13.92-37.16c7.81-14.76,29.36-15.78,38.86-5.77L79,50.51,96.12,57,92.94,37.61l-4,4.07S70,22.7,46.29,38c-10.88,8.49-15.65,16.5-14.5,33.81S52.28,98,52.28,98s4.64,1.21,5.72-1.66S57.24,90.23,57.24,90.23Z"/></svg>