<svg id="Layer_1" data-name="Layer 1" xmlns="http://www.w3.org/2000/svg" viewBox="0 0 150 150"><defs><style>.cls-1{fill:#ff7a59;}.cls-2,.cls-4{fill:#fff;}.cls-2{opacity:0.6;}.cls-3{fill:none;stroke:#fff;stroke-linecap:round;stroke-miterlimit:10;stroke-width:1.56px;}</style></defs><title>1</title><rect class="cls-1" x="5.88" y="10.2" width="138.24" height="129.6" rx="9.24"/><path class="cls-2" d="M128.35,100c-.25,0-.5-.05-.74-.05q-18.44,0-36.87,0a1.15,1.15,0,0,0-.7.35,20.34,20.34,0,0,1-10.17,5.74,20.66,20.66,0,0,1-19.67-5.51,2,2,0,0,0-1.47-.61q-18.15,0-36.28,0h-.77c0-.23,0-.4,0-.57q0-5.34,0-10.67A12.25,12.25,0,0,1,32.37,76.57a14.46,14.46,0,0,1,2-.11q10.54,0,21.07,0a.79.79,0,0,0,.82-.49,21,21,0,0,1,37.15-.64,1.86,1.86,0,0,0,1.94,1.14c6.85,0,13.7,0,20.54,0a12.32,12.32,0,0,1,7.08,2,11.74,11.74,0,0,1,5.3,8.72,4.35,4.35,0,0,0,.11.46ZM57.12,85.54A17.87,17.87,0,1,0,75,67.69,17.84,17.84,0,0,0,57.12,85.54Z"/><path class="cls-2" d="M32.73,57.28A14,14,0,1,1,46.62,71.39,14,14,0,0,1,32.73,57.28Z"/><path class="cls-2" d="M89.14,57.3a14,14,0,1,1,13.53,14.11A14.24,14.24,0,0,1,89.14,57.3Z"/><line class="cls-3" x1="87.97" y1="38.36" x2="87.97" y2="45.8"/><line class="cls-3" x1="91.69" y1="42.08" x2="84.25" y2="42.08"/><path class="cls-4" d="M76.19,82.6c-.14-.16-.27-.32-.42-.47l-3.55-3.54a1.4,1.4,0,0,1,0-2.3c.6-.61,1.2-1.21,1.82-1.81a1.37,1.37,0,0,1,2,0q5,5,10.07,10.08a1.36,1.36,0,0,1,0,2q-5,5.06-10.07,10.07a1.3,1.3,0,0,1-2,0c-.66-.64-1.32-1.29-2-2a1.29,1.29,0,0,1,0-2c1.22-1.24,2.46-2.47,3.69-3.7.15-.15.28-.31.52-.57-.36,0-.59-.08-.82-.08H65.28c-1.25,0-1.67-.43-1.68-1.66V84.33a1.39,1.39,0,0,1,1.57-1.57h11Z"/><path class="cls-4" d="M75.06,67.55a18,18,0,1,1-18,18,18,18,0,0,1,18-18m0-3A21,21,0,1,0,96,85.51a21,21,0,0,0-20.94-21Z"/></svg>