<svg id="Layer_1" data-name="Layer 1" xmlns="http://www.w3.org/2000/svg" viewBox="0 0 150 150"><defs><style>.cls-1{fill:#ff7a59;}.cls-2{fill:#fff;}</style></defs><title>1</title><rect class="cls-1" x="7.24" y="10.2" width="138.24" height="129.6" rx="9.24"/><path class="cls-2" d="M25.71,45.85c.86-2.39,2.57-3.25,5.09-3.24q46.2.06,92.42,0a4.54,4.54,0,0,1,4.86,4.86c-.07,18.68,0,37.37,0,56.05,0,3-1.64,4.63-4.64,4.63q-46.21,0-92.42,0c-2.52,0-4.32-.76-5.27-3.16V91.82c1.05-.13,2.11-.21,3.16-.4A16.34,16.34,0,0,0,25.71,59Zm28.64.95H29.8c0,2.46.05,4.82,0,7.18,0,1,.24,1.41,1.25,1.67a20.44,20.44,0,0,1,.29,39.4l-1.46.43V104H54.36V100h4.13v4h65.37V46.78H58.42v4H54.35Z"/><path class="cls-2" d="M77.94,95.85l-3.11-2.67,32.74-38.27,3.12,2.65Z"/><path class="cls-2" d="M103.47,95.83a8.19,8.19,0,1,1,8.19-8.06A8.19,8.19,0,0,1,103.47,95.83Zm-4.06-8.15a4.09,4.09,0,0,0,4,4.08,4.14,4.14,0,0,0,4.13-4.12,4.09,4.09,0,0,0-4.18-4A4,4,0,0,0,99.41,87.68Z"/><path class="cls-2" d="M78.91,71.26a8.18,8.18,0,1,1,8.18-8.15A8.17,8.17,0,0,1,78.91,71.26Zm-4.06-8.21a4.08,4.08,0,0,0,4.07,4.15A4.16,4.16,0,0,0,83,63.15,4.1,4.1,0,0,0,78.92,59,4,4,0,0,0,74.85,63.05Z"/><path class="cls-2" d="M58.41,91.72h-4V79.54h4Z"/><path class="cls-2" d="M54.41,59.06h4V71.19h-4Z"/></svg>