<svg id="Layer_1" data-name="Layer 1" xmlns="http://www.w3.org/2000/svg" viewBox="0 0 288 187"><defs><style>.cls-1{fill:#ffc1b2;opacity:0.25;}.cls-2{fill:#e1e1e1;}.cls-3{fill:#375a64;}.cls-4{fill:#2b454e;}.cls-5{fill:#ff8364;}.cls-6{fill:#1a2e35;}.cls-7{fill:#00dfbf;}.cls-8{fill:#ffd3c8;}.cls-9{fill:#ffb8a6;}.cls-10,.cls-17{fill:#fff;}.cls-11{fill:#ff9d85;}.cls-12{fill:#ffaaa8;}.cls-13{fill:#ff9090;}.cls-14{fill:#f5f5f5;}.cls-15{fill:#fafafa;}.cls-16{fill:#c76668;}.cls-17{opacity:0.4;}</style></defs><title>1</title><ellipse id="Floor" class="cls-1" cx="145" cy="125.28" rx="88.64" ry="46.64"/><path id="Shadow" class="cls-2" d="M208.9,138.9l-.06-.1-.05-.06-.06-.07-.06-.06a2.49,2.49,0,0,0-.24-.17L125.56,90.6a3,3,0,0,0-2.68,0L79.77,115.43a.62.62,0,0,0-.16.1l-.06,0a1,1,0,0,0-.22.25.25.25,0,0,0,0,.07.42.42,0,0,0,0,.1.31.31,0,0,0,0,.08.68.68,0,0,0,0,.14s0,.06,0,.09l0,.11a.42.42,0,0,0,0,.1,1.19,1.19,0,0,0,.48.46l82.87,47.84a2.38,2.38,0,0,0,.79.27,4.93,4.93,0,0,0,.54,0,3.19,3.19,0,0,0,.54,0,.86.86,0,0,0,.17,0,2.56,2.56,0,0,0,.49-.16l.14-.08L208.43,140C208.93,139.69,209.09,139.27,208.9,138.9Z"/><ellipse id="Shadow-2" data-name="Shadow" class="cls-2" cx="203.61" cy="115.45" rx="18.43" ry="10.64"/><g id="Device"><g id="Mobile"><path class="cls-3" d="M205.3,133.42a.31.31,0,0,0-.05-.1l-.06-.06-.05-.07-.07-.06a1.13,1.13,0,0,0-.24-.17L124.22,86.41a3,3,0,0,0-2.67,0L82,109.23l-.16.1,0,0a1,1,0,0,0-.22.26s0,0,0,.06a.25.25,0,0,0,0,.11.19.19,0,0,0,0,.08.3.3,0,0,0,0,.13.28.28,0,0,0,0,.09.45.45,0,0,0,0,.11.42.42,0,0,0,0,.1,1.1,1.1,0,0,0,.47.46l80.62,46.55a2.38,2.38,0,0,0,.79.27,3.27,3.27,0,0,0,.54,0,3.19,3.19,0,0,0,.54,0l.17,0a2.58,2.58,0,0,0,.49-.17l.14-.07,39.52-22.82C205.34,134.2,205.5,133.79,205.3,133.42Zm-8.68-1.66-2.53,1.46-33.67,19.43-.27.14a2.35,2.35,0,0,1-1.73,0l-.28-.14L94.21,115.74,91.11,114a1.38,1.38,0,0,1-.29-.22c-.32-.35-.22-.8.29-1.1L127.3,91.74a2.32,2.32,0,0,1,1.4-.39,1.5,1.5,0,0,1,.35.09.76.76,0,0,1,.18.09l67.39,38.91A.76.76,0,0,1,196.62,131.76Z"/><path class="cls-4" d="M81.87,109.33a3,3,0,0,0-1.19,2.22v1.76A3,3,0,0,0,82,115.63l80.61,46.54a2.56,2.56,0,0,0,1,.3l.36,0h0v-4.86h0a3.27,3.27,0,0,1-.54,0,2.18,2.18,0,0,1-.79-.28L82,110.77C81.34,110.38,81.29,109.76,81.87,109.33Z"/><path class="cls-5" d="M184,142.89a5.4,5.4,0,0,0-4.77,0,1.91,1.91,0,0,0-.71.66c-.43.74.35,1.3.71,1.51a5.4,5.4,0,0,0,4.77,0,2,2,0,0,0,.72-.66C185.1,143.66,184.31,143.1,184,142.89Z"/><path class="cls-6" d="M105,99.91c.36-.2.36-.54,0-.75a1.44,1.44,0,0,0-1.31,0c-.36.21-.36.55,0,.75A1.44,1.44,0,0,0,105,99.91Z"/><path class="cls-6" d="M103,103.49c.32-.19.32-.49,0-.67a1.23,1.23,0,0,0-1.15,0c-.32.18-.32.48,0,.67A1.29,1.29,0,0,0,103,103.49Z"/><path class="cls-6" d="M104.93,102.38l6.49-3.74c.35-.21.37-.53,0-.73a1.38,1.38,0,0,0-1.25,0l-6.49,3.74c-.36.21-.37.53,0,.72A1.35,1.35,0,0,0,104.93,102.38Z"/><path class="cls-6" d="M205,133.07c.55.44.49,1-.18,1.43l-39.52,22.82a2.65,2.65,0,0,1-1.34.31v4.86a2.7,2.7,0,0,0,1.33-.32l39.53-22.81a3,3,0,0,0,1.33-2.32v-1.77A3,3,0,0,0,205,133.07Z"/><path class="cls-3" d="M100.87,123a1.46,1.46,0,0,1,.7,1.15.45.45,0,0,1-.19.4l-.49.28a.5.5,0,0,1-.5-.06l-9-5.18a1.48,1.48,0,0,1-.7-1.15.42.42,0,0,1,.18-.39l.5-.3a.52.52,0,0,1,.5.06Z"/><path class="cls-6" d="M100.39,123.3l-9-5.19c-.39-.22-.7-.06-.7.35a1.48,1.48,0,0,0,.7,1.15l9,5.18c.38.23.69.07.69-.34A1.48,1.48,0,0,0,100.39,123.3Z"/><path class="cls-3" d="M88.84,116.07a1.48,1.48,0,0,1,.7,1.15.43.43,0,0,1-.19.4l-.49.29a.52.52,0,0,1-.5-.06l-4.23-2.45a1.45,1.45,0,0,1-.69-1.14.45.45,0,0,1,.17-.4l.5-.29a.5.5,0,0,1,.5.06Z"/><path class="cls-6" d="M88.36,116.35l-4.23-2.44c-.39-.22-.69-.07-.69.35a1.45,1.45,0,0,0,.69,1.14l4.23,2.45c.38.22.69.06.69-.35A1.49,1.49,0,0,0,88.36,116.35Z"/></g><g id="Window"><path class="cls-7" d="M196.62,131.74l-2.53,1.46-33.67,19.43-.27.14a2.35,2.35,0,0,1-1.73,0l-.28-.14L94.21,115.72l-3.1-1.78a1.4,1.4,0,0,1-.29-.23c-.32-.35-.22-.8.29-1.1L127.3,91.72a2.32,2.32,0,0,1,1.4-.39,1.33,1.33,0,0,1,.53.18l67.39,38.91A.76.76,0,0,1,196.62,131.74Z"/><path class="cls-8" d="M196.62,131.74l-2.53,1.46-33.67,19.43-.27.14a2.35,2.35,0,0,1-1.73,0l-.28-.14L94.21,115.72l-3.1-1.78a1.4,1.4,0,0,1-.29-.23c-.32-.35-.22-.8.29-1.1L127.3,91.72a2.32,2.32,0,0,1,1.4-.39,1.33,1.33,0,0,1,.53.18l67.39,38.91A.76.76,0,0,1,196.62,131.74Z"/><path class="cls-3" d="M98.75,111.2l0,0-.17-.1-.43.25a.11.11,0,0,1-.08,0l-.06,0,0,0s0,0,0,0l-.18-.63v0s0,0,0,0l.06,0h.05a.07.07,0,0,1,.06,0l.62.35.09,0s0,0,0,0h.06l0,0s0,0,0,0,0,0,0,0l-.09,0,.18.1s0,0,0,0,0,0,0,0l-.07,0ZM98.4,111l-.44-.26.13.44Z"/><path class="cls-3" d="M99.16,110.85a1.26,1.26,0,0,1-.54-.17c-.18-.1-.27-.2-.28-.31s.06-.2.21-.29l.19-.08a.71.71,0,0,1,.2,0h0a0,0,0,0,1,0,0l0,.06v0h0a.71.71,0,0,0-.28.09c-.1.06-.15.12-.14.2s.08.14.22.22a.94.94,0,0,0,.39.13.54.54,0,0,0,.33-.08l.1-.06a.23.23,0,0,0,0-.07l-.28-.17-.18.11h0l-.06,0,0,0s0,0,0,0l0,0,.28-.16.06,0,.07,0,.41.24,0,0v0c0,.08-.1.16-.25.24A1,1,0,0,1,99.16,110.85Z"/><path class="cls-3" d="M102.7,108.73c.13.07.13.2,0,.28a.55.55,0,0,1-.5,0c-.14-.08-.14-.21,0-.28A.55.55,0,0,1,102.7,108.73Z"/><path class="cls-3" d="M101.79,108.49c-.25.15-.32.35-.23.53a.16.16,0,0,0,.15.06h0c.09,0,.14,0,.12-.1s0-.28.16-.38a1,1,0,0,1,.65-.09c.08,0,.16,0,.17-.07h0s0-.07-.09-.08A1.45,1.45,0,0,0,101.79,108.49Z"/><path class="cls-3" d="M101.4,108.26c-.38.22-.51.52-.4.79,0,0,.08.07.15.07h0c.08,0,.13-.05.12-.1-.09-.22,0-.47.32-.65a1.89,1.89,0,0,1,1.12-.18c.08,0,.16,0,.17-.07h0s0-.08-.11-.09A2.31,2.31,0,0,0,101.4,108.26Z"/><path class="cls-3" d="M108.72,104.72h0l0,0,.08-.37v0l0,0,.13-.07H109l1.07.61a0,0,0,0,1,0,0s0,0,0,0l-.14.08h-.09l-.81-.47-.05.24a0,0,0,0,1,0,0h-.22Z"/><path class="cls-3" d="M109.55,104.24h0l0,0,.08-.37a0,0,0,0,1,0,0l0,0,.13-.07h.09l1.06.61,0,0s0,0,0,0l-.14.08h-.08l-.82-.47,0,.24a0,0,0,0,1,0,0h-.22Z"/><path class="cls-3" d="M110.59,103.58h.09l.16.1s0,0,0,0l0,0-.15.09h-.09l-.16-.1,0,0s0,0,0,0Zm.58.34,0,0,.05,0,.16.09s0,0,0,0,0,0,0,0l-.15.09h-.09l-.16-.1s0,0,0,0,0,0,0,0Z"/><path class="cls-3" d="M112.3,103.55h-.09l-.2-.11-.51.29h-.09l-.12-.07,0,0s0,0,0,0l-.12-.65a.06.06,0,0,1,0-.07l.13-.07h.09l.65.38.15-.08h.08l.12.07a0,0,0,0,1,0,0l0,0-.14.08.2.12a0,0,0,0,1,0,0l0,0Zm-.5-.23-.35-.2.07.36Z"/><path class="cls-3" d="M111.85,102.53l0,0s0,0,0,0l.62-.35h.09l.11.06s0,0,0,0,0,0,0,0l-.46.27.19.13.07-.06.07,0a.66.66,0,0,1,.19-.09.76.76,0,0,1,.21,0,.74.74,0,0,1,.21,0,.7.7,0,0,1,.2.08.35.35,0,0,1,.14.12.19.19,0,0,1,0,.12.19.19,0,0,1-.07.12.58.58,0,0,1-.15.11.72.72,0,0,1-.22.1l-.2,0a.58.58,0,0,1-.19,0l-.15,0s0,0,0,0,0,0,0,0l.13-.08h.09l.09,0H113l.08,0,.08,0a.21.21,0,0,0,.1-.12.12.12,0,0,0-.08-.11.27.27,0,0,0-.18,0,.5.5,0,0,0-.21.05l-.07,0,0,0s0,0,0,0l0,0-.15.08h-.09Z"/><polygon class="cls-3" points="94.16 114.01 93.82 113.81 94.28 113.54 94.62 113.74 94.16 114.01"/><polygon class="cls-3" points="94.84 113.61 94.16 113.22 94.62 112.95 95.3 113.35 94.84 113.61"/><polygon class="cls-3" points="95.53 113.22 94.5 112.62 94.96 112.36 95.99 112.95 95.53 113.22"/><polygon class="cls-3" points="96.22 112.82 94.85 112.03 95.3 111.77 96.67 112.56 96.22 112.82"/><path class="cls-3" d="M127.17,93.66a.53.53,0,0,0-.27,0l-1.71,1c-.11.06-.08.18.07.26l.62.36a.7.7,0,0,0,.3.09h.14a.4.4,0,0,0,.13,0l1.71-1c.11-.07.08-.18-.07-.27l-.62-.36A.7.7,0,0,0,127.17,93.66Zm-1,1.68a.35.35,0,0,1-.13,0l-.62-.35c-.11-.07-.14-.16,0-.21l1.7-1,.07,0h0a.28.28,0,0,1,.12,0l.63.36c.11.06.13.15,0,.2l-1.71,1A.2.2,0,0,1,126.17,95.34Z"/><path class="cls-3" d="M125.8,94.61l.73.42-.26.16a.18.18,0,0,1-.1,0l-.54-.32c-.08,0-.1-.12,0-.15Z"/><polygon class="cls-3" points="125.92 94.54 126.24 94.35 126.98 94.78 126.66 94.96 125.92 94.54"/><polygon class="cls-3" points="126.37 94.28 126.69 94.1 127.43 94.52 127.11 94.71 126.37 94.28"/><path class="cls-3" d="M127.18,93.87l.53.31c.1,0,.08.13,0,.21l-.11.06-.74-.42.26-.15A.14.14,0,0,1,127.18,93.87Z"/><path class="cls-3" d="M127.54,93.72s.19,0,.31.08l.12.07c.13.07.2.16.15.18l-.08.06-.59-.34Z"/><polygon class="cls-3" points="122.82 96.54 124.14 95.39 124.84 96.38 123.93 96.13 122.82 96.54"/></g><g id="Button"><path class="cls-9" d="M151,144.9v.32a1.78,1.78,0,0,0,.82,1.41l6.38,3.69a1.8,1.8,0,0,0,1.63,0l31.47-18.18a1.82,1.82,0,0,0,.82-1.42v-.32a1.8,1.8,0,0,0-.82-1.41l-6.38-3.69a1.8,1.8,0,0,0-1.63,0l-31.47,18.18A1.8,1.8,0,0,0,151,144.9Z"/><path class="cls-5" d="M191.42,129.06c.34.26.3.63-.11.87l-31.47,18.18a1.8,1.8,0,0,1-.81.2v2.2a1.68,1.68,0,0,0,.82-.19l31.47-18.18a1.82,1.82,0,0,0,.82-1.42v-.32A1.85,1.85,0,0,0,191.42,129.06Z"/><path class="cls-5" d="M151.7,143.57a1.82,1.82,0,0,0-.69,1.32v.33a1.8,1.8,0,0,0,.82,1.41l6.38,3.69a1.67,1.67,0,0,0,.81.19v-2.2a1.77,1.77,0,0,1-.82-.2l-6.39-3.68C151.42,144.19,151.38,143.83,151.7,143.57Z"/><path class="cls-10" d="M161.15,141.25a.33.33,0,0,1,.16-.05l.15,0,3.35.94.07,0a.05.05,0,0,1,0,.05s0,0,0,0l-.5.28a.3.3,0,0,1-.14.05h-.11l-.44-.13-1.05.61.22.25a.07.07,0,0,1,0,.06s0,.06-.08.09l-.49.28a.21.21,0,0,1-.18,0l0,0-1.63-1.93a.14.14,0,0,1,0-.09s0-.06.08-.09Zm1.09,1.37.64-.37-1.27-.37Z"/><path class="cls-10" d="M163.68,139.79a2.72,2.72,0,0,1,.58-.24,2.15,2.15,0,0,1,.61-.09,2.47,2.47,0,0,1,.61,0,2,2,0,0,1,.55.2l.15.08.13.08.14.07.14.09a1.05,1.05,0,0,1,.34.32.54.54,0,0,1,.1.34.59.59,0,0,1-.16.35,1.29,1.29,0,0,1-.41.33l-1.06.62a.22.22,0,0,1-.22,0l-2.55-1.47a.07.07,0,0,1,0-.06.08.08,0,0,1,0-.07Zm1.6.33a1,1,0,0,0-1,0l-.4.23,1.5.87.42-.25c.33-.19.35-.38.06-.56l-.15-.09-.14-.08-.14-.09Z"/><path class="cls-10" d="M166.53,138.14a3,3,0,0,1,.58-.24,2.65,2.65,0,0,1,.62-.09,2.39,2.39,0,0,1,.6.05,2,2,0,0,1,.55.2l.16.08.13.08.13.07.14.09a1.23,1.23,0,0,1,.35.32.55.55,0,0,1,.09.34.64.64,0,0,1-.15.35,1.45,1.45,0,0,1-.41.34l-1.07.61a.18.18,0,0,1-.11,0,.17.17,0,0,1-.1,0l-2.55-1.47s-.05,0-.05-.06a.06.06,0,0,1,.05-.06Zm1.61.33a1,1,0,0,0-1,.05l-.4.23,1.5.87.42-.25c.34-.19.36-.38.07-.56l-.15-.09-.15-.08-.14-.08Z"/><path class="cls-10" d="M171,135.56a.17.17,0,0,1,.1,0,.18.18,0,0,1,.11,0l.42.24a.07.07,0,0,1,0,.06.05.05,0,0,1,0,.06l-.7.4,2,1.17a.08.08,0,0,1,0,.07.07.07,0,0,1,0,.06l-.52.3-.1,0-.11,0-2-1.17-.69.4-.11,0-.1,0-.42-.24s0,0,0-.07,0,0,0-.06Z"/><path class="cls-10" d="M172.36,136a1.16,1.16,0,0,1-.32-.3.61.61,0,0,1-.1-.34.7.7,0,0,1,.15-.35,1.57,1.57,0,0,1,.43-.34,2.55,2.55,0,0,1,.6-.25,3.33,3.33,0,0,1,.61-.09,2.72,2.72,0,0,1,.58.06,2.13,2.13,0,0,1,.52.18l.36.2.34.21a1,1,0,0,1,.32.3.51.51,0,0,1,.1.33.64.64,0,0,1-.15.35,1.59,1.59,0,0,1-.43.35,3.06,3.06,0,0,1-.6.25,2.62,2.62,0,0,1-.61.08,2.24,2.24,0,0,1-.58-.05,2.66,2.66,0,0,1-.52-.19l-.35-.19Zm2.42-.61-.15-.1-.17-.1-.18-.1-.16-.08a.7.7,0,0,0-.23-.08,1,1,0,0,0-.24,0l-.25,0a.82.82,0,0,0-.24.1.47.47,0,0,0-.18.15.2.2,0,0,0-.06.14.27.27,0,0,0,.05.14.92.92,0,0,0,.14.13l.14.09.18.1.18.1.17.09a1,1,0,0,0,.46.11,1,1,0,0,0,.5-.14c.16-.09.24-.19.23-.28A.37.37,0,0,0,174.78,135.36Z"/><path class="cls-10" d="M176.78,133.44l.14.08.18.11.19.11.15.08.21.08.24,0a.72.72,0,0,0,.25,0,1.12,1.12,0,0,0,.26-.11.63.63,0,0,0,.19-.15.19.19,0,0,0,.06-.12.14.14,0,0,0,0-.11l-.06-.09s0-.05,0-.07a.1.1,0,0,1,.06-.07l.52-.3.09,0,.08,0a.68.68,0,0,1,.28.28.45.45,0,0,1,.05.32.74.74,0,0,1-.18.35,1.58,1.58,0,0,1-.41.32,2.55,2.55,0,0,1-.59.25,2.62,2.62,0,0,1-.61.08,2.32,2.32,0,0,1-.59-.05,2.82,2.82,0,0,1-.51-.19l-.35-.19-.35-.21a1.31,1.31,0,0,1-.32-.29.63.63,0,0,1-.1-.34.7.7,0,0,1,.15-.36,1.57,1.57,0,0,1,.43-.34,2.13,2.13,0,0,1,.56-.23,2.53,2.53,0,0,1,.6-.11,2.6,2.6,0,0,1,.56,0,1.29,1.29,0,0,1,.48.16.05.05,0,0,1,0,.1l-.51.3a.24.24,0,0,1-.12,0l-.13,0-.15,0a.59.59,0,0,0-.19,0,1,1,0,0,0-.22,0,.77.77,0,0,0-.25.11.63.63,0,0,0-.19.15.27.27,0,0,0,0,.14.42.42,0,0,0,.06.14Z"/><path class="cls-10" d="M179.28,130.78a.32.32,0,0,1,.16,0h.15l3.35.94.07,0a.05.05,0,0,1,0,.05s0,0,0,0l-.49.29a.34.34,0,0,1-.15,0h-.11l-.44-.13-1,.61.22.25a.07.07,0,0,1,0,.06s0,.06-.07.09l-.5.29-.09,0-.09,0,0-.05-1.63-1.93,0-.08s0-.07.08-.1Zm1.09,1.37.64-.37-1.27-.36Z"/><path class="cls-10" d="M181.83,129.31a3.41,3.41,0,0,1,.52-.24,2.55,2.55,0,0,1,.52-.11,1.72,1.72,0,0,1,1,.23.79.79,0,0,1,.37.35.38.38,0,0,1-.05.37l1.43.26.06,0s0,0,0,.05a.05.05,0,0,1,0,0l-.54.31a.3.3,0,0,1-.15.05h-.12l-1.29-.24-.36.21.84.49s.05,0,.05.06a.06.06,0,0,1-.05.06l-.51.3a.22.22,0,0,1-.22,0l-2.55-1.47a.07.07,0,0,1,0-.06.05.05,0,0,1,0-.06Zm.75.95L183,130a.45.45,0,0,0,.21-.2c0-.06,0-.13-.12-.19a.51.51,0,0,0-.34-.07,1.16,1.16,0,0,0-.34.12l-.44.26Z"/><path class="cls-10" d="M185.41,127.24l.1,0,.11,0,.42.25a.05.05,0,0,1,0,.06.07.07,0,0,1,0,.06l-.7.4,2,1.17a.07.07,0,0,1,0,.06.05.05,0,0,1,0,.06l-.52.3a.17.17,0,0,1-.1,0,.18.18,0,0,1-.11,0l-2-1.17-.69.4a.22.22,0,0,1-.22,0l-.41-.24a.06.06,0,0,1,0-.06s0,0,0-.06Z"/><path class="cls-10" d="M156.21,143.4a1.1,1.1,0,0,0,0,2.08,4,4,0,0,0,3.62,0,1.1,1.1,0,0,0,0-2.08A4,4,0,0,0,156.21,143.4Zm3,.68-.67.39.67.39a.13.13,0,0,1,0,.25.49.49,0,0,1-.44,0l-.67-.39-.67.39a.51.51,0,0,1-.45,0,.13.13,0,0,1,0-.25l.67-.39-.67-.39a.14.14,0,0,1,0-.26.51.51,0,0,1,.45,0l.67.39.67-.39a.49.49,0,0,1,.44,0A.14.14,0,0,1,159.18,144.08Z"/></g></g><g id="Cart"><path class="cls-4" d="M163,119.06a5.53,5.53,0,0,0-2.48-4.35,1.68,1.68,0,0,0-1.83-.14h0l-1.7,1,3.55,6.13,1.68-1h0A1.75,1.75,0,0,0,163,119.06Z"/><path class="cls-3" d="M158.77,115.71a5.5,5.5,0,0,1,2.47,4.35c0,1.6-1.13,2.24-2.51,1.43a5.54,5.54,0,0,1-2.48-4.35C156.26,115.54,157.39,114.9,158.77,115.71Z"/><path class="cls-6" d="M157.91,118.1c0-.62.38-.9.85-.63a2.05,2.05,0,0,1,.84,1.62c0,.63-.39.91-.86.64A2,2,0,0,1,157.91,118.1Z"/><path class="cls-5" d="M161.24,120.06a4.5,4.5,0,0,0-.34-1.68l-4.3-2.49a2.16,2.16,0,0,0-.35,1.25s0,0,0,.06l5,2.89Z"/><path class="cls-3" d="M145.19,132.68a5.33,5.33,0,0,1-2.65-.48l-23.46-13.51a5.94,5.94,0,0,1-3.11-4.32l-.72-16.72,1.31-.07.72,16.71a4.68,4.68,0,0,0,2.38,3.23L143.13,131a4.49,4.49,0,0,0,3.93-.22l15.65-9c.37-.24.59-.54.57-.78s-.24-.5-.64-.7l-25.12-14.58a6,6,0,0,1-3.1-4.33l-.35-9.26,1.31-.08.35,9.27a4.71,4.71,0,0,0,2.38,3.23l25.12,14.58a2.21,2.21,0,0,1,1.36,1.79,2.27,2.27,0,0,1-1.16,2l-15.65,9A5.44,5.44,0,0,1,145.19,132.68Z"/><path class="cls-4" d="M141,132.3a5.53,5.53,0,0,0-2.48-4.35,1.68,1.68,0,0,0-1.83-.14h0l-1.7.95,3.56,6.13,1.68-1h0A1.73,1.73,0,0,0,141,132.3Z"/><path class="cls-3" d="M136.73,129a5.51,5.51,0,0,1,2.48,4.35c0,1.6-1.14,2.24-2.52,1.43a5.56,5.56,0,0,1-2.47-4.35C134.23,128.78,135.35,128.14,136.73,129Z"/><path class="cls-6" d="M135.87,131.34c0-.62.38-.9.85-.63a2,2,0,0,1,.84,1.62c0,.63-.39.91-.85.64A2,2,0,0,1,135.87,131.34Z"/><path class="cls-4" d="M123.64,122.31a5.51,5.51,0,0,0-2.47-4.36,1.72,1.72,0,0,0-1.83-.14h0l-1.7,1,3.55,6.13,1.68-1h0A1.72,1.72,0,0,0,123.64,122.31Z"/><path class="cls-3" d="M119.41,119a5.54,5.54,0,0,1,2.47,4.36c0,1.59-1.14,2.23-2.52,1.42a5.52,5.52,0,0,1-2.46-4.36C116.91,118.78,118,118.14,119.41,119Z"/><path class="cls-6" d="M118.54,121.34c0-.62.39-.9.86-.63a2,2,0,0,1,.83,1.63c0,.62-.39.91-.85.63A2,2,0,0,1,118.54,121.34Z"/><path class="cls-3" d="M112.46,77.4a4.38,4.38,0,0,1,1.68-4.64L129.73,64a2.21,2.21,0,0,1,3.47,1.34l1.08,3.51-1.07.62-1.16-3.55a1.17,1.17,0,0,0-1.86-.65L115,73.81a2.85,2.85,0,0,0-1.09,3l.91,3.37-1.27.74Z"/><polygon class="cls-7" points="136.58 94.31 115.63 106.41 146.25 124.09 167.2 111.99 136.58 94.31"/><polygon class="cls-5" points="136.58 94.31 115.63 106.41 146.25 124.09 167.2 111.99 136.58 94.31"/><polygon class="cls-7" points="113.55 80.91 134.28 68.8 136.58 94.31 115.63 106.41 113.55 80.91"/><polygon class="cls-5" points="113.55 80.91 134.28 68.8 136.58 94.31 115.63 106.41 113.55 80.91"/><path class="cls-7" d="M134.28,68.8l2.3,25.51L167.2,112,172,90.59ZM145,93.33a1.77,1.77,0,0,1-2.2-1.14l-5.06-13.13a1.65,1.65,0,1,1,3.06-1.18L145.85,91A1.76,1.76,0,0,1,145,93.33Zm9.56,4.5a1.77,1.77,0,0,1-2.2-1.14l-5.06-13.13a1.65,1.65,0,1,1,3.06-1.18l5.06,13.13A1.76,1.76,0,0,1,154.55,97.83Zm9.56,4.49a1.75,1.75,0,0,1-2.2-1.13l-5.06-13.14a1.65,1.65,0,1,1,3.06-1.17L165,100A1.75,1.75,0,0,1,164.11,102.32Z"/><path class="cls-5" d="M134.28,68.8l2.3,25.51L167.2,112,172,90.59ZM145,93.33a1.77,1.77,0,0,1-2.2-1.14l-5.06-13.13a1.65,1.65,0,1,1,3.06-1.18L145.85,91A1.76,1.76,0,0,1,145,93.33Zm9.56,4.5a1.77,1.77,0,0,1-2.2-1.14l-5.06-13.13a1.65,1.65,0,1,1,3.06-1.18l5.06,13.13A1.76,1.76,0,0,1,154.55,97.83Zm9.56,4.49a1.75,1.75,0,0,1-2.2-1.13l-5.06-13.14a1.65,1.65,0,1,1,3.06-1.17L165,100A1.75,1.75,0,0,1,164.11,102.32Z"/><path class="cls-7" d="M113.55,80.91l2.08,25.5,30.62,17.68,4.83-21.4ZM125.63,106a1.74,1.74,0,0,1-2.19-1.14l-5.06-13.13a1.65,1.65,0,1,1,3.06-1.18l5.06,13.13A1.76,1.76,0,0,1,125.63,106Zm9.56,4.5a1.76,1.76,0,0,1-2.19-1.14l-5.06-13.13A1.65,1.65,0,1,1,131,95.06l5.06,13.13A1.76,1.76,0,0,1,135.19,110.51Zm9.56,4.5a1.76,1.76,0,0,1-2.19-1.14l-5.06-13.13a1.65,1.65,0,1,1,3.06-1.18l5.06,13.13A1.76,1.76,0,0,1,144.75,115Z"/><path class="cls-11" d="M113.55,80.91l2.08,25.5,30.62,17.68,4.83-21.4ZM125.63,106a1.74,1.74,0,0,1-2.19-1.14l-5.06-13.13a1.65,1.65,0,1,1,3.06-1.18l5.06,13.13A1.76,1.76,0,0,1,125.63,106Zm9.56,4.5a1.76,1.76,0,0,1-2.19-1.14l-5.06-13.13A1.65,1.65,0,1,1,131,95.06l5.06,13.13A1.76,1.76,0,0,1,135.19,110.51Zm9.56,4.5a1.76,1.76,0,0,1-2.19-1.14l-5.06-13.13a1.65,1.65,0,1,1,3.06-1.18l5.06,13.13A1.76,1.76,0,0,1,144.75,115Z"/><polygon class="cls-7" points="151.08 102.69 172.03 90.59 167.2 111.99 146.25 124.09 151.08 102.69"/><polygon class="cls-5" points="151.08 102.69 172.03 90.59 167.2 111.99 146.25 124.09 151.08 102.69"/></g><g id="Arrow"><polygon class="cls-4" points="158.63 56.49 156.21 57.91 156.22 50.58 154.75 49.73 148.11 53.57 148.1 62.6 144.23 64.8 152.89 70.42 160.09 57.33 158.63 56.49"/><polygon class="cls-5" points="149.58 54.41 149.56 63.45 145.69 65.64 152.89 70.42 160.09 57.33 156.2 59.62 156.22 50.58 149.58 54.41"/><polygon class="cls-6" points="148.11 53.57 149.58 54.41 149.56 63.45 148.1 62.6 148.11 53.57"/></g><g id="Bag"><polygon class="cls-7" points="118.11 62.18 139.1 50.06 137.35 24.83 118.11 35.93 118.11 62.18"/><polygon class="cls-9" points="118.11 62.18 139.1 50.06 137.35 24.83 118.11 35.93 118.11 62.18"/><polygon class="cls-7" points="118.11 35.93 118.11 33.91 112.87 32.9 132.1 21.8 133.85 24.83 137.35 24.83 118.11 35.93"/><polygon class="cls-9" points="118.11 35.93 118.11 33.91 112.87 32.9 132.1 21.8 133.85 24.83 137.35 24.83 118.11 35.93"/><polygon class="cls-7" points="132.1 21.8 132.1 27.86 133.85 26.84 133.85 24.83 132.1 21.8"/><polygon class="cls-5" points="132.1 21.8 132.1 27.86 133.85 26.84 133.85 24.83 132.1 21.8"/><polygon class="cls-7" points="137.35 24.83 133.85 24.83 133.85 26.84 137.35 24.83"/><polygon class="cls-5" points="137.35 24.83 133.85 24.83 133.85 26.84 137.35 24.83"/><polygon class="cls-7" points="112.87 32.9 111.12 58.14 118.11 62.18 118.11 35.93 118.11 33.91 112.87 32.9"/><polygon class="cls-5" points="112.87 32.9 111.12 58.14 118.11 62.18 118.11 35.93 118.11 33.91 112.87 32.9"/><polygon class="cls-7" points="118.11 33.91 114.62 60.16 118.11 62.18 118.11 33.91"/><polygon class="cls-5" points="118.11 33.91 114.62 60.16 118.11 62.18 118.11 33.91"/><polygon class="cls-9" points="118.11 62.18 114.91 57.97 111.12 58.14 118.11 62.18"/><path class="cls-4" d="M118.54,32.63c0,.35.24.49.54.31a1.19,1.19,0,0,0,.54-.93.33.33,0,0,0-.54-.31A1.18,1.18,0,0,0,118.54,32.63Z"/><path class="cls-4" d="M125.7,28.6c0,.34.24.48.54.31a1.22,1.22,0,0,0,.53-.94c0-.34-.24-.48-.53-.31A1.19,1.19,0,0,0,125.7,28.6Z"/><path class="cls-4" d="M119.08,32.24a.18.18,0,0,1-.18-.18V27.65c0-1.92,1.64-4.43,3.67-5.6a3,3,0,0,1,2.93-.35,2,2,0,0,1,.92,1.87V28a.18.18,0,1,1-.36,0V23.57a1.68,1.68,0,0,0-.74-1.56,2.67,2.67,0,0,0-2.57.35c-1.93,1.11-3.49,3.49-3.49,5.29v4.41A.18.18,0,0,1,119.08,32.24Z"/><path class="cls-3" d="M123.87,35.66c0,.35.24.48.54.31a1.2,1.2,0,0,0,.53-.93c0-.34-.24-.48-.53-.31A1.18,1.18,0,0,0,123.87,35.66Z"/><path class="cls-3" d="M131,31.62c0,.35.24.49.53.31a1.17,1.17,0,0,0,.54-.93c0-.34-.24-.48-.54-.31A1.2,1.2,0,0,0,131,31.62Z"/><path class="cls-3" d="M124.41,35.27a.19.19,0,0,1-.19-.18V30.68c0-1.92,1.65-4.43,3.67-5.6a3,3,0,0,1,2.94-.35,2,2,0,0,1,.92,1.87v4.45a.19.19,0,0,1-.19.18.18.18,0,0,1-.18-.18V26.6a1.68,1.68,0,0,0-.73-1.56,2.67,2.67,0,0,0-2.57.35c-1.93,1.11-3.49,3.49-3.49,5.29v4.41A.18.18,0,0,1,124.41,35.27Z"/></g><g id="Character"><path class="cls-12" d="M195.42,49.53c-1.08,2.33-2.93,6.18-3.95,8.32l-4-4.68h-3.34s4,8.57,6.41,10.56a1.88,1.88,0,0,0,2.74-.17,34.9,34.9,0,0,0,2.7-3.7c1.89-2.93,2.74-4.2,2.74-4.2l2.39-10C199.05,45.44,196.92,46.29,195.42,49.53Z"/><path class="cls-7" d="M201.53,45.59c-1.28-.05-2.67-.21-3.88.85A9.86,9.86,0,0,0,195,50.18c-.82,1.93-2.1,4.38-2.1,4.38a10.51,10.51,0,0,0,2.39,2.49,6,6,0,0,0,2.86,1.21Z"/><path class="cls-5" d="M201.53,45.59c-1.28-.05-2.67-.21-3.88.85A9.86,9.86,0,0,0,195,50.18c-.82,1.93-2.1,4.38-2.1,4.38a10.51,10.51,0,0,0,2.39,2.49,6,6,0,0,0,2.86,1.21Z"/><path class="cls-13" d="M191.47,57.85a14.11,14.11,0,0,1,1.22,1.67,5.84,5.84,0,0,0-1-2.12Z"/><path class="cls-11" d="M191.26,46.46s-4.26-.54-3.6-2.16S183.82,54.74,188.92,57c0,0,1.38-3.06,1.56-1.38-.9-1.62-.42-.78-1.2-.84s-2.94-1-2-3.24S191.26,46.46,191.26,46.46Z"/><path class="cls-11" d="M181.05,46.22s4.26-.54,3.6-2.16,3.84,10.44-1.26,12.72c0,0-1.38-3.06-1.56-1.38.9-1.62.42-.78,1.2-.84s2.94-1,2-3.24S181.05,46.22,181.05,46.22Z"/><path class="cls-12" d="M184.4,54.39c-.89-1.83-.87-4.12-.46-4.78l.28,1.06a6,6,0,0,0,2,.45c.66-.09,1.2-.37,1.38-.14a2.85,2.85,0,0,1-.6,3.26A3.84,3.84,0,0,1,184.4,54.39Z"/><g id="Botom"><path class="cls-12" d="M213,114.43a4,4,0,0,1-3.5,0l-.51-6.67,4,.53Z"/><path class="cls-12" d="M200.67,110.45c-.87,1.87-2.44,1.35-4.21.15l.31-6.7H201Z"/><path class="cls-6" d="M205.46,120.74a1.54,1.54,0,0,0,0,1,3.22,3.22,0,0,0,2.29,1,5.69,5.69,0,0,0,3.3-.58,2.31,2.31,0,0,0,1.23-1.8,4.7,4.7,0,0,1,.35-2.07c.33-.54.86-1.14,1-1.43a3,3,0,0,0,0-1.54Z"/><path class="cls-4" d="M209.11,114.14a3.56,3.56,0,0,1-.16.84,7.77,7.77,0,0,1-.82,1.66,7,7,0,0,1-.55.79c-.4.47-.9.87-1.33,1.32a2.8,2.8,0,0,0-.82,1.64c-.05,1,1.08,1.39,1.95,1.55a6.45,6.45,0,0,0,2.83-.15,2.56,2.56,0,0,0,1.9-2.07c0-.29,0-.59.07-.88A4.09,4.09,0,0,1,213,117a5.66,5.66,0,0,0,.62-1,3.19,3.19,0,0,0-.12-2c-.15-.55-.32-1.18-.52-1.13a.78.78,0,0,1,0,.34,1.2,1.2,0,0,0-.16.32,2.72,2.72,0,0,1-.15.43,1.16,1.16,0,0,1-.47.51c0-.39,0-.78,0-1.18A.5.5,0,0,0,212,113a.56.56,0,0,0-.33-.15,7.59,7.59,0,0,0-2.23-.18.42.42,0,0,0-.3.13.47.47,0,0,0,0,.27A8.22,8.22,0,0,1,209.11,114.14Z"/><path class="cls-14" d="M208,116.86a3,3,0,0,1,1.74-.24,2.91,2.91,0,0,1,1.35.47.29.29,0,0,0,.39,0h0a.28.28,0,0,0,0-.44,3,3,0,0,0-1.52-.56,3,3,0,0,0-1.51.11S207.88,116.52,208,116.86Z"/><path class="cls-14" d="M207.1,117.93a3.75,3.75,0,0,1,1.92-.2,2.73,2.73,0,0,1,1.31.5.3.3,0,0,0,.4,0h0a.28.28,0,0,0,0-.44,3.09,3.09,0,0,0-1.55-.61c-1.17-.08-1.48.16-1.48.16A1,1,0,0,0,207.1,117.93Z"/><path class="cls-14" d="M210.39,114.94a2.8,2.8,0,0,0-1.47.12c-.21.11-.34.44-.21.52a2.82,2.82,0,0,1,1.3-.18,4,4,0,0,1,1.27.35l.32.17a.29.29,0,0,0,.39-.12h0a.27.27,0,0,0-.11-.34A3.64,3.64,0,0,0,210.39,114.94Z"/><path class="cls-6" d="M189.48,114.73a1.26,1.26,0,0,0,.06.93,4.6,4.6,0,0,0,3.45.94,8,8,0,0,0,4-1.38,4.66,4.66,0,0,1,2.43-.63,3.49,3.49,0,0,0,2.4-1,2.06,2.06,0,0,0,0-1.2Z"/><path class="cls-4" d="M197.17,108.85l-.5-.18a.45.45,0,0,0-.28,0c-.12,0-.17.19-.21.32a4.78,4.78,0,0,1-.2.83,2.21,2.21,0,0,1-.54.56,9.1,9.1,0,0,1-1.53,1c-.62.33-1.24.59-1.88.88a16.48,16.48,0,0,0-2.05.83,1.37,1.37,0,0,0,0,2.27,6.68,6.68,0,0,0,4.71.33c1.11-.31,2.34-1.5,3.8-1.61.92-.08,2.67-.34,3.27-1,.22-.31-.08-1.3-.32-2.15s-.36-2.39-.67-2.3c0,.3-.29.48-.45.74a4.08,4.08,0,0,0-.33.74,1.37,1.37,0,0,1-.49.64.63.63,0,0,1-.75,0c-.27-.28-.11-.78-.31-1.12a1.18,1.18,0,0,0-.65-.42Z"/><path class="cls-14" d="M194.77,110.83a.88.88,0,0,1,.69-.45,2.46,2.46,0,0,1,1.62.61.34.34,0,0,1-.05.57h0a.35.35,0,0,1-.39,0A2.61,2.61,0,0,0,194.77,110.83Z"/><path class="cls-14" d="M193.47,111.56a1,1,0,0,1,.81-.41,3.09,3.09,0,0,1,1.78.66.34.34,0,0,1-.05.55h0a.33.33,0,0,1-.38,0A2.65,2.65,0,0,0,193.47,111.56Z"/><path class="cls-14" d="M192,112.22a1.1,1.1,0,0,1,.84-.37,2.89,2.89,0,0,1,1.7.67.33.33,0,0,1,0,.55h0a.33.33,0,0,1-.38,0A2.53,2.53,0,0,0,192,112.22Z"/><path class="cls-4" d="M212.46,64.23c.24,7.3.23,25,.23,25,.07.9.44,2.77.74,6.4.4,4.73-.46,15.12-.46,15.12a4.81,4.81,0,0,1-3.8,0s-2.29-14.82-3-19.5c-.64-4.11-1.88-13.33-1.88-13.33l-1.44,12a24.65,24.65,0,0,1-.15,6c-.33,2.15-1.82,11-1.82,11a7.58,7.58,0,0,1-4.23-.16s-.14-15.33-.18-17.32c0-2.27,1-27,1-27Z"/><path class="cls-6" d="M204.28,77.91l-1.08-6A8.56,8.56,0,0,1,198.55,70s.3,1.63,4.06,2.61l1.08,6-.85,11.25Z"/></g><path class="cls-15" d="M197.84,51.21c.32-2.34.63-5.48,4.25-5.63l4.67.23c1.15.3,5.63.83,5.63.83l.08,10.13s.29,7.31.2,11.22c-3.35,2.12-10.63,2.81-15.2-.66C197.33,64.1,197.52,53.52,197.84,51.21Z"/><path class="cls-4" d="M198.44,33.56A4.63,4.63,0,0,0,200.49,40l-.85.57,8.41.76-.11,2a1.55,1.55,0,0,0,.9-.68A38.58,38.58,0,0,0,210,38.85c.79-1.81,1.17-3.67.61-4.29a1.62,1.62,0,0,0-.84-.48l1.13-.56a.9.9,0,0,0-1.21-.45.86.86,0,0,0-.26.2,2.25,2.25,0,0,0,.06-.36,1.69,1.69,0,0,0-.25-1.06,2,2,0,0,0-.59-.52,15.43,15.43,0,0,0-3.12-1.18c-.6-.21-1.18-.47-1.76-.71a2.26,2.26,0,0,0-1.24-.23.82.82,0,0,0-.69.91,1.57,1.57,0,0,0-1.74-.26,1.35,1.35,0,0,0-.84,1.37,1.71,1.71,0,0,0-1.14.11,1,1,0,0,0-.56.94A2.24,2.24,0,0,0,198.44,33.56Z"/><path class="cls-12" d="M204.36,34.74c.77-.09,1.54-.22,2.31-.34a.19.19,0,0,1,.26.14c.51,1.47.49,3.07.89,4.58,0,.13.13.37.29.39s.5-.24.63-.47l.29-.51a1.39,1.39,0,0,1,.21-.27,1.16,1.16,0,0,1,1.92.4,2.44,2.44,0,0,1-1.42,2.91c-1.48.41-1.67-.54-1.67-.54l-.29,5.28c-1.31,1.37-5.61.9-4.76-.29l.06-1.61a9.29,9.29,0,0,1-2,0,2.68,2.68,0,0,1-2-2.25,19.68,19.68,0,0,1-.05-7.08,3.68,3.68,0,0,1,.26-1A8.38,8.38,0,0,0,204.36,34.74Z"/><path class="cls-13" d="M203.08,44.41a18.12,18.12,0,0,0,3.27-.82,2.74,2.74,0,0,0,1.2-1.12,3.84,3.84,0,0,1-.7,1.34c-.64.76-3.79,1.24-3.79,1.24Z"/><path class="cls-6" d="M203.42,38.45a.53.53,0,0,0,.5.55.54.54,0,0,0,0-1.07A.53.53,0,0,0,203.42,38.45Z"/><path class="cls-6" d="M204.14,36.3l1.08.47a.62.62,0,0,0-.31-.8A.58.58,0,0,0,204.14,36.3Z"/><path class="cls-16" d="M204.05,41.26l-1.7.57a.88.88,0,0,0,1.12.6A.94.94,0,0,0,204.05,41.26Z"/><path class="cls-13" d="M203.47,42.43a.92.92,0,0,0,.59-.65.82.82,0,0,0-.31-.07.77.77,0,0,0-.76.74A1,1,0,0,0,203.47,42.43Z"/><path class="cls-6" d="M199.12,36.73l1.08-.41a.57.57,0,0,0-.73-.33A.6.6,0,0,0,199.12,36.73Z"/><path class="cls-6" d="M199.5,38.45a.52.52,0,0,0,.5.55.53.53,0,0,0,.54-.52.54.54,0,0,0-.5-.56A.54.54,0,0,0,199.5,38.45Z"/><path class="cls-13" d="M202,38.29,202,41.15l-1.6-.46,1.49-2.42A.35.35,0,0,1,202,38.29Z"/><path class="cls-7" d="M197.27,54.11c.13-3,.36-5.57,1.46-7s1.69-1.65,4.31-1.61v.18a1,1,0,0,0-.74.43,15.48,15.48,0,0,0-2,4.46c-.76,2.88-.89,9.3-.93,12.76s0,6.25,0,6.25-1.75-.41-2.29-1.29C197.06,68.33,197.15,57.07,197.27,54.11Z"/><path class="cls-5" d="M197.27,54.11c.13-3,.36-5.57,1.46-7s1.69-1.65,4.31-1.61v.18a1,1,0,0,0-.74.43,15.48,15.48,0,0,0-2,4.46c-.76,2.88-.89,9.3-.93,12.76s0,6.25,0,6.25-1.75-.41-2.29-1.29C197.06,68.33,197.15,57.07,197.27,54.11Z"/><path class="cls-7" d="M206.3,49.4A16.57,16.57,0,0,1,207.79,46l3.27.46c1.2.56,2.77,1.88,2.65,3.2l-.86,9.7.24,9.18c-1.87,2.9-7.43,2.37-7.43,2.37s-.16-4.13,0-12.11C205.78,54.3,205.83,51.41,206.3,49.4Z"/><path class="cls-5" d="M206.3,49.4A16.57,16.57,0,0,1,207.79,46l3.27.46c1.2.56,2.77,1.88,2.65,3.2l-.86,9.7.24,9.18c-1.87,2.9-7.43,2.37-7.43,2.37s-.16-4.13,0-12.11C205.78,54.3,205.83,51.41,206.3,49.4Z"/><path class="cls-4" d="M206.15,50.18c.22-1,.33-2.9.51-3.28s1.15-1.13,1.19-1.64v-.33a1.69,1.69,0,0,1,.82.42c.3.27,1.21.9,1.21.9a4.13,4.13,0,0,1-.68,1.75c-.54.77-1.28,1.27-1.4,1.08s-.09-.48-.29-.93-.3-.8-.57-.25S206.15,50.18,206.15,50.18Z"/><path class="cls-4" d="M200.58,49.63c-.27.85.43-3,.88-3.63a3.08,3.08,0,0,1,1.61-.93l0,.82a1.25,1.25,0,0,0-.73.51A13.81,13.81,0,0,0,200.58,49.63Z"/><path class="cls-7" d="M206,51a67.4,67.4,0,0,1,7.46,1.16l0,.28A70.08,70.08,0,0,0,206,51.26Z"/><path class="cls-7" d="M197.5,50.93c.82-.1,1.74-.18,2.76-.23,0,.09,0,.18-.07.27-1,.05-1.92.14-2.72.24Z"/><path class="cls-12" d="M219.81,59.52c-3.5-8.87-4.26-11.63-6.72-12.65a6.78,6.78,0,0,0-2-.43,7.91,7.91,0,0,0,1.42,8.39s2.11,5.21,3.18,7.67a32.53,32.53,0,0,1-.61,7.9,2.29,2.29,0,0,1-.84,1.13c-.89.48-1,1-1.69,1.66s-1,.61-.88.77a1,1,0,0,0,1.13.4,8.46,8.46,0,0,0,1.37-.72A8.14,8.14,0,0,1,212.53,76c-1.27,1.42-1.58,2.45,1,2.55,1.6.06,3.32-1.25,4.4-4.43.22-.63.44-1.54.66-2.43.17-.38,1.34-6.35,1.58-8.17C220.45,61.23,220.37,61,219.81,59.52Z"/><path class="cls-7" d="M210.62,46.44a5,5,0,0,1,3.09.55c1.39.83,1.86,1.56,3.53,5.44s2,4.62,2,4.62-.75,2.21-5.19,2.47l-2-4.54a9.14,9.14,0,0,1-1.8-4.6A10.5,10.5,0,0,1,210.62,46.44Z"/><path class="cls-5" d="M210.62,46.44a5,5,0,0,1,3.09.55c1.39.83,1.86,1.56,3.53,5.44s2,4.62,2,4.62-.75,2.21-5.19,2.47l-2-4.54a9.14,9.14,0,0,1-1.8-4.6A10.5,10.5,0,0,1,210.62,46.44Z"/></g><path class="cls-17" d="M187.6,46.34l2,.69a21.73,21.73,0,0,0-2.13,3C187.18,50.72,187.27,47.33,187.6,46.34Z"/><path class="cls-17" d="M184.67,46l-1.95.69a21.73,21.73,0,0,1,2.13,3C185.09,50.33,185,46.94,184.67,46Z"/></svg>