<svg id="Layer_1" data-name="Layer 1" xmlns="http://www.w3.org/2000/svg" viewBox="0 0 288 187"><defs><style>.cls-1{fill:#ffc1b2;opacity:0.25;}.cls-2{fill:#e1e1e1;}.cls-3{fill:#2b454e;}.cls-4{fill:#1a2e35;}.cls-5{fill:#375a64;}.cls-6{fill:#fafafa;}.cls-7{fill:#ff957a;}.cls-11,.cls-12,.cls-13,.cls-14,.cls-17,.cls-19,.cls-8{fill:#fff;}.cls-8{opacity:0.3;}.cls-9{fill:#ff8364;}.cls-10{fill:#ff9090;}.cls-11{opacity:0.35;}.cls-12{opacity:0.95;}.cls-13{opacity:0.8;}.cls-14,.cls-20{opacity:0.7;}.cls-15{fill:#ffaaa8;}.cls-16{fill:#c76668;}.cls-17,.cls-18{opacity:0.4;}</style></defs><title>1</title><ellipse id="Floor" class="cls-1" cx="151.95" cy="123.26" rx="87.9" ry="45.06"/><path id="Shadow" class="cls-2" d="M117.7,166.83,67.16,137.71a1.18,1.18,0,0,1,0-2.23L169.73,76.29a4.24,4.24,0,0,1,3.86,0l50.55,29.11a1.18,1.18,0,0,1,0,2.23l-102.58,59.2A4.3,4.3,0,0,1,117.7,166.83Z"/><g id="Device"><g id="Mobile"><path class="cls-3" d="M70.5,135.86l47,27.12a5.07,5.07,0,0,0,4.91.09L217,108.45a5.64,5.64,0,0,0,2.7-4.3,5.64,5.64,0,0,0-2.7-4.3l-46.81-27a6,6,0,0,0-5.4,0L70.5,127.26a4.77,4.77,0,0,0,0,8.6Z"/><path class="cls-4" d="M117.49,163l-47-27.12a4.77,4.77,0,0,1,0-8.6l49.55-28.61v65A5,5,0,0,1,117.49,163Z"/><path class="cls-5" d="M118.61,158.15a5.32,5.32,0,0,0,4.76,0L217,104.08c2-1.16,2-3.06,0-4.22l-46.82-27a6,6,0,0,0-5.4,0L70.51,127.26c-1.49.85-1.49,2.26,0,3.11Z"/><path class="cls-3" d="M123.16,152.7a5.66,5.66,0,0,0,5.13,0l80.58-46.52c1.41-.82,1.41-2.14,0-3L164.82,77.79a5.72,5.72,0,0,0-5.13,0L79.11,124.31c-1.41.82-1.41,2.15,0,3Z"/><path class="cls-4" d="M162.41,77.19a5.24,5.24,0,0,1,2.41.6l44.05,25.43c1.41.82,1.41,2.14,0,3l-8.74,5L162.41,87.13Z"/><path class="cls-6" d="M159.66,79.72a5.66,5.66,0,0,1,5.13,0l44.05,25.43a2.6,2.6,0,0,1,.66.53,2.53,2.53,0,0,1-.63.5L128.29,152.7a5.66,5.66,0,0,1-5.13,0l-44-25.43a2.11,2.11,0,0,1-.66-.53,2.53,2.53,0,0,1,.63-.5Z"/><path class="cls-4" d="M192.76,91.33,185,86.82c-.47-.27-.49-.69-.05-.94a1.77,1.77,0,0,1,1.63,0l7.81,4.5c.46.27.49.69.05,1A1.82,1.82,0,0,1,192.76,91.33Z"/><path class="cls-4" d="M179.36,83.6a.48.48,0,0,1,0-.91,1.7,1.7,0,0,1,1.58,0,.48.48,0,0,1,0,.91A1.76,1.76,0,0,1,179.36,83.6Z"/><path class="cls-4" d="M176.19,81.77a.48.48,0,0,1,0-.91,1.72,1.72,0,0,1,1.59,0,.48.48,0,0,1,0,.91A1.78,1.78,0,0,1,176.19,81.77Z"/><path class="cls-4" d="M201.51,96.39c-.44-.26-.44-.66,0-.92a1.76,1.76,0,0,1,1.58,0c.44.26.44.66,0,.92A1.76,1.76,0,0,1,201.51,96.39Z"/><path class="cls-4" d="M198.35,94.56c-.44-.25-.44-.66,0-.92a1.76,1.76,0,0,1,1.58,0c.44.26.44.67,0,.92A1.76,1.76,0,0,1,198.35,94.56Z"/></g><g id="Mail_Notification" data-name="Mail Notification"><path class="cls-7" d="M121.19,139.71v.17a1,1,0,0,0,.43.74l9.16,5.29a.93.93,0,0,0,.86,0l15.18-8.76a1,1,0,0,0,.43-.74v-.17a1,1,0,0,0-.43-.74l-9.17-5.29a.91.91,0,0,0-.85,0L121.62,139A1,1,0,0,0,121.19,139.71Z"/><path class="cls-7" d="M121.19,139.71v.17a1,1,0,0,0,.43.74l9.16,5.29a.93.93,0,0,0,.86,0l15.18-8.76a1,1,0,0,0,.43-.74v-.17a1,1,0,0,0-.43-.74l-9.17-5.29a.91.91,0,0,0-.85,0L121.62,139A1,1,0,0,0,121.19,139.71Z"/><path class="cls-8" d="M146.82,135.5l-9.17-5.29a.91.91,0,0,0-.85,0l-5.59,3.22V146h0a.85.85,0,0,0,.43-.1l15.18-8.76a1,1,0,0,0,.43-.74v-.17A1,1,0,0,0,146.82,135.5Z"/><path class="cls-9" d="M146.82,135.5l-9.17-5.29a.91.91,0,0,0-.85,0l-5.59,3.22V146h0a.85.85,0,0,0,.43-.1l15.18-8.76a1,1,0,0,0,.43-.74v-.17A1,1,0,0,0,146.82,135.5Z"/><path class="cls-8" d="M131.21,133.43,121.62,139a1,1,0,0,0-.43.74v.17a1,1,0,0,0,.43.74l9.16,5.29a.88.88,0,0,0,.43.1h0Z"/><path class="cls-9" d="M131.21,133.43,121.62,139a1,1,0,0,0-.43.74v.17a1,1,0,0,0,.43.74l9.16,5.29a.88.88,0,0,0,.43.1h0Z"/><path class="cls-7" d="M129.32,143.91l-7.7-4.45c-.24-.13-.24-.35,0-.49l15.18-8.76a.91.91,0,0,1,.85,0l9.17,5.29a.26.26,0,0,1,0,.49l-2.52,1.46-.88.5-11.78,6.81a1,1,0,0,1-.86,0l-.74-.44Z"/><path class="cls-8" d="M129.32,143.91l-7.7-4.45c-.24-.13-.24-.35,0-.49l15.18-8.76a.91.91,0,0,1,.85,0l9.17,5.29a.26.26,0,0,1,0,.49l-2.52,1.46-.88.5-11.78,6.81a1,1,0,0,1-.86,0l-.74-.44Z"/><path class="cls-9" d="M136.31,136.52l10.51-1-10.42.59,1.25-5.88a.8.8,0,0,0-.46-.1l-2,7.95-13.78,1.14a.28.28,0,0,0,.18.26l11.12-.64-1.53,6,2-6.07h0l1.9-.11a1,1,0,0,0,.63-.26h0a1,1,0,0,0,.32-.55Z"/><path class="cls-8" d="M124.73,138.92l10.49-.86.38-1.5.2-.84,1.39-5.61a.73.73,0,0,0-.39.1l-7.59,4.38L121.62,139a.31.31,0,0,0-.18.23l2.11-.18Z"/><path class="cls-10" d="M135.49,129a3.86,3.86,0,0,1,3.47,0,1.06,1.06,0,0,1,0,2,3.86,3.86,0,0,1-3.47,0A1.06,1.06,0,0,1,135.49,129Z"/><path class="cls-6" d="M136,130.28l-.07,0a.06.06,0,0,1,0,0l.14-.63s0,0,0-.06a.08.08,0,0,1,0-.05l.35-.21h.16l1.86,1.08s0,0,0,0,0,0,0,.05l-.38.21a.11.11,0,0,1-.08,0,.08.08,0,0,1-.07,0l-1.26-.72-.09.34a.05.05,0,0,1,0,.05h-.08Z"/></g><g id="Notification"><path class="cls-7" d="M153.12,133l-10.32-6c-.23-.14-.23-.36,0-.49L180.23,105a.91.91,0,0,1,.85,0l10.31,6c.24.14.24.36,0,.49L154,133A.91.91,0,0,1,153.12,133Z"/><path class="cls-6" d="M152.08,128l30.54-17.63a1.38,1.38,0,0,1,1.23-.07c.3.17.24.49-.14.71l-30.54,17.63a1.33,1.33,0,0,1-1.22.07C151.65,128.49,151.71,128.17,152.08,128Z"/><path class="cls-6" d="M154.23,129.19l30.53-17.63a1.35,1.35,0,0,1,1.23-.07c.3.17.24.49-.13.7l-30.54,17.64a1.38,1.38,0,0,1-1.23.07C153.79,129.73,153.85,129.41,154.23,129.19Z"/></g></g><g id="Character_Envelope" data-name="Character Envelope"><polygon id="Shadow-2" data-name="Shadow" class="cls-2" points="108.89 140.63 92.94 131.43 164.38 90.18 180.66 99.2 108.89 140.63"/><g id="Back"><path class="cls-7" d="M104.57,83.23l68-39.23,2.72,1.57a2.83,2.83,0,0,1,1.28,2.21V97.9a2.85,2.85,0,0,1-1.28,2.22l-65.39,37.75a2.82,2.82,0,0,1-2.56,0l-1.44-.83a2.85,2.85,0,0,1-1.28-2.21Z"/><path class="cls-9" d="M104.57,83.23l68-39.23,2.72,1.57a2.83,2.83,0,0,1,1.28,2.21V97.9a2.85,2.85,0,0,1-1.28,2.22l-65.39,37.75a2.82,2.82,0,0,1-2.56,0l-1.44-.83a2.85,2.85,0,0,1-1.28-2.21Z"/><path class="cls-7" d="M172.14,39.59l.28-.15-1-.61h0l-.28-.14L141.18,27.61a2.06,2.06,0,0,0-2.29.73L105.44,77.19a5.79,5.79,0,0,0-.87,2.79v3.25l1,.6L172.52,44V40.75A2.13,2.13,0,0,0,172.14,39.59Z"/><path class="cls-9" d="M140.27,28.58a1.5,1.5,0,0,0-.34.37L106.47,77.79a5.48,5.48,0,0,0-.62,1.4l-1-.6c.08-.26.17-.5.27-.74,0,0,0,0,0,0l.14-.3,0,0q.09-.17.18-.3l33.45-48.84a1.66,1.66,0,0,1,.16-.21l.18-.16Z"/><path class="cls-11" d="M172.41,39.44a1.22,1.22,0,0,0-.28-.14L142.22,28.21a2.07,2.07,0,0,0-1.95.37l-1-.6a2.1,2.1,0,0,1,2-.37l29.91,11.08a1.83,1.83,0,0,1,.28.14Z"/><path class="cls-7" d="M105.26,77.49q.09-.17.18-.3Q105.35,77.33,105.26,77.49Z"/><path class="cls-7" d="M139.06,28.14a1.29,1.29,0,0,1,.17-.16A1.29,1.29,0,0,0,139.06,28.14Z"/><path class="cls-7" d="M104.81,78.59a7.12,7.12,0,0,1,.27-.74A7.12,7.12,0,0,0,104.81,78.59Z"/><path class="cls-7" d="M105.09,77.83c0-.1.09-.2.14-.29C105.18,77.63,105.14,77.73,105.09,77.83Z"/><path class="cls-9" d="M105.08,77.85v0Z"/><polygon class="cls-9" points="104.81 78.59 104.81 78.59 104.81 78.59 104.81 78.59"/><polygon class="cls-9" points="139.24 27.98 139.23 27.98 139.24 27.98 139.24 27.98"/><path class="cls-9" d="M105.23,77.54l0-.05Z"/><path class="cls-9" d="M138.89,28.34a1.51,1.51,0,0,1,.17-.2A1.06,1.06,0,0,0,138.89,28.34Z"/><path class="cls-7" d="M139.92,29,106.47,77.8a5.81,5.81,0,0,0-.86,2.78v3.25l68-39.23V41.36a2.34,2.34,0,0,0-1.44-2.06l-29.9-11.08A2.05,2.05,0,0,0,139.92,29Z"/><path class="cls-9" d="M173.56,41.36a2.17,2.17,0,0,0-.37-1.15l-67.34,39h0a5.3,5.3,0,0,0-.23,1.38v3.25l68-39.23Z"/></g><g id="Paper"><path class="cls-7" d="M170.65,27.59a.78.78,0,0,0-.31-.71l-2.08-1.2a.76.76,0,0,0-.78.08L111.75,57.93a2.43,2.43,0,0,0-1.1,1.91v66.75a.77.77,0,0,0,.32.71l2.07,1.19a.77.77,0,0,0,.78-.07l55.73-32.18a2.43,2.43,0,0,0,1.1-1.91Z"/><path class="cls-12" d="M170.65,27.59a.78.78,0,0,0-.31-.71l-2.08-1.2a.76.76,0,0,0-.78.08L111.75,57.93a2.43,2.43,0,0,0-1.1,1.91v66.75a.77.77,0,0,0,.32.71l2.07,1.19a.77.77,0,0,0,.78-.07l55.73-32.18a2.43,2.43,0,0,0,1.1-1.91Z"/><path class="cls-7" d="M113.82,128.42l55.73-32.18a2.42,2.42,0,0,0,1.1-1.91V27.59c0-.71-.49-1-1.1-.64L113.82,59.13a2.42,2.42,0,0,0-1.1,1.91v66.74C112.72,128.48,113.21,128.77,113.82,128.42Z"/><path class="cls-13" d="M113.82,128.42l55.73-32.18a2.42,2.42,0,0,0,1.1-1.91V27.59c0-.71-.49-1-1.1-.64L113.82,59.13a2.42,2.42,0,0,0-1.1,1.91v66.74C112.72,128.48,113.21,128.77,113.82,128.42Z"/><path class="cls-7" d="M112.71,127.78a.83.83,0,0,0,.26.67l-2-1.15a.77.77,0,0,1-.32-.71V59.84a2.27,2.27,0,0,1,.32-1.09L113,60a2.26,2.26,0,0,0-.33,1.09Z"/><path class="cls-14" d="M112.71,127.78a.83.83,0,0,0,.26.67l-2-1.15a.77.77,0,0,1-.32-.71V59.84a2.27,2.27,0,0,1,.32-1.09L113,60a2.26,2.26,0,0,0-.33,1.09Z"/><path class="cls-9" d="M112.71,127.78a.83.83,0,0,0,.26.67l-2-1.15a.77.77,0,0,1-.32-.71V59.84a2.27,2.27,0,0,1,.32-1.09L113,60a2.26,2.26,0,0,0-.33,1.09Z"/></g><g id="Character"><path class="cls-3" d="M133.06,77.34c-.25,6.2.17,19.51.17,19.51s6.58,2,11.05,1.25,14.05-7.52,14.05-7.52l-1.6-14.4Z"/><path class="cls-4" d="M148.34,96.62l1.06-10.14a13.56,13.56,0,0,0,5.56-6c-3.81,5-7.8,4.19-7.8,4.19V97.16C147.55,97,147.94,96.82,148.34,96.62Z"/><path class="cls-5" d="M159.36,58.63c1.07-5.41,1.55-12.59-3.15-13.91a19.3,19.3,0,0,0-4.34-.1l-5.07.25c-2.83.36-6.79.92-7.82,1.18-2.73.67-3.53,5.12-4.76,15a130.47,130.47,0,0,0-1.41,17c5,4.46,20.55,2.71,24.09-.2C157,71,157.42,68.49,159.36,58.63Z"/><path class="cls-3" d="M145.94,43c-.05,1,1.08,2.65,2.82,3.82S152,48.49,152.19,49A2.85,2.85,0,0,0,150,51c-.58,1.35-.58,1.4-2.58,0s-3.8-4.6-3.8-5.66,1.58-3.13,2.35-3Z"/><path class="cls-3" d="M152.19,49A6.94,6.94,0,0,0,153.4,46c.07-.7.26-2.53.26-2.53a1.29,1.29,0,0,1,.69.45,9.75,9.75,0,0,1,1.25,3.77,9.27,9.27,0,0,1-.74,3.6c-.41.7-.69-.54-1-1A2.12,2.12,0,0,0,152.19,49Z"/><path class="cls-3" d="M151.39,50.4a47.81,47.81,0,0,1-.31,6.81,7.14,7.14,0,0,0,2.65-.07s-.68.84-3.17.45A69.85,69.85,0,0,0,151.39,50.4Z"/><path class="cls-4" d="M161.93,29.85a7.07,7.07,0,0,0-14.1-.54L144.63,27a2.53,2.53,0,0,0-2.07.76c-.88.93-.34,3.77.82,6.55a56.7,56.7,0,0,0,1.6,5.9,2.34,2.34,0,0,0,1.35,1.06l-.11-3.09,12.83-.92-1.27-.9A7.08,7.08,0,0,0,161.93,29.85Z"/><path class="cls-15" d="M146,34.54c-.4.25-.77-.61-1.51-1a2,2,0,0,0-3,.53c-1,1.67.82,4,2.09,4.47a1.88,1.88,0,0,0,2.56-.77l-.39,7.85c2.57,4.67,10.18,4.37,7.59.46l.31-3a14,14,0,0,0,3,.11c1.64-.28,2.65-1.59,3.12-3.37.76-2.87,1-5.18.27-10.79-.83-6.15-8-6.11-11.83-3.62S146,34.54,146,34.54Z"/><path class="cls-4" d="M161.69,23.21A2.61,2.61,0,0,0,160,23a2.1,2.1,0,0,0-1.25-2.11,2.45,2.45,0,0,0-2.66.35,1.23,1.23,0,0,0-1-1.39,3.41,3.41,0,0,0-1.9.31c-.9.34-1.78.72-2.7,1a23.66,23.66,0,0,0-4.78,1.72,3,3,0,0,0-.91.77,2.57,2.57,0,0,0-.42,1.6,3.31,3.31,0,0,0,.08.55,1.63,1.63,0,0,0-.38-.3,1.37,1.37,0,0,0-1.86.65l2.42,1.26c-.06.49-.12,1-.17,1.47a13.36,13.36,0,0,0-.09,4.09,1,1,0,0,0,.16.43,8,8,0,0,1,1.27,1.23c.18.23.41.6.72.69a.72.72,0,0,0,.83-.38,1.22,1.22,0,0,0,0-.57c-.08-.8-.16-1.6-.23-2.4a1.34,1.34,0,0,1,0-.63,1.74,1.74,0,0,1,.58-.63,2.72,2.72,0,0,0,.95-1.91,3.17,3.17,0,0,1,.07-.69c.05-.17.18-.43.37-.43.38,0,2.41.44,2.92.51,2.66.36,5.52.43,7.87-.87.91-.51,2.45-1.56,2.61-2.69A1.49,1.49,0,0,0,161.69,23.21Z"/><path class="cls-10" d="M153.71,43a27.72,27.72,0,0,1-5-1.35,4.28,4.28,0,0,1-1.8-1.72,5.84,5.84,0,0,0,1,2c1,1.19,5.63,2,5.63,2Z"/><path class="cls-4" d="M153.56,33.88a.69.69,0,1,1-.7-.71A.7.7,0,0,1,153.56,33.88Z"/><path class="cls-4" d="M152.22,31.31l-1.62.78a1,1,0,0,1,.43-1.23A.88.88,0,0,1,152.22,31.31Z"/><path class="cls-16" d="M152.24,38.18l2.92,1a1.53,1.53,0,0,1-2,1A1.62,1.62,0,0,1,152.24,38.18Z"/><path class="cls-10" d="M154.08,40.26a1.53,1.53,0,0,0-1.71-1.3.58.58,0,0,0-.18,0,1.53,1.53,0,0,0,1.89,1.26Z"/><path class="cls-4" d="M159.88,31.84,158.32,31a.84.84,0,0,1,1.16-.37A.89.89,0,0,1,159.88,31.84Z"/><path class="cls-4" d="M159.08,33.76a.69.69,0,0,1-.68.72.7.7,0,0,1-.7-.7.71.71,0,0,1,.68-.73A.7.7,0,0,1,159.08,33.76Z"/><polygon class="cls-10" points="155.57 33.33 155.71 37.79 158.33 37.18 155.57 33.33"/></g><g id="Front"><path class="cls-7" d="M174.79,98.57a.36.36,0,0,1-.07.1l-28.31-9a4.87,4.87,0,0,0-6.12,1.88l-30.27,45-1.12.65h0a.94.94,0,0,1-.87.1l31.13-46.38a4.91,4.91,0,0,1,6.13-1.89Z"/><path class="cls-17" d="M137.5,96l.07-.07L110,136.57l-1.12.65h0a.94.94,0,0,1-.87.1l28.39-42Z"/><path class="cls-17" d="M174.8,98.57l-.08.11-28.31-9a4.88,4.88,0,0,0-6.12,1.89l-1.12-.65a4.88,4.88,0,0,1,6.11-1.88Z"/><path class="cls-7" d="M176.49,47.46h0c-.06-.37-.26-.47-.51-.29a1.26,1.26,0,0,0-.32.33l-.14.2-28,42.48L143.4,96a2.38,2.38,0,0,1-2.3.86L137.5,96,110,85.88a1.34,1.34,0,0,0-.56,0,.83.83,0,0,0-.21.06l1-.6L136.64,95l3.47,1.24a2.35,2.35,0,0,0,2.29-.86l4.18-5.81,28.07-42.67a1.22,1.22,0,0,1,.32-.29l-2.43-1.41,1-.58,1.68,1A2.86,2.86,0,0,1,176.49,47.46Z"/><path class="cls-17" d="M147.57,90.18,143.4,96a2.4,2.4,0,0,1-2.3.86L137.5,96l.07-.07.18-.27,2.35.56a2.35,2.35,0,0,0,2.3-.86l4.13-5.75Z"/><path class="cls-9" d="M175.24,45.56l-1.68-1-1,.58,2.43,1.4h0a1.1,1.1,0,0,0-.32.29L146.57,89.55l0,.06h0l1,.57L175.51,47.7l.15-.2a1.53,1.53,0,0,1,.32-.34c.25-.17.45-.07.51.3h0A2.94,2.94,0,0,0,175.24,45.56Z"/><path class="cls-7" d="M110.57,86.69l-6-3.46v51.6a2.85,2.85,0,0,0,1.28,2.21l1.44.83a2.82,2.82,0,0,0,2.56,0l.72-.41Z"/><path class="cls-9" d="M110.57,86.69l-6-3.46v51.6a2.85,2.85,0,0,0,1.28,2.21l1.44.83a2.82,2.82,0,0,0,2.56,0l.72-.41Z"/><path class="cls-7" d="M176.52,47.78V97.9a2.56,2.56,0,0,1-.4,1.3,2.9,2.9,0,0,1-.75.84l-.05,0-.08.06-65.39,37.75h0a.88.88,0,0,1-.87.1.75.75,0,0,1-.38-.61,1.52,1.52,0,0,1,0-.23V87A1.11,1.11,0,0,1,110,85.88L137.5,96l3.6.85a2.38,2.38,0,0,0,2.3-.86l4.17-5.81,28-42.48.14-.2C176.13,46.84,176.52,47,176.52,47.78Z"/><path class="cls-7" d="M175.24,100.12l.08-.05.05,0a2.9,2.9,0,0,0,.75-.84,2.7,2.7,0,0,0,.4-1.27l-28.94-7.75L167,104.9Z"/><path class="cls-9" d="M175.24,100.12l.08-.05.05,0a2.9,2.9,0,0,0,.75-.84,2.7,2.7,0,0,0,.4-1.27l-28.94-7.75L167,104.9Z"/><path class="cls-7" d="M108.57,137.13a.78.78,0,0,0,1.27.74h0l22.51-13L137.5,96l-28.93,40.3Z"/><path class="cls-9" d="M140.28,91.57,109,138a.88.88,0,0,1-.4-.84v-.83l30.59-45.36h0Z"/><path class="cls-7" d="M176.12,99.2a2.9,2.9,0,0,1-.75.84l-.05,0-65.47,37.8h0a.88.88,0,0,1-.87.1l31.31-46.4a4.91,4.91,0,0,1,6.16-1.89Z"/><path class="cls-9" d="M104.81,78.59l1,.6a5,5,0,0,0-.24,1.4v3.24l-1-.6V80A5,5,0,0,1,104.81,78.59Z"/><polygon class="cls-7" points="110.28 85.32 109.24 85.92 108.19 85.32 105.61 83.83 106.61 83.23 110.28 85.32"/><path class="cls-9" d="M110.32,85.34l-3.71-2.11-1,.6,2.58,1.49,1,.6h0l.2-.07a1.53,1.53,0,0,1,.56,0l2.09.77,24,8.84.37-.56Z"/></g><g id="Arm"><path class="cls-15" d="M139,46.05c-3.33.24-5.62,1-7.77,6.19-1.38,3.33-6.82,15.31-7.35,17.3-.62,2.32-2,20-2,20L125,90.73s-1.09,3.81-2,6c-1.06,2.51,4.12,2,5.78-.3s2.8-5.32,1.89-6.39a14.64,14.64,0,0,0-2.53-2.34l3.48-15.77,7.3-15.51S142.6,48.77,139,46.05Z"/><path class="cls-10" d="M128.16,87.68a6.84,6.84,0,0,0-3.22-.92,6.28,6.28,0,0,1,3.38,0Z"/><path class="cls-3" d="M139.73,45.89c-1.87,0-5.36-.1-7.62,4s-5.46,11.84-5.46,11.84,1.33,3.27,8.45,4l5.45-11.59S141.87,48.76,139.73,45.89Z"/></g><g id="Arm-2" data-name="Arm"><path class="cls-15" d="M163.87,48.57c2.81,2.22,7.37,5.7,9.59,7.1,1.68-2,4.76-6.14,5.51-7a24.1,24.1,0,0,1,4-3l1.14,4.56s-5.7,10.51-7.77,12.46-3.75,1.2-8-.75c-4-1.84-8.38-4.13-8.38-4.13.87-7.64.28-11.78-3.37-13.07C159,45,161.51,46.71,163.87,48.57Z"/><path class="cls-3" d="M171.21,54.13c-1.47.4-4.51,4.72-4,7.46l-7.74-3.83c.94-5.27,1.14-11.79-3.31-13a6.32,6.32,0,0,0-1.31-.16h0a7.16,7.16,0,0,1,6,1.59C163.22,47.9,171.21,54.13,171.21,54.13Z"/><path class="cls-10" d="M173.46,55.67a7.16,7.16,0,0,0-1.68,3.41,6.1,6.1,0,0,1,1-3.83Z"/><path class="cls-3" d="M184.23,40.53l2.65-1.61.32,14.78c0,.46.56.92.56.92l-2.65,1.6a1.56,1.56,0,0,1-.56-.92Z"/><path class="cls-15" d="M187,44.89s.76.18,1.06,1.36.43,3.44-.25,4.18a2.14,2.14,0,0,1-2.22.8c-1.15-.5-.8-2.84.12-3.38C187.2,47,187,46,187,46Z"/><path class="cls-5" d="M181,40.57,182.13,42l.21,10.09-1.18,2,4,2.17a1.4,1.4,0,0,1-.56-.92l-.28-12.91Z"/><polygon class="cls-7" points="181.16 54.05 181.17 54.67 185.12 56.84 185.1 56.22 181.16 54.05"/><polygon class="cls-7" points="185.12 56.84 187.77 55.23 187.76 54.62 185.1 56.22 185.12 56.84"/><polygon class="cls-9" points="185.12 56.84 187.77 55.23 187.76 54.62 185.1 56.22 185.12 56.84"/><path class="cls-7" d="M181.74,33.57h0a1.75,1.75,0,0,0-1.66.68l0,0a5.55,5.55,0,0,0-1.14,4.9v0a1.74,1.74,0,0,0,1.23,1.35h0l2.3.55,1.4-7Z"/><path class="cls-14" d="M181.74,33.57h0a1.75,1.75,0,0,0-1.66.68l0,0a5.55,5.55,0,0,0-1.14,4.9v0a1.74,1.74,0,0,0,1.23,1.35h0l2.3.55,1.4-7Z"/><path class="cls-9" d="M180.16,40.55h0l2.3.55.46-2.32-4.17-1a4.27,4.27,0,0,0,.17,1.36v0A1.74,1.74,0,0,0,180.16,40.55Z"/><path class="cls-7" d="M186.39,33.77h0a2.09,2.09,0,0,0-1.87.67l-.2.19-.22.26a5.66,5.66,0,0,0-.34.47,6.55,6.55,0,0,0-.5,1,7.41,7.41,0,0,0-.57,3,5.41,5.41,0,0,0,.21,1.42,2.24,2.24,0,0,0,1.43,1.67l-2.18-.5h0a2.49,2.49,0,0,1-1.72-1.73,5.37,5.37,0,0,1-.22-1.36,7.61,7.61,0,0,1,.57-3.07,6,6,0,0,1,.51-1,3.33,3.33,0,0,1,.34-.47,3.75,3.75,0,0,1,.42-.46,2.47,2.47,0,0,1,2.11-.6h0l.06,0,.08,0Z"/><path class="cls-9" d="M182.15,41.94h0a2.49,2.49,0,0,1-1.72-1.73,5.37,5.37,0,0,1-.22-1.36l2.48.51a5.41,5.41,0,0,0,.21,1.42,2.24,2.24,0,0,0,1.43,1.67Z"/><path class="cls-7" d="M187.87,35.45a7,7,0,0,1-1.42,6.14,2.2,2.2,0,0,1-2.08.86h0a2.24,2.24,0,0,1-1.43-1.67,7,7,0,0,1,1.42-6.14,1.92,1.92,0,0,1,3.55.82Z"/><path class="cls-9" d="M187.87,35.45a7,7,0,0,1-1.42,6.14,2.2,2.2,0,0,1-2.08.86h0a2.24,2.24,0,0,1-1.43-1.67,7,7,0,0,1,1.42-6.14,1.92,1.92,0,0,1,3.55.82Z"/><path class="cls-7" d="M197,32.14a16.62,16.62,0,0,0-3.79,7.78,21.46,21.46,0,0,0-.47,2.88,14.7,14.7,0,0,0,.46,5.77,18.14,18.14,0,0,0-5.83-5.08,29.17,29.17,0,0,0-2.9-1.23h0a2,2,0,0,1-1.34-1.54,5.44,5.44,0,0,1-.19-1.87,7.63,7.63,0,0,1,.17-1.26,6.27,6.27,0,0,1,1.4-2.81,2.05,2.05,0,0,1,1.88-.8h0a31,31,0,0,0,3.14.17A18,18,0,0,0,197,32.14Z"/><path class="cls-14" d="M197,32.14a16.62,16.62,0,0,0-3.79,7.78,21.46,21.46,0,0,0-.47,2.88,14.7,14.7,0,0,0,.46,5.77,18.14,18.14,0,0,0-5.83-5.08,29.17,29.17,0,0,0-2.9-1.23h0a2,2,0,0,1-1.34-1.54,5.44,5.44,0,0,1-.19-1.87,7.63,7.63,0,0,1,.17-1.26,6.27,6.27,0,0,1,1.4-2.81,2.05,2.05,0,0,1,1.88-.8h0a31,31,0,0,0,3.14.17A18,18,0,0,0,197,32.14Z"/><path class="cls-9" d="M192.7,42.8a14.7,14.7,0,0,0,.46,5.77,18.14,18.14,0,0,0-5.83-5.08,29.17,29.17,0,0,0-2.9-1.23h0a2,2,0,0,1-1.34-1.54,5.44,5.44,0,0,1-.19-1.87C185.55,39.29,189.93,40.28,192.7,42.8Z"/><path class="cls-7" d="M204,34.73a14.83,14.83,0,0,1,.25,6.73h0a15.81,15.81,0,0,1-3.64,7.89c-3.27,3.49-7,2.61-8.44-2a12.79,12.79,0,0,1-.51-3.39,17.86,17.86,0,0,1,2.1-8.69,12,12,0,0,1,.63-1c.09-.14.18-.28.28-.41h0c.14-.19.28-.38.42-.55s.31-.36.47-.53C198.84,29.28,202.62,30.15,204,34.73Z"/><path class="cls-9" d="M204.27,41.46a15.81,15.81,0,0,1-3.64,7.89c-3.27,3.49-7,2.61-8.44-2a12.79,12.79,0,0,1-.51-3.39h0c.45.51,1.67,1.06,1.92.34a11.42,11.42,0,0,0,.46,3,5.12,5.12,0,0,0,1.78,2.81,2.46,2.46,0,0,0,2.21.31,5.72,5.72,0,0,0,2.38-1.64,14.61,14.61,0,0,0,3.26-6.76S204,42.19,204.27,41.46Z"/><path class="cls-7" d="M203.6,35.13a14.18,14.18,0,0,1,.09,6.93,14.61,14.61,0,0,1-3.26,6.76,5.72,5.72,0,0,1-2.38,1.64,2.46,2.46,0,0,1-2.21-.31,5.12,5.12,0,0,1-1.78-2.81,11.42,11.42,0,0,1-.46-3c0-.4,0-.81,0-1.23a18.07,18.07,0,0,1,.26-2.17l.09-.45c0-.25.11-.49.17-.74a16.37,16.37,0,0,1,.81-2.42v0a15.62,15.62,0,0,1,.72-1.48c.19-.34.39-.66.6-1l.27-.37.34-.44.35-.39A5.74,5.74,0,0,1,199.62,32C201.36,31.49,202.85,32.66,203.6,35.13Z"/><path class="cls-9" d="M203.6,35.13a14.18,14.18,0,0,1,.09,6.93,14.61,14.61,0,0,1-3.26,6.76,5.72,5.72,0,0,1-2.38,1.64,2.46,2.46,0,0,1-2.21-.31,5.12,5.12,0,0,1-1.78-2.81,11.42,11.42,0,0,1-.46-3c0-.4,0-.81,0-1.23a18.07,18.07,0,0,1,.26-2.17l.09-.45c0-.25.11-.49.17-.74a16.37,16.37,0,0,1,.81-2.42v0a15.62,15.62,0,0,1,.72-1.48c.19-.34.39-.66.6-1l.27-.37.34-.44.35-.39A5.74,5.74,0,0,1,199.62,32C201.36,31.49,202.85,32.66,203.6,35.13Z"/><path class="cls-7" d="M197.85,38.12l-1.09,5.47c-.78-.05-2.11-.11-3.16-.07,0-.13,0-.27,0-.41a14.76,14.76,0,0,1,.26-2.17c0-.15.05-.3.08-.45s.11-.49.17-.74a18.09,18.09,0,0,1,.81-2.42v0l.15-.34A17.43,17.43,0,0,0,197.85,38.12Z"/><g class="cls-18"><path class="cls-19" d="M197.85,38.12l-1.09,5.47c-.78-.05-2.11-.11-3.16-.07,0-.13,0-.27,0-.41a14.76,14.76,0,0,1,.26-2.17c0-.15.05-.3.08-.45s.11-.49.17-.74a18.09,18.09,0,0,1,.81-2.42v0l.15-.34A17.43,17.43,0,0,0,197.85,38.12Z"/></g><path class="cls-7" d="M197,43.51c-.57.17-1.05-.18-1.28-.95v0a4.38,4.38,0,0,1,.9-3.87v0a1.72,1.72,0,0,1,.72-.48c.57-.18,1.05.18,1.29,1v0a4.4,4.4,0,0,1-.89,3.87l0,0a1.66,1.66,0,0,1-.72.49Z"/><g class="cls-20"><path class="cls-19" d="M197,43.51c-.57.17-1.05-.18-1.28-.95v0a4.38,4.38,0,0,1,.9-3.87v0a1.72,1.72,0,0,1,.72-.48c.57-.18,1.05.18,1.29,1v0a4.4,4.4,0,0,1-.89,3.87l0,0a1.66,1.66,0,0,1-.72.49Z"/></g><path class="cls-2" d="M195.65,29.44a.59.59,0,0,1-.74-.39l-1.67-5.47a.6.6,0,0,1,1.14-.35L196,28.7A.58.58,0,0,1,195.65,29.44Z"/><path class="cls-2" d="M191.08,32.3a.6.6,0,0,1-.58-.14l-4.18-3.9a.59.59,0,0,1,.81-.87l4.18,3.91a.6.6,0,0,1,0,.84A.8.8,0,0,1,191.08,32.3Z"/><path class="cls-2" d="M193.94,60.26a.65.65,0,0,1-.31,0,.58.58,0,0,1-.44-.71L194.48,54a.6.6,0,0,1,.71-.44.58.58,0,0,1,.44.71l-1.29,5.58A.6.6,0,0,1,193.94,60.26Z"/><path class="cls-2" d="M204.32,57.89a.58.58,0,0,1-.73-.39L201.92,52a.58.58,0,0,1,.39-.74.59.59,0,0,1,.74.39l1.67,5.48A.58.58,0,0,1,204.32,57.89Z"/><path class="cls-2" d="M210.48,50.42a.58.58,0,0,1-.57-.13l-4.19-3.91a.59.59,0,1,1,.81-.86l4.18,3.9a.59.59,0,0,1,0,.84A.54.54,0,0,1,210.48,50.42Z"/><path class="cls-2" d="M214.41,43.05a.65.65,0,0,1-.31,0l-5.57-1.29a.59.59,0,0,1,.27-1.15l5.57,1.29a.59.59,0,0,1,0,1.14Z"/><path class="cls-2" d="M214.13,34.7l-5.48,1.67a.6.6,0,0,1-.74-.39.59.59,0,0,1,.4-.74l5.47-1.67a.59.59,0,1,1,.35,1.13Z"/><path class="cls-2" d="M205.8,31.79a.59.59,0,0,1-.58-.13.6.6,0,0,1,0-.84l3.91-4.18a.59.59,0,1,1,.86.81l-3.9,4.18A.56.56,0,0,1,205.8,31.79Z"/><path class="cls-2" d="M201,29.26a.65.65,0,0,1-.31,0,.59.59,0,0,1-.44-.71L201.58,23a.6.6,0,0,1,1.16.27l-1.3,5.58A.6.6,0,0,1,201,29.26Z"/><path class="cls-15" d="M179,48.63c1.13-1.43,1.18-2.32,2.06-3a3.06,3.06,0,0,1,3.07-.37c1,.29,2.15.14,2.55.51.11.08-.07.71-.53.94a5.48,5.48,0,0,1-2.12.21c-1.52,0-.28,1.49-1.73,3C181.65,51,179,48.63,179,48.63Z"/></g></g><g id="Paper_Plane" data-name="Paper Plane"><polygon class="cls-7" points="213.65 71.35 227.54 62.46 233.66 64.42 213.65 71.35"/><polygon class="cls-7" points="213.65 71.35 225.65 61.34 222.99 58.26 213.65 71.35"/><polygon class="cls-7" points="225.65 61.34 225.65 63.66 213.65 71.35 225.65 61.34"/><polygon class="cls-9" points="225.65 61.34 225.65 63.66 213.65 71.35 225.65 61.34"/><path class="cls-2" d="M228.5,60a.41.41,0,0,1-.3-.14.39.39,0,0,1,0-.55c.25-.21.48-.43.72-.65a.39.39,0,0,1,.54.57c-.24.23-.49.45-.74.67A.39.39,0,0,1,228.5,60Z"/><path class="cls-2" d="M230.57,57.94a.37.37,0,0,1-.26-.1.39.39,0,0,1,0-.55c.41-.47.81-1,1.19-1.49a.4.4,0,0,1,.55-.08.39.39,0,0,1,.09.55c-.4.53-.81,1-1.24,1.53A.37.37,0,0,1,230.57,57.94Zm2.3-3.11a.42.42,0,0,1-.21-.06.39.39,0,0,1-.12-.54c.33-.53.65-1.09,1-1.66a.39.39,0,1,1,.69.37c-.31.59-.64,1.16-1,1.7A.39.39,0,0,1,232.87,54.83Zm1.81-3.42a.29.29,0,0,1-.16,0,.38.38,0,0,1-.2-.51c.25-.58.49-1.18.71-1.78a.4.4,0,0,1,.5-.23.39.39,0,0,1,.24.5c-.23.62-.47,1.23-.73,1.82A.4.4,0,0,1,234.68,51.41ZM236,47.77h-.11a.4.4,0,0,1-.26-.49c.17-.61.34-1.23.48-1.85a.39.39,0,1,1,.76.17c-.14.64-.31,1.28-.49,1.9A.4.4,0,0,1,236,47.77Zm.85-3.78h-.06a.39.39,0,0,1-.32-.45c.1-.63.18-1.26.24-1.9a.39.39,0,0,1,.78.08c-.06.65-.15,1.3-.25,1.94A.39.39,0,0,1,236.85,44Zm.37-3.85h0a.39.39,0,0,1-.38-.41c0-.3,0-.6,0-.9s0-.67,0-1a.39.39,0,0,1,.78,0c0,.35,0,.69,0,1s0,.62,0,.93A.39.39,0,0,1,237.22,40.14Zm-.14-3.87a.41.41,0,0,1-.39-.35c-.06-.64-.15-1.28-.26-1.89a.4.4,0,0,1,.78-.14q.16,1,.27,2a.41.41,0,0,1-.35.43Zm-.67-3.82a.39.39,0,0,1-.38-.29c-.15-.62-.33-1.24-.53-1.83a.39.39,0,1,1,.74-.25c.21.61.39,1.25.56,1.89a.39.39,0,0,1-.29.47Zm-1.24-3.66a.4.4,0,0,1-.36-.24c-.25-.58-.53-1.16-.82-1.71a.38.38,0,0,1,.16-.53.38.38,0,0,1,.53.16c.31.57.59,1.16.85,1.77a.39.39,0,0,1-.2.52A.41.41,0,0,1,235.17,28.79Zm-1.83-3.41a.39.39,0,0,1-.33-.18c-.35-.52-.72-1-1.12-1.53a.4.4,0,0,1,.07-.55.39.39,0,0,1,.55.06c.41.51.8,1,1.16,1.59a.4.4,0,0,1-.11.55A.46.46,0,0,1,233.34,25.38Zm-2.42-3a.39.39,0,0,1-.28-.12c-.43-.45-.89-.9-1.37-1.33a.41.41,0,0,1,0-.56.4.4,0,0,1,.56,0c.49.44,1,.9,1.41,1.37a.4.4,0,0,1-.29.66Zm-2.87-2.6a.43.43,0,0,1-.24-.08c-.49-.39-1-.77-1.54-1.14a.4.4,0,0,1-.1-.55.41.41,0,0,1,.55-.1c.54.38,1.07.77,1.58,1.17a.39.39,0,0,1,.06.55A.37.37,0,0,1,228.05,19.76Zm-3.18-2.21a.46.46,0,0,1-.2-.05c-.54-.33-1.1-.65-1.66-1a.38.38,0,0,1-.16-.53.39.39,0,0,1,.53-.16c.58.31,1.15.64,1.7,1a.4.4,0,0,1,.13.54A.41.41,0,0,1,224.87,17.55Zm-3.41-1.84a.32.32,0,0,1-.16,0c-.58-.27-1.17-.53-1.76-.78a.39.39,0,0,1-.21-.51.4.4,0,0,1,.52-.21c.6.25,1.2.52,1.78.8a.39.39,0,0,1,.19.52A.4.4,0,0,1,221.46,15.71Zm-39.64-1a.4.4,0,0,1-.13-.77c.61-.22,1.23-.43,1.84-.62a.39.39,0,1,1,.24.74l-1.82.62A.31.31,0,0,1,181.82,14.74Zm36.07-.53a.3.3,0,0,1-.13,0c-.59-.22-1.2-.42-1.82-.62a.39.39,0,1,1,.24-.75c.62.2,1.25.41,1.85.63a.4.4,0,0,1,.23.51A.39.39,0,0,1,217.89,14.21Zm-32.38-.66a.39.39,0,0,1-.11-.77c.62-.18,1.25-.35,1.88-.51a.4.4,0,0,1,.48.29.39.39,0,0,1-.29.47l-1.85.5A.23.23,0,0,1,185.51,13.55ZM214.2,13h-.1c-.61-.17-1.23-.32-1.87-.47a.38.38,0,0,1-.29-.47.39.39,0,0,1,.47-.29c.64.15,1.28.3,1.89.47a.39.39,0,0,1-.1.77Zm-24.94-.43a.39.39,0,0,1-.38-.31.4.4,0,0,1,.3-.47c.64-.14,1.28-.27,1.91-.38a.39.39,0,0,1,.46.32.39.39,0,0,1-.32.45c-.62.12-1.26.24-1.88.38Zm21.16-.43h-.07c-.62-.12-1.25-.22-1.9-.32a.39.39,0,0,1-.33-.44.38.38,0,0,1,.45-.33c.65.09,1.3.2,1.92.31a.39.39,0,0,1-.07.78Zm-17.35-.26a.4.4,0,0,1,0-.79c.64-.09,1.29-.17,1.93-.24a.38.38,0,0,1,.43.34.39.39,0,0,1-.34.44l-1.91.24Zm13.52-.3h0l-1.92-.17a.38.38,0,0,1-.36-.41.39.39,0,0,1,.42-.37c.65.05,1.31.1,1.94.17a.39.39,0,0,1,.35.43A.38.38,0,0,1,206.59,11.62Zm-9.67-.13a.4.4,0,0,1,0-.79c.65,0,1.3-.08,2-.11a.39.39,0,0,1,0,.78l-1.92.12Zm5.81-.13h0l-1.68,0h-.24a.38.38,0,0,1-.39-.39.38.38,0,0,1,.39-.39H201c.56,0,1.14,0,1.71,0a.41.41,0,0,1,.38.41A.4.4,0,0,1,202.73,11.36Z"/><path class="cls-2" d="M179.06,15.8a.4.4,0,0,1-.15-.76l.92-.37a.4.4,0,0,1,.51.22.39.39,0,0,1-.22.51l-.91.37A.4.4,0,0,1,179.06,15.8Z"/></g><g id="Paper_Plane-2" data-name="Paper Plane"><polygon class="cls-7" points="91.64 51.59 109.69 42.74 96.67 55.13 91.64 51.59"/><polygon class="cls-7" points="109.69 42.74 89.78 49.29 84.75 45.76 109.69 42.74"/><polygon class="cls-7" points="89.78 49.29 90.57 54.35 91.64 51.59 109.69 42.74 89.78 49.29"/><polygon class="cls-9" points="89.78 49.29 90.57 54.35 91.64 51.59 109.69 42.74 89.78 49.29"/><polygon class="cls-7" points="90.57 54.35 93.31 52.77 91.64 51.59 90.57 54.35"/><polygon class="cls-9" points="91.64 51.59 93.31 52.77 92.88 53.02 91.64 51.59"/><path class="cls-2" d="M93,104.59l-.13,0L91,103.87a.39.39,0,1,1,.29-.73c.58.23,1.2.46,1.83.68a.4.4,0,0,1,.23.51A.38.38,0,0,1,93,104.59Zm-3.64-1.45a.45.45,0,0,1-.16,0c-.61-.27-1.21-.55-1.79-.84a.39.39,0,1,1,.34-.7c.57.28,1.16.55,1.77.82a.39.39,0,0,1-.16.75Zm-3.52-1.73a.41.41,0,0,1-.19,0q-.89-.48-1.71-1a.39.39,0,1,1,.41-.67c.54.33,1.1.66,1.68,1a.4.4,0,0,1,.15.54A.38.38,0,0,1,85.83,101.41Zm-3.34-2.06a.36.36,0,0,1-.22-.07c-.55-.38-1.09-.78-1.6-1.19a.39.39,0,0,1-.06-.55.39.39,0,0,1,.55-.06c.5.39,1,.78,1.56,1.15a.4.4,0,0,1,.09.55A.37.37,0,0,1,82.49,99.35Zm-3.06-2.44a.4.4,0,0,1-.27-.11c-.49-.45-1-.92-1.42-1.39a.4.4,0,0,1,0-.56.38.38,0,0,1,.55,0c.44.46.9.92,1.38,1.35a.41.41,0,0,1,0,.56A.43.43,0,0,1,79.43,96.91Zm-2.69-2.86a.43.43,0,0,1-.31-.14c-.41-.52-.81-1.06-1.18-1.6a.39.39,0,1,1,.65-.44c.36.53.74,1,1.15,1.55a.38.38,0,0,1-.31.63Zm-2.2-3.24a.38.38,0,0,1-.34-.2c-.32-.57-.63-1.17-.91-1.77a.4.4,0,0,1,.72-.33c.27.58.56,1.16.87,1.72a.39.39,0,0,1-.15.53A.32.32,0,0,1,74.54,90.81ZM72.9,87.25a.4.4,0,0,1-.37-.25c-.23-.61-.43-1.25-.62-1.89a.4.4,0,0,1,.27-.49.39.39,0,0,1,.48.27c.19.62.39,1.24.61,1.83a.4.4,0,0,1-.24.51A.3.3,0,0,1,72.9,87.25Zm-1.09-3.76a.41.41,0,0,1-.39-.31c-.13-.63-.26-1.29-.36-2a.38.38,0,0,1,.33-.45.38.38,0,0,1,.44.32c.11.65.23,1.29.36,1.91a.4.4,0,0,1-.3.47Zm-.62-3.88a.39.39,0,0,1-.39-.35c-.06-.63-.12-1.3-.16-2a.39.39,0,0,1,.37-.42.41.41,0,0,1,.42.37c0,.66.09,1.32.15,1.94a.39.39,0,0,1-.35.43ZM71,75.69h0a.38.38,0,0,1-.38-.4c0-.66.05-1.33.11-2a.41.41,0,0,1,.43-.35.4.4,0,0,1,.36.43c-.07.64-.11,1.29-.12,1.93A.39.39,0,0,1,71,75.69Zm.39-3.9h-.07a.4.4,0,0,1-.32-.45c.12-.65.27-1.31.44-2a.4.4,0,0,1,.48-.28.39.39,0,0,1,.28.48c-.17.62-.31,1.26-.42,1.89A.4.4,0,0,1,71.38,71.79Zm1-3.79-.13,0a.4.4,0,0,1-.24-.5c.22-.63.47-1.25.74-1.86a.4.4,0,0,1,.52-.19.38.38,0,0,1,.2.51q-.39.89-.72,1.8A.39.39,0,0,1,72.39,68ZM74,64.42a.45.45,0,0,1-.19,0,.39.39,0,0,1-.16-.53c.32-.59.66-1.16,1-1.72a.39.39,0,1,1,.65.43c-.35.54-.68,1.1-1,1.66A.39.39,0,0,1,74,64.42Zm2.14-3.29a.43.43,0,0,1-.24-.08.4.4,0,0,1-.07-.55c.41-.53.84-1,1.28-1.53a.41.41,0,0,1,.56,0,.4.4,0,0,1,0,.56c-.43.47-.85,1-1.24,1.48A.39.39,0,0,1,76.13,61.13Zm2.64-2.9a.38.38,0,0,1-.28-.12.4.4,0,0,1,0-.56c.48-.45,1-.89,1.51-1.3a.4.4,0,0,1,.49.62q-.77.6-1.47,1.26A.39.39,0,0,1,78.77,58.23Zm3.08-2.43a.39.39,0,0,1-.22-.72c.55-.36,1.13-.71,1.71-1a.38.38,0,0,1,.53.15.39.39,0,0,1-.15.53c-.57.31-1.12.65-1.65,1A.46.46,0,0,1,81.85,55.8Zm3.43-1.9a.39.39,0,0,1-.16-.75c.6-.27,1.22-.52,1.84-.75a.39.39,0,1,1,.27.74c-.6.22-1.21.46-1.79.73A.45.45,0,0,1,85.28,53.9Z"/></g></svg>