<svg id="Layer_1" data-name="Layer 1" xmlns="http://www.w3.org/2000/svg" viewBox="0 0 158.4 145.44"><defs><style>.cls-1{fill:#ff7a59;}.cls-2{fill:#ffd961;}</style></defs><title>Referrals</title><path class="cls-1" d="M135.26,120.08a2.93,2.93,0,0,0-1.47,0,24.39,24.39,0,0,0-4.44,0,2.93,2.93,0,0,0-1.47,0,24.28,24.28,0,0,0-4.43,0,2.93,2.93,0,0,0-1.47,0,24.28,24.28,0,0,0-4.43,0,2.93,2.93,0,0,0-1.47,0,24.28,24.28,0,0,0-4.43,0,2.93,2.93,0,0,0-1.47,0,24.28,24.28,0,0,0-4.43,0,2.93,2.93,0,0,0-1.47,0,24.39,24.39,0,0,0-4.44,0,2.93,2.93,0,0,0-1.47,0,24.28,24.28,0,0,0-4.43,0,2.93,2.93,0,0,0-1.47,0,24.28,24.28,0,0,0-4.43,0,2.93,2.93,0,0,0-1.47,0,24.28,24.28,0,0,0-4.43,0,2.93,2.93,0,0,0-1.47,0c-1.14-.26-2.33.16-3.44-.32a3.09,3.09,0,0,0-1.26-.89,11.2,11.2,0,0,0-2.39-1.71l-1.18-.87c-1.08-.13-1.59-1.12-2.45-1.58-.34-.3-.65-.64-1-.95a17.24,17.24,0,0,1-1.77-2.05,11.43,11.43,0,0,1-1-1.25,18.71,18.71,0,0,1-1.44-2.39c-.2-.43-.41-.85-.64-1.27A18.15,18.15,0,0,1,63,103.86c-.12-.43-.2-.86-.34-1.27A32.24,32.24,0,0,1,62,99.23c0-.56-.17-1.1-.16-1.66a.94.94,0,0,1,.86-.82,8.16,8.16,0,0,1,1.56-.08c1.41,0,2.83,0,4.24,0,.53.07,1.06,0,1.59,0,1.39,0,2.78,0,4.16,0,.47,0,.93,0,1.39,0,.43-.17,1,.44,1.32-.31-.37-.41-.77-.8-1.17-1.18-.57-.6-1.16-1.19-1.76-1.77-.4-.42-.81-.83-1.24-1.23-.55-.57-1.12-1.13-1.69-1.69-.4-.43-.82-.84-1.24-1.25-.59-.63-1.26-1.19-1.8-1.87-.45-.93.3-1.37.82-1.82a45.72,45.72,0,0,1,4-3.15c.9-.65,1.86-1.21,2.79-1.82s1.87-.72,2.67.28c.33.34.66.69,1,1a19.15,19.15,0,0,0,2.2,1.72,9.82,9.82,0,0,0,1.1.82A24.12,24.12,0,0,0,85.4,86c.37.16.73.35,1.09.51a15.54,15.54,0,0,0,3.06,1.23,9.88,9.88,0,0,0,1.63.48c.65.17,1.32.26,2,.39.84.26,1.73,0,2.58.26a11.07,11.07,0,0,0,4.33-.09,12.55,12.55,0,0,1,2.21.12,16,16,0,0,0,5.54-1.55,9.09,9.09,0,0,1,3.56-1.73,20.46,20.46,0,0,0,5.67-4.32c.82-.85,1.54-1.22,2.54-.4.45.2,1,.21,1.23.79l2.33,1.56c.45.22,1,.24,1.2.87l2.1,1.77c.43.26,1.08.29,1.08,1l1.88,1.95a2.34,2.34,0,0,1,1.11,1.23l1.53,2a1.56,1.56,0,0,1,.84,1.2l1.55,2.62c.66.29.5,1,.82,1.5l.91,2.06a3.52,3.52,0,0,1,.83,2.14l.67,2.29c.24.48.71.88.46,1.5l.71,3.8a1.2,1.2,0,0,1,.22,1.2l.35,4.12c.46.48.24,1,0,1.48-.2,1.28.51,2.93-.36,3.78s-2.42.09-3.67.29Z"/><path class="cls-1" d="M101.52,34l2.17.5,2.31.65,2.11.86,2.31,1.21,1.24.79,2.07,1.54a3.17,3.17,0,0,0,1.12,1l1.85,2,.77.92,1.8,2.65.65,1.15,1.18,2.66a3.5,3.5,0,0,0,.56,1.53l.66,2.9c.28.56.72,1.1.29,1.77v.6c-.07,1.77.52,3.54-.05,5.3-.52,2-1,3.93-1.55,5.89a3.38,3.38,0,0,1-1.2,2.64,28.18,28.18,0,0,1-10.25,10.32,10.61,10.61,0,0,1-3.32,1.8A24,24,0,0,1,101,83.91a7.53,7.53,0,0,0-1.9.21,9.44,9.44,0,0,1-3,0,11.1,11.1,0,0,0-2.37-.26c-1.19-.29-2.38-.55-3.54-.93-.53-.21-1.07-.39-1.62-.57s-1.37-.65-2-1c-.53-.3-1.07-.56-1.61-.84-.78-.49-1.55-1-2.3-1.55-.38-.35-.83-.61-1.23-.94-.7-.67-1.37-1.37-2.07-2-.31-.33-.63-.64-1-1-.64-.75-1.22-1.54-1.78-2.34-.22-.33-.42-.67-.63-1a18.79,18.79,0,0,1-1.45-2.91c-.25-.5-.41-1-.65-1.55-.41-1-.55-2-.86-2.94-.12-.45-.21-.9-.34-1.35-.1-1.31-.41-2.59-.41-3.9,0-.5,0-1,0-1.49A39.59,39.59,0,0,1,73,53.23a8.78,8.78,0,0,1,1.21-3,26.55,26.55,0,0,1,9-11.71,33.63,33.63,0,0,1,6-3.26l2-.65,3.83-.67h5.32Z"/><path class="cls-1" d="M64.14,18.85l1.47.06,3.2.59a4,4,0,0,0,1.53.51l2.88,1.27,1.25.79,2.07,1.54,1.19,1.12,1.83,2.12L80.38,28l1.25,2.37.78,1.83a2.79,2.79,0,0,0,.14.72c.46,1,.18,1.46-.88,2A22.89,22.89,0,0,0,69.7,48a7.24,7.24,0,0,0-.91,2.72,11.45,11.45,0,0,0-.86,4.33c-.35.85.41,1.71,0,2.57a1.14,1.14,0,0,1-.3.39,4,4,0,0,1-1.92.51c-1.93-.08-3.89.23-5.8-.28a19.38,19.38,0,0,1-2.72-.7c-.53-.22-1.09-.39-1.61-.64a30.48,30.48,0,0,1-2.67-1.51c-.42-.32-.86-.6-1.28-.92a15.31,15.31,0,0,1-2.08-1.77,2.06,2.06,0,0,1-.7-1.16L47.1,49.25a2.47,2.47,0,0,0-.68-1.11l-1.2-2.69-.53-1.53c-.22-1.16-.43-2.33-.64-3.49l0-2.36c.15-1.27.29-2.54.43-3.81L45,32.19A20.56,20.56,0,0,1,57.05,20l2.74-.81Z"/><path class="cls-1" d="M31.68,81.21h-.6c-.67-.65-.16-1.34-.06-2s.28-1.63.42-2.45A5.09,5.09,0,0,0,32,74.68a78.08,78.08,0,0,1,3.24-7.31A59.3,59.3,0,0,1,40,61.15a22.86,22.86,0,0,1,6.66-5.56c1.31-.66,1.81.55,2.59,1.11.42.34.87.62,1.26,1A23.84,23.84,0,0,0,53,59.4,5,5,0,0,0,54,60c1,.35,1.85.87,2.84,1.15a10.37,10.37,0,0,0,1.65.47,14.87,14.87,0,0,0,3.38.52c.49,0,1,0,1.46,0a19,19,0,0,0,4.45-.28c1-.26,1.75,0,1.93,1.19.2.89.42,1.77.65,2.64.09.43.19.86.31,1.29a12,12,0,0,1,.53,3.26,1.18,1.18,0,0,1-.19.39,38.06,38.06,0,0,0-9.06,7.52c-.76.86-1.34.78-2,0-.41-.43-.82-.86-1.25-1.27-.57-.59-1.16-1.18-1.75-1.76a8.41,8.41,0,0,1-1.07-1.3L54,72l-1.13-1.13c-1.49-1.7-1.5-1.7-3.07-.12q-5.12,5.15-10.22,10.32c-2.07.41-4.14,0-6.21.07C32.83,81.19,32.25,81.19,31.68,81.21Z"/><path class="cls-2" d="M67.07,118.08c-.26-.41-.38-1-1-1a1.07,1.07,0,0,0-.06-.3,6.77,6.77,0,0,0-1.91-1.86l-.18,0c.09-.45-.06-.72-.58-.7a1,1,0,0,0,0-.34,22.75,22.75,0,0,0-1.85-2.68.61.61,0,0,0-.3,0,.34.34,0,0,0-.23-.44l0,0a1,1,0,0,0,0-.42,6.32,6.32,0,0,0-1.57-2.63.57.57,0,0,0,.12-.26.6.6,0,0,0-.4-.53l0,0a2.37,2.37,0,0,0-.05-1.06,15.69,15.69,0,0,0-.8-2.46.76.76,0,0,0-.32-.17.52.52,0,0,0-.15-.71l.19-.16A3.84,3.84,0,0,0,58,101a20.44,20.44,0,0,1-.33-3.22.88.88,0,0,0-.48-.73,2.43,2.43,0,0,1-.14.2.81.81,0,0,0,0-.16,3.09,3.09,0,0,0,.24-.44c.22-.67,0-1.39.23-2.06l.11-.09a9.83,9.83,0,0,0,1.8.09,2.49,2.49,0,0,0,1.43-.41H66.8a.34.34,0,0,1,.2,0L66.2,93a11.08,11.08,0,0,1-2.1-2.06h-.26l-.25-.24a.6.6,0,0,0,.06-.37,5.6,5.6,0,0,0-2.45-2.17.66.66,0,0,0-.28,0,.48.48,0,0,0-.51-.51.66.66,0,0,0,0-.28,7.05,7.05,0,0,0-2.18-2.17.66.66,0,0,0-.28,0c0-.36-.12-.54-.49-.5a.86.86,0,0,0,0-.32,4.8,4.8,0,0,0-2.16-2h-.25a.86.86,0,0,0-.91-.75,1.41,1.41,0,0,1,0-.2,8.35,8.35,0,0,1-1.81-1.75l-.57-.34-.26-.25c.08-.32-.13-.46-.39-.58-.79-.94-1.4-.86-2.32,0C43.94,83.32,39,88,34.12,92.67c-.39.38-1,.62-1.2,1.45h2.89l1.48,0,4.42,0,.88,0h0c0,.19,0,.37.08.55h0l-.08.32.93,3.23-.07.3.39.88h0l-.06.31L45,102.69l.25.08h0c.12.27.24.54.37.81h0l0,.3c.5.86,1,1.73,1.51,2.59l.25.08h0l.36.57h0l0,.23,2,2.43.27,0h0l.53.58h0a2.51,2.51,0,0,1,0,.27l2.15,1.95a1.24,1.24,0,0,0,.27,0h0l.54.38h0a2.34,2.34,0,0,1,0,.26l2.65,1.79h.3l.57.31h0a2.23,2.23,0,0,1,0,.23l3,1.47h.29a1.85,1.85,0,0,0,1.15.4h0a2.1,2.1,0,0,0,.06.24l2.9,1,.29,0h0l1.19.57a8.58,8.58,0,0,0,2.62.29C68.28,118.79,67.32,118.79,67.07,118.08Z"/><path class="cls-1" d="M42.73,48.91a.78.78,0,0,0-.57-.24H38.68V45.2a.8.8,0,0,0-.8-.81H36.27a.82.82,0,0,0-.8.81v3.47H32a.82.82,0,0,0-.81.8v1.61a.8.8,0,0,0,.81.8h3.47v3.48a.78.78,0,0,0,.24.57.77.77,0,0,0,.56.23h1.61a.79.79,0,0,0,.8-.8V51.88h3.48a.79.79,0,0,0,.8-.8V49.47A.77.77,0,0,0,42.73,48.91Z"/></svg>