<svg id="Layer_1" data-name="Layer 1" xmlns="http://www.w3.org/2000/svg" viewBox="0 0 158.4 145.44"><defs><style>.cls-1{fill:#ff7a59;}.cls-2{fill:#fff;}</style></defs><title>Referrals</title><path class="cls-1" d="M109.26,69.86h-1.21c-6,0-12,0-17.92,0a4.43,4.43,0,0,1-2.1-.59c-3.54-2-7-4.17-10.56-6.26-.41-.25-.84-.48-1.44-.81l-1,7.57c-1.57.11-3.08.1-4.54.35A15.36,15.36,0,0,0,58,89.18c1.95,7.33,4.16,14.6,6.29,21.88a18.7,18.7,0,0,0,4,7,1.94,1.94,0,0,1,.49,1.3c-.53,4.52-1.09,9-1.72,13.54A5.1,5.1,0,0,1,62,137.3c-3,.06-5.94.07-8.9,0a5.07,5.07,0,0,1-5-4.52c-1.27-9.52-2.5-19-3.75-28.56-.73-5.59-1.46-11.17-2.25-16.75a2,2,0,0,0-.93-1.25c-.92-.57-2-.95-2.91-1.45a10.44,10.44,0,0,1-5.94-9.21c-.33-6.39-.6-12.77-1-19.16A12.13,12.13,0,0,1,43.38,43.72c1.71,0,3.42,0,5.14,0a2.54,2.54,0,0,1,2.24,1.08c1.94,2.51,4,4.94,5.92,7.46.7.91,1.11.84,1.77,0,1.94-2.52,4-5,5.92-7.47a2.47,2.47,0,0,1,2.25-1.07,31.38,31.38,0,0,1,5.24.22A14.88,14.88,0,0,1,77.15,46c10,6.94,20,14,29.9,21.08a19.86,19.86,0,0,1,2.48,2.46Z"/><path class="cls-1" d="M91.78,76.22c7.7,0,15.4,0,23.1,0a1.63,1.63,0,0,0,1.88-1.43c.78-2.63,1.65-5.24,2.52-7.84a7.41,7.41,0,0,1,7.32-5.36q4.82-.06,9.63,0a5.61,5.61,0,0,1,5.6,5.31,5.5,5.5,0,0,1-5.09,5.77,46,46,0,0,1-5.63.07c-1,0-1.41.33-1.68,1.29-3.15,11.09-6.36,22.17-9.54,33.25-1.72,6-5.75,9.06-12,9.06H80.14c-5.9,0-10-3.11-11.66-8.75Q65.33,96.77,62.2,85.88c-1.56-5.42,1.67-9.67,7.31-9.66Q80.64,76.24,91.78,76.22Z"/><path class="cls-1" d="M43.54,25.53A14.06,14.06,0,1,1,57.59,39.72,14.08,14.08,0,0,1,43.54,25.53Z"/><path class="cls-1" d="M113.53,132.72a7.52,7.52,0,1,1-7.54-7.48A7.53,7.53,0,0,1,113.53,132.72Z"/><path class="cls-1" d="M74.72,132.74a7.48,7.48,0,1,1,7.45,7.54A7.47,7.47,0,0,1,74.72,132.74Z"/><path class="cls-2" d="M83,108.67c-.06.67-.06,1.33-.9,1.32s-1.83.42-2.5-.75a23.43,23.43,0,0,1-3.1-10.8c1.83,0,3.67-.13,5.5-.11.85,0,.68.8.77,1.36,1,0,1.91,0,2.86,0a16.48,16.48,0,0,1,5.67.68,2.41,2.41,0,0,1,.55.21c2.67,1.62,5.64,1.85,8.66,1.91a1.6,1.6,0,0,1,1.74,2,1.66,1.66,0,0,1-1.81,1.29l-6.41.17a10.85,10.85,0,0,0-1.4.06c-.19,0-.48.26-.48.4a.8.8,0,0,0,.38.55,1.38,1.38,0,0,0,.65.06c2.46-.05,4.91-.08,7.37-.19a5.07,5.07,0,0,0,1.7-.59c.56-.27,1.06-.68,1.64-.92,2-.81,3.91-1.57,5.88-2.34a6.33,6.33,0,0,1,1.27-.36,1.05,1.05,0,0,1,1.27.63,1,1,0,0,1-.42,1.28,5.87,5.87,0,0,1-.75.47c-3.54,2-7.12,3.87-10.62,5.9a8.45,8.45,0,0,1-6.74.84c-3.23-.91-6.46-1.85-9.69-2.78Z"/><path class="cls-2" d="M100.16,92.81c.07-.48.1-1,.21-1.45a3.86,3.86,0,0,1,7.5-.3,7.61,7.61,0,0,1,.16,3,3.75,3.75,0,0,1-4,3.46,4.08,4.08,0,0,1-3.77-4c0-.22,0-.44,0-.66Zm5.45.08a12.52,12.52,0,0,0-.28-1.54,1.08,1.08,0,0,0-1.1-.81c-.58,0-1.11.23-1.16.79a16.16,16.16,0,0,0,0,3.11,1,1,0,0,0,1.13.86,1.14,1.14,0,0,0,1.19-.91C105.48,93.92,105.52,93.43,105.61,92.89Z"/><path class="cls-2" d="M104.58,80.37,100,88.75c-1.35,2.47-2.72,4.94-4,7.44a1,1,0,0,1-1.08.64c-.56,0-1.12,0-1.81,0,.12-.27.19-.46.29-.64,2.77-5.09,5.56-10.17,8.32-15.26a.89.89,0,0,1,.92-.56C103.22,80.4,103.83,80.37,104.58,80.37Z"/><path class="cls-2" d="M97.42,84.1c0,2.31-1.18,4-3.07,4.42a3.55,3.55,0,0,1-4.19-2.17,5.68,5.68,0,0,1-.14-4,3.63,3.63,0,0,1,3.77-2.67,3.58,3.58,0,0,1,3.42,2.93C97.32,83.13,97.35,83.62,97.42,84.1Zm-2.25.09a13.33,13.33,0,0,0-.29-1.6,1.29,1.29,0,0,0-1.32-1,1.18,1.18,0,0,0-1.3,1,16.19,16.19,0,0,0,0,3.19,1.16,1.16,0,0,0,1.29,1,1.28,1.28,0,0,0,1.33-1A13.75,13.75,0,0,0,95.17,84.19Z"/></svg>