<svg id="Layer_1" data-name="Layer 1" xmlns="http://www.w3.org/2000/svg" xmlns:xlink="http://www.w3.org/1999/xlink" viewBox="0 0 288 187.68"><defs><style>.cls-1{opacity:0.15;}.cls-2{fill:#d35c2b;}.cls-3{fill:#dfe5f4;}.cls-4{fill:#f2d370;}.cls-5{opacity:0.7;fill:url(#linear-gradient);}.cls-6{fill:url(#linear-gradient-2);}.cls-7{fill:url(#linear-gradient-3);}.cls-8{fill:url(#linear-gradient-4);}.cls-9{fill:url(#linear-gradient-5);}.cls-10{fill:url(#linear-gradient-6);}.cls-11{fill:url(#linear-gradient-7);}.cls-12{fill:url(#linear-gradient-8);}.cls-13{fill:url(#linear-gradient-9);}.cls-14{fill:url(#linear-gradient-10);}.cls-15{fill:url(#linear-gradient-11);}.cls-16{fill:url(#linear-gradient-12);}.cls-17{fill:url(#linear-gradient-13);}.cls-18{fill:url(#linear-gradient-14);}.cls-19{fill:url(#linear-gradient-15);}.cls-20{fill:url(#linear-gradient-16);}.cls-21{fill:url(#linear-gradient-17);}.cls-22{fill:url(#linear-gradient-18);}.cls-23{fill:#e7b2b6;}.cls-24{fill:url(#ЃезымЯнный_градиент_5);}.cls-25{fill:url(#ЃезымЯнный_градиент_2);}.cls-26{fill:#555ca5;}.cls-27{fill:#4f54a0;}.cls-28{fill:#58b947;}.cls-29{fill:#428b35;}.cls-30{fill:url(#ЃезымЯнный_градиент_2-2);}.cls-31{fill:#c5592d;}.cls-32{fill:#af7041;}.cls-33{fill:#221e50;}.cls-34{fill:#a05f32;}.cls-35{fill:#2b295e;}.cls-36{fill:#333383;}.cls-37{fill:#eec565;}.cls-38{fill:#d0d6ec;}.cls-39{fill:none;stroke:#f2d370;stroke-linecap:round;stroke-miterlimit:10;stroke-width:2px;}</style><linearGradient id="linear-gradient" x1="11.62" y1="161.89" x2="268.24" y2="161.89" gradientUnits="userSpaceOnUse"><stop offset="0" stop-color="#ffc05c"/><stop offset="1" stop-color="#ff3857"/></linearGradient><linearGradient id="linear-gradient-2" x1="38.71" y1="134.65" x2="51.7" y2="134.65" gradientUnits="userSpaceOnUse"><stop offset="0.01" stop-color="#595959"/><stop offset="1" stop-color="#fff"/></linearGradient><linearGradient id="linear-gradient-3" x1="48.76" y1="134.65" x2="61.75" y2="134.65" xlink:href="#linear-gradient-2"/><linearGradient id="linear-gradient-4" x1="58.51" y1="133.91" x2="65.68" y2="133.91" gradientUnits="userSpaceOnUse"><stop offset="0.01" stop-color="#b3b3b3"/><stop offset="1" stop-color="#fff"/></linearGradient><linearGradient id="linear-gradient-5" x1="48.24" y1="136.84" x2="51.97" y2="136.84" xlink:href="#linear-gradient-4"/><linearGradient id="linear-gradient-6" x1="48.24" y1="136.84" x2="50.96" y2="136.84" xlink:href="#linear-gradient-2"/><linearGradient id="linear-gradient-7" x1="49.81" y1="166.45" x2="49.81" y2="145.56" gradientUnits="userSpaceOnUse"><stop offset="0" stop-color="#40d5e6"/><stop offset="1" stop-color="#57f"/></linearGradient><linearGradient id="linear-gradient-8" x1="33.12" y1="140.52" x2="66.49" y2="140.52" xlink:href="#linear-gradient-7"/><linearGradient id="linear-gradient-9" x1="54.88" y1="149.08" x2="44.4" y2="149.08" xlink:href="#linear-gradient-4"/><linearGradient id="linear-gradient-10" x1="64.53" y1="143.05" x2="69.7" y2="143.05" gradientUnits="userSpaceOnUse"><stop offset="0" stop-color="#1f3073"/><stop offset="1" stop-color="#4e6cde"/></linearGradient><linearGradient id="linear-gradient-11" x1="62" y1="143.69" x2="69.7" y2="143.69" gradientUnits="userSpaceOnUse"><stop offset="0" stop-color="#7c3596"/><stop offset="1" stop-color="#3098ff"/></linearGradient><linearGradient id="linear-gradient-12" x1="61.17" y1="145.61" x2="66.01" y2="140.88" gradientUnits="userSpaceOnUse"><stop offset="0" stop-color="#354996"/><stop offset="1" stop-color="#4e6cde"/></linearGradient><linearGradient id="linear-gradient-13" x1="71.35" y1="143.05" x2="76.53" y2="143.05" xlink:href="#linear-gradient-10"/><linearGradient id="linear-gradient-14" x1="71.35" y1="143.69" x2="79.06" y2="143.69" xlink:href="#linear-gradient-11"/><linearGradient id="linear-gradient-15" x1="70.52" y1="145.5" x2="70.41" y2="144.13" xlink:href="#linear-gradient-12"/><linearGradient id="linear-gradient-16" x1="70.53" y1="158.21" x2="70.53" y2="146.95" xlink:href="#linear-gradient"/><linearGradient id="linear-gradient-17" x1="70.53" y1="152.07" x2="70.53" y2="139.66" xlink:href="#linear-gradient"/><linearGradient id="linear-gradient-18" x1="70.53" y1="161.82" x2="70.53" y2="140.28" xlink:href="#linear-gradient-11"/><linearGradient id="ЃезымЯнный_градиент_5" x1="-1224.02" y1="-919.4" x2="-1223.94" y2="-919.4" gradientTransform="matrix(248.35, 75.99, 75.99, -248.35, 373909.74, -135247.75)" gradientUnits="userSpaceOnUse"><stop offset="0" stop-color="#c5592d"/><stop offset="0.86" stop-color="#a14825"/><stop offset="1" stop-color="#a14825"/></linearGradient><linearGradient id="ЃезымЯнный_градиент_2" x1="-1229.7" y1="-937.95" x2="-1229.62" y2="-937.95" gradientTransform="matrix(5.43, -72.34, -72.34, -5.43, -61092.38, -93963.19)" gradientUnits="userSpaceOnUse"><stop offset="0" stop-color="#e7b2b6"/><stop offset="0.08" stop-color="#e7b2b6"/><stop offset="0.97" stop-color="#ca8d94"/><stop offset="1" stop-color="#c98c93"/></linearGradient><linearGradient id="ЃезымЯнный_градиент_2-2" x1="-1231.1" y1="-920.35" x2="-1231.01" y2="-920.35" gradientTransform="matrix(5.41, -72.07, -72.07, -5.41, -59477.91, -93626.62)" xlink:href="#ЃезымЯнный_градиент_2"/></defs><title>Referrals</title><g class="cls-1"><path class="cls-2" d="M46,83.94l25.61,71.74a9.52,9.52,0,0,0,12.15,5.75l146.52-52.32A9.5,9.5,0,0,0,236,97L210.37,25.23a9.5,9.5,0,0,0-12.15-5.75L51.7,71.8A9.49,9.49,0,0,0,46,83.94Z"/><polygon class="cls-3" points="114.69 144.23 137.02 142.39 140.95 140.99 138.87 115.64 112.52 117.81 114.69 144.23"/><polygon class="cls-3" points="115.18 150.19 130.29 144.79 114.84 146.07 115.18 150.19"/><rect class="cls-3" x="84.96" y="119.04" width="26.44" height="26.51" transform="translate(-10.53 8.51) rotate(-4.71)"/><polygon class="cls-3" points="87.22 160.18 112.98 150.97 112.6 146.25 86.25 148.42 87.22 160.18"/><path class="cls-3" d="M112,115,117.87,97s.94-2.35,7-.57,11.7,5.23,10.69,6.83S111.27,119.86,112,115Z"/><path class="cls-3" d="M111.06,115.07l-8.72-16.75s-1.32-2.17-7,.58-10.68,7.08-9.43,8.5S112.58,119.75,111.06,115.07Z"/><polygon class="cls-3" points="112.74 116.75 125.03 112.79 124.51 114.41 125.6 115.69 112.74 116.75"/><polygon class="cls-3" points="109.87 116.98 97.09 115.09 97.87 116.6 97.01 118.04 109.87 116.98"/><rect class="cls-4" x="72.12" y="104.72" width="8.57" height="8.55" transform="matrix(0.06, -1, 1, 0.06, -37.16, 178.44)"/><rect class="cls-4" x="71.51" y="113.9" width="8.63" height="8.55" transform="translate(-46.85 186.48) rotate(-86.42)"/><rect class="cls-4" x="62.86" y="104.14" width="8.57" height="8.55" transform="translate(-45.25 168.66) rotate(-86.42)"/><rect class="cls-4" x="62.25" y="113.32" width="8.63" height="8.55" transform="translate(-54.96 176.69) rotate(-86.42)"/><path class="cls-4" d="M72.37,103.53l2.72-5.47s.41-.71,2.28.14,3.49,2.22,3.1,2.69S71.91,105.05,72.37,103.53Z"/><path class="cls-4" d="M72.07,103.51l-2-5.77s-.32-.75-2.28-.14S64,99.37,64.37,99.88,72.34,105.08,72.07,103.51Z"/><polygon class="cls-4" points="72.53 104.12 76.65 103.43 76.4 103.92 76.69 104.38 72.53 104.12"/><polygon class="cls-4" points="71.6 104.06 67.6 102.86 67.78 103.38 67.43 103.8 71.6 104.06"/><rect class="cls-4" x="162.34" y="104.61" width="17.01" height="17.05" transform="translate(-33.57 98.97) rotate(-29.55)"/><polygon class="cls-4" points="168.24 125.78 170.82 130.32 187.07 124.52 183.03 117.39 168.24 125.78"/><rect class="cls-4" x="146.29" y="113.71" width="17.01" height="17.05" transform="translate(-40.15 92.21) rotate(-29.54)"/><polygon class="cls-4" points="152.18 134.88 153.17 136.62 169.43 130.82 166.98 126.49 152.18 134.88"/><path class="cls-4" d="M158.18,108.4l-1.42-12.06s-.09-1.63,4-2.24,8.24-.1,8.09,1.11S159.07,111.45,158.18,108.4Z"/><path class="cls-4" d="M157.65,108.71,148,101.29s-1.36-.91-3.95,2.24-4.32,7-3.21,7.5S159.81,111,157.65,108.71Z"/><polygon class="cls-4" points="159.09 109.23 165.19 103.6 165.33 104.68 166.31 105.14 159.09 109.23"/><polygon class="cls-4" points="157.48 110.14 149.51 112.49 150.37 113.16 150.26 114.23 157.48 110.14"/></g><ellipse class="cls-5" cx="139.93" cy="161.89" rx="128.31" ry="6.7"/><path class="cls-6" d="M51,137.38s-3.7-10.16-12.25-7.49c0,0,7.21,1.16,10.91,7.2S51,137.38,51,137.38Z"/><path class="cls-7" d="M49.5,137.38s3.7-10.16,12.25-7.49c0,0-7.21,1.16-10.91,7.2S49.5,137.38,49.5,137.38Z"/><path class="cls-8" d="M58.51,129.46s5.8-.6.22,8.57l3,.35S72.46,129,58.51,129.46Z"/><path class="cls-9" d="M52,137.41l-1,.46-.28.13s-4-1.13-1.75-2.09a2.18,2.18,0,0,1,1.37-.18A2.63,2.63,0,0,1,52,137.41Z"/><path class="cls-10" d="M51,137.87l-.28.13s-4-1.13-1.75-2.09a2.18,2.18,0,0,1,1.37-.18h0S48.55,136.33,51,137.87Z"/><rect class="cls-11" x="34.23" y="136.84" width="31.16" height="24.47"/><rect class="cls-12" x="33.12" y="136.84" width="33.37" height="7.35"/><rect class="cls-13" x="46.45" y="136.84" width="6.7" height="24.47"/><path class="cls-14" d="M69.7,145a20.41,20.41,0,0,1-4.2-2.09,2.51,2.51,0,0,1-.91-1,.66.66,0,0,1,.21-.81s.18-.07.64.12c.68.28,2,1.14,4.18,3.69Z"/><path class="cls-15" d="M69.7,145l-.15.76s-5.41,1.35-7.13-.42a.46.46,0,0,1-.07-.07,1.39,1.39,0,0,1-.3-.54c-.49-1.67,2.75-3.63,2.75-3.63s-.06.22,0,.38a2.33,2.33,0,0,0,.44.52A32.08,32.08,0,0,0,69.7,145Z"/><path class="cls-16" d="M65.28,142a3.18,3.18,0,0,0-1.45,1.18c-.34.72-.53,1.33-1,1.55a1.17,1.17,0,0,0-.49.54,1.39,1.39,0,0,1-.3-.54,1.73,1.73,0,0,1,.38-.89,12.5,12.5,0,0,0,1.48-1.7c.07-.23.64-.53.93-.66a2.33,2.33,0,0,0,.44.52Z"/><path class="cls-17" d="M71.35,145a20.64,20.64,0,0,0,4.21-2.09,2.58,2.58,0,0,0,.91-1,.68.68,0,0,0-.21-.81s-.18-.07-.64.12c-.68.28-2,1.14-4.19,3.69Z"/><path class="cls-18" d="M71.35,145l.16.76s5.41,1.35,7.13-.42l.07-.07a1.39,1.39,0,0,0,.3-.54c.49-1.67-2.75-3.63-2.75-3.63s0,.22,0,.38a2.64,2.64,0,0,1-.44.52A32.6,32.6,0,0,1,71.35,145Z"/><path class="cls-19" d="M69.5,145s.25-.29.43-.17.43-.22.7-.09.3-.23.63,0a1,1,0,0,1,.28,1.18c-.25.33-.38-.06-.5,0s-.35.36-.72.13-.92.21-.89-.07A2.89,2.89,0,0,1,69.5,145Z"/><rect class="cls-20" x="60.61" y="145.74" width="19.83" height="15.58"/><rect class="cls-21" x="59.91" y="145.74" width="21.24" height="5.41"/><rect class="cls-22" x="68.4" y="145.74" width="4.27" height="15.58"/><polygon class="cls-23" points="76.53 152.99 78.18 159.93 80.65 159.91 80.74 152.99 76.53 152.99"/><path class="cls-2" d="M79.43,159.32a2.75,2.75,0,0,0-2.9,2.71h5.71A2.65,2.65,0,0,0,79.43,159.32Z"/><polygon class="cls-23" points="97.94 153.29 101.97 159.93 104.44 159.91 102.45 152.37 97.94 153.29"/><path class="cls-2" d="M103.22,159.32a2.75,2.75,0,0,0-2.9,2.71H106A2.65,2.65,0,0,0,103.22,159.32Z"/><path class="cls-24" d="M81.32,60.3c-4.45,0-5.19,7.33-5.08,9.19.13,2.11-2.07,2.79-5.27,4.45-6.12,3.17-6.65,7.41-6.65,7.41l.15.1c.3-.52.93-1.48,1.45-1.63a21.16,21.16,0,0,0-.84,2.07c1.8,1.37,5.17,4.41,7.52,6.56a3.5,3.5,0,0,1,.16-1.33l.29,1.75c1.26,1.15,2.13,2,2.13,2a2,2,0,0,1,.28-.93l0-.38a47,47,0,0,0-2.16-10.68,14.13,14.13,0,0,1,6.39-2.34,2.88,2.88,0,0,0,2.47,1.31h.1A3.16,3.16,0,0,0,85,76.34c1.13,0,2,.07,2.55.11a14.46,14.46,0,0,0,.84-3.25,14.31,14.31,0,0,1-.59,3.26l.26,0c2.75-3.8.83-14.19-1.31-15.41a4.51,4.51,0,0,0-2.2-.5h-.39a1.2,1.2,0,0,1,.55-.26h-.1a4.56,4.56,0,0,0-1.33.38,5.38,5.38,0,0,0-1.92-.39Z"/><path class="cls-25" d="M85.13,78.36c-.57-.26-.22-5.11-.22-5.11L80.19,73c-.34,1.59-.27,3.64-.86,3.76A4.5,4.5,0,0,0,81.64,79,5.69,5.69,0,0,0,85.13,78.36Z"/><path class="cls-26" d="M80.31,62.9a3.64,3.64,0,0,1,5,.42A19.59,19.59,0,0,0,80.31,62.9Z"/><path class="cls-2" d="M78.81,71.32a19.72,19.72,0,0,1-.94-3.38c-.23-1.28.43-6.06,5.22-5.37a6.59,6.59,0,0,1,2.71,1c1,.7,2.54,2.22.86,6.39l-.44,1.41Z"/><path class="cls-23" d="M85.4,73.84c-1.33,1.1-3,2.57-6.11-.61-.61-.63-.5-1.51-.44-2.78.07-1.5-.22-2.44,0-3.3.27-1,1.19-1.42,3-1.44,3.39,0,5,.85,4.69,2.5C85.8,71.91,86.76,72.73,85.4,73.84Z"/><path class="cls-2" d="M86.75,65.47c-.52-.57-2.46,0-3.21.19h0c-1-1.72-4.06-.4-4.66.56a3.19,3.19,0,0,1-3,1.6s1.7,1.83,3.77,1.3c1.83-.47,3.49-2.81,3.85-3.35.53,0,1.86.23,2.19.79a13.38,13.38,0,0,1,.61,1.85,1.45,1.45,0,0,1,.13.81S87.39,66.18,86.75,65.47Z"/><path class="cls-26" d="M82.47,155.7H75.85c-5.21-23.67-5.63-37.43-5.06-44.81.41-5.34,1.36-7.22,1.36-7.22l10.28-.12s.28,52.15,0,52.15Z"/><path class="cls-26" d="M104.23,155.78H97.36s-8.78-18-14.78-33.84c-2.73-7.22-4.88-14-5.37-18.39H88.83s14,44.42,15.4,52.23Z"/><path class="cls-27" d="M97.36,155.78s-8.78-18-14.78-33.84c-.17-2.2-.46-5.35.92-6.45C83.5,115.49,98.13,142.58,97.36,155.78Z"/><path class="cls-27" d="M80.15,155.7h-4.3c-5.21-23.67-5.63-37.43-5.06-44.81C72.08,117.47,79.47,155,80.15,155.7Z"/><path class="cls-28" d="M91.13,90.47v.68a121.92,121.92,0,0,1-1.23,15.79,52,52,0,0,1-10.64-.69l-.3-.06c-2.09-.52-7-2.1-7-2.1.12-.33.2-.66.32-1,1.57-3.92,2.76-5.63,3-6.84a29.5,29.5,0,0,0,.18-6.76,47,47,0,0,0-2.16-10.68,13.89,13.89,0,0,1,6.33-2.34,3,3,0,0,0,2.63,1.31,2.86,2.86,0,0,0,2.57-1.48,32.39,32.39,0,0,1,4.11.25c1.34,2.7,2,6.64,2.15,10.8,0,1,.07,2,.07,3.08Z"/><path class="cls-23" d="M99.13,85.68s-7.42-8.81-10.22-9l.48,6.73,8.8,7.76L111,82.42l-1.3-1Z"/><path class="cls-28" d="M94,79.64s-2.73,4.46-2.75,5.68L89.17,84l-.26-7.4S90.09,76.69,94,79.64Z"/><path class="cls-29" d="M78.65,84c-.62,0-1.38,2.35-1.44,2.55,0,0-.76,1.23-1.78,3,.07.89.11,1.8.11,2.72a26,26,0,0,1-.29,4c-.19,1.21-1.38,2.92-3,6.84,3-.69,4.27-6.18,4.91-7.09a19.61,19.61,0,0,0,2.12-10.32c-.15-1.3-.4-1.76-.68-1.76Z"/><path class="cls-28" d="M91.06,87.39C90.6,90,86.15,103.27,79,106.19l.3.06a43.64,43.64,0,0,0,8.65.72c1.21,0,2,0,2,0a121.92,121.92,0,0,0,1.23-15.79v-.68h0c0-1,0-2.06-.07-3.08Z"/><path class="cls-23" d="M90.08,105.58a2.66,2.66,0,0,0-3.27-1.07L83.9,101.1C81.27,98,77.79,93.75,77.65,93c-.06-.32.69-15.75.69-15.75a23,23,0,0,0-4.4,1.57s-3.34,3.21-.11,16.84c0,0,4.3,3.86,7.86,6.84h0c1.43,1.19,2.73,2.24,3.6,2.85l.59.47a3.19,3.19,0,0,0,2.48.85c1-.19.79,0,1.54-.16S90.08,105.58,90.08,105.58Z"/><path class="cls-28" d="M72.1,84.38c0,.44,3.74.54,6.06,1.7l1.44-9.57a52.7,52.7,0,0,0-6.33,2.34,11.86,11.86,0,0,0-1.17,5.53Z"/><path class="cls-26" d="M201.12,73.78c-2.79,1.77-5.82,24.39-5.82,24.39-2.49,1.06-7.41,0-12-1.55.39-.75,1.23-2,1.26-2.06-.44.3-1.48,1.15-2.19,1.75-2.61-.9-5-1.88-6.74-2.61a12.66,12.66,0,0,1,2-6A12.82,12.82,0,0,0,174,93l-.81-.36c.06-.56,1.26-8.82,8.82-12.64,5.51-2.79,6.72-9.93,9.19-14.5,3-5.5,7.2-4.9,7.2-4.9C205.38,60.13,206.46,70.41,201.12,73.78Z"/><path class="cls-30" d="M201.22,76.72c-.57-.26-.34-3.94-.34-3.94l-4.72-.23c-.34,1.59-.25,3.31-.85,3.43,0,0,.89,2.17,2.31,2.55S201.24,76.73,201.22,76.72Z"/><path class="cls-23" d="M201.1,72.62c-1.34,1.1-3,2.57-6.11-.61-.61-.63-.5-1.5-.44-2.77.06-1.51-.23-2.45,0-3.3.28-1,1.2-1.42,3-1.45,3.39,0,5,.85,4.68,2.51C201.5,70.69,202.45,71.51,201.1,72.62Z"/><path class="cls-23" d="M202.55,77a20.48,20.48,0,0,1,3.39.91c2,1.14,7.23,11.16,8.41,14.81,0,0,1.9.45-9.53,11.9l-1-1.69a103,103,0,0,1,6-10s-3.38-5.16-4.1-7.74S202.55,77,202.55,77Z"/><path class="cls-23" d="M185.07,67.38c-.18-.12-2.12-17.67-2.12-17.67a2.93,2.93,0,0,0,1.74-3.25s-.22-1-.82-.53-.32.37-1.18,1a3.18,3.18,0,0,0-1.09,2.39s-.07.91-.17,2.31h0c-.33,4.49-1,14-1,15.67,0,2.14,7.66,12.55,7.66,12.55l3.25-4.65S185.25,67.5,185.07,67.38Z"/><path class="cls-26" d="M202.39,63.29c-.85-1-2.81.21-3.62.8-.49-.18-3.68-1.3-5.59-.3-2.08,1.08-1.5,7.25-1.5,7.25,0-.76,2.11-2.92,4-4.33,1.28-.95,2.27-1.81,2.77-2.26a6.47,6.47,0,0,0,2.37,1.81c1.46.58,1.84,5.26,1.84,5.26C203.87,69.85,203.48,64.58,202.39,63.29Z"/><polygon class="cls-23" points="191.42 152.99 193.07 159.93 195.53 159.91 195.63 152.99 191.42 152.99"/><polygon class="cls-23" points="213.06 152.99 216.56 159.93 219.03 159.91 217.89 152.99 213.06 152.99"/><path class="cls-2" d="M194.32,159.32a2.75,2.75,0,0,0-2.9,2.71h5.71A2.65,2.65,0,0,0,194.32,159.32Z"/><path class="cls-2" d="M218.11,159.32a2.75,2.75,0,0,0-2.9,2.71h5.71A2.65,2.65,0,0,0,218.11,159.32Z"/><path class="cls-26" d="M197.35,155.7h-6.62c-5.2-23.67-5.62-37.43-5-44.81.41-5.34,1.34-7.34,1.34-7.34h10.3S197.59,155.7,197.35,155.7Z"/><path class="cls-26" d="M219.12,155.78h-6.88s-8.78-18-14.77-33.84c-2.73-7.22-4.89-14-5.37-18.39h11.62S217.69,148,219.12,155.78Z"/><path class="cls-27" d="M212.24,155.78s-8.78-18-14.77-33.84c-.17-2.2-.46-5.35.92-6.45C198.39,115.49,213,142.58,212.24,155.78Z"/><path class="cls-27" d="M195,155.7h-4.31c-5.2-23.67-5.62-37.43-5-44.81C187,117.47,194.35,155,195,155.7Z"/><path class="cls-2" d="M211,85.31s-3.51,3.23-3.88,3.78a3,3,0,0,0-.48-.33,38.68,38.68,0,0,1-3.06,9.9c-1.42,3.17-.17,5.14-.17,5.14s-6.27.68-8.33.65-8.15-.9-8.15-.9.11-.27.17-.4c.93-2.12,1.6-3.81,2.06-5.21,1.31-4,1-5.65,0-8.66-.61-1.82-.47-5.28-.27-7.67a6,6,0,0,0-1.5-2.06,7.14,7.14,0,0,0,1.3-1.85l.5-.88c.77-1.4,1.49-2.81,1.49-2.81a17.28,17.28,0,0,0,2.67,1.52A2.07,2.07,0,0,1,195,76a.52.52,0,0,0,.34,0,3.38,3.38,0,0,0,3.06,1.78,4.05,4.05,0,0,0,2.75-1.12c.45.11.87.22,1.25.34a16.64,16.64,0,0,1,3.76,1C207.72,78.93,211,85.31,211,85.31Z"/><path class="cls-23" d="M203.86,102.94l-.25.46a3.45,3.45,0,0,0-4.35,0s-.91.78-.09,1.16.56.12,1.69.67a3.26,3.26,0,0,0,3.17,0l.79-.61Z"/><path class="cls-31" d="M188.28,103.16a5.39,5.39,0,0,1-1.14,0c.93-2.12,1.6-3.81,2.06-5.21,1.31-4,1-5.65,0-8.66-.61-1.82-.47-5.28-.27-7.67a6,6,0,0,0-1.5-2.06,7.14,7.14,0,0,0,1.3-1.85s1.41,2.35,1.34,3.15-.57,5.92.85,8S193,102.72,188.28,103.16Z"/><path class="cls-32" d="M120.33,37.9l.14-1.74a1.46,1.46,0,0,0-.2-1.29,5.59,5.59,0,0,1-.88-5.74s.74-1.46,1.5-.51.35.7,1.46,2a5.18,5.18,0,0,1,.79,4.16l-.49,1.91Z"/><path class="cls-32" d="M174.21,46.93l.4-1.62a1.33,1.33,0,0,0,0-1.24,5.35,5.35,0,0,1,.09-5.53s.92-1.26,1.49-.25.22.72,1,2.13a4.91,4.91,0,0,1,.09,4l-.76,1.71Z"/><path class="cls-33" d="M137,157.86c-4.3-.19-4.47,4.19-4.47,4.19h8.81S141.27,157.67,137,157.86Z"/><path class="cls-33" d="M156,157.86c-4.31-.19-4.47,4.19-4.47,4.19h8.8S160.29,157.67,156,157.86Z"/><path class="cls-34" d="M149.84,63.36a.09.09,0,0,1-.09-.1c0-2.47,0-4.71,0-4.71l-7.29-1.19a40.73,40.73,0,0,0-.23,5.93.09.09,0,0,1-.09.09c-.38,0,7.89,0,7.67,0Z"/><path class="cls-35" d="M141.56,55.25s-4.87-7.67,4.48-8.18c0,0,3.51.41,4.3-.38a8.57,8.57,0,0,1,.18,8.56C148,59.68,141.56,55.25,141.56,55.25Z"/><path class="cls-32" d="M149.57,59.26a9.87,9.87,0,0,1-3.39,1.17,26.63,26.63,0,0,1-3.64-1c-.87-.53-.81-1.59-.85-3.07a23.15,23.15,0,0,1,0-4.14c.23-1.2,1-1.89,3.14-2.08,3.94-.34,5.58.65,5.64,2,0,.35,0,.69,0,1C150.64,57.21,150.31,58.67,149.57,59.26Z"/><path class="cls-4" d="M152.42,62.6s7.07-3.28,15.5-6.15l6.61-11.64,2.49.33s-1.36,12.67-3.05,15c-4,5.36-16.6,13.4-16.6,13.4Z"/><path class="cls-36" d="M148.49,97.79l-.26,2.37c-.23,2.11-.57,5.34-.9,8.45-.35,3.37-.68,6.62-.82,8.16,0,.5-.14,1.54-.3,3v0c-1.05,9.79-4.24,37.66-4.24,37.66s-7.91.38-9.58,0c-1.23-.28,1.19-33.3,2.57-50.93.5-6.43.87-10.81.87-10.81l12.66,2.09Z"/><path class="cls-35" d="M157.61,96.7s4.21,62.15,2.53,62.54-9.58,0-9.58,0-4.18-40.34-4.52-44.4-2-17-2-17Z"/><path class="cls-4" d="M157.62,88.71c1.27,10.31.41,11.41.41,11.41H135.31s-.05.08-.12,0-.22-.63-.18-2.41c.06-2,.32-5.48,1-11.75,0-.23,0-.49,0-.76a41.24,41.24,0,0,0-1.68-9c-.45-1.66-.91-3.21-1.28-4.4l-.15-.5c-4-3.4-11.08-15.75-11.08-15.75A47.78,47.78,0,0,1,120,46.68a33.26,33.26,0,0,1,.12-10.2l3.16-1.86c2.46,6.91,4.26,18.52,4.26,18.52,5.42,3.59,12.34,9.35,12.35,9.36H140c.71-.1,1.41-.19,2.25-.26.58.44,1.81.93,4.19.91a6.49,6.49,0,0,0,3.33-.9,37.47,37.47,0,0,1,7.11,1.4l3.61,4.4s-3.24,17.61-2.86,20.67Z"/><path class="cls-37" d="M119.73,40.75s0,.09,0,.14l.31,5.79a47.78,47.78,0,0,0,1.86,8.83s7,12.35,11.08,15.75c.05.15.1.32.15.48v0c.37,1.19.83,2.74,1.28,4.4h0a41.24,41.24,0,0,1,1.68,9h0c0,.27,0,.53,0,.76-.72,6.27-1,9.78-1,11.75l.18,2.41a23.7,23.7,0,0,0,5.08-.51c1.37-.52-2-13.25-2.23-15s-3.42-14.39-3.42-14.39h0a3.72,3.72,0,0,0-.29-1.05c-.67-1.72-9.34-13.15-10.49-14S120,41.81,119.73,40.75Z"/><path class="cls-36" d="M148.49,100.26v8.17a2.43,2.43,0,0,0-1.16.53,1.2,1.2,0,0,0-.36.64c-.19,1-.76,10.81-.76,10.81v0c-1.05,10.08-4.24,38.78-4.24,38.78s-7.91.39-9.58,0C131.16,159,133.58,125,135,106.8l.35-6.58,12.92,0Z"/><path class="cls-33" d="M136.32,104.07a6.06,6.06,0,0,0,5.36-2.92,6.33,6.33,0,0,1-5.49,2.72v.2Z"/><path class="cls-35" d="M132.58,154a164.9,164.9,0,0,0,2.61-16.61c.09-.92.19-1.86.28-2.8s.18-2.1.27-3.13a4.37,4.37,0,0,0-.16-1.16,3.71,3.71,0,0,1-.14-1.05c.28-3.94.34-7.54.4-10.72,0-.83,0-1.65,0-2.45.17-7.22.29-11.32.29-11.36s-.38,4.12-.55,11.36c0,.8,0,1.62,0,2.45-.06,3.17-.12,6.77-.4,10.71a3.76,3.76,0,0,0,.15,1.12,4.31,4.31,0,0,1,.15,1.08l-.27,3.13c-.09.94-.18,1.88-.28,2.8-.64,6-1.39,11.78-2.42,16.64Z"/><path class="cls-37" d="M140,62.49h0c.6,1,2.51,3.9,3.35,3.9a.28.28,0,0,0,.16-.05c.77-.51-2.57-2.87-3.48-3.86Z"/><path class="cls-37" d="M141.78,63.4a29.46,29.46,0,0,0,2.5,2.38h0a15.89,15.89,0,0,0,2.7-1.5,3.33,3.33,0,0,1-.67.06,18.37,18.37,0,0,1-4.57-.94Z"/><path class="cls-38" d="M169,160.67,85.1,130.73a5.43,5.43,0,0,1-3.29-6.95l14.66-41a5.43,5.43,0,0,1,6.94-3.29l83.85,29.94a5.44,5.44,0,0,1,3.3,7L175.9,157.38A5.43,5.43,0,0,1,169,160.67Z"/><path class="cls-2" d="M190.56,116.33,175.9,157.38a5.43,5.43,0,0,1-7,3.29L85.1,130.73a5.43,5.43,0,0,1-3.29-6.95l14.66-41a5.43,5.43,0,0,1,6.94-3.29l83.86,29.94A5.44,5.44,0,0,1,190.56,116.33Z"/><polygon class="cls-3" points="151.22 150.83 138.44 149.78 136.19 148.97 137.38 134.47 152.46 135.71 151.22 150.83"/><polygon class="cls-3" points="150.94 154.24 142.29 151.15 151.13 151.88 150.94 154.24"/><rect class="cls-3" x="153.08" y="136.43" width="15.17" height="15.13" transform="translate(3.97 292.3) rotate(-85.29)"/><polygon class="cls-3" points="166.94 159.95 152.19 154.69 152.42 151.99 167.5 153.23 166.94 159.95"/><path class="cls-3" d="M152.76,134.1l-3.36-10.27s-.54-1.35-4-.34-6.69,3-6.11,3.92S153.18,136.88,152.76,134.1Z"/><path class="cls-3" d="M153.3,134.14l5-9.58s.75-1.24,4,.33,6.11,4,5.39,4.86S152.43,136.82,153.3,134.14Z"/><polygon class="cls-3" points="152.34 135.1 145.3 132.84 145.6 133.76 144.98 134.49 152.34 135.1"/><polygon class="cls-3" points="153.98 135.24 161.29 134.15 160.84 135.02 161.34 135.84 153.98 135.24"/><rect class="cls-4" x="170.68" y="128.21" width="4.89" height="4.91" transform="translate(-7.83 11.08) rotate(-3.58)"/><rect class="cls-4" x="171.01" y="133.45" width="4.89" height="4.94" transform="translate(-8.15 11.1) rotate(-3.58)"/><rect class="cls-4" x="175.98" y="127.88" width="4.89" height="4.91" transform="translate(-7.79 11.4) rotate(-3.58)"/><rect class="cls-4" x="176.31" y="133.12" width="4.89" height="4.94" transform="translate(-8.12 11.43) rotate(-3.58)"/><path class="cls-4" d="M175.44,127.53l-1.56-3.13s-.23-.4-1.3.09-2,1.27-1.78,1.53S175.7,128.41,175.44,127.53Z"/><path class="cls-4" d="M175.61,127.52l1.15-3.3s.18-.43,1.3-.08,2.15,1,2,1.31S175.46,128.42,175.61,127.52Z"/><polygon class="cls-4" points="175.35 127.88 172.99 127.48 173.13 127.76 172.96 128.03 175.35 127.88"/><polygon class="cls-4" points="175.88 127.84 178.17 127.16 178.07 127.45 178.26 127.69 175.88 127.84"/><rect class="cls-4" x="114.2" y="128.17" width="9.76" height="9.73" transform="translate(-55.38 171.02) rotate(-60.45)"/><polygon class="cls-4" points="120.57 140.27 119.1 142.87 109.8 139.55 112.11 135.47 120.57 140.27"/><rect class="cls-4" x="123.39" y="133.38" width="9.76" height="9.73" transform="translate(-55.24 181.67) rotate(-60.46)"/><polygon class="cls-4" points="129.76 145.47 129.2 146.47 119.89 143.15 121.3 140.68 129.76 145.47"/><path class="cls-4" d="M126.33,130.33l.82-6.91s0-.93-2.27-1.28-4.71-.06-4.62.64S125.82,132.07,126.33,130.33Z"/><path class="cls-4" d="M126.63,130.5l5.5-4.25s.78-.52,2.27,1.29,2.47,4,1.83,4.29S125.4,131.83,126.63,130.5Z"/><polygon class="cls-4" points="125.81 130.8 122.32 127.58 122.24 128.2 121.68 128.46 125.81 130.8"/><polygon class="cls-4" points="126.73 131.32 131.29 132.66 130.8 133.05 130.87 133.66 126.73 131.32"/><path class="cls-23" d="M108.19,81.16a2.35,2.35,0,0,1,2-.46c1.08.33,1.67,1.46,1.56,1.74s-1.32.42-1.89,0S109,81.45,108.19,81.16Z"/><line class="cls-39" x1="104.44" y1="89" x2="131.32" y2="99.08"/></svg>