<svg id="Layer_1" data-name="Layer 1" xmlns="http://www.w3.org/2000/svg" viewBox="0 0 158.4 145.44"><defs><style>.cls-1{fill:#ff7a59;}</style></defs><title>Referrals</title><path class="cls-1" d="M34.66,71.77h4.91c.27,0,.5.08.53.77s-.17.88-.52.88l-6.57,0c-1.06,0-2.12,0-3.18,0a1.13,1.13,0,0,1-.26,0c-.25,0-.39-.38-.38-.9s.16-.74.4-.74h5.07Z"/><path class="cls-1" d="M28.49,66.19c1.64,0,3.28,0,4.91,0,.28,0,.5.11.53.79,0,.52-.19.86-.53.86H23.58c-.28,0-.46-.22-.47-.85s.21-.81.47-.81C25.22,66.2,26.86,66.19,28.49,66.19Z"/><path class="cls-1" d="M30.92,80.46H26.05c-.36,0-.55-.29-.53-.85s.25-.8.52-.8h9.82c.26,0,.47.14.47.81s-.16.84-.5.84Z"/><path class="cls-1" d="M26.9,60.19l.69,1.44a1,1,0,0,1-.32.12h-5.7c-.09,0-.21.06-.26,0a2,2,0,0,1-.27-.78,1.75,1.75,0,0,1,.24-.74c.07-.11.19-.09.29-.09h5A1,1,0,0,1,26.9,60.19Z"/><path class="cls-1" d="M81.8,123.08a7.37,7.37,0,0,1-7.36,7.54,7.46,7.46,0,0,1-7.53-7.4,7.45,7.45,0,0,1,14.89-.14Z"/><path class="cls-1" d="M112.07,123.08a7.43,7.43,0,0,1,14.85.13,7.43,7.43,0,1,1-14.85-.13Z"/><path class="cls-1" d="M66.38,113.13c-1.42,0-2.68,0-3.94,0-1.77,0-2.4-.5-2.87-2.22L45,57.38q-3.41-12.45-6.78-24.89a1.24,1.24,0,0,0-1.45-1.09c-3.64.05-7.27,0-10.9,0-1.91,0-3.06-1.49-2.45-3.09a2.19,2.19,0,0,1,2.15-1.52c4.68,0,9.36,0,14,0,1.32,0,2,.68,2.42,2.22,2.42,8.87,4.86,17.73,7.22,26.62.31,1.19.81,1.47,2,1.46,4.71-.07,9.43,0,14.15,0h1.24c-.17.31-.24.5-.36.67a24.28,24.28,0,0,0-4.63,14.72c0,2.55,0,5.09,0,7.64a6.85,6.85,0,0,0,7.1,7.18c2.92,0,5.84,0,8.76,0,10.82,0,21.64-.1,32.46,0,4.65.06,8-3.19,7.79-7.83-.18-3.7,0-7.42-.37-11.1A21.47,21.47,0,0,0,113,57.82c-.13-.17-.23-.36-.43-.67.43,0,.74-.07,1-.07h17.19c2.29,0,3.28,1.42,2.45,3.53Q126.07,79,118.8,97.31c-.59,1.5-1.16,1.85-2.94,1.85H61.15l2.55,9.39h67.42a2.36,2.36,0,0,1,2.52,2.29,2.33,2.33,0,0,1-2.52,2.28c-1.49,0-3,0-4.71,0l-17.65.1H84.06Z"/><path class="cls-1" d="M89.54,82.71H69.21c-2.27,0-3.07-.76-3.06-3,0-3.22-.09-6.45.15-9.65A19.76,19.76,0,0,1,85.39,52.17a85.78,85.78,0,0,1,10.76.26c9.19,1.07,16.71,9.62,16.87,18.87,0,2.92,0,5.84,0,8.76,0,1.81-.87,2.65-2.71,2.65Z"/><path class="cls-1" d="M103.66,34A18.81,18.81,0,0,1,97,47.14c-4.33,3.75-9.58,3.73-14,.1-5.36-4.4-8-12.46-6.14-18.46a13.78,13.78,0,0,1,15.47-9.39C98.86,20.48,103.74,26.37,103.66,34Z"/></svg>