<svg id="Layer_1" data-name="Layer 1" xmlns="http://www.w3.org/2000/svg" xmlns:xlink="http://www.w3.org/1999/xlink" viewBox="0 0 288 187.68"><defs><style>.cls-1,.cls-8{opacity:0.7;}.cls-1{fill:url(#linear-gradient);}.cls-2{fill:url(#linear-gradient-2);}.cls-3{fill:#ff7a59;}.cls-4{fill:url(#linear-gradient-3);}.cls-5{fill:url(#linear-gradient-4);}.cls-6{fill:url(#linear-gradient-5);}.cls-7{fill:#fff;}.cls-9{fill:url(#linear-gradient-6);}.cls-10{fill:#e6505b;}.cls-11{fill:#98ddfd;}.cls-12{fill:#fdbc9b;}.cls-13{fill:#003c8c;}.cls-14{fill:#004ea9;}.cls-15{fill:#54c4f0;}.cls-16,.cls-18{fill:#f09f7f;}.cls-16{opacity:0.62;}.cls-17{fill:#00b2e8;}</style><linearGradient id="linear-gradient" x1="61.76" y1="174.2" x2="221.6" y2="174.2" gradientUnits="userSpaceOnUse"><stop offset="0" stop-color="#ffc05c"/><stop offset="1" stop-color="#ff3857"/></linearGradient><linearGradient id="linear-gradient-2" x1="166.48" y1="129.34" x2="195.05" y2="129.34" xlink:href="#linear-gradient"/><linearGradient id="linear-gradient-3" x1="194.96" y1="138.17" x2="210.78" y2="138.17" xlink:href="#linear-gradient"/><linearGradient id="linear-gradient-4" x1="183.95" y1="106.49" x2="191.59" y2="106.49" xlink:href="#linear-gradient"/><linearGradient id="linear-gradient-5" x1="194.96" y1="122.22" x2="216.14" y2="122.22" xlink:href="#linear-gradient"/><linearGradient id="linear-gradient-6" x1="64.23" y1="93.6" x2="153.7" y2="93.6" xlink:href="#linear-gradient"/></defs><title>Referrals</title><ellipse class="cls-1" cx="141.68" cy="174.2" rx="79.92" ry="5.64"/><rect class="cls-2" x="166.48" y="112.26" width="28.57" height="34.17"/><rect class="cls-3" x="184.98" y="112.26" width="10.07" height="34.17"/><rect class="cls-4" x="194.96" y="129.91" width="15.82" height="16.52"/><rect class="cls-3" x="205.21" y="129.91" width="5.58" height="16.52"/><rect class="cls-3" x="169.91" y="100.73" width="21.68" height="11.52"/><rect class="cls-5" x="183.95" y="100.73" width="7.64" height="11.52"/><rect class="cls-6" x="194.96" y="114.51" width="21.18" height="15.43"/><rect class="cls-3" x="208.67" y="114.51" width="7.46" height="15.43"/><path class="cls-3" d="M156.14,121a.79.79,0,0,1-.76-.52l-2.28-6.69a7.49,7.49,0,0,0-7.39-5h-8a.78.78,0,0,1-.79-1,1.18,1.18,0,0,1,1.13-1h8a9,9,0,0,1,8.91,6.07l2.28,6.69a1.16,1.16,0,0,1-1.1,1.4Z"/><path class="cls-3" d="M228.77,119.34a.78.78,0,0,0-.73-.45h-71.7a1.18,1.18,0,0,0-.89.45,1,1,0,0,0-.22.92l8.2,27.49a.78.78,0,0,0,.77.55h45.56a1.18,1.18,0,0,0,1-.55l17.94-27.49A.94.94,0,0,0,228.77,119.34ZM215.1,137.8H202.91l3.64-8.75H220.8Zm-13.06,0H189.28l1.55-8.76h14.85ZM160,129h14.18l.51,8.77H162.58Zm15.14,0h14.83l-1.55,8.76H175.62Zm-.05-.87-.43-7.35h16.78l-1.31,7.35Zm13.17,10.54-1.37,7.68H176.12l-.45-7.68Zm.89,0h12.54l-3.2,7.68H187.75ZM191,128.16l1.31-7.35h16.81l-3.06,7.35Zm-17.32-7.35.43,7.35H159.71l-2.19-7.35ZM162.85,138.7h11.86l.45,7.68h-10Zm46.65,7.68H199.34l3.2-7.68h12Zm11.89-18.22H206.93l3.06-7.35h16.19Z"/><path class="cls-3" d="M210.56,169.75H173.78a4.63,4.63,0,0,1-4.65-3.42l-5.81-18.93a1.4,1.4,0,0,1,.82-1.4.68.68,0,0,1,1,.49l5.85,19v0a3.09,3.09,0,0,0,3.11,2.28H210.9a.78.78,0,0,1,.79,1A1.2,1.2,0,0,1,210.56,169.75Z"/><path class="cls-3" d="M182.31,172.11a5.13,5.13,0,0,0-10.25,0Z"/><path class="cls-3" d="M180.79,172.13a3.61,3.61,0,1,1-3.61-3.61A3.61,3.61,0,0,1,180.79,172.13Z"/><path class="cls-7" d="M177.18,174a1.92,1.92,0,1,1,1.92-1.91A1.92,1.92,0,0,1,177.18,174Z"/><path class="cls-3" d="M207.78,172.11a5.13,5.13,0,0,0-10.25,0Z"/><path class="cls-3" d="M206.26,172.13a3.61,3.61,0,1,1-3.6-3.61A3.6,3.6,0,0,1,206.26,172.13Z"/><path class="cls-7" d="M202.66,174a1.92,1.92,0,1,1,1.91-1.91A1.91,1.91,0,0,1,202.66,174Z"/><path class="cls-3" d="M149.55,141.09l-27.36-95c-1.27-4.41-5.88-8-10.29-8H66.42c-4.42,0-7,3.58-5.69,8l27.36,95c1.28,4.41,5.88,8,10.29,8h45.49C148.28,149.08,150.82,145.5,149.55,141.09Z"/><g class="cls-8"><path class="cls-9" d="M115.72,38.12H70.24c-4.41,0-7,3.58-5.68,8l27.36,95c1.27,4.41,5.88,8,10.29,8h45.48c4.41,0,7-3.58,5.69-8L126,46.11C124.74,41.7,120.14,38.12,115.72,38.12Z"/></g><path class="cls-7" d="M116.59,41.11h-6.68l-1.09,4.55A3.66,3.66,0,0,1,105,48.43H86.87a7.28,7.28,0,0,1-5.38-2.77l-3.71-4.55H71.1c-2.75,0-4.35,2.24-3.55,5l27.36,95a7.19,7.19,0,0,0,6.44,5h45.48c2.75,0,4.35-2.24,3.55-5L123,46.11A7.17,7.17,0,0,0,116.59,41.11Z"/><path class="cls-7" d="M70.16,42.06h6.67l3.71,4.55a7.28,7.28,0,0,0,5.39,2.77h18.16a3.8,3.8,0,0,0,3.29-1.62,4.17,4.17,0,0,1-2.35.67H86.87a7.28,7.28,0,0,1-5.38-2.77l-3.71-4.55H71.1a3.67,3.67,0,0,0-3.17,1.57A4,4,0,0,1,70.16,42.06Z"/><path class="cls-7" d="M150.38,141.09,123,46.11a7.17,7.17,0,0,0-6.43-5h-6.68l-.22,1h6a7.18,7.18,0,0,1,6.43,5l27.37,95a4.12,4.12,0,0,1-.39,3.44A3.75,3.75,0,0,0,150.38,141.09Z"/><path class="cls-10" d="M122.73,83.5H90.85A5,5,0,0,1,86.34,80L80.47,59.89a2.7,2.7,0,0,1,2.59-3.45h33.26a2.72,2.72,0,0,1,2.6,2L125.22,80A2.54,2.54,0,0,1,122.73,83.5Z"/><path class="cls-7" d="M109.81,73.94H97.1a2,2,0,0,1-1.8-1.4L93.38,66a1.05,1.05,0,0,1,1-1.35H107.7a1.06,1.06,0,0,1,1,.76l2.09,7.17A1,1,0,0,1,109.81,73.94Z"/><path class="cls-7" d="M109.55,63.71H91.79a1.56,1.56,0,0,1-1.4-1.08l-.27-.83a.84.84,0,0,1,.8-1.07h18.19a.83.83,0,0,1,.8.61l.41,1.29A.78.78,0,0,1,109.55,63.71Z"/><path class="cls-3" d="M128.15,102.69H96.27a5,5,0,0,1-4.51-3.5l-1.63-5.93a2.69,2.69,0,0,1,2.59-3.44H126a2.69,2.69,0,0,1,2.59,2l2.07,7.42A2.54,2.54,0,0,1,128.15,102.69Z"/><path class="cls-3" d="M108.91,121.63l-8,.09a5,5,0,0,1-4.51-3.5l-1.64-5.93a2.7,2.7,0,0,1,2.6-3.44l9.33-.1a2.7,2.7,0,0,1,2.59,2l2.07,7.42A2.54,2.54,0,0,1,108.91,121.63Z"/><path class="cls-11" d="M132.26,111.18l-19.4.07a.81.81,0,0,1-.72-.56l-.26-.94a.43.43,0,0,1,.42-.55l19.61-.08a.43.43,0,0,1,.41.32l.33,1.18A.41.41,0,0,1,132.26,111.18Z"/><path class="cls-11" d="M133.61,115.44l-19.4.07a.8.8,0,0,1-.72-.56l-.26-.94a.43.43,0,0,1,.42-.55l19.61-.07a.42.42,0,0,1,.41.31l.33,1.18A.41.41,0,0,1,133.61,115.44Z"/><path class="cls-3" d="M113.38,139.5l-7.95.1a5,5,0,0,1-4.51-3.5l-1.64-5.93a2.7,2.7,0,0,1,2.6-3.45l9.33-.09a2.7,2.7,0,0,1,2.59,2l2.07,7.42A2.54,2.54,0,0,1,113.38,139.5Z"/><path class="cls-11" d="M137.49,129.38l-19.39.07a.81.81,0,0,1-.72-.55l-.26-1a.43.43,0,0,1,.41-.55l19.61-.07a.42.42,0,0,1,.42.31l.33,1.18A.41.41,0,0,1,137.49,129.38Z"/><path class="cls-11" d="M129.8,134.25l-10.73.06a.8.8,0,0,1-.72-.56l-.26-.94a.43.43,0,0,1,.41-.55l10.95-.07a.43.43,0,0,1,.42.32l.33,1.18A.41.41,0,0,1,129.8,134.25Z"/><path class="cls-11" d="M125.77,120.16l-10.56,0a.8.8,0,0,1-.72-.56l-.26-.94a.43.43,0,0,1,.41-.56l10.78,0a.45.45,0,0,1,.42.31l.33,1.18A.41.41,0,0,1,125.77,120.16Z"/><path class="cls-7" d="M118.28,77.9l-25.15-.05a.75.75,0,0,1-.68-.53l-.14-.4a.41.41,0,0,1,.4-.52l25.35,0a.41.41,0,0,1,.39.3l.2.63A.38.38,0,0,1,118.28,77.9Z"/><path class="cls-12" d="M145.67,127.07c.3-.9.86-1.88,1.28-3H136.28a146.17,146.17,0,0,0-2.83,17.07l2.42,30.24,4.28,0c.36-4.19.42-17.66,1.72-29.64C142.56,135.4,144.78,129.73,145.67,127.07Z"/><path class="cls-12" d="M154.14,127.07a26.22,26.22,0,0,0,.53-3H144a140.76,140.76,0,0,0,1.39,17.07l9.71,30.33,4.2-.18c.36-2.92-3.36-18.59-5-30.65C153.41,134.35,153.66,128.9,154.14,127.07Z"/><path class="cls-13" d="M159.37,171.27l.33,2.91a1.47,1.47,0,0,1-1.39,1.55h-10.1a.62.62,0,0,1-.3-1.11c1.34-1,5.76-2.34,7.16-3.29Z"/><path class="cls-12" d="M154.45,97.39c-.5-2.6-.67-5.22.05-7,1.27-3.22,1.28-8.91.63-12.91,2,2.59,4.12,5.93,4.53,8.61C160.14,89.21,157,94.08,154.45,97.39Z"/><path class="cls-14" d="M157.12,134.47a55.78,55.78,0,0,1-12.59,1.45,55.15,55.15,0,0,1-10.94-1.09l-1.77-.36s.74-22.74,2.87-26.16c0,0,15.63,1,21.71-1.84a27,27,0,0,1-.64,10.23C153.91,123.74,157.49,129.78,157.12,134.47Z"/><path class="cls-15" d="M140.52,72.73a55.4,55.4,0,0,0-4.17,6.33c-.92,1.89-3.7,6.11.65,11.29s-2.31,15.37-2.31,18c0,0,16.94,1.11,22.4-2.22,0,0-4.53-10.83-2.59-15.74s.92-15.55-.83-17.22S140.52,72.73,140.52,72.73Z"/><path class="cls-12" d="M136.85,60.52s-3.24,9,3.71,9v3.27h6.18V61.2s-5-2-5.1-2S136.85,60.52,136.85,60.52Z"/><path class="cls-16" d="M140.63,72.6h1.14a7.23,7.23,0,0,1,.16-2.4c.37-.58,1.08-1.48,1.08-1.48a17.56,17.56,0,0,1-2.38.56Z"/><path class="cls-13" d="M135,135.09c-.74-6.1,1.61-18.88,3.4-27.56l-3.7.78c-2.13,3.42-2.87,26.17-2.87,26.17l1.77.35Z"/><path class="cls-17" d="M143.54,83.38a7.5,7.5,0,0,0,1-6.45l-8,1.72-.21.41c-.92,1.89-3.7,6.11.65,11.29s-2.31,15.37-2.31,18c0,0,1.39.09,3.51.14,1-4.82,1.84-8.56,2-9.54A15.35,15.35,0,0,0,138.82,90C137.53,87.63,141.35,86.31,143.54,83.38Z"/><path class="cls-12" d="M110,73.16l17.66,17a2.59,2.59,0,0,0,3.37.36c4.87-3.36,17.61-12.47,11.87-15.82-3.5-2-14.86,8.91-14.86,8.91L112.59,71.82s-.57-1.95-1.13-2.24-5.71-.65-5.32-.23a12.71,12.71,0,0,0,3.06,1.06S108.86,72.77,110,73.16Z"/><path class="cls-16" d="M143.41,75.06a3,3,0,0,0-.52-.36c-3.5-2-14.86,8.91-14.86,8.91L112.59,71.82S127.08,85,128.17,85,137.91,75.41,143.41,75.06Z"/><path class="cls-13" d="M142.46,62.79a1.55,1.55,0,0,1,2.23.44c.51.83-.66,1.83-1.18,3s-.63,2.88,1.68,3.66-3.58,6-1,10.13c3,4.78,8.38,4.88,11.17.68s.3-6.87-1.11-9-.4-2.14-.21-3.77-1.58-3.81-2.43-4.33.78-5.76-2.35-7.5-9.48-3.73-12.68,4.56A10.61,10.61,0,0,0,142.46,62.79Z"/><path class="cls-13" d="M140.27,171.27l.34,2.91a1.48,1.48,0,0,1-1.4,1.55h-10.1a.61.61,0,0,1-.29-1.11c1.33-1,5.75-2.34,7.15-3.29Z"/><path class="cls-16" d="M156.55,171.39l-1.45.06-9.71-30.33s-.32-2-.65-5.2c1,0,1.93,0,2.9-.09a39.33,39.33,0,0,0,.62,7.44C149,147.06,155.1,166.73,156.55,171.39Z"/><path class="cls-16" d="M153.85,136.2a39,39,0,0,1-8.93,1c-.06-.56-.1-.58-.18-1.25a54.78,54.78,0,0,0,9-.78C153.8,135.68,153.81,135.63,153.85,136.2Z"/><path class="cls-18" d="M135.63,136.25a14.45,14.45,0,0,0-.95,5.25c.08,2.26,1.92,23.28,2.5,29.87h-1.31l-2.42-30.24s.23-2.46.78-6.17a54.09,54.09,0,0,0,8.7.94c-.09.33-.16.66-.24,1A61.29,61.29,0,0,1,135.63,136.25Z"/><path class="cls-7" d="M115.12,81.1l-17.89,0a.76.76,0,0,1-.68-.53l-.13-.4a.4.4,0,0,1,.39-.52l18.09,0a.41.41,0,0,1,.4.29l.2.63A.39.39,0,0,1,115.12,81.1Z"/><path class="cls-7" d="M102.33,92.29l-.17-.61h1.06l.17.61a2.52,2.52,0,0,1,1.94,2l.07.26h-1.23l-.09-.34c-.16-.59-.46-.81-.87-.81s-.59.22-.43.81c.46,1.7,3,1.78,3.66,4.14.3,1.12,0,1.83-.86,2l.17.6h-1.06l-.17-.6a2.54,2.54,0,0,1-2-2l-.15-.57h1.22l.18.65c.16.59.48.8.89.8s.61-.21.45-.8c-.46-1.7-3-1.78-3.65-4.14C101.21,93.2,101.48,92.49,102.33,92.29Z"/><path class="cls-7" d="M109.35,92.29l-.17-.61h1.06l.17.61a2.52,2.52,0,0,1,1.94,2l.07.26h-1.23l-.09-.34c-.16-.59-.46-.81-.87-.81s-.59.22-.43.81c.46,1.7,3,1.78,3.66,4.14.3,1.12,0,1.83-.86,2l.17.6h-1.06l-.17-.6a2.54,2.54,0,0,1-2-2l-.15-.57h1.22l.18.65c.16.59.48.8.89.8s.61-.21.45-.8c-.46-1.7-3-1.78-3.65-4.14C108.23,93.2,108.5,92.49,109.35,92.29Z"/><path class="cls-7" d="M116.37,92.29l-.17-.61h1.06l.17.61a2.52,2.52,0,0,1,1.94,2l.07.26h-1.23l-.09-.34c-.16-.59-.46-.81-.87-.81s-.59.22-.43.81c.46,1.7,3,1.78,3.66,4.14.3,1.12,0,1.83-.86,2l.17.6h-1.06l-.17-.6a2.54,2.54,0,0,1-2-2l-.15-.57h1.22l.18.65c.16.59.48.8.89.8s.61-.21.45-.8c-.46-1.7-3-1.78-3.65-4.14C115.25,93.2,115.52,92.49,116.37,92.29Z"/><polygon class="cls-3" points="156.62 120.08 227.54 119.9 209.54 147.44 164.54 147.62 156.62 120.08"/><path class="cls-7" d="M195.51,141.32l-.11,0H188a.53.53,0,0,1-.56-.47c-.08-.48-.2-1-.29-1.43l-.57-2.86c-.15-.75-.31-1.5-.46-2.26s-.35-1.73-.52-2.59v0h-2.24a.48.48,0,0,1-.44-.74.44.44,0,0,1,.4-.23h2.62a.51.51,0,0,1,.53.44c.08.45.18.9.27,1.35,0,.06,0,.08.1.08H198a.49.49,0,0,1,.5.62c-.19.82-.36,1.64-.54,2.45l-.48,2.21c-.09.42-.18.85-.28,1.28a.48.48,0,0,1-.53.43h-8.47c0,.17.07.33.1.49a2.27,2.27,0,0,0,.06.25s0,.05.07.06h7.86a.94.94,0,0,1,.16,0l-.18.19c-.12.12-.24.24-.35.37Zm-1.78-7.78h-3l.13,2.05h2.64c.07,0,.09,0,.09-.09l.09-1.36Q193.72,133.85,193.73,133.54Zm-3.82,2.05c0-.23,0-.46,0-.68,0-.41-.05-.83-.07-1.25,0-.12,0-.12-.13-.12H187a.18.18,0,0,1,0,.06c.13.63.26,1.26.38,1.89,0,.08,0,.1.13.1h2.44Zm7.49-2.05h-2.61c-.09,0-.1.05-.11.12,0,.52-.06,1-.1,1.55,0,.13,0,.25,0,.39H197Zm-6.34,5.06h2.36l.13-2h-2.61Zm-3.49-2s0,0,0,.06c.13.63.25,1.26.38,1.89,0,.07,0,.1.12.1h2l-.12-2Zm6.94,0-.13,2h1.84c.08,0,.09,0,.1-.09l.33-1.52c0-.15.06-.29.1-.44Z"/><path class="cls-7" d="M196.4,143.1a1.18,1.18,0,1,1-1.17-1.18A1.18,1.18,0,0,1,196.4,143.1Z"/><path class="cls-7" d="M190.43,143.1a1.16,1.16,0,0,1-1.18,1.17,1.18,1.18,0,1,1,1.18-1.17Z"/><path class="cls-7" d="M195.88,141c.11-.13.23-.25.35-.37l.18-.19a.66.66,0,0,1,.15.05.48.48,0,0,1,.17.55.5.5,0,0,1-.46.32l-.05,0Z"/><path class="cls-7" d="M195.88,141l.34.34,0,0h-.67Z"/><path class="cls-7" d="M193.73,133.54q0,.32,0,.6l-.09,1.36c0,.07,0,.09-.09.09h-2.64l-.13-2.05Z"/><path class="cls-7" d="M189.91,135.59h-2.44c-.08,0-.12,0-.13-.1-.12-.63-.25-1.26-.38-1.89a.18.18,0,0,0,0-.06h2.72c.12,0,.12,0,.13.12,0,.42,0,.84.07,1.25C189.89,135.13,189.9,135.36,189.91,135.59Z"/><path class="cls-7" d="M197.4,133.54l-.44,2.05h-2.39c0-.14,0-.26,0-.39,0-.52.07-1,.1-1.55,0-.07,0-.12.11-.12h2.61Z"/><path class="cls-7" d="M191.06,138.6l-.12-2h2.61l-.13,2Z"/><path class="cls-7" d="M187.57,136.55H190l.12,2h-2c-.08,0-.11,0-.12-.1-.13-.63-.25-1.26-.38-1.89C187.56,136.6,187.57,136.58,187.57,136.55Z"/><path class="cls-7" d="M194.51,136.55h2.24c0,.15-.07.29-.1.44l-.33,1.52c0,.05,0,.09-.1.09h-1.84Z"/><path class="cls-7" d="M199.48,125.8l-1,.77c-.16.11-.15.11-.29,0l-.94-1s-.07-.08-.12,0,0-.08,0-.11l-.52-.43a11.34,11.34,0,0,0-3-1.71l-.63-.24v0l-.22-.06-.12,0c-.47-.12-.95-.24-1.44-.33s-.88-.11-1.32-.14a8.45,8.45,0,0,0-1.59,0c-.49.06-1,.13-1.46.21-.2,0-.39.09-.6.14h0a6.94,6.94,0,0,0-1.31.43h0l-.21.09-.07,0-.15.08v0l-.11,0c-.38.2-.76.39-1.14.6a11.11,11.11,0,0,0-2.28,1.76s0,0,0,.08-.06,0-.08,0-.25.25-.36.38c-.31.37-.62.74-.9,1.13a10.34,10.34,0,0,0-.92,1.53c-.08.16-.15.32-.23.47h0v0l0,.08a.1.1,0,0,0,0,0c-.05.1-.09.22-.14.33h0c-.09.2-.18.43-.26.65h0a2.73,2.73,0,0,0-.17.61s0,0,0,.07c-.06.28-.14.55-.19.84s-.13.86-.17,1.29a5.66,5.66,0,0,0,0,.92,11.41,11.41,0,0,0,.15,1.31c.09.54.23,1.08.34,1.62a.09.09,0,0,0,0,.06l0,.1h0l0,.16h0c.07.23.15.52.21.7l0,0a12.27,12.27,0,0,0,.72,1.56,9.7,9.7,0,0,0,.94,1.42l.6.7s.06.07.11,0,0,.08,0,.12a11,11,0,0,0,1.92,1.54,12,12,0,0,0,2.35,1.11l.12,0c0-.1,0-.09,0-.12l-.64-.3a9.09,9.09,0,0,1-1.75-1.11,9.65,9.65,0,0,1-1.57-1.56l-.07,0,0-.1a10.3,10.3,0,0,1-1.05-1.63,10.15,10.15,0,0,1-.75-1.84c-.1-.31-.17-.62-.25-.93h0v0h0l0,0,0-.18h0l-.05-.35h0v-.06c0-.34-.09-.68-.09-1s0-.9,0-1.35a9.06,9.06,0,0,1,.35-1.95,10,10,0,0,1,.91-2.19,9.85,9.85,0,0,1,1.31-1.83c.29-.3.6-.58.9-.87,0,0,.08,0,0-.1h.08l.11-.08a9,9,0,0,1,2-1.22,8.58,8.58,0,0,1,2.58-.79c.43-.06.86-.1,1.3-.13a8.55,8.55,0,0,1,1.6.11,9.19,9.19,0,0,1,1.72.42,8.44,8.44,0,0,1,1.42.61,10.11,10.11,0,0,1,1.28.8l.71.58s.07.08.13,0,0,.09,0,.13l.58.58c.07.07.13.15.2.23l-.62.48-.62.48,1.33.17,1.52.21,1.39.18c.08,0,.12,0,.13-.11,0-.26.06-.52.1-.78.06-.5.14-1,.2-1.51l.21-1.55c0-.12,0-.24,0-.38Z"/></svg>